<svg width="2174" height="1059" viewBox="0 0 2174 1059" fill="none" xmlns="http://www.w3.org/2000/svg">
<g opacity="0.9" clip-path="url(#clip0_409_15730)">
<path d="M355.751 114.305C357.266 114.309 358.808 114.335 359.793 114.349C360.996 114.367 361.459 114.367 361.636 114.364L363.524 114.343C386.805 114.21 410.637 118.73 432.787 128.275C439.065 126.829 445.743 126.887 452.273 128.668C483.849 137.278 516.977 154.438 543.441 179.122C570.038 203.93 591.829 238.319 594.999 280.724C595.066 281.618 595.119 282.514 595.162 283.407C609.754 293.066 622.015 305.132 631.141 320.631C644.619 343.522 648.453 369.254 648.97 394.966C649.153 404.112 646.23 412.686 641.106 419.592C640.189 451.65 635.173 483.028 631.271 509.113C642.271 518.173 648.237 529.722 651.477 539.146C658.472 559.498 656.981 582.057 655.276 595.132C652.628 615.437 647.631 634.874 643.409 651.567C638.991 669.036 635.321 683.861 633.475 698.701L633.476 698.702C631.026 718.397 619.955 735.002 606.172 745.597C601.717 749.022 596.575 752.105 590.906 754.521C583.843 776.581 573.954 797.172 556.21 819.133L556.208 819.134C545.061 832.929 532.865 848.133 517.482 862.696L517.481 862.697C476.611 901.388 423.909 943.7 347.095 930.046C310.156 924.385 276.877 902.34 251.123 880.046C224.396 856.909 201.245 829.525 184.667 806.808L184.665 806.806C174.227 792.499 165.264 773.18 159.089 754.684C146.257 749.424 136.164 740.453 128.702 728.92C119.764 715.105 116.688 699.819 115.082 690.414C112.866 677.444 112.939 674.177 111.452 668.087C106.153 646.38 95.8072 614.875 94.1921 582.554L94.1228 581.015C93.6248 568.948 93.7838 547.908 103.021 529.471C106.589 522.35 111.89 514.876 119.487 508.699C119.335 507.788 119.189 506.895 119.051 506.026C119.038 505.941 119.024 505.856 119.011 505.771C115.213 480.717 112.298 455.526 110.272 430.25L109.748 424.277C108.381 408.646 107.118 392.602 108.13 375.446C103.829 369.123 101.33 361.559 101.21 353.555C101.182 351.707 101.205 349.859 101.279 348.014L101.282 347.932C101.66 338.92 103.534 329.014 104.851 322.998C108.218 307.616 113.214 294.157 119.6 282.019C117.764 272.485 119.404 262.352 124.716 253.633C139.157 229.93 154.306 210.986 174.191 195.86C178.623 192.489 183.166 189.402 187.83 186.55C191.123 177.848 197.437 170.295 206.123 165.569C207.353 164.9 208.622 164.047 212.462 161.447C215.766 159.21 220.84 155.789 226.99 152.619C247.094 142.103 268.614 135.181 290.652 131.996C295.581 126.932 301.877 123.141 309.065 121.237C322.752 117.612 331.853 116.319 343.891 115.006C346.438 114.636 348.668 114.488 350.173 114.416C352.253 114.315 354.222 114.301 355.751 114.305Z" fill="#2A2A2A"/>
<path d="M349.56 160.768C352.854 160.158 359.032 160.517 362.511 160.46C393.373 159.949 424.785 170.166 448.345 191.389C451.497 194.226 454.56 197.261 457.853 199.929L458.333 200.312C452.786 188.549 449.709 182.826 440.653 173.146C491.527 187.019 547.76 228.922 552.144 287.687C552.69 294.952 551.918 302.914 551.161 310.174C591.732 328.015 604.223 353.159 605.121 397.886C602.571 390.37 601.955 388.944 596.018 383.909C600.657 423.11 593.779 465.746 587.983 504.579C586.468 514.762 583.692 525.497 582.098 535.877C613.406 529.922 614.586 566.321 611.646 588.873C607.144 623.394 594.503 656.173 590.175 690.965C588.27 706.283 571.988 720.14 556.138 715.788C549.166 745.008 541.639 766.005 522.624 789.54C511.422 803.403 501.011 816.306 488.088 828.541C448.688 865.84 409.561 894.602 353.998 884.536C302.815 876.997 249.773 820.314 219.591 778.953C208.142 763.261 197.755 736.191 194.253 716.703C182.151 717.003 173.003 715.301 165.8 704.168C157.466 691.289 157.669 671.314 154.023 656.38C147.636 630.214 139.187 605.568 138.068 578.453C137.174 556.796 141.059 530.439 168.723 535.872C166.634 524.09 163.991 511.9 162.136 500.175C158.524 476.356 155.755 452.406 153.836 428.373C151.054 396.546 148.761 372.061 159.639 341.354C152.04 346.859 151.205 348.395 145.068 355.778C145.051 354.681 145.065 353.584 145.109 352.488C145.336 347.085 146.591 339.996 147.744 334.729C153.764 307.219 166.397 288.187 185.797 269.368C175.313 272.056 172.147 273.815 162.447 278.564C187.789 236.966 209.915 221.485 255.052 206.774C245.622 204.837 237.217 204.474 227.716 206.041C234.253 202.485 239.907 197.61 247.46 193.717C279.471 176.913 315.928 171.745 351.063 179.032C338.801 171.17 334.197 169.975 320.23 165.913C331.394 162.956 338.305 161.983 349.56 160.768Z" fill="#121212"/>
<path d="M291.421 829.785C288.043 827.287 284.75 824.661 281.549 821.917C269.518 811.541 260.209 801.323 249.724 789.737C216.47 753.003 209.086 720.661 201.186 672.391C197.063 646.009 193.694 619.509 191.084 592.92C190.593 587.447 190.355 581.979 190.225 576.412C189.545 547.335 189.655 517.712 192.575 488.779C192.988 484.689 195.298 478.845 196.908 475.159C199.498 469.294 202.427 463.6 205.679 458.108C208.78 452.972 217.782 440.769 218.433 435.885C221.806 410.576 217.527 388.327 234.438 366.854C250.973 345.856 271.997 342.868 296.207 339.131C304.471 337.856 313.382 334.112 321.931 336.304C338.557 340.154 356.623 352.87 373.929 352.012C387.337 351.348 401.37 343.994 414.627 340.532C428.886 336.808 442.384 335.933 456.939 334.506C450.536 336.703 444.788 339.356 438.178 341.356C449.864 341.862 469.35 343.594 480.678 345.971C499.966 350.181 515.693 364.718 522.054 384.21C527.337 400.834 526.283 420.972 529.656 437.938C530.512 442.227 538.797 452.168 541.37 456.542C548.046 467.89 555.093 479.473 556.048 493.183C557.158 504.604 558.099 516.03 558.339 527.518C558.748 547.315 559.807 567.58 558.993 587.363C558.405 601.486 556.152 616.853 554.392 630.917C551.706 653.995 548.239 676.97 544 699.792C535.555 744.024 520.797 768.587 490.623 800.555C479.351 812.5 469.801 822.286 456.205 831.776C460.802 816.822 462.843 801.991 459.621 786.427C456.243 796.38 453.03 806.697 445.945 815.131C441.777 820.097 431.022 832.691 423.199 832.017C422.046 831.919 420.522 828.221 419.943 826.947L417.572 821.11C416.241 828.423 415.639 830.001 412.741 836.532C409.175 829.559 406.14 825.133 400.279 820.034C402.062 828.58 402.123 832.848 399.771 841.321C395.118 830.331 393.18 825.861 385.502 816.409C386.292 822.591 386.156 827.302 384.923 833.478C379.09 825.777 377.98 823.22 374.127 814.31C371.158 821.455 368.801 827.203 363.638 833.07C362.208 827.198 362.061 822.502 362.89 816.439C356.679 824.204 351.718 830.926 349.604 840.933C345.82 833.414 346.416 828.536 347.752 820.388C341.394 826.574 339.595 828.905 335.665 837.033C333.311 831.786 331.928 827.985 330.545 822.34C329.804 824.272 329.298 825.669 328.347 827.483C327.587 829.455 326.491 831.201 325.446 833.03C311.948 829.391 300.15 815.141 294.121 802.522C291.607 797.266 289.878 791.517 287.423 786.152C285.999 803.712 286.795 812.938 291.421 829.785Z" fill="#FAFAFA"/>
<path d="M222.916 486.372C221.442 480.946 236.542 462.623 240.434 458.839C248.908 450.603 252.509 448.647 252.177 436.347C251.037 394.11 248.391 357.963 296.455 348.493C329.591 341.964 339.445 362.752 371.235 361.336C397.105 359.096 417.052 343.156 444.013 348.614C488.941 357.186 494.61 397.089 490.324 437.814C488.795 452.333 502.41 455.647 510.214 465.448C512.778 468.665 521.289 479.324 520.489 483.488C515.902 480.194 499.888 468.701 494.535 468.996C489.487 469.275 478.205 472.374 472.706 473.632C459.914 476.556 444.771 477.157 432.534 481.397C430.775 481.534 423.54 481.762 422.561 482.801L420.42 483.613C409.28 484.768 397.373 495.501 385.993 498.189C369.302 502.133 354.171 497.329 339.091 489.837C336.182 488.399 330.245 485.167 327.163 484.801L323.989 483.437C324.261 483.532 315.37 482.112 314.917 482.032C303.755 477.186 285.704 477.015 273.478 473.805C268.455 472.486 256.133 469.942 251.401 469.466C245.129 468.835 228.211 482.323 222.916 486.372Z" fill="#FAFAFA"/>
<path d="M255.447 518.195C256.025 518.086 260.238 516.714 261.083 516.474C266.474 514.91 269.854 514.364 275.361 514.015C281.312 514.379 288.684 518.893 292.988 523.137C292.979 524.091 293.092 523.732 292.869 524.253C302.419 527.995 322.965 537.422 329.398 547.473C329.772 548.054 329.575 549.952 329.497 550.758C332.071 551.368 332.149 548.708 334.955 548.649C341.518 553.153 324.203 574.195 320.788 578.616C315.974 584.792 310.819 590.673 305.351 596.225C310.003 594.022 321.058 588.18 325.857 588.667C330.485 592.758 322.307 617.523 321.814 624.417C315.426 636.194 311.144 647.691 317.764 660.659C318.277 665.36 320.689 668.915 323.886 672.107C328.84 677.049 341.474 677.373 344.583 679.094C349.67 678.121 352.522 676.896 356.818 680.393C356.584 687.061 355.526 691.747 353.371 698.076C349.321 700.603 344.317 701.931 339.947 703.928C333.481 706.888 327.307 710.33 321.196 714.008C294.132 726.73 294.794 726.415 282.137 753.22C279.863 746.036 279.799 742.19 278.308 735.576C277.563 738.645 277.634 742.126 276.46 745.229C275.782 747.024 275.102 749.001 273.233 749.793C272.373 750.157 271.338 750.004 270.599 749.616C254.171 740.986 254.293 703.106 247.702 687.857C243.243 678.77 238.002 671.271 232.446 662.763C215.41 636.671 201.293 602.416 212.349 570.935C214.168 565.752 218.009 563.657 222.629 561.931C225.219 563.524 228.003 566.307 230.115 568.618C241.023 580.558 267.439 586.744 281.651 579.004C289.703 577.716 296.271 574.672 303.64 571.338C308.291 571.318 327.507 562.147 325.847 556.285C320.852 553.61 291.631 559.905 283.879 560.775C277.616 561.439 271.321 561.709 265.028 561.572C251.585 563.421 243.065 557.293 233.185 549.012L223.119 548.363C238.473 538.356 239.163 532.288 259.917 524.725C257.863 523.432 257.115 523.692 255.238 521.996C254.697 519.94 254.88 520.535 255.447 518.195Z" fill="#FAFAFA"/>
<path d="M255.447 518.195C256.025 518.086 260.238 516.714 261.083 516.474C266.474 514.91 269.854 514.364 275.361 514.015C281.312 514.379 288.684 518.893 292.988 523.137C292.979 524.091 293.092 523.732 292.869 524.253C302.419 527.995 322.965 537.422 329.398 547.473C329.772 548.054 329.575 549.952 329.497 550.758C320.786 549.991 301.228 552.863 292.713 554.427C303.251 549.799 308.072 546.436 319.56 545.629C313.203 541.789 303.739 535.824 297.123 533.232C296.766 536.911 296.668 539.561 295.237 542.984C291.813 551.181 283.733 555.066 275.412 553.92C270.582 553.3 266.203 550.65 263.291 546.573C260.242 542.241 259.754 538.504 259.348 533.35C254.537 536.104 248.696 539.359 244.811 543.347C254.55 554.368 268.168 555.617 281.828 556.236C267.057 558.68 258.18 557.859 244.292 552.233C251.885 557.997 255.801 559.246 265.028 561.572C251.585 563.421 243.065 557.293 233.185 549.012L223.119 548.363C238.473 538.356 239.163 532.288 259.917 524.725C257.863 523.432 257.115 523.692 255.238 521.996C254.697 519.94 254.88 520.535 255.447 518.195Z" fill="#121212"/>
<path d="M255.447 518.195C256.025 518.086 260.238 516.714 261.083 516.474C266.474 514.91 269.854 514.364 275.361 514.015C281.312 514.379 288.684 518.893 292.988 523.137C292.979 524.091 293.092 523.732 292.869 524.253C280.426 521.652 272.494 520.816 259.917 524.725C257.863 523.432 257.115 523.692 255.238 521.996C254.697 519.94 254.88 520.535 255.447 518.195Z" fill="#FAFAFA"/>
<path d="M283.614 529.45C285.635 528.934 287.699 530.128 288.342 532.199C288.986 534.269 287.993 536.506 286.065 537.328C284.687 537.918 283.109 537.652 281.979 536.639C280.848 535.626 280.354 534.038 280.698 532.523C281.043 531.009 282.168 529.824 283.614 529.45Z" fill="#FAFAFA"/>
<path d="M344.583 679.094C349.67 678.121 352.522 676.896 356.818 680.393C356.584 687.061 355.526 691.747 353.371 698.076C349.321 700.603 344.317 701.931 339.947 703.928C333.481 706.888 327.307 710.33 321.196 714.008C294.132 726.73 294.794 726.415 282.137 753.22C279.863 746.036 279.799 742.19 278.308 735.576C279.725 705.506 297.484 705.171 319.105 693.276C328.051 688.353 334.601 682.64 344.583 679.094Z" fill="#121212"/>
<path d="M419.878 563.158C425.363 564.451 438.122 571.257 443.96 573.947C463.681 583.148 488.615 586.29 507.72 573.785C512.998 570.328 516.992 564.697 522.035 561.26C526.039 560.444 530.992 564.968 532.376 567.702C539.795 582.361 538.275 600.521 535.462 616.001C529.915 646.509 507.588 666.912 497.389 694.16C491.273 710.5 493.216 735.948 478.472 748.862C475.48 751.674 471.763 744.849 471.411 742.257C471.058 739.641 470.427 736.504 469.778 733.863C468.334 742.931 468.503 744.372 465.431 753.804C457.038 727.441 449.088 725.804 427.508 714.503C421.68 710.904 414.712 706.842 408.521 703.995C404.029 701.924 399.174 700.193 394.535 698.108C392.879 693.147 391.562 685.672 390.522 680.322C394.455 677.957 395.057 678.252 399.555 678.375C401.864 677.366 404.146 677.475 406.588 677.022C414.298 675.596 423.731 674.082 426.365 665.112C429.094 661.06 430.792 660.003 432.42 654.618C435.544 644.306 431.625 635.234 427.245 626.279C425.622 617.988 416.5 594.423 418.636 587.529C419.313 586.86 419.925 586.064 421.082 586.457C429.099 589.196 436.202 594.202 444.449 596.813C434.499 584.215 428.369 577.32 419.878 563.158Z" fill="#FAFAFA"/>
<path d="M390.522 680.324C394.455 677.958 395.057 678.253 399.555 678.376C413.113 681.297 418.791 688.31 430.298 694.166C450.076 704.237 467.849 706.76 469.778 733.865C468.334 742.933 468.503 744.374 465.431 753.806C457.038 727.443 449.088 725.805 427.508 714.505C421.68 710.905 414.712 706.844 408.521 703.996C404.029 701.926 399.174 700.195 394.535 698.11C392.879 693.149 391.562 685.674 390.522 680.324Z" fill="#121212"/>
<path d="M432.534 481.397C444.771 477.157 459.914 476.556 472.706 473.632C478.205 472.374 489.487 469.275 494.535 468.996C499.888 468.701 515.902 480.194 520.489 483.488C530.928 492.827 533.04 500.468 536.055 514.25C522.93 504.161 508.628 491.799 491.114 495.114C483.304 496.593 460.967 503.856 453.793 507.269C473.241 507.041 496.044 508.055 511.536 522.777C516.141 527.153 518.818 533.271 521.495 539.053C519.143 537.514 514.462 534.701 512.552 533.049C504.46 526.052 502.875 522.57 492.713 518.489C482.914 514.884 475.067 513.335 464.679 514.087C439.976 513.463 418.806 540.652 412.756 540.622C412.686 539.073 412.836 539.23 412.3 537.858C400.186 542.225 406.269 559.466 408.132 568.848C393.186 549.321 389.154 528.914 407.393 510.234C401.969 502.525 402.933 498.096 405.822 489.583C406.302 493.573 407.459 497.897 408.404 501.833C411.378 493.735 414.182 489.164 420.42 483.613L422.561 482.801C423.54 481.762 430.775 481.534 432.534 481.397Z" fill="#121212"/>
<path d="M422.56 482.802C423.538 481.763 430.774 481.535 432.533 481.398C425.952 486.439 420.843 492.964 414.807 498.707C416.265 494.771 422.367 484.393 422.56 482.802Z" fill="#FAFAFA"/>
<path d="M222.915 486.372C228.209 482.323 245.127 468.834 251.399 469.466C256.132 469.942 268.453 472.486 273.476 473.805C285.702 477.015 303.754 477.186 314.915 482.032C315.368 482.112 324.26 483.532 323.988 483.437L327.161 484.801C331.884 489.756 335.821 495.452 337.995 502.139C338.639 499.857 339.895 493.598 340.713 492.26L341.316 492.394C344.309 498.521 343.111 504.263 339.981 509.958C347.667 520.003 352.83 528.185 351.53 541.89C350.868 548.863 346.598 560.872 343.095 566.704C343.392 557.154 346.192 546.965 339.441 538.979C338.218 537.534 337.702 537.43 336.118 537.283C334.562 538.178 334.323 538.65 333.213 540.056C331.198 539.491 325.676 535.385 323.774 533.801C310.382 522.663 293.59 511.393 275.36 514.013C269.853 514.362 266.473 514.908 261.082 516.472C260.237 516.713 256.023 518.085 255.446 518.193C243.976 520.903 242.095 527.467 234.087 533.57C233.821 532.778 233.98 533.167 233.609 532.4C230.474 534.745 229.371 535.576 225.898 537.199C236.024 514.721 253.6 509.86 276.177 507.563C280.839 507.088 285.712 507.535 290.313 506.997L290.77 506.939C279.655 503.152 268.326 498.626 257.001 495.693C244.812 492.536 233.683 496.86 223.774 504.265C219.73 507.287 215.83 510.866 211.542 513.654L210.966 514.023C212.968 503.455 215.431 494.157 222.915 486.372Z" fill="#121212"/>
<path d="M314.917 482.032C315.37 482.112 324.261 483.532 323.989 483.437C324.388 485.563 328.76 491.673 329.803 494.06C330.629 495.947 331.09 497.294 331.737 499.277C326.679 493.76 320.534 486.775 314.917 482.032Z" fill="#FAFAFA"/>
<path d="M305.147 740.518C318.643 739.131 329.31 734.951 342.472 732.664C352.955 730.845 363.621 735.679 374.048 735.807C383.24 735.915 393.176 731.519 403.041 732.36C417.286 733.579 428.737 740.08 443.25 740.424C449.154 745.238 452.72 750.53 453.863 758.407C455.628 770.554 444.652 777.846 434.194 773.996C422.518 769.693 416.976 762.543 424.616 750.8C414.078 756.637 407.054 760.517 395.147 762.774C392.513 763.276 384.275 764.023 382.934 764.358C376.677 764.505 370.42 764.505 364.163 764.353C354.509 762.533 344.564 761.569 335.586 757.134C330.801 754.768 326.039 752.349 321.283 749.925C333.026 761.845 324.717 770.603 312.271 774.881C296.883 780.167 286.519 766.659 294.434 752.157C296.474 748.42 301.174 741.678 305.147 740.518Z" fill="#FAFAFA"/>
<path d="M356.817 680.392C374.569 679.163 348.053 700.755 373.896 706.612C387.68 702.816 386.72 696.826 385.408 684.046C387.12 682.177 388.142 681.189 390.522 680.324C391.562 685.674 392.879 693.149 394.535 698.11C399.174 700.195 404.029 701.926 408.521 703.996C414.712 706.844 421.68 710.905 427.508 714.505C429.743 719.737 438.818 726.095 441.683 731.126C448.363 729.38 452.814 739.16 443.25 740.424C428.737 740.08 417.286 733.579 403.041 732.36C393.176 731.519 383.24 735.915 374.048 735.807C363.621 735.679 352.955 730.845 342.472 732.664C329.31 734.951 318.643 739.131 305.147 740.518C296.792 740.114 298.071 730.85 305.19 730.87C306.221 730.875 307.269 730.865 308.296 730.865L307.448 730.408C307.832 726.316 318.913 718.075 321.195 714.008C327.306 710.33 333.479 706.887 339.946 703.927C344.316 701.931 349.319 700.603 353.369 698.075C355.525 691.747 356.582 687.06 356.817 680.392Z" fill="#121212"/>
<path d="M356.818 680.393C374.57 679.163 348.054 700.755 373.897 706.612C387.681 702.816 386.722 696.826 385.409 684.046C387.122 682.177 388.142 681.189 390.523 680.323C391.563 685.674 392.88 693.148 394.536 698.11C399.174 700.195 404.029 701.926 408.522 703.996C414.713 706.843 421.681 710.905 427.509 714.505C429.744 719.737 438.819 726.095 441.684 731.126C426.94 730.614 401.362 696.723 383.231 711.082C370.797 720.927 365.058 706.445 353.643 707.542C337.951 709.046 322.223 727.236 308.297 730.865L307.45 730.408C307.834 726.316 318.915 718.075 321.196 714.008C327.307 710.33 333.481 706.888 339.947 703.928C344.317 701.931 349.321 700.603 353.371 698.076C355.526 691.747 356.584 687.061 356.818 680.393Z" fill="#FAFAFA"/>
<path d="M328.348 827.483C326.557 826.278 323.96 822.334 323.184 820.294C315.212 799.306 341.378 795.756 355.006 789.678C355.39 792.697 355.819 795.721 356.013 798.76C359.42 795.824 360.607 794.541 362.948 790.366C367.283 795.578 370.599 799.758 374.443 805.502C378.136 798.77 380.836 795.795 385.672 790.027C387.912 794.01 388.852 795.583 392.324 798.736C392.489 795.839 392.503 793.149 393.223 790.351C401.733 791.91 418.641 797.752 424.117 805.138C428.224 810.68 426.037 823.967 419.944 826.947L417.573 821.11C416.242 828.422 415.64 830.001 412.742 836.531C409.176 829.558 406.141 825.132 400.28 820.033C402.063 828.58 402.124 832.848 399.772 841.321C395.119 830.33 393.181 825.86 385.503 816.409C386.293 822.59 386.157 827.301 384.924 833.477C379.091 825.777 377.98 823.22 374.128 814.309C371.159 821.454 368.802 827.203 363.639 833.069C362.209 827.198 362.062 822.502 362.891 816.438C356.68 824.203 351.719 830.925 349.605 840.932C345.821 833.413 346.417 828.535 347.753 820.387C341.395 826.573 339.596 828.904 335.666 837.033C333.312 831.786 331.929 827.985 330.546 822.339C329.805 824.272 329.299 825.669 328.348 827.483Z" fill="#FAFAFA"/>
<path d="M464.681 514.087C475.068 513.335 482.915 514.884 492.715 518.488C492.78 520.947 493.096 524.615 492.277 526.823C504.156 533.418 512.266 539.702 522.955 548.381C512.624 549.311 512.139 550.137 503.784 556.54C498.943 560.247 488.659 563.045 482.699 561.442C482.233 561.364 482.186 561.309 481.706 561.373C464.309 563.739 448.836 556.682 431.759 556.151C427.417 556.013 414.7 556.958 413.835 551.937C414.837 549.906 414.635 550.476 416.705 549.04C420.892 539.353 440.904 529.479 449.989 525.687C452.378 520.406 459.929 516.654 464.681 514.087Z" fill="#121212"/>
<path d="M426.923 545.811C435.428 540.564 440.763 536.94 449.895 533.193C449.965 539.468 450.614 543.79 455.093 548.585C462.281 556.271 475.322 555.902 482.313 548.122C486.429 543.579 487.168 539.423 487.751 533.586C493.975 536.97 497.221 539.109 502.49 544.085C490.649 554.338 480.666 555.966 465.41 556.049C478.135 559.836 489.205 557.343 501.352 552.897C496.323 557.485 489.163 560.091 482.699 561.444C482.233 561.365 482.186 561.311 481.706 561.375C464.309 563.74 448.836 556.684 431.759 556.153C427.417 556.015 414.7 556.959 413.835 551.938C414.837 549.907 414.635 550.478 416.705 549.042C420.929 550.999 444.47 552.819 451.339 553.718C443.671 549.499 435.588 546.264 426.923 545.811Z" fill="#FAFAFA"/>
<path d="M464.679 514.087C475.067 513.335 482.914 514.884 492.713 518.489C492.779 520.947 493.094 524.615 492.276 526.823C477.471 520.922 465.023 520.465 449.988 525.687C452.377 520.406 459.928 516.654 464.679 514.087Z" fill="#FAFAFA"/>
<path d="M473.561 529.52C475.669 528.954 477.818 530.257 478.392 532.446C478.971 534.634 477.767 536.906 475.683 537.55C474.3 537.978 472.804 537.589 471.773 536.542C470.738 535.489 470.329 533.936 470.701 532.48C471.072 531.024 472.168 529.893 473.561 529.52Z" fill="#FAFAFA"/>
<path d="M382.933 764.358C385.521 764.338 388.155 764.319 390.733 764.535C398.745 765.214 405.242 768.435 413.329 768.425C405.788 776.593 403.826 776.775 400.58 787.844C399.117 785.69 397.818 783.895 396.647 781.54C395.137 784.81 394.154 786.826 393.222 790.352C392.502 793.15 392.488 795.84 392.324 798.736C388.852 795.584 387.911 794.011 385.671 790.027C380.835 795.796 378.135 798.771 374.442 805.503C370.598 799.759 367.282 795.579 362.947 790.367C360.606 794.542 359.419 795.825 356.013 798.761C355.818 795.722 355.389 792.698 355.005 789.678C354.138 786.669 353.356 784.648 352.218 781.756L347.947 786.275C344.222 777.099 341.963 775.265 335.237 768.42C343.829 768.366 353.361 764.653 364.163 764.353C370.42 764.506 376.676 764.506 382.933 764.358Z" fill="#121212"/>
<path d="M331.174 614.669C329.82 618.156 327.25 624.052 326.226 627.342L323.967 633.051C319.595 648.192 320.094 658.804 335.917 665.393C338.256 666.362 341.486 667.527 343.692 668.678C332.606 671.245 325.188 670.92 317.764 660.658C311.145 647.69 315.426 636.193 321.814 624.416C325.202 620.275 326.952 617.91 331.174 614.669Z" fill="#121212"/>
<path d="M416.829 614.713C421.167 618.623 423.463 621.897 427.245 626.279C431.625 635.234 435.544 644.306 432.42 654.618C430.792 660.003 429.094 661.06 426.365 665.112L425.961 665.398L425.274 665.86C417.431 671.215 412.294 670.709 403.661 668.678C411.348 665.216 421.167 663.116 424.968 654.171C428.153 646.687 425.89 637.944 423.312 630.725L421.722 626.727C420.894 624.071 418.076 618.018 416.829 614.713Z" fill="#121212"/>
<path d="M402.412 639.419C404.571 634.261 406.641 621.151 411.346 619.621C414.681 620.074 418.129 624.244 420.99 626.23L421.724 626.727L423.314 630.725C423.591 646.663 420.077 643.353 408.344 640.049C406.956 639.655 403.964 639.532 402.412 639.419Z" fill="#FAFAFA"/>
<path d="M326.226 627.342C329.893 624.77 332.403 619.478 337.258 619.105C338.314 619.542 339.425 620.147 339.665 621.465C341.228 630.046 339.797 631.9 343.668 640.333C336.072 642.187 326.598 647.503 324.786 637.068C324.511 635.49 324.643 634.619 323.967 633.051L326.226 627.342Z" fill="#FAFAFA"/>
<path d="M257.842 577.051C272.397 575.316 283.097 574.106 296.723 568.048C301.196 566.445 305.702 562.707 310.199 561.424C313.586 560.455 316.979 560.735 320.674 559.722C314.981 564.114 309.675 567.546 303.64 571.338C296.271 574.672 289.703 577.716 281.651 579.004C271.448 579.373 268.392 579.643 257.842 577.051Z" fill="#121212"/>
<path d="M370.304 523.102C393.68 520.501 388.082 543.234 389.004 558.778C390.02 575.857 390.848 592.242 395.632 608.759C397.787 616.214 399.989 626.61 396.084 633.686C392.01 640.959 384.671 645.975 377.003 648.163C366.361 649.142 353.542 642.292 349.894 631.331C345.595 618.417 354.467 604.275 356.066 591.735C357.543 580.15 357.966 568.151 358.15 556.472C358.368 548.525 357.219 538.036 360.152 530.68C361.804 526.544 366.418 524.287 370.304 523.102Z" fill="#FAFAFA"/>
<path d="M342.53 648.045C355.093 648.409 360.841 663.181 372.363 664.508C385.748 666.048 393.435 645.93 407.576 648.527C410.855 649.127 415.673 651.374 414.266 655.829C413.48 658.322 410.018 659.468 407.868 660.378C404.053 661.268 400.468 660.692 396.408 662.217C390.226 664.538 385.32 672.465 379.081 673.98C364.982 677.402 361.678 667.867 351.784 662.31C350.184 661.41 337.524 660.658 334.66 657.948C332.958 656.336 333.196 657.216 332.65 654.801C333.666 650.125 338.64 648.718 342.53 648.045Z" fill="#121212"/>
<path d="M423.652 558.872C432.463 558.385 445.245 566.258 453.704 569.695C463.837 573.811 472.183 575.493 483.111 576.501C484.518 576.629 484.212 576.403 485.892 576.835L485.628 577.499C463.423 583.39 440.969 572.941 423.652 558.872Z" fill="#121212"/>
<path d="M400.144 612.274C403.051 614.659 402.821 619.876 401.979 623.25L401.936 623.26C401.043 622.261 400.379 614.295 400.144 612.274Z" fill="#FAFAFA"/>
<path d="M407.247 186.012C409.66 186.472 413.151 188.659 415.357 189.892C455.035 212.026 474.897 267.794 451.878 310.413C452.146 309.435 452.41 308.454 452.659 307.472C458.737 283.831 457.236 258.882 445.372 237.426C447.804 252.766 446.915 264.434 442.262 279.204C440.169 259.183 438.122 250.812 427.528 233.494C434.566 259.281 434.1 280.005 423.736 304.699C424.385 282.101 420.311 266.736 407.684 248.172C393.961 229.789 376.277 216.505 356.267 206.51C350.555 203.657 344.093 201.444 338.801 198.726L338.405 198.519C372.937 202.403 406.739 222.858 423.397 255.273C423.261 253.369 423.096 251.467 422.899 249.57C419.85 221.818 408.051 205.209 387.86 188.328C401.926 193.416 418.646 206.582 428.102 218.512C431.39 222.657 434.123 227.079 437.294 231.343C432.392 211.463 422.033 198.698 407.247 186.012Z" fill="#FAFAFA"/>
<path d="M311.726 209.149C326.425 211.149 346.433 222.891 356.563 234.219C375.064 254.91 380.022 276.305 379.763 303.659C374.363 273.021 363.462 250.152 339.594 231.116C349.362 247.073 353.39 256.771 357.246 275.72C358.079 281.225 358.998 286.716 360.003 292.189C356.661 284.088 352.558 276.354 347.757 269.099C331.076 244.061 300.199 226.187 271.813 220.854C272.146 220.818 272.479 220.787 272.812 220.761C300.784 218.495 319.829 228.574 340.214 246.876C331.997 229.111 325.937 221.772 311.726 209.149Z" fill="#FAFAFA"/>
<path d="M598.352 566.115C599.947 568.141 599.674 570.742 599.721 573.29C600.041 589.93 596.184 605.868 592.274 621.85C590.816 627.824 589.527 634.625 587.372 640.443C581.369 652.967 576.331 654.089 573.103 668.556C576.359 664.912 580.212 659.64 583.67 655.598C582.277 663.82 581.477 672.254 580.005 680.451C577.483 694.466 573.894 701.862 559.357 702.201C559.649 699.477 560.124 696.458 560.5 693.728C561.403 687.567 564.005 663.535 565.308 658.79C566.433 657.693 569.834 656.385 570.262 655.485C572.864 650.081 575.296 644.549 578.241 639.317C584.695 627.864 578.857 615.182 575.409 603.689C577.337 597.041 581.115 589.301 584.601 583.405C587.49 592.905 588.492 603.198 591.305 612.939C593.206 595.703 589.602 580.626 598.352 566.115Z" fill="#FAFAFA"/>
<path d="M151.119 566.061C159.978 572.734 157.614 601.069 159.348 612.556L159.463 613.294C161.382 603.208 163.508 593.161 165.84 583.169C168.586 588.505 173.322 598.679 174.856 604.28C171.241 616.357 165.345 627.712 172.096 639.292C175.101 644.451 177.099 648.758 178.775 654.576C180.826 656.735 182.26 657.369 184.659 659.09C185.443 661.332 188.844 688.27 189.523 692.76L191.082 702.123C171.788 702.875 171.215 685.831 168.974 670.533C168.238 665.379 167.383 660.251 166.412 655.141C169.597 658.844 174.368 665.925 177.362 668.699C174.556 659.208 172.461 655.407 166.738 647.377C160.797 639.032 159.839 628.562 157.417 618.54C153.794 603.532 148.443 581.438 151.119 566.061Z" fill="#FAFAFA"/>
<path d="M481.715 212.069C484.11 213.625 488.217 218.69 490.075 221.062C502.447 236.835 509.09 255.872 510.445 276.139C514.853 261.106 514.543 249.522 511.245 234.539C521.397 247.415 529.696 267.183 529.169 284.127C528.637 301.436 521.345 314.339 509.589 326.104C516.777 314.969 519.449 308.272 521.35 295.029C522.296 287.433 521.496 276.405 519.849 269.052C518.791 272.567 518.062 278.242 516.815 282.546C512.12 298.735 503.755 310.789 490.423 320.246C503.69 297.095 505.171 284.142 500.185 257.764C499.056 270.149 497.88 275.272 492.239 286.14C496.783 264.814 495.428 240.569 485.911 220.929C484.472 217.965 483.018 215.104 481.715 212.069Z" fill="#FAFAFA"/>
<path d="M543.846 329.116C547.826 329.913 551.679 331.287 555.292 333.2C568.027 339.921 576.034 351.475 580.489 365.418C571.174 356.102 568.766 354.063 556.567 349.931C570.257 363.864 574.595 378.177 575.794 397.666C570.022 383.674 559.244 373.006 547.092 364.979C552.357 373.799 555.466 380.444 558.063 390.491C559.479 397.688 560.373 404.529 559.724 411.857C556.275 387.172 542.614 365.372 524.233 349.867C537.505 352.769 546.326 355.581 557.692 363.622C551.684 353.315 544.472 347.946 536.037 340.311C546.278 340.392 552.658 342.218 562.184 345.798C555.415 336.929 552.832 335.229 543.846 329.116Z" fill="#FAFAFA"/>
<path d="M240.918 240.841C281.118 244.765 299.188 275.353 309.971 312.435C300.226 297.677 294.121 289.715 280.365 278.544C259.139 262.941 244.069 258.894 218.802 255.927C241.097 250.363 252.814 253.926 272.928 262.822C261.652 249.892 254.827 248.002 240.918 240.841Z" fill="#FAFAFA"/>
<path d="M160.827 548.078C167.822 548.737 171.396 552.661 175.956 557.746C177.319 566.592 177.924 578.207 178.595 587.324L175.233 581.236C171.689 575.016 168.129 568.299 163.415 563.017C159.084 558.159 158.557 558.346 152.413 558.173L151.955 557.603C151.815 553.467 157.497 549.352 160.827 548.078Z" fill="#FAFAFA"/>
<path d="M586.66 548.599C592.489 547.827 600.755 554.918 597.49 558.822C596.088 558.419 594.234 557.736 592.912 558.188C586.119 560.519 579.937 572.07 576.583 577.951C574.838 581.236 573.13 584.541 571.46 587.865C572.307 578.374 572.565 567.408 574.024 558.1C578.248 552.804 580.836 551.313 586.66 548.599Z" fill="#FAFAFA"/>
<path d="M205.49 292.729C207.452 294.24 214.753 302.6 217.599 305.114C232.424 318.207 243.065 322.104 260.45 328.525C236.558 330.228 213.27 317.199 205.49 292.729Z" fill="#FAFAFA"/>
<path d="M235.682 268.942C251.472 266.932 267.053 280.525 276.727 291.874C273.787 290.23 270.461 287.976 267.576 286.12C251.471 276.881 239.936 273.744 222.058 271.735C226.498 270.327 231.062 269.391 235.682 268.942Z" fill="#FAFAFA"/>
<path d="M211.117 324.027C221.632 323.154 232.248 328.414 240.927 333.981C233.879 332.8 227.421 330.876 220.058 329.825C207.095 328.531 202.022 328.239 189.399 331.429C196.519 326.492 202.742 324.773 211.117 324.027Z" fill="#FAFAFA"/>
<path d="M569.193 618.745C573.507 624.509 572.185 634.147 568.534 640.053L567.687 640.731C566.634 638.651 568.812 622.202 569.193 618.745Z" fill="#FAFAFA"/>
<path d="M180.563 619.145C181.905 621.938 183.092 637.167 182.803 640.733L182.252 640.659C177.176 632.373 177.965 628.124 180.563 619.145Z" fill="#FAFAFA"/>
<path d="M353.341 160.646C361.871 160.363 371.971 160.277 381.904 161.196C391.841 162.116 401.589 164.04 409.424 167.765L409.439 167.772L409.455 167.777C415.431 169.869 423.755 173.308 429.491 176.251C431.269 177.411 432.901 178.447 434.738 179.519C439.376 182.748 443.169 185.913 446.846 189.039C450.521 192.164 454.085 195.253 458.249 198.314L459.254 199.054L458.735 197.919C457.335 194.858 454.651 189.568 451.615 184.588C450.097 182.098 448.488 179.68 446.905 177.655C445.388 175.715 443.877 174.115 442.479 173.163V173.16C442.91 173.19 443.534 173.303 444.326 173.497C445.297 173.734 446.489 174.084 447.828 174.515C450.505 175.375 453.752 176.556 456.957 177.804C460.162 179.052 463.32 180.366 465.815 181.493C467.064 182.057 468.144 182.572 468.98 183.008C469.828 183.45 470.395 183.795 470.644 184.016L470.691 184.059L470.752 184.079C476.673 186.145 481.755 189.682 487.066 193.058C520.517 214.319 552.855 249.893 552.875 291.666C552.875 294.017 552.47 297.312 551.998 300.68C551.528 304.035 550.992 307.462 550.739 310.04L550.714 310.299L550.961 310.379C560.745 313.565 570.85 319.824 579.458 327.714C588.066 335.604 595.157 345.108 598.929 354.771C598.982 354.909 599.02 354.989 599.049 355.042V355.043C599.049 355.048 599.05 355.054 599.051 355.061C599.055 355.128 599.065 355.237 599.085 355.425L599.09 355.476L599.111 355.522C601.425 360.667 603.161 368.077 604.302 375.633C605.328 382.434 605.866 389.332 605.912 394.761C604.976 392.328 604.299 390.688 603.348 389.232C602.193 387.465 600.645 385.981 597.797 383.655L597.228 383.191L597.27 383.925C597.522 388.422 597.945 393.308 597.606 397.714C597.321 399.048 597.19 401.265 597.146 403.911C597.102 406.583 597.148 409.722 597.219 412.893C597.352 418.849 597.579 424.901 597.497 428.234L597.477 428.864V428.874C597.461 430.514 597.215 432.178 596.947 433.862C596.681 435.539 596.393 437.238 596.306 438.912C595.615 452.143 593.675 465.284 591.613 478.429C589.552 491.569 587.369 504.715 586.201 517.933C586.026 519.906 585.028 523.525 584.104 527C583.646 528.727 583.208 530.412 582.909 531.815C582.76 532.517 582.644 533.155 582.578 533.695C582.513 534.229 582.492 534.695 582.548 535.042L582.563 535.136L582.627 535.206C582.869 535.476 583.214 535.681 583.61 535.843C584.009 536.005 584.481 536.132 584.997 536.232C586.029 536.433 587.275 536.535 588.545 536.598C589.815 536.66 591.131 536.683 592.291 536.721C593.315 536.754 594.214 536.797 594.881 536.887L595.152 536.928C600.174 537.785 604.6 542.002 607.812 547.253C611.018 552.496 612.964 558.689 613.072 563.372V563.373C613.575 585.044 609.122 606.154 603.901 627.216C598.684 648.266 592.697 669.28 590.162 690.704C588.176 707.495 573.066 717.531 556.546 714.694L556.268 714.646L556.183 714.916C555.346 717.555 554.588 720.567 553.844 723.604C553.099 726.646 552.368 729.714 551.585 732.479L551.584 732.48C547.771 746.159 542.232 759.296 535.098 771.575C530.668 779.127 523.489 788.449 517.521 795.704L516.344 797.126C487.237 831.729 448.083 870.941 403.336 882.78C374.803 890.332 338.76 883.97 313.792 868.728C275.011 845.051 242.623 810.216 216.958 772.982C210.271 763.281 205.289 749.407 200.428 738.537V738.536C198.894 735.124 198.104 731.375 197.465 727.553C196.828 723.743 196.338 719.843 195.402 716.195L195.345 715.97L195.112 715.953L192.506 715.77C186.584 715.351 181.752 714.936 177.529 713.266C172.882 711.428 168.95 708.057 165.17 701.392L164.805 700.736C163.429 698.225 161.586 694.73 161.04 691.99C158.607 679.769 156.772 667.349 153.963 655.172H153.964C149.205 633.975 142.411 613.092 139.668 591.567C138.089 579.176 137.929 565.529 140.553 553.289L140.554 553.29C142.206 545.9 148.486 539.078 156.081 536.98C156.62 536.832 157.526 536.734 158.638 536.662C159.741 536.591 161.014 536.546 162.272 536.494C163.527 536.442 164.767 536.382 165.791 536.281C166.303 536.231 166.768 536.169 167.156 536.091C167.538 536.015 167.875 535.918 168.113 535.784L168.246 535.71L168.273 535.561C168.356 535.115 168.332 534.355 168.246 533.396C168.159 532.424 168.002 531.209 167.796 529.829C167.383 527.069 166.773 523.636 166.128 520.146C164.835 513.149 163.408 505.946 163.132 503.396C162.218 494.955 160.53 484.876 159.341 476.124L159.11 474.392C157.341 460.483 155.865 446.538 154.685 432.566L154.684 432.564L153.994 425.163C152.465 408.763 151.553 397.83 152.459 379.437L152.46 379.421L152.459 379.405C152.293 376.011 152.834 371.012 153.606 365.969C154.378 360.933 155.377 355.877 156.116 352.383C156.795 349.226 158.514 344.413 159.566 341.261L159.873 340.34L159.075 340.892C155.243 343.54 152.809 345.43 149.768 348.77L149.15 349.457L149.142 349.468C147.999 350.872 146.469 352.502 145.135 353.957C145.813 344.899 146.496 338.715 149.298 329.855L149.309 329.82L149.312 329.783C149.323 329.644 149.396 329.33 149.49 328.969C149.536 328.795 149.584 328.619 149.627 328.461C149.67 328.304 149.709 328.162 149.735 328.061L149.736 328.06C153.266 314.427 158.778 303.537 166.029 291.565C168.952 287.536 172.018 283.613 175.219 279.801L175.218 279.8C178.621 276.041 182.146 272.394 185.785 268.862L186.614 268.058L185.488 268.314C180.633 269.421 172.902 272.073 168.595 274.612C167.881 274.898 166.572 275.517 165.362 276.082C164.746 276.37 164.152 276.646 163.667 276.861C163.529 276.923 163.401 276.975 163.286 277.023C163.595 276.292 164.127 275.326 164.812 274.211C165.715 272.741 166.863 271.046 168.059 269.352C170.45 265.963 173.023 262.591 174.191 261.052L174.21 261.028L174.224 261.001C174.225 260.999 174.231 260.987 174.249 260.962C174.267 260.936 174.291 260.902 174.323 260.861C174.387 260.779 174.474 260.674 174.583 260.547C174.8 260.293 175.094 259.96 175.444 259.57C176.142 258.794 177.062 257.785 177.998 256.737C178.935 255.688 179.897 254.588 180.689 253.615C181.473 252.653 182.115 251.786 182.389 251.211C182.458 251.065 182.615 250.835 182.859 250.528C183.099 250.227 183.409 249.869 183.771 249.473C184.492 248.68 185.407 247.741 186.347 246.804C188.227 244.927 190.191 243.067 190.893 242.386C197.977 235.537 205.851 229.555 214.348 224.565C216.716 223.173 219.085 221.907 221.464 220.62C223.839 219.336 226.222 218.032 228.61 216.568L231.521 214.898L233.112 214.173C235.523 213.088 237.952 212.046 240.398 211.045L240.4 211.044C242.213 210.285 243.7 209.746 245.569 209.118L245.659 209.088L245.718 209.014C246.389 208.179 246.64 207.432 246.487 206.771C246.336 206.114 245.812 205.656 245.205 205.337C244.153 204.784 242.658 204.544 241.566 204.447L241.72 204.111L241.232 204.098L235.568 203.933L235.553 203.932L235.537 203.934C233.782 204.055 232.021 204.047 230.318 204.75L229.916 204.561C230.003 204.458 230.118 204.338 230.262 204.204C230.57 203.916 230.991 203.574 231.496 203.196C232.505 202.441 233.825 201.558 235.188 200.694C236.552 199.831 237.954 198.99 239.126 198.322C240.275 197.667 241.184 197.189 241.619 197.011C241.934 196.972 242.359 196.826 242.841 196.622C243.366 196.399 243.996 196.091 244.695 195.728C246.095 195 247.792 194.037 249.506 193.053C251.223 192.066 252.958 191.059 254.443 190.235C255.938 189.407 257.15 188.782 257.833 188.549C270.67 184.169 283.289 179.784 296.73 177.766C299.276 177.383 302.702 176.852 305.2 176.204H305.203L305.447 176.138C307.133 175.796 310.581 175.599 314.175 175.47C315.968 175.405 317.79 175.358 319.433 175.317C321.064 175.277 322.522 175.242 323.598 175.204V175.205C325.612 175.252 327.669 175.273 329.668 175.349H329.681C330.192 175.348 330.775 175.377 331.406 175.397C332.031 175.417 332.692 175.427 333.33 175.384C334.582 175.298 335.853 175.001 336.551 174.043L336.6 173.976L336.61 173.892C336.741 172.803 336.644 172.243 336.452 171.7C336.267 171.177 336.034 170.756 335.854 169.817L335.804 169.536L335.77 169.35L335.589 169.288C332.025 168.084 328.438 166.948 324.83 165.883L321.692 164.705C325.9 163.755 330.645 162.547 334.681 162.306L334.704 162.305L334.728 162.3C335.027 162.237 335.192 162.21 335.285 162.201C335.29 162.201 335.295 162.201 335.299 162.2C335.321 162.217 335.348 162.235 335.381 162.251C335.493 162.305 335.632 162.319 335.802 162.318C338.738 162.304 341.616 161.934 344.507 161.545C347.403 161.155 350.313 160.746 353.341 160.646Z" stroke="#FAFAFA" stroke-width="0.647437"/>
</g>
<path d="M1079.13 126.196C1091.71 107.748 1113.49 97.8131 1135.67 100.407C1143.69 101.346 1155.3 103.138 1166.75 107.994C1179.49 113.402 1196.91 124.854 1205.68 147.168C1212.01 163.275 1210.92 178.123 1209.15 187.653C1259.58 183.739 1308.9 178.391 1361.19 173.499L1365.48 173.102C1387.22 171.114 1412.8 169.195 1437.78 170.003C1467.35 170.96 1491.8 193.319 1495.4 222.678C1495.81 226.07 1495.93 229.438 1495.78 232.756C1501.7 236.926 1506.98 241.486 1511.53 246.083C1519.75 254.404 1528.88 266.234 1534.79 281.062C1534.88 280.862 1534.96 280.662 1535.04 280.463C1538.82 271.201 1543.32 260.809 1548.1 251.62C1550.48 247.048 1553.46 241.743 1556.99 236.605C1559.84 232.457 1566.1 223.818 1576.04 216.673L1576.75 216.165C1591.56 205.846 1610.22 202.746 1627.56 207.708C1633.82 208.727 1639.93 210.741 1645.67 213.734C1651.84 216.955 1662.89 223.667 1672.02 229.573C1672.37 229.797 1672.71 230.023 1673.06 230.25C1673.57 226.425 1674.46 222.623 1675.72 218.9C1681.92 200.627 1696.53 186.459 1714.97 180.813C1715.32 180.548 1715.72 180.252 1716.18 179.905L1716.98 179.31C1733.83 166.978 1755.91 164.28 1775.26 172.249C1775.96 172.539 1778.01 173.246 1782.46 174.506C1785.08 175.247 1785.97 175.479 1789.01 176.331C1791.18 176.942 1794.21 177.806 1797.19 178.793C1816.24 185.099 1831.75 197.901 1841.22 206.52C1850.17 214.662 1858.85 223.913 1866.74 233.095C1871.7 227.607 1876.17 222.628 1879.79 218.45C1892.86 203.367 1913.18 181.231 1929.85 166.077L1930.6 165.41C1946.36 151.551 1968.25 146.923 1988.31 153.271C1990.52 153.97 1992.72 154.715 1994.89 155.507C1994.97 155.535 1995.05 155.563 1995.12 155.591C2007.03 159.978 2019.58 166.872 2030.43 178.697C2030.99 179.308 2031.53 179.924 2032.07 180.539C2046.69 185.243 2059.22 195.474 2066.68 209.488C2077.35 229.563 2075.76 253.949 2062.57 272.469C2051.48 288.038 2041.21 299.069 2032.2 308.281C2022.97 317.717 2017.22 323.206 2010.12 331.587C1996.86 347.244 1981.28 366.969 1964.89 386.64C1973.36 400.819 1977.83 409.625 1982.77 417.565C1983.17 417.929 1983.58 418.305 1983.98 418.692C1986.83 421.397 1989.18 424.107 1991.13 426.634L1991.94 427.705L1992.43 428.385C1992.6 428.613 1992.76 428.842 1992.92 429.072C2002.96 443.458 2008.71 452.446 2016.29 462.079L2018.31 464.617C2018.47 464.819 2018.63 465.022 2018.78 465.226C2019.45 466.097 2019.83 466.568 2021.13 468.238C2022.18 469.578 2023.7 471.544 2025.31 473.793C2028.52 478.303 2033.03 485.235 2036.58 494.278C2040.99 505.516 2041.9 517.824 2039.21 529.592C2038.73 531.689 2038.12 533.829 2037.39 535.996C2036.34 545.192 2033.39 556.124 2026.27 566.733C2020.11 575.901 2012.75 581.76 2011 583.197C2007.43 586.133 2007.95 585.59 2005.94 587.321C1993.62 597.927 1977.56 603.046 1961.46 601.606C1963.18 614.616 1960.54 625.043 1959.49 628.862C1957.18 637.262 1953.71 643.849 1952.54 646.057C1952.53 646.071 1952.53 646.086 1952.52 646.1C1933.08 682.795 1919.15 706.698 1910.12 736.599C1901.7 764.474 1874.48 782.28 1845.57 778.825C1843.13 778.534 1833.48 777.573 1828.32 776.792C1822.72 775.947 1808.55 773.713 1794.76 764.923C1787.29 760.167 1781.13 754.337 1776.24 747.805C1766.76 751.941 1756.72 755.531 1746.45 758.156C1725.4 763.535 1687.59 768.178 1655.37 747.903C1643.81 752.123 1629.74 754.699 1613.92 752.46C1603.95 751.049 1594.96 747.976 1586.92 743.761C1579.87 751.868 1570.77 757.945 1560.56 761.339C1540.4 768.04 1521.54 766.114 1506.02 760.251C1498.94 784.032 1489.66 813.554 1476.57 841.9C1463.02 871.209 1443.48 903.612 1413.76 928.156L1413.75 928.162C1380.02 956.008 1340.71 960.948 1307.56 957.273C1300.13 956.45 1268.93 953.035 1248.67 925.437C1234.56 906.224 1232.68 885.069 1234.81 869.093C1236.8 854.128 1242.46 841.335 1247.45 832.099C1257.44 813.569 1272.22 795.872 1285.16 781.814C1285.46 781.486 1285.76 781.159 1286.07 780.83C1281.9 780.901 1277.68 780.697 1273.45 780.191C1266.93 779.41 1260.19 777.847 1253.56 775.404C1251.45 778.654 1249.23 781.776 1246.91 784.754C1221.52 817.273 1176.94 842.015 1125.95 832.463C1125.94 832.462 1125.93 832.46 1125.93 832.459C1110.57 829.578 1097.15 822.301 1088.24 816.266C1081.82 811.916 1071.04 803.736 1062.47 791.396C1055.91 792.486 1049.11 793.151 1042.07 793.305L1042.07 793.306C1029.98 793.57 1017.39 792.104 1005.32 788.209C995.631 797.985 982.034 808.865 964.456 815.112C951.04 819.879 935.185 821.965 918.232 818.527C901.447 815.122 887.243 807.051 875.75 797.091L875.74 797.081C873.017 794.721 870.519 792.262 868.225 789.735C866.254 789.978 864.275 790.124 862.294 790.171C861.831 790.382 861.365 790.593 860.895 790.798C860.847 790.819 860.8 790.839 860.752 790.86C856.487 792.711 852.773 793.727 851.798 793.996C850.161 794.449 848.665 794.807 847.579 795.056C845.38 795.56 843.12 796.015 841.354 796.36C839.506 796.72 837.684 797.059 836.295 797.316C835.556 797.452 834.994 797.557 834.488 797.652C834.246 797.697 834.057 797.732 833.91 797.76C833.758 797.789 833.696 797.801 833.699 797.8C822.387 800.036 810.671 798.966 799.951 794.717C783.739 788.29 756.162 772.173 747.724 736.702L747.449 735.511C741.868 710.503 748.238 687.062 752.575 674.121C757.641 659.002 764.483 645.453 769.249 636.678C775.171 625.77 782.768 614.305 791.719 603.405C783.351 604.815 774.479 604.906 765.241 603.296C739.87 598.873 722.632 583.431 712.735 570.916C702.478 557.947 695.744 542.914 692.189 528.441C688.754 514.458 687.097 496.05 692.605 477.142C701.099 447.885 716.184 390.06 742.692 343.643C756.189 320.007 775.372 294.194 802.929 276.431C829.413 259.36 860.882 251.596 895.138 256.804C899.996 249.998 906.285 244.195 913.694 239.864C927.286 231.92 943.973 227.206 955.525 224.287C968.865 220.917 983.779 217.981 997.891 215.467C1011.59 213.026 1025.42 210.829 1037.38 208.945C1039.86 202.843 1042.37 196.433 1045.51 188.837C1053.08 170.547 1062.36 150.78 1079.13 126.196Z" fill="#2A2A2A"/>
<path d="M974.527 514.071C987.542 513.524 990.15 524.011 990.484 534.896C991.166 563.844 974.693 590.666 961.822 615.747C941.346 655.646 930.863 702.581 933.875 747.631C945.708 743.285 953.169 735.703 961.768 727.212C990.931 698.398 1005.4 661.83 1025.53 627.225C1035.15 611.382 1046.44 600.105 1060.15 588.35C1083.31 568.477 1107.85 596.094 1103.26 618.963C1098.77 641.344 1063.09 662.663 1044.44 675.845C1040.04 685.159 1036.79 700.82 1037.89 711.14C1039.92 730.237 1060.51 718.97 1070.37 714.624C1107.14 698.398 1134.96 667.526 1158.26 635.639C1153.98 623.443 1152.53 613.344 1159.87 601.828C1171.56 583.324 1194.43 570.832 1214.75 585.066C1230.76 596.267 1225.36 611.65 1215.79 624.649C1215.96 615.977 1217.54 609.84 1215.11 601.053C1210.08 582.884 1194.94 584.856 1188.1 600.861C1176.85 627.206 1196.26 650.094 1205.61 673.815C1223.85 666.607 1256.93 655.311 1272.84 647.136C1283.94 626.688 1295.31 606.375 1306.92 586.205C1319.63 588.359 1322.43 588.761 1330.83 598.43C1327.13 610.721 1317.52 635.343 1312.43 647.031C1303.48 667.613 1292.48 684.815 1285.84 707.119C1289.85 706.564 1294.47 705.884 1298.13 704.42C1313.38 698.313 1342.98 669.431 1352.7 655.828C1372.18 628.555 1388.71 600.392 1421.19 584.989C1437.33 577.331 1450.35 581.668 1465.96 587.708C1468.43 585.43 1472.08 583.687 1475.09 582.031C1480.07 582.902 1487.52 583.765 1488.45 589.097C1489.89 597.339 1485.24 610.204 1482.95 617.729C1477.98 634.031 1473.3 649.673 1471.79 666.607C1484.09 657.743 1529.05 625.98 1534.58 615.096C1540.74 602.986 1542.31 588.857 1548.97 576.834C1549.15 576.518 1549.33 576.202 1549.51 575.886C1555.91 577.197 1560.4 577.657 1564.26 583.267C1571.59 593.931 1567.04 619.442 1564.86 631.58C1568.75 625.147 1573.09 619.001 1577.87 613.19C1589.15 599.683 1626.87 562.035 1645.13 581.477C1661.24 598.621 1641.04 633.045 1636.28 652.354C1633.31 664.473 1632.01 668.484 1632.02 681.33C1645.77 676.898 1669.65 653.396 1677.09 640.646C1691.38 616.168 1699.88 587.497 1726.02 571.712C1748.44 558.157 1776.7 578.413 1767.19 603.742C1759.85 622.715 1732.06 633.61 1714.24 641.038C1699.73 669.996 1704.05 696.196 1742.8 684.316C1786.43 670.943 1808.67 642.273 1828.85 603.943C1821.23 601.129 1812.63 597.271 1808.12 590.398C1794.16 569.128 1828.66 540.878 1843.85 564.073C1848.76 571.588 1845.53 583.85 1843.27 592.073C1858.39 592.217 1892.75 593.49 1901.43 607.964C1903.07 610.683 1901 615.173 1899.5 618.016C1881.54 651.922 1863.85 682.297 1852.68 719.248C1828.89 716.405 1817.87 718.176 1823.01 691.554C1829.53 657.752 1850.87 633.858 1863.08 604.336L1863.64 602.958C1857.97 601.828 1848.31 602.269 1842.45 602.422C1831.43 623.444 1804.19 658.47 1785.11 673.547C1761.38 692.31 1701.93 720.607 1677.68 687.897C1669.94 677.472 1671.14 666.952 1673.27 654.957C1661.06 673.011 1628.32 715.945 1601.54 678.248C1593.18 666.464 1643.09 600.325 1630.32 592.303C1612.75 594.677 1579.76 641.708 1569.78 657.742C1558.31 676.151 1556.58 686.231 1541.64 704.4C1528.53 708.756 1518.75 700.084 1510.36 691.19C1512.83 672.342 1521.14 651.434 1529.03 634.193C1507.15 647.844 1486.41 661.696 1471.2 683.024C1458.96 700.188 1455.27 720.329 1449.41 740.126C1435.11 788.373 1415.5 848.911 1375.56 881.89C1357.99 896.392 1336.6 900.126 1314.17 897.637C1308.02 896.957 1300.9 895.195 1297.04 889.931C1276.05 861.346 1372.26 781.27 1392.47 761.799C1404.67 750.044 1416.4 737.944 1426.56 724.351C1440.45 705.779 1447.18 689.993 1451.44 667.268C1448.91 664.673 1444.22 657.034 1442.98 656.488C1437.67 659.322 1433.16 670.609 1428.24 676.353C1415.12 691.679 1385.01 726.379 1362.42 708.306C1351.16 699.298 1352.35 683.809 1352 670.359C1347.7 673.183 1341.51 681.311 1337.83 685.351C1327.62 696.637 1317.47 707.138 1304.42 715.141C1290.51 723.67 1269.15 723.842 1261.26 707.243C1254.25 692.492 1264.09 670.092 1269.58 655.656C1249.23 661.448 1229.71 673.461 1208.34 681.282C1230.82 726.571 1186.36 782.735 1136.99 773.487C1128.27 771.85 1114.31 762.909 1110.44 754.974C1094.65 722.637 1155.67 692.712 1177.08 681.301C1172.84 666.473 1168.99 654.718 1163.92 640.129C1160.38 644.236 1156.9 648.783 1153.51 653.109C1125.89 688.309 1089.52 732.257 1040.76 733.319C1009.25 734.008 1001.04 714.279 1002.21 687.322C990.497 704.802 982.746 722.311 968.779 739.227C954.708 756.266 935.656 769.61 915.044 751.747C899.532 738.297 900.366 707.761 899.653 688.165C885.166 703.548 879.343 717.094 860.851 730.189C864.514 723.374 871.109 714.777 875.402 707.875C880.851 699.126 883.941 692.818 888.236 683.57C870.635 700.036 858.724 726.265 836.866 735.818C834.946 736.651 825.064 738.346 822.062 738.939C814.479 735.934 808.052 731.051 806.093 722.809C801.994 705.587 813.89 680.2 821.975 665.314C833.501 644.082 854.744 618.81 877.999 610.252C889.44 606.653 904.898 613.411 915.1 619.164C921.24 604.125 931.148 586.301 938.698 571.77C945.775 558.157 961.633 521.302 974.527 514.071ZM1432.64 731.158C1419.77 744.589 1405.67 759.532 1393.09 773.135C1378.04 789.409 1299.75 861.176 1317.74 884.246C1378.94 889.626 1420.35 780.822 1433.75 732.92C1433.38 732.336 1433.01 731.742 1432.64 731.158ZM1175.43 696.034C1155.35 704.602 1137.34 716.261 1128.58 737.092C1124.76 746.176 1127.14 753.806 1134.58 759.741C1152.51 768.624 1167.12 756.821 1172.33 739.686C1175.35 729.758 1179.15 706.689 1177.95 696.532C1176.79 696.197 1176.57 695.996 1175.43 696.034ZM900.36 631.705C880.047 642.484 870.056 661.18 858.461 680.307C853.437 688.597 846.452 699.27 844.11 708.671L845.04 709.79L847.159 708.671C859.774 699.127 912.4 647.692 905.564 633.036C903.238 631.591 903.168 631.83 900.36 631.705ZM1457.35 608.004C1461.51 595.55 1452.13 594.957 1442.88 595.56C1432.84 601.351 1424.08 611.344 1417.26 620.62C1401.17 642.523 1378.8 666.675 1378.49 695.308C1384.62 693.642 1386.45 693.172 1392.2 690.291C1407.62 681.551 1415.38 676.469 1426.34 662.215C1439.15 645.549 1450.63 628.126 1457.35 608.004ZM1081.63 596.211C1069.06 605.449 1045.93 640.102 1048.81 655.026L1050.35 655.926C1052.84 654.921 1053.36 654.701 1055.63 653.294C1068.64 645.291 1085.78 626.509 1090.3 611.547C1092.12 605.535 1087.92 597.101 1081.63 596.211ZM1748.58 578.793C1738.97 586.633 1721.85 612.078 1720.45 623.508L1721.11 625.346C1724.04 625.7 1724.53 624.79 1727.71 623.287C1738.94 617.534 1752.76 610.9 1756.93 598.044C1759.22 590.941 1758.09 579.416 1748.58 578.793ZM980.63 535.807C976.95 541.234 973.814 547.007 971.272 553.048C968.848 558.716 953.165 603.448 956.89 607.23C964.503 591.195 984.936 554.005 981.965 537.339L980.63 535.807ZM1827.01 563.5C1816.58 571.11 1819.07 576.452 1827.89 583.612L1830.13 583.632C1833.48 579.362 1834.55 568.507 1830.43 564.237L1827.01 563.5Z" fill="#F4F4F4"/>
<path d="M1395.63 850.219C1395.61 850.429 1395.58 850.649 1395.55 850.87C1386.76 867.928 1369.06 884.499 1352.64 892.301L1352.39 891.429C1353.73 888.146 1357.85 886.404 1361.02 884.413C1375.2 875.51 1384.19 862.041 1395.63 850.219Z" fill="#F4F4F4"/>
<path d="M1128.7 160C1154.22 162.986 1154.3 170.32 1144.44 192.939C1135.02 214.536 1124.3 236.134 1113.02 256.823C1144.76 255.744 1174.76 250.393 1206 248.066C1259.81 244.058 1313.09 238.26 1366.78 233.237C1389.27 231.132 1413.31 229.241 1435.84 229.971C1435.5 230.068 1435.15 230.165 1434.8 230.263L1433.06 230.712C1420.5 234.025 1382.18 238.238 1366.13 240.809L1252.24 258.423C1239.05 260.418 1225.95 262.826 1212.73 264.766C1178.01 269.859 1134.27 271.322 1101.95 285.005C1092.06 301.147 1087.17 313.632 1079.38 330.098C1058.56 374.102 1044.23 418.914 1034.56 466.569C1031.32 482.496 1025.76 514.641 1035.94 528.45C1038.93 532.509 1040.47 534.969 1040.88 540.081C1039.5 543.786 1040.62 542.312 1037.34 544.619C1026.46 546.524 1014.63 536.75 1011.36 527.369C993.343 475.603 1030.61 394.084 1047.28 345.416C1026.08 379.035 1000.37 410.583 976.536 442.368C961.833 461.974 949.1 482.823 933.978 502.094C924.893 513.672 905.418 533.706 889.991 521.003C883.245 515.37 882.066 506.063 881.562 497.75C881.802 466.652 888.998 441.567 891.767 410.064C854.719 449.272 833.299 499.992 794.999 537.19C767.787 561.907 743.261 517.598 750.224 493.87C768.912 429.506 802.597 295.729 893.603 317.592C974.607 339.113 953.41 346.991 929.487 410.993C923.279 427.603 910.705 479.858 906.746 499.593C926.324 490.067 941.106 471.276 955.05 454.833C998.758 403.291 1042.72 347.449 1071.05 285.858C1048.1 290.597 1025.91 297.059 1002.56 300.543C979.623 303.965 962.802 310.401 943.97 291.664C966.36 278.577 1048.48 268.652 1078.81 262.934C1098.91 223.348 1101.12 200.429 1128.7 160ZM911.457 349.778C904.637 338.998 896.209 328.569 882.128 330.452C830.663 350.472 800.715 452.511 790.037 501.751C796.276 495.4 802.358 488.897 808.275 482.246C831.912 455.383 877.989 394.803 889.878 362.325L898.324 366.969C902.178 362.07 908.239 354.797 911.457 349.778Z" fill="#F4F4F4"/>
<path d="M856.652 442.172C856.655 447.941 837.816 473.026 832.925 479.87L832.547 478.555C833.603 472.922 852.228 447.472 856.652 442.172Z" fill="#F4F4F4"/>
<path d="M1726.31 424.098L1729.06 425.075C1718.6 437.678 1686.28 487.155 1676.81 492.041C1681.16 484.45 1689.63 475.695 1694.91 468.199C1705.27 453.468 1714.61 437.775 1726.31 424.098Z" fill="#F4F4F4"/>
<path d="M1611.06 265.391C1612.26 268.682 1609.25 274.66 1609.52 280.302C1613.88 278.299 1616.17 271.329 1617.91 266.925C1625.14 270.696 1654.49 288.819 1658.75 294.186C1667.89 305.725 1650.27 344.826 1649.35 358.855C1648.27 375.291 1640.9 391.711 1637.57 407.02C1631.9 433.017 1623.88 474.074 1636.42 498.242C1679.9 477.373 1721.95 423.828 1750.15 385.909C1753.66 381.2 1768.66 362.911 1773.61 362.333C1773.27 371.628 1734.43 413.138 1727.25 422.81L1726.31 424.098L1729.06 425.075C1733.63 419.465 1740.43 412.404 1745.94 407.855C1739.21 421.455 1729.06 436.267 1719.64 448.307C1702.36 470.389 1686.55 493.277 1665.52 512.042C1648.35 527.355 1635.79 527.374 1614.49 525.785C1589.1 523.89 1580.12 509.853 1575.27 486.818C1567.61 457.997 1573.99 441.962 1577.7 414.066C1573.41 423.741 1571.29 434.087 1567.62 443.975C1560.3 463.628 1544.88 484.438 1529.51 498.572C1509.07 517.354 1477.86 526.005 1450.42 524.617C1436.07 523.89 1422.31 519.109 1412.65 507.962C1394.18 486.643 1394.85 451.759 1397 425.481C1400.51 382.721 1411.05 340.197 1424.63 299.626C1426.69 293.475 1429.77 280.07 1435.41 276.368C1438.73 274.188 1443.73 274.254 1447.42 275.181C1462.12 278.863 1478.71 294.779 1480.87 309.916C1482.99 324.895 1474.48 352.096 1471.21 367.697C1467.48 385.566 1454.65 454.96 1462.95 467.962C1464.6 470.547 1467.02 472.326 1470.09 472.774C1479.68 474.167 1492.95 463.221 1499.84 457.277C1521.76 438.377 1540.33 414.455 1554.11 389.059C1561.42 375.613 1567.66 361.296 1573.53 347.173C1580.45 330.574 1599.58 273.641 1611.06 265.391ZM1565.5 382.762C1557.45 397.868 1552.51 413.277 1545.6 428.802C1539.32 442.906 1529.01 457.807 1522.34 471.154L1522.89 472.341L1523.21 472.454C1536.38 454.356 1563.48 404.533 1566.47 383.633L1565.5 382.762ZM1549.41 403.709C1546.21 409.652 1529.38 436.963 1528.23 441.384L1529 442.37C1534.91 434.028 1548.97 414.958 1550.68 405.524L1549.41 403.709Z" fill="#F4F4F4"/>
<path d="M1970.21 210.473C1971.61 210.915 1973 211.387 1974.38 211.889C1985.29 215.91 1988.73 221.132 1993.25 231.004C1988.88 241.288 1976.81 252.612 1975.55 256.988L1976.89 257.234C1977.91 256.148 1978.92 255.066 1979.94 253.99C1992.3 240.983 1996.43 238.1 2013.7 237.657C1996.62 261.633 1982.16 271.773 1964.34 292.798C1939.89 321.66 1917.24 351.795 1891.28 379.822C1897.51 392.219 1905.52 404.319 1912.72 416.299C1920.9 429.914 1929.58 446.895 1938.82 459.73C1941.12 461.109 1942.21 461.375 1943.72 463.417C1952.9 476.566 1961.01 489.121 1971.11 501.656C1974.72 506.378 1978.58 510.722 1980.72 516.188C1979.93 519.655 1976.89 518.516 1977.33 521.808C1979 534.338 1976.83 533.208 1966.8 541.843C1963.05 541.297 1958.09 540.666 1954.54 539.546C1944.66 536.416 1943.62 530.069 1934.13 533.477C1925.31 531.887 1861.26 443.629 1854.72 431.148C1848.13 439.1 1839.15 449.278 1833.07 457.415C1825.27 467.851 1796.37 514.88 1786.56 519.449C1784.23 518.452 1782.07 516.974 1779.66 516.965C1781.63 522.841 1781.39 522.162 1776.94 527.158C1772.43 533.084 1769.36 536.999 1764.27 542.389C1764 542.36 1763.74 542.331 1763.48 542.303L1762.15 542.13C1753.06 541.039 1738.51 535.755 1728.88 532.893C1735.9 515.487 1764.2 474.753 1776.21 457.598C1789.31 438.874 1811.91 403.723 1825.81 387.436C1804.32 358.09 1785.59 327.979 1766.23 297.221C1762.15 290.726 1757.01 283.442 1753.55 276.72L1754.11 275.499L1757.77 274.313L1758.29 273.246L1756.71 272.014C1754.34 273.339 1755.28 273.054 1752.58 273.407C1748.09 267.949 1738.93 247.063 1732.54 238.18C1742.26 235.251 1744.65 233.609 1752.41 227.728C1760.68 231.133 1772.04 233.668 1778.32 235.748C1804.48 244.402 1850.7 307.038 1861.81 329.986C1879.72 306.955 1905.82 280.013 1925.12 257.758C1937.63 243.319 1956.15 223.256 1970.21 210.473ZM1810.01 453.684C1799.73 464.259 1784.51 486.667 1776.54 499.457L1776.77 501.126C1784.03 493.962 1803.18 465.532 1810.12 455.754L1810.01 453.684ZM1957.83 271.531C1942.66 288.203 1928.22 305.506 1914.52 323.393C1906.53 334.011 1897.75 347.287 1889.26 357.165L1889.38 358.733L1890.59 359.072C1900.35 347.866 1909.12 334.738 1918.1 322.759C1930.97 305.559 1944.68 289.013 1959.21 273.186L1958.78 271.858L1957.83 271.531Z" fill="#5B3DF6"/>
<path d="M1148.52 362.91C1157.34 362.718 1172.83 369.892 1170.95 378.522C1162.2 418.56 1137.73 442.216 1140.45 486.281C1177.55 456.227 1212.48 418.04 1238.94 378.385C1251.08 360.176 1263.32 356.494 1276.73 377.595C1275.09 393.139 1270.61 401.547 1264.93 416.097C1255.05 441.378 1247.46 462.107 1247.56 489.545C1278.41 472.96 1307.21 427.587 1319.32 395.606C1320.59 392.258 1322.87 386.108 1325.77 384.318L1330.91 385.633C1334.13 387.011 1345.58 393.181 1344.19 397.579C1334.78 427.118 1322.45 455.145 1315.49 485.585C1313.8 492.941 1311.37 501.752 1301.94 497.999C1297.06 496.02 1293.17 492.171 1291.15 487.312C1286.68 476.266 1289.92 466.228 1294.11 455.995C1279.53 470.364 1255.3 503.048 1234.33 504.624C1211.37 506.348 1216.56 470.106 1217.17 456.189C1204.74 471.091 1191.78 494.021 1176.2 503.208C1120.14 536.262 1076.49 499.563 1106.8 438.557C1118.02 415.985 1126.78 389.672 1139.5 367.765C1140.41 366.198 1146.67 363.698 1148.52 362.91ZM1211.72 428.742C1204.4 437.489 1160.54 490.313 1162.93 498.941C1177.73 490.925 1204.11 449.043 1211.51 432.111C1211.98 431.022 1211.91 429.884 1211.72 428.742ZM1203.62 455.412C1201.16 459.545 1194.79 469.488 1194.14 473.929C1198.7 468.626 1201.73 464.696 1204.1 458.1C1203.99 457.344 1203.86 456.078 1203.62 455.412Z" fill="#F4F4F4"/>
<path d="M1336.71 521.273C1351.96 522.374 1355.1 529.209 1347.7 543.281C1343.34 551.59 1335.4 556.664 1326.4 559.182C1306.6 559.182 1310.24 538.418 1320.37 528.405C1327.23 521.647 1327.37 521.551 1336.71 521.273Z" fill="#F4F4F4"/>
<path d="M1344.03 294.969C1357.03 295.483 1359.8 298.733 1364.63 310.342C1360.56 316.854 1357.07 321.481 1351.81 327C1333.4 338.354 1325.93 307.953 1344.03 294.969Z" fill="#F4F4F4"/>
<defs>
<clipPath id="clip0_409_15730">
<rect width="549.026" height="818.36" fill="white" transform="translate(100 119.988)"/>
</clipPath>
</defs>
</svg>
