<svg width="2174" height="1059" viewBox="0 0 2174 1059" fill="none" xmlns="http://www.w3.org/2000/svg">
<g opacity="0.9" clip-path="url(#clip0_409_15732)">
<path d="M356.022 114.376C357.537 114.38 359.079 114.405 360.064 114.42C361.268 114.437 361.73 114.437 361.907 114.434L363.796 114.414C387.077 114.28 410.908 118.8 433.058 128.345C439.337 126.899 446.014 126.957 452.545 128.738C484.121 137.348 517.249 154.508 543.712 179.192C570.309 204 592.101 238.389 595.271 280.794C595.338 281.689 595.391 282.584 595.434 283.478C610.026 293.136 622.286 305.202 631.412 320.701C644.891 343.593 648.725 369.324 649.241 395.036C649.425 404.182 646.502 412.756 641.378 419.663C640.46 451.721 635.445 483.098 631.542 509.183C642.542 518.243 648.509 529.793 651.748 539.216C658.744 559.568 657.253 582.127 655.548 595.202C652.9 615.508 647.903 634.944 643.681 651.638C639.262 669.106 635.592 683.932 633.746 698.771L633.747 698.772C631.297 718.467 620.226 735.073 606.443 745.668C601.988 749.092 596.846 752.175 591.178 754.591C584.114 776.652 574.226 797.242 556.482 819.203L556.48 819.204C545.333 833 533.137 848.203 517.753 862.767L517.752 862.768C476.883 901.458 424.181 943.77 347.366 930.116C310.428 924.456 277.149 902.41 251.395 880.116C224.667 856.979 201.516 829.595 184.939 806.878L184.937 806.876C174.498 792.569 165.536 773.251 159.361 754.754C146.528 749.495 136.436 740.524 128.973 728.99C120.035 715.176 116.96 699.889 115.353 690.484C113.138 677.515 113.21 674.248 111.723 668.157C106.425 646.45 96.0787 614.946 94.4636 582.624L94.3943 581.085C93.8962 569.018 94.0553 547.979 103.293 529.541C106.86 522.421 112.161 514.947 119.758 508.769C119.606 507.858 119.461 506.966 119.323 506.096C119.309 506.011 119.296 505.926 119.283 505.841C115.484 480.787 112.57 455.596 110.544 430.32L110.019 424.347C108.653 408.717 107.39 392.672 108.401 375.516C104.101 369.193 101.601 361.63 101.481 353.625C101.453 351.777 101.477 349.93 101.551 348.084L101.553 348.002C101.932 338.99 103.806 329.084 105.123 323.068C108.489 307.687 113.485 294.227 119.872 282.089C118.036 272.555 119.676 262.423 124.988 253.703C139.428 230.001 154.577 211.056 174.462 195.93C178.894 192.559 183.437 189.472 188.101 186.621C191.394 177.918 197.709 170.365 206.395 165.639C207.624 164.97 208.894 164.118 212.734 161.517C216.037 159.28 221.111 155.859 227.261 152.689C247.365 142.173 268.885 135.251 290.924 132.066C295.852 127.003 302.149 123.211 309.337 121.307C323.024 117.682 332.125 116.39 344.162 115.076C346.709 114.706 348.939 114.559 350.444 114.486C352.525 114.386 354.493 114.371 356.022 114.376Z" fill="#2A2A2A"/>
<path d="M355.519 161.029C370.686 160.868 385.381 160.742 399.957 165.347L399.968 165.351C402.27 166.021 404.808 166.988 407.239 167.918C409.657 168.843 411.982 169.736 413.816 170.236V170.235C415.93 170.835 419.242 172.307 422.638 173.931C426.032 175.553 429.443 177.295 431.781 178.436L431.982 178.533L432.19 178.448C433.514 177.906 434.242 177.853 435.726 177.619L435.876 177.596L435.987 177.492C436.846 176.694 437.756 175.792 438.746 175.036C439.716 174.297 440.708 173.745 441.718 173.588C442.641 173.691 444.706 174.25 447.38 175.102C450.086 175.964 453.359 177.105 456.573 178.311C459.788 179.516 462.938 180.784 465.4 181.898C466.632 182.456 467.684 182.971 468.483 183.419C468.883 183.643 469.213 183.846 469.468 184.025C469.73 184.21 469.886 184.351 469.961 184.445L470.064 184.576L470.227 184.618C472.808 185.288 475.418 186.58 477.977 188.079C480.547 189.585 483.002 191.261 485.348 192.722C516.658 212.221 546.063 243.668 551.4 281.354C552.771 291.059 551.386 300.351 550.045 310.118L549.994 310.493L550.34 310.645C551.753 311.263 553.531 311.871 555.212 312.489C556.914 313.115 558.518 313.752 559.661 314.438C575.541 323.982 589.255 335.443 597.303 352.438V352.438C597.756 353.402 598.633 356.084 598.835 356.948L598.844 356.986L598.858 357.023C603.026 367.268 605.111 382.122 605.097 393.782C604.535 392.12 603.946 390.797 603.152 389.578C601.926 387.694 600.238 386.089 597.522 383.845L596.652 383.125L596.704 384.253L597.08 392.363L597.082 392.389C597.374 395.373 597.251 398.077 597.054 400.813C596.857 403.542 596.582 406.321 596.584 409.399L596.601 414.612C596.63 419.828 596.691 425.047 596.712 430.24C596.692 431.485 596.464 432.89 596.233 434.334C596.006 435.761 595.775 437.23 595.781 438.527C595.829 447.487 594.193 455.639 592.917 464.531L586.827 506.488V506.491C585.662 514.881 585.573 522.377 582.734 530.478C582.494 531.165 582.228 532.09 582.104 533.02C581.981 533.932 581.982 534.933 582.355 535.717L582.397 535.805L582.47 535.871C583.181 536.522 584.156 536.86 585.204 537.033C586.257 537.207 587.442 537.224 588.624 537.188C589.792 537.153 591.035 537.063 592.117 537.018C593.228 536.971 594.211 536.969 594.983 537.091C597.05 537.42 598.982 538.548 600.723 540.041C602.243 541.346 603.594 542.909 604.733 544.404L605.208 545.04C607.976 548.812 610.397 553.048 611.442 557.571L611.539 558.01C612.812 564.051 612.824 571.794 612.019 580.432C611.214 589.062 609.597 598.553 607.633 608.076C603.701 627.137 598.398 646.245 595.443 658.858C593.618 666.467 592.085 674.143 590.853 681.868L590.852 681.873C589.891 688.231 589.599 693.272 588.019 697.841C586.457 702.354 583.632 706.391 577.567 710.603C574.009 713.073 570.73 714.479 567.312 715.094C563.89 715.709 560.297 715.536 556.101 714.805L555.67 714.729L555.538 715.146C553.994 720.038 552.802 725.611 551.519 730.617C544.817 756.732 532.406 777.664 514.977 798.221C486.305 832.031 448.909 869.38 405.532 882.134C376.843 890.567 341.484 885.231 315.946 870.286L315.943 870.284L314.518 869.457C284.654 851.984 260.022 827.821 237.887 801.344C228.875 790.562 217.908 776.91 211.744 764.567C207.352 755.773 201.511 742.465 198.418 733.109C197.903 731.549 197.413 728.64 196.88 725.468C196.352 722.326 195.785 718.953 195.114 716.546L195.023 716.218L194.686 716.183L193.798 716.096C191.726 715.907 189.644 715.808 187.61 715.654C185.271 715.477 182.962 715.225 180.677 714.679C169.818 712.083 163.568 701.346 160.763 691.078C159.67 687.066 158.917 682.987 158.231 678.878C157.548 674.776 156.93 670.631 156.112 666.525C153.669 654.254 150.79 642.15 147.43 630.11C147.181 629.221 147.011 628.222 146.835 627.188C146.661 626.167 146.479 625.111 146.207 624.157C142.61 611.552 139.961 598.92 139.009 585.857C138.273 575.134 138.518 562.473 140.867 551.926C141.595 548.659 143.844 545.394 146.755 542.732C149.662 540.074 153.176 538.065 156.364 537.273C156.767 537.182 157.62 537.111 158.736 537.046C159.847 536.981 161.14 536.926 162.424 536.856C163.694 536.787 164.937 536.704 165.896 536.584C166.373 536.524 166.797 536.453 167.125 536.364C167.288 536.32 167.445 536.268 167.579 536.201C167.698 536.142 167.874 536.035 167.978 535.846L168.039 535.733V535.605C168.039 533.207 167.37 528.926 166.636 524.775C165.895 520.591 165.085 516.529 164.774 514.479C158.224 471.285 151.647 427.074 151.902 383.376C151.919 380.489 151.993 376.79 152.364 374.104L152.365 374.093L152.367 374.082C153.116 366.088 154.481 358.163 156.452 350.38C157.385 347.496 158.292 344.603 159.173 341.702L159.581 340.357L158.415 341.142C156.863 342.186 154.959 343.491 153.179 344.926C151.413 346.349 149.738 347.924 148.647 349.528L144.814 353.84C145.471 346.13 146.152 338.64 148.582 331.268C149.445 329.221 149.896 326.809 150.494 324.317C151.101 321.791 151.872 319.117 153.38 316.429L153.411 316.373L153.428 316.312C154.327 312.901 156.425 308.4 158.78 303.967C161.123 299.557 163.698 295.25 165.546 292.212C166.633 290.87 167.806 289.279 168.981 287.67C170.168 286.046 171.359 284.403 172.485 282.958L172.559 282.864L172.582 282.747C172.82 281.545 173.494 280.325 174.288 279.023C175.065 277.751 175.962 276.394 176.531 275.011L176.697 274.606L176.319 274.388C175.77 274.07 175.06 273.967 174.33 273.961C173.589 273.955 172.763 274.05 171.937 274.186C171.108 274.321 170.261 274.5 169.479 274.663C168.69 274.828 167.975 274.977 167.387 275.061L167.32 275.069L167.259 275.096C166.652 275.357 165.568 275.87 164.538 276.344C164.038 276.574 163.555 276.79 163.14 276.971C163.465 276.297 163.902 275.512 164.42 274.653C165.238 273.297 166.242 271.784 167.292 270.279C169.392 267.27 171.66 264.313 172.948 262.741L172.996 262.684L173.024 262.614C173.377 261.754 173.903 261.257 174.572 260.704C175.242 260.151 176.065 259.537 176.835 258.479L176.836 258.479C186.68 244.95 198.291 234.803 212.4 225.912L213.774 225.056C220.662 221.059 227.739 217.395 234.979 214.077L235.007 214.064L235.033 214.048C235.801 213.573 237.803 212.67 239.901 211.767C241.985 210.87 244.099 209.999 245.077 209.585L245.19 209.537L245.269 209.441L245.829 208.754C246.011 208.663 246.156 208.594 246.267 208.531C246.406 208.453 246.525 208.371 246.636 208.252C246.735 208.145 246.814 208.022 246.889 207.905C246.969 207.78 247.069 207.619 247.229 207.389L247.379 207.175L247.288 206.93L247.005 206.165L246.957 206.035L246.849 205.949L246.521 205.701C244.879 204.538 243.187 204.463 241.352 204.24L241.326 204.238L236.92 203.925L236.895 203.923L235.386 203.894C234.018 203.874 232.935 203.913 231.279 204.273L230.014 204.332C231.454 203.411 233.266 202.215 235.022 201.101C237.146 199.754 239.216 198.515 240.645 197.908C240.677 197.898 240.703 197.889 240.716 197.884C240.757 197.868 240.805 197.848 240.855 197.826C240.958 197.782 241.091 197.72 241.249 197.645C241.566 197.493 241.996 197.28 242.503 197.025C243.517 196.516 244.849 195.833 246.215 195.127C248.946 193.715 251.827 192.204 252.61 191.783C257.349 189.238 259.599 188.274 264.801 186.571L264.817 186.565L264.833 186.56C276.235 181.945 289.322 179.416 301.465 177.361L301.506 177.354L301.545 177.341C304.099 176.458 307.68 176.06 311.392 175.871C315.099 175.682 318.861 175.703 321.803 175.636H321.825L321.847 175.633L323.185 175.483C327.353 175.628 331.381 175.759 335.523 176.087L335.696 176.101L335.841 176.004C336.323 175.682 336.649 175.464 336.898 175.163C337.146 174.864 337.304 174.497 337.542 173.956L337.581 173.867L337.584 173.771C337.637 172.094 337.044 171.251 336.374 169.964L336.28 169.784L336.088 169.721L330.174 167.75C328.298 166.994 325.848 166.359 323.929 165.803L323.919 165.8C323.091 165.577 322.667 165.522 322.255 165.217C322.34 165.163 322.439 165.106 322.555 165.048C322.899 164.875 323.34 164.705 323.857 164.541C324.893 164.213 326.19 163.923 327.536 163.675C330.197 163.184 333 162.867 334.236 162.745C337.298 162.984 340.975 162.568 344.677 162.091C348.423 161.608 352.201 161.064 355.519 161.029Z" fill="#121212" stroke="#FAFAFA"/>
<path d="M435.647 177.125C437.331 175.56 439.397 173.405 441.709 173.082C449.773 182.987 452.513 186.354 458.027 198.361C448.303 191.301 443.42 185.254 432 177.985C433.39 177.416 434.183 177.356 435.647 177.125Z" fill="#121212"/>
<path d="M172.563 262.426L172.74 263.026C170.192 267.176 167.272 271.359 164.536 275.407C174.779 270.485 178.354 269.517 189.207 266.474C178.881 275.655 169.522 287.033 162.119 298.693C160.068 301.922 154.64 314.861 152.945 316.185C154.776 309.243 161.437 298.01 165.138 291.926C167.307 289.254 169.826 285.558 172.093 282.651C172.608 280.051 174.971 277.495 176.07 274.822C174.319 273.811 169.887 275.211 167.458 275.557C166.26 276.073 163.178 277.581 162.215 277.877C163.461 274.295 169.968 265.59 172.563 262.426Z" fill="#FAFAFA"/>
<path d="M167.457 275.556C172.968 272.544 178.884 270.339 185.023 269.008C180.481 273.331 176.165 277.884 172.092 282.651C172.607 280.05 174.97 277.494 176.069 274.822C174.318 273.81 169.886 275.211 167.457 275.556Z" fill="#121212"/>
<path d="M334.229 162.242L334.255 162.878C331.645 163.541 328.108 164.567 325.487 164.501L325.151 164.917C328.872 167.201 348.894 172.233 351.271 177.808L351.029 178.808C349.468 179.461 340.134 177.429 337.688 177.171C329.241 176.281 321.459 176.132 312.985 176.415C310.833 176.487 302.799 177.077 301.383 176.867C306.635 175.05 315.951 175.269 321.792 175.135L323.168 174.981C327.346 175.126 331.396 175.256 335.564 175.586C336.568 174.916 336.588 174.884 337.085 173.754C337.133 172.235 336.622 171.519 335.931 170.193L330.017 168.223C328.168 167.475 325.745 166.848 323.79 166.281C322.777 166.009 322.2 165.974 321.505 165.198C322.827 163.523 331.785 162.481 334.229 162.242Z" fill="#FAFAFA"/>
<path d="M335.93 170.195C341.263 172.521 345.338 174.609 350.19 177.898C345.537 177.116 340.182 176.068 335.562 175.589C336.566 174.918 336.587 174.886 337.084 173.756C337.132 172.237 336.62 171.522 335.93 170.195Z" fill="#121212"/>
<path d="M413.948 169.754C418.27 170.978 427.356 175.72 432 177.986C443.421 185.255 448.304 191.302 458.027 198.362C452.513 186.355 449.773 182.988 441.71 173.083C445.541 173.45 468.434 181.726 470.352 184.134C469.23 184.042 464.678 181.966 463.38 181.398C457.247 178.717 451.021 176.648 444.692 174.477C448.708 179.787 457.427 191.926 459.274 198.025C458.98 199.51 459.256 198.981 458.273 200.064C456.729 199.841 448.922 192.39 447.15 190.798C438.349 182.889 425.045 174.556 413.913 170.269L413.596 170.15L413.948 169.754Z" fill="#FAFAFA"/>
<path d="M148.113 331.094L148.59 331.378C147.727 338.119 146.205 344.846 145.347 351.731C151.102 346.144 154.208 342.424 161.141 338.115C156.537 352.426 153.061 365.258 152.156 380.438C151.797 378.132 151.857 376.343 151.87 374.032C152.622 366.007 153.994 358.052 155.974 350.238C156.907 347.351 157.814 344.456 158.695 341.554C155.593 343.641 151.142 346.729 149.045 349.832L144.189 355.295C144.892 347.064 145.5 339.015 148.113 331.094Z" fill="#FAFAFA"/>
<path d="M240.475 197.438C239.975 199.039 234.362 202.231 232.49 203.734C240.947 202.254 250.597 203.841 258.938 205.701C256.572 206.523 236.095 213.89 235.106 213.894L234.77 213.624C236.384 212.625 242.943 209.947 244.882 209.126L245.508 208.359C246.461 207.882 246.153 208.061 246.82 207.104L246.537 206.34C244.926 205.046 243.298 204.981 241.292 204.738L236.885 204.424C234.647 204.383 233.517 204.296 231.345 204.772L228.754 204.892L228.938 204.425C232.014 202.509 237.528 198.681 240.475 197.438Z" fill="#FAFAFA"/>
<path d="M241.291 204.737C246.663 204.643 249.295 204.871 254.568 206.327L244.882 209.125L245.508 208.358C246.46 207.882 246.152 208.061 246.819 207.104L246.536 206.339C244.925 205.046 243.297 204.981 241.291 204.737Z" fill="#121212"/>
<path d="M604.394 389.83C603.482 382.269 603.203 375.04 601.449 367.529C600.897 365.166 599.163 358.855 599.323 356.832C603.914 368.119 605.988 384.909 605.54 396.982C603.75 390.483 602.627 388.708 597.205 384.227L597.581 392.338C597.593 395.715 597.704 398.44 597.109 401.783C596.558 396.646 596.602 386.619 595.291 382.218L595.591 381.855C597.96 382.039 602.791 387.897 604.394 389.83Z" fill="#FAFAFA"/>
<path d="M452.494 333.531C454.341 333.299 455.523 333.044 457.253 333.85L457.059 334.547C454.18 336.809 447.011 338.993 443.254 340.288C454.44 340.824 465.589 341.973 476.65 343.729C508.11 349.01 524.801 373.147 527.398 403.391C528.345 414.43 529.016 428.249 531.733 438.899C532.521 441.98 536.377 446.499 538.199 449.18C544.041 457.78 553.599 473.173 555.972 483.365C558.525 494.321 559.289 512.654 559.744 524.141C560.567 545.112 561.195 567.033 560.555 587.996C560.072 603.9 557.175 620.638 555.369 636.286C553.231 654.807 550.114 672.925 547.241 690.986C539.845 737.458 525.288 767.16 492.887 801.029C478.777 815.778 472.06 823.135 454.727 835.426C458.797 821.576 462.127 806.196 459.359 791.767L459.298 791.986C455.641 804.825 448.951 816.258 439.189 825.312C436.421 827.878 434.434 829.732 431.128 831.61C422.012 836.78 421.415 833.524 418.061 826.012C416.842 831.734 415.416 834.567 412.96 839.861C410.074 833.712 406.629 829.076 402.249 823.978C402.907 833.148 402.677 836.717 400.078 845.516C395.338 834.371 393.976 830.715 387.035 820.757C386.916 827.55 386.851 830.575 385.549 837.136C379.906 829.696 378.082 826.359 374.207 818.084C371.122 824.681 368.277 831.31 362.805 836.297C361.772 830.539 361.375 827.018 361.351 821.18C355.814 827.722 351.992 835.542 350.233 843.929C350.033 844.161 350.183 844.033 349.68 844.137C345.514 837.072 345.261 832.001 346.17 824.205C339.302 831.646 340.014 832.789 335.455 840.477C333.333 835.921 331.804 831.57 330.161 826.827C328.883 829.844 327.453 832.417 325.902 835.294C310.744 830.551 301.337 819.466 293.971 805.908C291.781 801.876 290.495 796.178 287.883 792.494C286.642 807.095 288.768 819.498 292.969 833.412C290.093 831.51 286.162 828.413 283.487 826.099C264.511 809.672 245.211 789.657 231.08 768.99C210.182 738.425 203.461 699.861 198.315 663.89C195.015 641.553 192.214 619.148 189.915 596.687C187.438 570.706 188.196 541.22 189.184 515.014C189.889 505.771 189.862 495.931 191.458 486.796C193.041 477.742 199.06 467.26 203.359 459.217C207.466 451.532 214.512 444.151 216.806 435.659C218.095 430.883 217.74 424.592 218.347 419.65C219.737 398.666 220.072 382.164 233.842 365.329C250.896 344.477 270.605 341.969 295.774 337.696C304.398 336.232 312.991 332.948 321.952 334.959C338.935 338.769 356.116 351.176 373.81 350.562C386.879 350.109 400.537 342.909 413.432 339.542C427.034 335.989 438.585 334.849 452.494 333.531Z" fill="#FAFAFA"/>
<path d="M491.955 469.608C496.339 469.223 505.908 475.072 509.932 477.425C525.815 486.7 529.711 494.591 533.871 511.479C522.946 502.879 507.902 491.309 493.398 493.341C482.79 494.828 468.288 504.089 458.329 508.761C476.808 508.623 495.283 509.668 509.964 522.594C514.787 526.838 516.872 530.962 519.721 536.52C507.43 529.104 506.227 522.011 491.283 516.991C476.127 511.898 458.95 511.195 444.36 518.403C435.708 522.522 427.823 529.048 420.372 534.982C418.53 536.448 416.979 537.695 414.967 538.938C414.618 538.694 414.263 538.458 413.902 538.234C411.765 536.908 410.219 536.936 408.393 538.826C401.893 545.551 404.214 556.58 406.453 564.575C404.972 562.801 403.766 560.739 402.651 558.753C395.494 546.002 395.143 537.351 398.941 523.757C386.196 519.473 383.742 509.916 383.668 497.669C386.985 507.352 391.695 516.07 402.086 519.304C398.55 514.658 396.758 511.73 395.54 505.915C396.877 506.86 397.726 507.428 399.165 508.244C405.139 504.582 418.374 496.701 424.716 494.499C447.403 486.619 469.6 478.393 491.955 469.608Z" fill="#121212"/>
<path d="M252.332 469.668C253.108 469.666 253.699 469.698 254.437 469.948C266.669 474.09 278.649 479.027 290.765 483.422C301.765 487.258 312.929 490.733 323.709 495.165C331.659 498.433 338.653 503.563 346.36 507.23C347.645 507.841 348.78 507.655 350 507.003L350.575 507.231C351.353 510.19 346.25 517.075 344.588 519.619C355.765 515.243 359.716 508.325 362.901 497.216C364.745 510.748 360.343 518.197 348.529 524.095C352.218 540.066 350.797 546.883 344.656 562.072C344.327 555.754 346.418 537.353 335.66 536.45C334.819 536.378 332.511 538.14 331.696 538.72C319.761 529.677 313.548 523.943 299.895 517.377C285.922 511.454 271.973 512.08 257.647 516.502C253.233 517.863 248.518 519.294 244.733 522.049C240.943 524.806 238.287 529.177 234.402 531.855L233.446 531.255C231.798 531.994 229.108 534.452 227.619 535.703C239.213 510.713 264.982 508.806 288.922 508.694C277.887 504.407 262.504 493.832 250.48 493.176C236.056 492.388 222.15 502.767 212.031 511.949C214.727 497.535 218.888 488.337 231.832 480.151C238.941 475.654 244.009 471.988 252.332 469.668Z" fill="#121212"/>
<path d="M354.236 681.867C360.729 681.271 364.591 683.277 370.273 686.226C370.313 691.209 368.685 700.463 367.421 705.314C366.125 706.062 352.053 711.3 349.099 712.463C339.367 715.592 327.67 723.096 318.016 725.526C302.904 729.334 294.303 724.503 287.012 742.856C285.608 745.729 284.225 749.505 283.027 752.554C277.235 736.97 276.053 722.481 291.881 712.303C300.429 706.805 309.496 705.023 318.418 700.523C330.841 694.254 340.535 685.647 354.236 681.867Z" fill="#121212"/>
<path d="M456.046 710.895C456.118 710.903 456.189 710.91 456.261 710.918C457.515 711.154 458.609 711.909 459.27 713C459.778 713.848 460.032 714.663 459.653 715.618C458.125 719.462 448.124 723.825 444.136 725.196C431.642 729.491 418.362 729.867 405.526 732.524C398.402 733.999 391.781 737.132 384.499 738.135C375.72 739.341 366.864 736.936 358.031 737.263C345.423 737.735 310.869 746.07 301.348 741.004C299.9 740.232 299.534 739.241 299.115 737.727C299.381 737.148 300.008 735.861 300.539 735.597C305.585 733.076 311.165 736.624 317.545 734.546C332.132 729.787 345.255 722.135 359.732 717.244C368.956 714.131 371.811 720.113 380.625 720.704C386.494 721.096 392.707 713.38 397.463 713.164C410.06 712.597 424.016 717.66 436.66 718.547C445.357 719.158 449.93 716.233 456.046 710.895Z" fill="#121212"/>
<path d="M400.857 678.355C409.142 678.639 425.833 686.495 435.065 688.553C442.532 690.687 450.422 690.431 457.958 692.093C476.6 696.205 476.302 707.693 473.003 722.678C470.8 718.406 469.27 715.505 466.049 711.837C462.755 708.66 461.652 708.201 457.419 706.582C448.771 707.913 445.96 711.845 436.223 710.399C423.296 708.912 411.453 705.667 398.381 704.613C387.977 703.773 388.485 696.888 385.516 688.089C383.686 682.667 396.268 678.827 400.857 678.355Z" fill="#121212"/>
<path d="M273.863 523.343C288.375 522.719 300.163 527.207 312.385 534.443C315.811 536.473 329.77 545.416 328.716 549.572C326.88 549.991 319.072 550.315 316.634 550.523C311.319 550.97 305.337 551.901 300.12 552.061C310.514 548.357 311.071 547.314 322.619 546.743C314.001 541.3 305.323 535.914 295.916 531.938C295.591 536.501 295.421 540.437 293.133 544.569C290.939 548.565 287.222 551.502 282.828 552.713C272.316 555.602 263.348 549.412 260.693 539.15C260.371 536.741 260.066 534.331 259.78 531.918C254.295 534.895 247.48 539.155 243.064 543.57C251.745 552.681 257.564 554.207 269.317 556.776C258.074 557.052 254.712 554.882 244.912 551.893C243.817 552.109 244.258 551.849 243.538 552.689L243.723 553.42C246.286 556.545 256.008 560.521 259.748 561.995C251.17 560.824 246.812 559.27 239.828 553.919C237.231 551.973 234.886 550.067 231.791 548.956C229.244 548.041 226.6 548.213 223.898 548.169C227.587 546.131 232.8 541.744 236.199 538.899C247.93 529.073 258.477 524.374 273.863 523.343Z" fill="#121212"/>
<path d="M283.875 528.656C286.557 528.421 288.95 530.339 289.301 533.008C289.652 535.677 287.836 538.151 285.183 538.614C283.365 538.93 281.519 538.227 280.376 536.776C279.232 535.329 278.975 533.367 279.705 531.673C280.436 529.979 282.036 528.82 283.875 528.656Z" fill="#FAFAFA"/>
<path d="M426.467 748.969L426.69 749.24C425.866 752.489 413.254 767.53 410.801 771.266C407.908 775.677 407.245 777.551 405.214 782.542C404.077 780.432 403.063 778.814 401.759 776.796C398.641 782.606 396.888 787.557 396.655 794.15L391.146 786.055C385.991 791.949 384.099 794.354 379.839 801.007C375.401 795.517 373.325 792.108 368.161 786.462C366.116 789.339 364.545 791.289 362.248 793.971C361.981 791.237 361.699 789.299 361.186 786.602C360.161 782.946 359.457 781.024 357.628 777.699C356.301 778.91 355.051 780.444 353.864 781.819C348.98 770.886 343.246 767.29 334.139 759.746C356.625 768.169 388.174 767.857 410.45 758.631C415.948 756.353 421.646 752.393 426.467 748.969Z" fill="#121212"/>
<path d="M468.273 523.345C489.819 521.779 504.921 536.028 520.765 547.672C510.547 549.431 509.057 552.659 500.706 557.63C497.654 559.444 493.382 560.523 489.882 561.23C493.241 559.916 496.444 558.229 499.432 556.204C500.646 555.384 501.912 554.605 502.18 553.211C501.585 552.895 500.913 552.703 500.246 552.887C492.41 555.073 485.189 557.638 476.867 556.987C477.421 555.988 482.413 556.028 483.768 555.684C492.176 553.574 498.203 549.698 504.506 544.256C501.944 541.862 490.541 532.476 487.555 532.748C486.781 534.042 486.856 535.189 486.75 536.72C484.132 552.036 468.814 559.097 456.336 548.172C451.849 544.244 451.178 537.714 451.178 531.996C441.727 535.633 432.556 541.179 424.182 546.889C432.274 547.429 438.275 548.719 445.69 552.176C438.033 551.86 425.395 550.23 418.125 548.911C425.303 537.135 449.232 525.659 462.804 523.789C464.444 523.561 466.59 523.437 468.273 523.345Z" fill="#121212"/>
<path d="M474.366 528.724C477.044 528.437 479.468 530.327 479.847 532.992C480.226 535.661 478.422 538.147 475.769 538.618C473.971 538.934 472.142 538.246 471 536.824C469.857 535.397 469.582 533.463 470.283 531.777C470.984 530.091 472.55 528.92 474.366 528.724Z" fill="#FAFAFA"/>
<path d="M341.493 649.915C352.569 648.704 358.842 661.919 369.226 665.347C381.698 669.459 389.066 656.245 399.133 651.37C402.226 649.811 405.798 649.228 409.121 650.451C411.303 651.254 414.553 653.176 413.313 656.013C412.336 658.251 410.25 659.058 408.14 659.909C403.91 660.82 398.957 660.688 395.001 662.574C387.583 666.106 383.508 674.47 374.365 674.554C364.514 674.646 359.6 665.355 351.897 662.234C344.567 659.265 339.769 662.071 333.174 655.649C335.957 651.481 336.645 650.934 341.493 649.915Z" fill="#121212"/>
<path d="M420.408 620.223C420.547 620.327 420.686 620.43 420.826 620.534C427.861 627.667 432.517 635.811 433.148 646.068C433.881 657.996 426.74 668.733 414.341 669.52L407.088 669.404C410.627 667.758 414.21 666.203 417.586 664.233C434.787 654.192 425.992 634.724 420.503 620.566C420.471 620.45 420.44 620.335 420.408 620.223Z" fill="#121212"/>
<path d="M327.999 619.055C328.477 619.834 327.273 621.676 326.895 622.703C323.31 632.425 318.146 644.221 321.822 654.574C324.738 662.782 333.427 665.987 340.707 669.187C339.193 669.379 336.845 669.415 335.254 669.483C316.374 670.218 312.037 649.288 317.96 635.098C320.95 627.938 322.807 624.869 327.999 619.055Z" fill="#121212"/>
<path d="M314.432 562.059L315.205 562.15C315.088 562.378 314.957 562.67 314.749 562.83C305.486 569.918 294.782 576.468 283.076 578.322C278.441 579.053 271.818 578.642 267.169 578.25L265.411 577.718L265.354 577.391C275.792 576.472 286.015 573.878 295.627 569.707C302.589 566.63 306.855 563.177 314.432 562.059Z" fill="#121212"/>
<path d="M427.521 560.645C436.932 560.868 455.372 573.643 466.185 575.11C467.364 575.269 480.302 577.679 480.286 577.667C479.54 577.835 478.788 577.979 478.031 578.099C460.314 580.836 441.255 570.754 427.521 560.645Z" fill="#121212"/>
<path d="M470.787 680.477C476.171 681.144 485.419 685.707 487.946 690.866C491.793 698.718 489.607 706.038 487.296 713.818L486.48 715.261C485.937 714.01 486.453 708.14 486.396 706.182C486.006 692.888 479.807 688.804 470.787 680.477Z" fill="#121212"/>
<path d="M404.509 183.822C411.405 183.448 426.134 194.511 431.35 199.19C449.508 215.48 461.258 240.359 462.717 264.61C463.595 277.751 461.449 290.918 456.444 303.1C455.604 305.119 454.162 308.515 452.767 310.093L452.197 310.115C451.311 307.723 453.976 297.423 454.469 293.379C456.391 277.607 455.022 256.826 447.213 242.676C448.833 253.629 447.301 266.092 444.098 276.809C443.728 278.047 443.276 278.384 442.289 278.784C440.682 277.781 441.126 273.769 440.774 271.395C438.939 259.004 436.759 250.586 430.612 239.671C434.403 257.801 434.579 275.771 428.94 293.445C427.607 297.623 426.076 302.674 423.695 306.352C422.723 302.498 422.793 294.801 422.54 290.44C421.721 276.287 416.924 263.461 409.26 251.593C392.247 225.332 366.954 211.287 339.526 199.164C338.671 198.786 338.316 198.264 338.152 197.418C340.376 196.185 350.406 198.666 353.117 199.372C383.451 207.271 406.25 223.815 422.439 250.34C421.536 246.073 421.039 241.793 420.04 237.427C417.093 223.938 410.558 211.495 401.125 201.413C399.089 199.201 387.605 188.976 387.87 187.431C388.3 187.267 388.692 187.051 389.167 187.214C407.958 193.671 423.363 209.276 434.775 224.842C428.19 205.827 419.013 196.921 404.509 183.822Z" fill="#FAFAFA"/>
<path d="M308.733 207.068C311.765 207.005 318.186 208.706 321.187 209.717C342.982 217.004 360.979 232.668 371.202 253.25C377.216 265.413 379.897 278.549 380.612 291.998C380.78 295.149 381.31 299.472 380.302 302.463L379.72 302.74C378.997 302.011 378.318 300.567 378.126 299.575C372.848 272.209 363.416 253.965 343.301 234.932C351.529 248.509 356.303 262.842 358.75 278.53C359.337 281.552 361.151 289.055 360.286 291.57L359.619 291.885C358.601 291.324 354.926 283.278 354.071 281.562C344.152 261.666 329.151 246.501 309.647 235.529C300.323 230.272 290.422 226.111 280.142 223.131C277.507 222.341 272.381 222.115 271.053 220.183L271.252 219.794C272.431 219.147 273.716 218.921 275.058 218.852C300.683 217.536 318.032 226.496 336.943 242.051C328.908 225.435 321.953 219.281 308.733 207.068Z" fill="#FAFAFA"/>
<path d="M480.199 208.945C484.094 210.499 488.361 216.117 491.049 219.383C503.925 235.028 508.029 251.2 511.705 270.603C512.836 261.535 514.003 253.196 512.512 244.171C512.153 242.017 510.534 235.025 511.557 233.473C512.644 233.769 513.164 234.139 513.851 235.065C531.896 259.386 538.421 293.879 517.543 318.663C516.069 320.413 512.149 326.222 509.887 325.95C509.771 325.323 509.619 324.951 509.979 324.337C514.011 317.41 516.7 311.806 518.926 304.094C522.026 293.704 521.235 284.138 520.536 273.529C519.293 277.372 518.482 281.624 517.179 285.621C513.224 297.76 506.626 307.838 496.99 316.208C495.161 317.796 493.001 320.058 490.53 319.932C489.71 318.49 493.914 312.05 494.91 310.006C502.874 293.673 503.214 281.527 500.844 263.988C500.245 267.799 496.486 286.076 492.053 285.583C491.521 284.357 492.9 278.166 493.173 276.066C494.351 267.415 494.448 258.651 493.461 249.976C492.312 239.925 490.078 231.19 485.978 221.894C484.324 218.147 481.219 212.621 480.199 208.945Z" fill="#FAFAFA"/>
<path d="M598.918 564.93C599.609 565.393 600.117 566.093 600.457 566.852C605.096 577.281 593.464 630.474 588.929 641.363C585.38 649.878 578.883 656.492 575.746 665.379C579.035 661.159 582.411 657.007 585.864 652.923C584.353 663.832 582.34 690.397 574.891 698.301C570.504 702.96 564.978 703.679 558.916 703.907C559.116 701.869 559.403 699.739 559.647 697.697C561.286 685.442 562.772 670.969 564.902 658.973C565.745 658.418 568.67 656.5 569.181 655.82C572.386 651.589 575.619 643.957 578.108 639.265C583.594 628.924 579.003 615.03 575.031 604.481C577.533 596.361 581.109 588.613 585.668 581.441C588.117 590.356 589.78 598.887 591.774 607.894C591.55 603.69 591.794 599.694 591.85 595.538C592.017 583.599 592.885 575.531 598.918 564.93Z" fill="#FAFAFA"/>
<path d="M149.712 564.574C160.098 571.947 157.925 595.071 159.393 606.863C160.818 598.559 162.938 589.213 164.81 580.941C168.665 587.175 173.05 597.668 175.224 604.585C173.166 613.184 168.283 622.175 169.652 631.242C169.923 632.96 170.381 634.638 171.019 636.257C172.299 639.497 174.548 642.966 175.795 646.043C178.767 653.367 178.581 654.606 184.993 659.289C186.016 663.465 186.615 669.015 187.21 673.355L190.261 695.496C190.811 697.997 191.237 701.258 191.647 703.839C172.406 703.827 170.35 691.864 167.89 675.424C166.75 667.804 165.463 659.896 164.258 652.264C167.774 656.252 170.845 660.748 174.36 664.891C171.026 655.189 165.714 650.65 161.658 641.811C159.166 636.385 157.616 627.785 156.272 621.724C152.188 603.306 146.7 583.503 149.712 564.574Z" fill="#FAFAFA"/>
<path d="M543.859 328.209C549.461 327.905 556.386 331.549 561.409 334.995C570.735 341.391 578.659 352.822 581.64 363.781C581.915 364.792 581.752 364.961 581.304 365.577C579.066 365.375 573.408 358.741 570.723 356.978C566.635 354.295 565.309 353.702 560.861 351.899L561.153 352.227C571.73 364.42 578.203 383.37 577.148 399.341C575.166 397.034 572.953 392.383 571.239 389.558C566.076 381.129 559.191 373.885 551.036 368.296C555.531 377.055 558.42 383.602 560.21 393.318C560.746 396.552 562.771 409.617 560.714 411.839L559.523 411.714C558.628 409.654 557.633 402.604 556.794 399.755C553.433 388.319 548.191 378.03 541.142 368.454C538.229 364.462 535.02 360.698 531.532 357.197C529.978 355.659 524.14 350.954 524.451 349.308C528.731 346.641 550.013 356.979 554.616 359.442C547.487 350.159 542.349 346.874 534.173 338.894C545.314 339.016 549.533 339.827 560.154 343.405C555.523 337.447 549.705 334.188 544.195 329.324C544.195 329.324 543.891 328.313 543.859 328.209Z" fill="#FAFAFA"/>
<path d="M239.989 239.496C252.813 239.044 269.01 246.381 278.661 254.774C292.609 266.456 300.993 283.061 306.96 299.936C307.745 302.156 311.249 310.635 309.794 312.177C309.024 311.977 308.467 311.792 308.006 311.069C300.685 299.604 293.534 290.918 283.238 281.906C268.973 269.246 249.389 260.619 230.558 258.086C228.266 257.778 219.296 256.614 218.09 255.333C219.303 253 225.354 252.891 227.944 252.426C242.881 249.748 254.935 253.857 268.701 259.315C260.376 250.438 252.044 247.299 241.518 241.733C240.187 241.029 240.355 240.769 239.989 239.496Z" fill="#FAFAFA"/>
<path d="M160.249 547.102C167.957 549.123 171.218 551.421 176.242 557.815C177.038 562.326 179.649 584.675 177.965 587.784L177.311 587.944C176.112 586.729 174.815 584.108 173.94 582.517C171.728 578.413 169.364 574.398 166.853 570.474C164.728 567.217 161.447 562.218 157.892 560.432C156.366 559.665 150.946 559.928 150.425 558.354C148.855 553.619 157.015 548.812 160.249 547.102Z" fill="#FAFAFA"/>
<path d="M586.979 547.98C593.305 547.553 603.314 554.354 598.703 559.408C597.165 560.116 595.89 559.572 594.152 559.173C585.733 564.12 582.12 571.572 577.541 579.979C576.438 582.261 574.376 587.148 572.47 588.451L571.879 588.259C570.856 586.173 571.559 581.274 571.799 578.797C573.425 561.882 570.033 555.94 586.979 547.98Z" fill="#FAFAFA"/>
<path d="M203.43 289.805C207.276 292.331 212.06 298.195 215.408 301.48C219.377 305.376 223.288 308.521 227.869 311.701C234.043 316.012 240.696 319.592 247.696 322.368C251.553 323.876 255.875 325.094 259.648 326.936C260.556 327.379 260.431 327.796 260.74 328.887C242.791 329.928 226.014 324.37 214.134 310.453C209.656 305.207 204.593 296.649 203.43 289.805Z" fill="#FAFAFA"/>
<path d="M234.007 267.58C250.868 265.606 264.175 276.779 275.108 288.174C275.965 289.067 276.875 290.277 276.771 291.549L276.091 292.011C274.644 291.574 270.36 288.731 268.841 287.781C259.399 281.228 244.46 275.715 233.161 273.792C230.418 273.326 223.154 272.625 221.233 271.594L221.186 270.911C223.177 268.84 230.942 268.002 234.007 267.58Z" fill="#FAFAFA"/>
<path d="M210.095 322.736C215.513 322.329 220.247 323.046 225.398 324.806C228.812 325.972 239.117 330.253 240.585 333.21L240.273 333.742C237.543 334.584 224.529 331.333 220.761 330.618C213.976 329.51 205.488 329.094 198.643 329.989C195.71 330.372 191.821 331.717 189.039 331.688L188.506 331.048L188.844 330.097C193.374 325.56 203.814 323.413 210.095 322.736Z" fill="#FAFAFA"/>
<path d="M569.101 617.207C570.588 617.878 572.15 620.931 572.598 622.47C574.48 628.955 572.882 635.332 569.969 641.162C568.766 642.086 568.97 642.241 567.715 642.341C566.216 639.216 568.418 621.335 569.101 617.207Z" fill="#FAFAFA"/>
<path d="M179.964 617.359C181.818 620.532 184.535 640.196 182.73 642.478L181.185 642.178C175.579 634.198 176.371 626.03 179.964 617.359Z" fill="#FAFAFA"/>
<path d="M167.458 275.556C169.887 275.211 174.319 273.81 176.07 274.822C174.971 277.494 172.608 280.05 172.093 282.651C169.826 285.557 167.307 289.253 165.138 291.926C162.725 288.02 164.754 283.283 163.957 279.142C163.832 278.491 162.873 278.2 162.215 277.876C163.178 277.58 166.26 276.072 167.458 275.556Z" fill="#121212"/>
<path d="M323.789 166.281C325.743 166.848 328.167 167.475 330.016 168.223C331.638 169.765 333.198 171.348 331.727 173.407C327.723 175.447 326.149 173.967 323.167 174.981L321.791 175.135L323.038 174.473C324.596 171.395 323.403 169.544 323.789 166.281Z" fill="#121212"/>
<path d="M149.045 349.833C151.142 346.73 155.592 343.642 158.695 341.555C157.814 344.457 156.907 347.352 155.973 350.239C155.164 349.883 154.351 349.535 153.535 349.193C151.774 351.085 152.975 354.471 149.953 355.051C148.924 353.265 150.19 352.036 149.045 349.833Z" fill="#121212"/>
<path d="M330.017 168.227L335.931 170.197C336.622 171.523 337.133 172.238 337.085 173.757C336.588 174.888 336.568 174.919 335.564 175.59C331.396 175.26 327.346 175.129 323.168 174.984C326.15 173.97 327.724 175.45 331.729 173.41C333.199 171.351 331.64 169.769 330.017 168.227Z" fill="#121212"/>
</g>
<path d="M1079.13 126.196C1091.71 107.748 1113.49 97.8131 1135.67 100.407C1143.69 101.346 1155.3 103.138 1166.75 107.994C1179.49 113.402 1196.91 124.854 1205.68 147.168C1212.01 163.275 1210.92 178.123 1209.15 187.653C1259.58 183.739 1308.9 178.391 1361.19 173.499L1365.48 173.102C1387.22 171.114 1412.8 169.195 1437.78 170.003C1467.35 170.96 1491.8 193.319 1495.4 222.678C1495.81 226.07 1495.93 229.438 1495.78 232.756C1501.7 236.926 1506.98 241.486 1511.53 246.083C1519.75 254.404 1528.88 266.234 1534.79 281.062C1534.88 280.862 1534.96 280.662 1535.04 280.463C1538.82 271.201 1543.32 260.809 1548.1 251.62C1550.48 247.048 1553.46 241.743 1556.99 236.605C1559.84 232.457 1566.1 223.818 1576.04 216.673L1576.75 216.165C1591.56 205.846 1610.22 202.746 1627.56 207.708C1633.82 208.727 1639.93 210.741 1645.67 213.734C1651.84 216.955 1662.89 223.667 1672.02 229.573C1672.37 229.797 1672.71 230.023 1673.06 230.25C1673.57 226.425 1674.46 222.623 1675.72 218.9C1681.92 200.627 1696.53 186.459 1714.97 180.813C1715.32 180.548 1715.72 180.252 1716.18 179.905L1716.98 179.31C1733.83 166.978 1755.91 164.28 1775.26 172.249C1775.96 172.539 1778.01 173.246 1782.46 174.506C1785.08 175.247 1785.97 175.479 1789.01 176.331C1791.18 176.942 1794.21 177.806 1797.19 178.793C1816.24 185.099 1831.75 197.901 1841.22 206.52C1850.17 214.662 1858.85 223.913 1866.74 233.095C1871.7 227.607 1876.17 222.628 1879.79 218.45C1892.86 203.367 1913.18 181.231 1929.85 166.077L1930.6 165.41C1946.36 151.551 1968.25 146.923 1988.31 153.271C1990.52 153.97 1992.72 154.715 1994.89 155.507C1994.97 155.535 1995.05 155.563 1995.12 155.591C2007.03 159.978 2019.58 166.872 2030.43 178.697C2030.99 179.308 2031.53 179.924 2032.07 180.539C2046.69 185.243 2059.22 195.474 2066.68 209.488C2077.35 229.563 2075.76 253.949 2062.57 272.469C2051.48 288.038 2041.21 299.069 2032.2 308.281C2022.97 317.717 2017.22 323.206 2010.12 331.587C1996.86 347.244 1981.28 366.969 1964.89 386.64C1973.36 400.819 1977.83 409.625 1982.77 417.565C1983.17 417.929 1983.58 418.305 1983.98 418.692C1986.83 421.397 1989.18 424.107 1991.13 426.634L1991.94 427.705L1992.43 428.385C1992.6 428.613 1992.76 428.842 1992.92 429.072C2002.96 443.458 2008.71 452.446 2016.29 462.079L2018.31 464.617C2018.47 464.819 2018.63 465.022 2018.78 465.226C2019.45 466.097 2019.83 466.568 2021.13 468.238C2022.18 469.578 2023.7 471.544 2025.31 473.793C2028.52 478.303 2033.03 485.235 2036.58 494.278C2040.99 505.516 2041.9 517.824 2039.21 529.592C2038.73 531.689 2038.12 533.829 2037.39 535.996C2036.34 545.192 2033.39 556.124 2026.27 566.733C2020.11 575.901 2012.75 581.76 2011 583.197C2007.43 586.133 2007.95 585.59 2005.94 587.321C1993.62 597.927 1977.56 603.046 1961.46 601.606C1963.18 614.616 1960.54 625.043 1959.49 628.862C1957.18 637.262 1953.71 643.849 1952.54 646.057C1952.53 646.071 1952.53 646.086 1952.52 646.1C1933.08 682.795 1919.15 706.698 1910.12 736.599C1901.7 764.474 1874.48 782.28 1845.57 778.825C1843.13 778.534 1833.48 777.573 1828.32 776.792C1822.72 775.947 1808.55 773.713 1794.76 764.923C1787.29 760.167 1781.13 754.337 1776.24 747.805C1766.76 751.941 1756.72 755.531 1746.45 758.156C1725.4 763.535 1687.59 768.178 1655.37 747.903C1643.81 752.123 1629.74 754.699 1613.92 752.46C1603.95 751.049 1594.96 747.976 1586.92 743.761C1579.87 751.868 1570.77 757.945 1560.56 761.339C1540.4 768.04 1521.54 766.114 1506.02 760.251C1498.94 784.032 1489.66 813.554 1476.57 841.9C1463.02 871.209 1443.48 903.612 1413.76 928.156L1413.75 928.162C1380.02 956.008 1340.71 960.948 1307.56 957.273C1300.13 956.45 1268.93 953.035 1248.67 925.437C1234.56 906.224 1232.68 885.069 1234.81 869.093C1236.8 854.128 1242.46 841.335 1247.45 832.099C1257.44 813.569 1272.22 795.872 1285.16 781.814C1285.46 781.486 1285.76 781.159 1286.07 780.83C1281.9 780.901 1277.68 780.697 1273.45 780.191C1266.93 779.41 1260.19 777.847 1253.56 775.404C1251.45 778.654 1249.23 781.776 1246.91 784.754C1221.52 817.273 1176.94 842.015 1125.95 832.463C1125.94 832.462 1125.93 832.46 1125.93 832.459C1110.57 829.578 1097.15 822.301 1088.24 816.266C1081.82 811.916 1071.04 803.736 1062.47 791.396C1055.91 792.486 1049.11 793.151 1042.07 793.305L1042.07 793.306C1029.98 793.57 1017.39 792.104 1005.32 788.209C995.631 797.985 982.034 808.865 964.456 815.112C951.04 819.879 935.185 821.965 918.232 818.527C901.447 815.122 887.243 807.051 875.75 797.091L875.74 797.081C873.017 794.721 870.519 792.262 868.225 789.735C866.254 789.978 864.275 790.124 862.294 790.171C861.831 790.382 861.365 790.593 860.895 790.798C860.847 790.819 860.8 790.839 860.752 790.86C856.487 792.711 852.773 793.727 851.798 793.996C850.161 794.449 848.665 794.807 847.579 795.056C845.38 795.56 843.12 796.015 841.354 796.36C839.506 796.72 837.684 797.059 836.295 797.316C835.556 797.452 834.994 797.557 834.488 797.652C834.246 797.697 834.057 797.732 833.91 797.76C833.758 797.789 833.696 797.801 833.699 797.8C822.387 800.036 810.671 798.966 799.951 794.717C783.739 788.29 756.162 772.173 747.724 736.702L747.449 735.511C741.868 710.503 748.238 687.062 752.575 674.121C757.641 659.002 764.483 645.453 769.249 636.678C775.171 625.77 782.768 614.305 791.719 603.405C783.351 604.815 774.479 604.906 765.241 603.296C739.87 598.873 722.632 583.431 712.735 570.916C702.478 557.947 695.744 542.914 692.189 528.441C688.754 514.458 687.097 496.05 692.605 477.142C701.099 447.885 716.184 390.06 742.692 343.643C756.189 320.007 775.372 294.194 802.929 276.431C829.413 259.36 860.882 251.596 895.138 256.804C899.996 249.998 906.285 244.195 913.694 239.864C927.286 231.92 943.973 227.206 955.525 224.287C968.865 220.917 983.779 217.981 997.891 215.467C1011.59 213.026 1025.42 210.829 1037.38 208.945C1039.86 202.843 1042.37 196.433 1045.51 188.837C1053.08 170.547 1062.36 150.78 1079.13 126.196Z" fill="#2A2A2A"/>
<path d="M974.527 514.071C987.542 513.524 990.15 524.011 990.484 534.896C991.166 563.844 974.693 590.666 961.822 615.747C941.346 655.646 930.863 702.581 933.875 747.631C945.708 743.285 953.169 735.703 961.768 727.212C990.931 698.398 1005.4 661.83 1025.53 627.225C1035.15 611.382 1046.44 600.105 1060.15 588.35C1083.31 568.477 1107.85 596.094 1103.26 618.963C1098.77 641.344 1063.09 662.663 1044.44 675.845C1040.04 685.159 1036.79 700.82 1037.89 711.14C1039.92 730.237 1060.51 718.97 1070.37 714.624C1107.14 698.398 1134.96 667.526 1158.26 635.639C1153.98 623.443 1152.53 613.344 1159.87 601.828C1171.56 583.324 1194.43 570.832 1214.75 585.066C1230.76 596.267 1225.36 611.65 1215.79 624.649C1215.96 615.977 1217.54 609.84 1215.11 601.053C1210.08 582.884 1194.94 584.856 1188.1 600.861C1176.85 627.206 1196.26 650.094 1205.61 673.815C1223.85 666.607 1256.93 655.311 1272.84 647.136C1283.94 626.688 1295.31 606.375 1306.92 586.205C1319.63 588.359 1322.43 588.761 1330.83 598.43C1327.13 610.721 1317.52 635.343 1312.43 647.031C1303.48 667.613 1292.48 684.815 1285.84 707.119C1289.85 706.564 1294.47 705.884 1298.13 704.42C1313.38 698.313 1342.98 669.431 1352.7 655.828C1372.18 628.555 1388.71 600.392 1421.19 584.989C1437.33 577.331 1450.35 581.668 1465.96 587.708C1468.43 585.43 1472.08 583.687 1475.09 582.031C1480.07 582.902 1487.52 583.765 1488.45 589.097C1489.89 597.339 1485.24 610.204 1482.95 617.729C1477.98 634.031 1473.3 649.673 1471.79 666.607C1484.09 657.743 1529.05 625.98 1534.58 615.096C1540.74 602.986 1542.31 588.857 1548.97 576.834C1549.15 576.518 1549.33 576.202 1549.51 575.886C1555.91 577.197 1560.4 577.657 1564.26 583.267C1571.59 593.931 1567.04 619.442 1564.86 631.58C1568.75 625.147 1573.09 619.001 1577.87 613.19C1589.15 599.683 1626.87 562.035 1645.13 581.477C1661.24 598.621 1641.04 633.045 1636.28 652.354C1633.31 664.473 1632.01 668.484 1632.02 681.33C1645.77 676.898 1669.65 653.396 1677.09 640.646C1691.38 616.168 1699.88 587.497 1726.02 571.712C1748.44 558.157 1776.7 578.413 1767.19 603.742C1759.85 622.715 1732.06 633.61 1714.24 641.038C1699.73 669.996 1704.05 696.196 1742.8 684.316C1786.43 670.943 1808.67 642.273 1828.85 603.943C1821.23 601.129 1812.63 597.271 1808.12 590.398C1794.16 569.128 1828.66 540.878 1843.85 564.073C1848.76 571.588 1845.53 583.85 1843.27 592.073C1858.39 592.217 1892.75 593.49 1901.43 607.964C1903.07 610.683 1901 615.173 1899.5 618.016C1881.54 651.922 1863.85 682.297 1852.68 719.248C1828.89 716.405 1817.87 718.176 1823.01 691.554C1829.53 657.752 1850.87 633.858 1863.08 604.336L1863.64 602.958C1857.97 601.828 1848.31 602.269 1842.45 602.422C1831.43 623.444 1804.19 658.47 1785.11 673.547C1761.38 692.31 1701.93 720.607 1677.68 687.897C1669.94 677.472 1671.14 666.952 1673.27 654.957C1661.06 673.011 1628.32 715.945 1601.54 678.248C1593.18 666.464 1643.09 600.325 1630.32 592.303C1612.75 594.677 1579.76 641.708 1569.78 657.742C1558.31 676.151 1556.58 686.231 1541.64 704.4C1528.53 708.756 1518.75 700.084 1510.36 691.19C1512.83 672.342 1521.14 651.434 1529.03 634.193C1507.15 647.844 1486.41 661.696 1471.2 683.024C1458.96 700.188 1455.27 720.329 1449.41 740.126C1435.11 788.373 1415.5 848.911 1375.56 881.89C1357.99 896.392 1336.6 900.126 1314.17 897.637C1308.02 896.957 1300.9 895.195 1297.04 889.931C1276.05 861.346 1372.26 781.27 1392.47 761.799C1404.67 750.044 1416.4 737.944 1426.56 724.351C1440.45 705.779 1447.18 689.993 1451.44 667.268C1448.91 664.673 1444.22 657.034 1442.98 656.488C1437.67 659.322 1433.16 670.609 1428.24 676.353C1415.12 691.679 1385.01 726.379 1362.42 708.306C1351.16 699.298 1352.35 683.809 1352 670.359C1347.7 673.183 1341.51 681.311 1337.83 685.351C1327.62 696.637 1317.47 707.138 1304.42 715.141C1290.51 723.67 1269.15 723.842 1261.26 707.243C1254.25 692.492 1264.09 670.092 1269.58 655.656C1249.23 661.448 1229.71 673.461 1208.34 681.282C1230.82 726.571 1186.36 782.735 1136.99 773.487C1128.27 771.85 1114.31 762.909 1110.44 754.974C1094.65 722.637 1155.67 692.712 1177.08 681.301C1172.84 666.473 1168.99 654.718 1163.92 640.129C1160.38 644.236 1156.9 648.783 1153.51 653.109C1125.89 688.309 1089.52 732.257 1040.76 733.319C1009.25 734.008 1001.04 714.279 1002.21 687.322C990.497 704.802 982.746 722.311 968.779 739.227C954.708 756.266 935.656 769.61 915.044 751.747C899.532 738.297 900.366 707.761 899.653 688.165C885.166 703.548 879.343 717.094 860.851 730.189C864.514 723.374 871.109 714.777 875.402 707.875C880.851 699.126 883.941 692.818 888.236 683.57C870.635 700.036 858.724 726.265 836.866 735.818C834.946 736.651 825.064 738.346 822.062 738.939C814.479 735.934 808.052 731.051 806.093 722.809C801.994 705.587 813.89 680.2 821.975 665.314C833.501 644.082 854.744 618.81 877.999 610.252C889.44 606.653 904.898 613.411 915.1 619.164C921.24 604.125 931.148 586.301 938.698 571.77C945.775 558.157 961.633 521.302 974.527 514.071ZM1432.64 731.158C1419.77 744.589 1405.67 759.532 1393.09 773.135C1378.04 789.409 1299.75 861.176 1317.74 884.246C1378.94 889.626 1420.35 780.822 1433.75 732.92C1433.38 732.336 1433.01 731.742 1432.64 731.158ZM1175.43 696.034C1155.35 704.602 1137.34 716.261 1128.58 737.092C1124.76 746.176 1127.14 753.806 1134.58 759.741C1152.51 768.624 1167.12 756.821 1172.33 739.686C1175.35 729.758 1179.15 706.689 1177.95 696.532C1176.79 696.197 1176.57 695.996 1175.43 696.034ZM900.36 631.705C880.047 642.484 870.056 661.18 858.461 680.307C853.437 688.597 846.452 699.27 844.11 708.671L845.04 709.79L847.159 708.671C859.774 699.127 912.4 647.692 905.564 633.036C903.238 631.591 903.168 631.83 900.36 631.705ZM1457.35 608.004C1461.51 595.55 1452.13 594.957 1442.88 595.56C1432.84 601.351 1424.08 611.344 1417.26 620.62C1401.17 642.523 1378.8 666.675 1378.49 695.308C1384.62 693.642 1386.45 693.172 1392.2 690.291C1407.62 681.551 1415.38 676.469 1426.34 662.215C1439.15 645.549 1450.63 628.126 1457.35 608.004ZM1081.63 596.211C1069.06 605.449 1045.93 640.102 1048.81 655.026L1050.35 655.926C1052.84 654.921 1053.36 654.701 1055.63 653.294C1068.64 645.291 1085.78 626.509 1090.3 611.547C1092.12 605.535 1087.92 597.101 1081.63 596.211ZM1748.58 578.793C1738.97 586.633 1721.85 612.078 1720.45 623.508L1721.11 625.346C1724.04 625.7 1724.53 624.79 1727.71 623.287C1738.94 617.534 1752.76 610.9 1756.93 598.044C1759.22 590.941 1758.09 579.416 1748.58 578.793ZM980.63 535.807C976.95 541.234 973.814 547.007 971.272 553.048C968.848 558.716 953.165 603.448 956.89 607.23C964.503 591.195 984.936 554.005 981.965 537.339L980.63 535.807ZM1827.01 563.5C1816.58 571.11 1819.07 576.452 1827.89 583.612L1830.13 583.632C1833.48 579.362 1834.55 568.507 1830.43 564.237L1827.01 563.5Z" fill="#F4F4F4"/>
<path d="M1395.63 850.219C1395.61 850.429 1395.58 850.649 1395.55 850.87C1386.76 867.928 1369.06 884.499 1352.64 892.301L1352.39 891.429C1353.73 888.146 1357.85 886.404 1361.02 884.413C1375.2 875.51 1384.19 862.041 1395.63 850.219Z" fill="#F4F4F4"/>
<path d="M1128.7 160C1154.22 162.986 1154.3 170.32 1144.44 192.939C1135.02 214.536 1124.3 236.134 1113.02 256.823C1144.76 255.744 1174.76 250.393 1206 248.066C1259.81 244.058 1313.09 238.26 1366.78 233.237C1389.27 231.132 1413.31 229.241 1435.84 229.971C1435.5 230.068 1435.15 230.165 1434.8 230.263L1433.06 230.712C1420.5 234.025 1382.18 238.238 1366.13 240.809L1252.24 258.423C1239.05 260.418 1225.95 262.826 1212.73 264.766C1178.01 269.859 1134.27 271.322 1101.95 285.005C1092.06 301.147 1087.17 313.632 1079.38 330.098C1058.56 374.102 1044.23 418.914 1034.56 466.569C1031.32 482.496 1025.76 514.641 1035.94 528.45C1038.93 532.509 1040.47 534.969 1040.88 540.081C1039.5 543.786 1040.62 542.312 1037.34 544.619C1026.46 546.524 1014.63 536.75 1011.36 527.369C993.343 475.603 1030.61 394.084 1047.28 345.416C1026.08 379.035 1000.37 410.583 976.536 442.368C961.833 461.974 949.1 482.823 933.978 502.094C924.893 513.672 905.418 533.706 889.991 521.003C883.245 515.37 882.066 506.063 881.562 497.75C881.802 466.652 888.998 441.567 891.767 410.064C854.719 449.272 833.299 499.992 794.999 537.19C767.787 561.907 743.261 517.598 750.224 493.87C768.912 429.506 802.597 295.729 893.603 317.592C974.607 339.113 953.41 346.991 929.487 410.993C923.279 427.603 910.705 479.858 906.746 499.593C926.324 490.067 941.106 471.276 955.05 454.833C998.758 403.291 1042.72 347.449 1071.05 285.858C1048.1 290.597 1025.91 297.059 1002.56 300.543C979.623 303.965 962.802 310.401 943.97 291.664C966.36 278.577 1048.48 268.652 1078.81 262.934C1098.91 223.348 1101.12 200.429 1128.7 160ZM911.457 349.778C904.637 338.998 896.209 328.569 882.128 330.452C830.663 350.472 800.715 452.511 790.037 501.751C796.276 495.4 802.358 488.897 808.275 482.246C831.912 455.383 877.989 394.803 889.878 362.325L898.324 366.969C902.178 362.07 908.239 354.797 911.457 349.778Z" fill="#F4F4F4"/>
<path d="M856.652 442.172C856.655 447.941 837.816 473.026 832.925 479.87L832.547 478.555C833.603 472.922 852.228 447.472 856.652 442.172Z" fill="#F4F4F4"/>
<path d="M1726.31 424.098L1729.06 425.075C1718.6 437.678 1686.28 487.155 1676.81 492.041C1681.16 484.45 1689.63 475.695 1694.91 468.199C1705.27 453.468 1714.61 437.775 1726.31 424.098Z" fill="#F4F4F4"/>
<path d="M1611.06 265.391C1612.26 268.682 1609.25 274.66 1609.52 280.302C1613.88 278.299 1616.17 271.329 1617.91 266.925C1625.14 270.696 1654.49 288.819 1658.75 294.186C1667.89 305.725 1650.27 344.826 1649.35 358.855C1648.27 375.291 1640.9 391.711 1637.57 407.02C1631.9 433.017 1623.88 474.074 1636.42 498.242C1679.9 477.373 1721.95 423.828 1750.15 385.909C1753.66 381.2 1768.66 362.911 1773.61 362.333C1773.27 371.628 1734.43 413.138 1727.25 422.81L1726.31 424.098L1729.06 425.075C1733.63 419.465 1740.43 412.404 1745.94 407.855C1739.21 421.455 1729.06 436.267 1719.64 448.307C1702.36 470.389 1686.55 493.277 1665.52 512.042C1648.35 527.355 1635.79 527.374 1614.49 525.785C1589.1 523.89 1580.12 509.853 1575.27 486.818C1567.61 457.997 1573.99 441.962 1577.7 414.066C1573.41 423.741 1571.29 434.087 1567.62 443.975C1560.3 463.628 1544.88 484.438 1529.51 498.572C1509.07 517.354 1477.86 526.005 1450.42 524.617C1436.07 523.89 1422.31 519.109 1412.65 507.962C1394.18 486.643 1394.85 451.759 1397 425.481C1400.51 382.721 1411.05 340.197 1424.63 299.626C1426.69 293.475 1429.77 280.07 1435.41 276.368C1438.73 274.188 1443.73 274.254 1447.42 275.181C1462.12 278.863 1478.71 294.779 1480.87 309.916C1482.99 324.895 1474.48 352.096 1471.21 367.697C1467.48 385.566 1454.65 454.96 1462.95 467.962C1464.6 470.547 1467.02 472.326 1470.09 472.774C1479.68 474.167 1492.95 463.221 1499.84 457.277C1521.76 438.377 1540.33 414.455 1554.11 389.059C1561.42 375.613 1567.66 361.296 1573.53 347.173C1580.45 330.574 1599.58 273.641 1611.06 265.391ZM1565.5 382.762C1557.45 397.868 1552.51 413.277 1545.6 428.802C1539.32 442.906 1529.01 457.807 1522.34 471.154L1522.89 472.341L1523.21 472.454C1536.38 454.356 1563.48 404.533 1566.47 383.633L1565.5 382.762ZM1549.41 403.709C1546.21 409.652 1529.38 436.963 1528.23 441.384L1529 442.37C1534.91 434.028 1548.97 414.958 1550.68 405.524L1549.41 403.709Z" fill="#F4F4F4"/>
<path d="M1970.21 210.473C1971.61 210.915 1973 211.387 1974.38 211.889C1985.29 215.91 1988.73 221.132 1993.25 231.004C1988.88 241.288 1976.81 252.612 1975.55 256.988L1976.89 257.234C1977.91 256.148 1978.92 255.066 1979.94 253.99C1992.3 240.983 1996.43 238.1 2013.7 237.657C1996.62 261.633 1982.16 271.773 1964.34 292.798C1939.89 321.66 1917.24 351.795 1891.28 379.822C1897.51 392.219 1905.52 404.319 1912.72 416.299C1920.9 429.914 1929.58 446.895 1938.82 459.73C1941.12 461.109 1942.21 461.375 1943.72 463.417C1952.9 476.566 1961.01 489.121 1971.11 501.656C1974.72 506.378 1978.58 510.722 1980.72 516.188C1979.93 519.655 1976.89 518.516 1977.33 521.808C1979 534.338 1976.83 533.208 1966.8 541.843C1963.05 541.297 1958.09 540.666 1954.54 539.546C1944.66 536.416 1943.62 530.069 1934.13 533.477C1925.31 531.887 1861.26 443.629 1854.72 431.148C1848.13 439.1 1839.15 449.278 1833.07 457.415C1825.27 467.851 1796.37 514.88 1786.56 519.449C1784.23 518.452 1782.07 516.974 1779.66 516.965C1781.63 522.841 1781.39 522.162 1776.94 527.158C1772.43 533.084 1769.36 536.999 1764.27 542.389C1764 542.36 1763.74 542.331 1763.48 542.303L1762.15 542.13C1753.06 541.039 1738.51 535.755 1728.88 532.893C1735.9 515.487 1764.2 474.753 1776.21 457.598C1789.31 438.874 1811.91 403.723 1825.81 387.436C1804.32 358.09 1785.59 327.979 1766.23 297.221C1762.15 290.726 1757.01 283.442 1753.55 276.72L1754.11 275.499L1757.77 274.313L1758.29 273.246L1756.71 272.014C1754.34 273.339 1755.28 273.054 1752.58 273.407C1748.09 267.949 1738.93 247.063 1732.54 238.18C1742.26 235.251 1744.65 233.609 1752.41 227.728C1760.68 231.133 1772.04 233.668 1778.32 235.748C1804.48 244.402 1850.7 307.038 1861.81 329.986C1879.72 306.955 1905.82 280.013 1925.12 257.758C1937.63 243.319 1956.15 223.256 1970.21 210.473ZM1810.01 453.684C1799.73 464.259 1784.51 486.667 1776.54 499.457L1776.77 501.126C1784.03 493.962 1803.18 465.532 1810.12 455.754L1810.01 453.684ZM1957.83 271.531C1942.66 288.203 1928.22 305.506 1914.52 323.393C1906.53 334.011 1897.75 347.287 1889.26 357.165L1889.38 358.733L1890.59 359.072C1900.35 347.866 1909.12 334.738 1918.1 322.759C1930.97 305.559 1944.68 289.013 1959.21 273.186L1958.78 271.858L1957.83 271.531Z" fill="#5B3DF6"/>
<path d="M1148.52 362.91C1157.34 362.718 1172.83 369.892 1170.95 378.522C1162.2 418.56 1137.73 442.216 1140.45 486.281C1177.55 456.227 1212.48 418.04 1238.94 378.385C1251.08 360.176 1263.32 356.494 1276.73 377.595C1275.09 393.139 1270.61 401.547 1264.93 416.097C1255.05 441.378 1247.46 462.107 1247.56 489.545C1278.41 472.96 1307.21 427.587 1319.32 395.606C1320.59 392.258 1322.87 386.108 1325.77 384.318L1330.91 385.633C1334.13 387.011 1345.58 393.181 1344.19 397.579C1334.78 427.118 1322.45 455.145 1315.49 485.585C1313.8 492.941 1311.37 501.752 1301.94 497.999C1297.06 496.02 1293.17 492.171 1291.15 487.312C1286.68 476.266 1289.92 466.228 1294.11 455.995C1279.53 470.364 1255.3 503.048 1234.33 504.624C1211.37 506.348 1216.56 470.106 1217.17 456.189C1204.74 471.091 1191.78 494.021 1176.2 503.208C1120.14 536.262 1076.49 499.563 1106.8 438.557C1118.02 415.985 1126.78 389.672 1139.5 367.765C1140.41 366.198 1146.67 363.698 1148.52 362.91ZM1211.72 428.742C1204.4 437.489 1160.54 490.313 1162.93 498.941C1177.73 490.925 1204.11 449.043 1211.51 432.111C1211.98 431.022 1211.91 429.884 1211.72 428.742ZM1203.62 455.412C1201.16 459.545 1194.79 469.488 1194.14 473.929C1198.7 468.626 1201.73 464.696 1204.1 458.1C1203.99 457.344 1203.86 456.078 1203.62 455.412Z" fill="#F4F4F4"/>
<path d="M1336.71 521.273C1351.96 522.374 1355.1 529.209 1347.7 543.281C1343.34 551.59 1335.4 556.664 1326.4 559.182C1306.6 559.182 1310.24 538.418 1320.37 528.405C1327.23 521.647 1327.37 521.551 1336.71 521.273Z" fill="#F4F4F4"/>
<path d="M1344.03 294.969C1357.03 295.483 1359.8 298.733 1364.63 310.342C1360.56 316.854 1357.07 321.481 1351.81 327C1333.4 338.354 1325.93 307.953 1344.03 294.969Z" fill="#F4F4F4"/>
<defs>
<clipPath id="clip0_409_15732">
<rect width="549.026" height="818.36" fill="white" transform="translate(100 119.988)"/>
</clipPath>
</defs>
</svg>
