<svg width="2174" height="1059" viewBox="0 0 2174 1059" fill="none" xmlns="http://www.w3.org/2000/svg">
<g opacity="0.9" clip-path="url(#clip0_409_15734)">
<path d="M355.989 120.29C357.504 120.294 359.046 120.319 360.031 120.334C361.235 120.351 361.697 120.351 361.874 120.348L363.763 120.328C387.043 120.194 410.875 124.714 433.025 134.259C439.304 132.813 445.981 132.871 452.511 134.652C484.088 143.262 517.216 160.422 543.679 185.106C570.276 209.914 592.067 244.303 595.237 286.708C595.305 287.603 595.358 288.498 595.401 289.392C609.993 299.05 622.253 311.116 631.379 326.615C644.857 349.507 648.691 375.238 649.208 400.95C649.392 410.096 646.468 418.67 641.345 425.577C640.427 457.635 635.412 489.012 631.509 515.097C642.509 524.157 648.476 535.707 651.715 545.13C658.711 565.482 657.219 588.041 655.515 601.116C652.866 621.422 647.87 640.858 643.647 657.552C639.229 675.02 635.559 689.846 633.713 704.685L633.714 704.686C631.264 724.381 620.193 740.987 606.41 751.582C601.955 755.006 596.813 758.089 591.145 760.505C584.081 782.566 574.192 803.156 556.448 825.118L556.447 825.119C545.299 838.914 533.103 854.117 517.72 868.681L517.719 868.682C476.85 907.372 424.148 949.685 347.333 936.03C310.394 930.37 277.115 908.324 251.362 886.03C224.634 862.893 201.483 835.509 184.906 812.792L184.904 812.79C174.465 798.483 165.502 779.165 159.328 760.669C146.495 755.409 136.403 746.438 128.94 734.904C120.002 721.09 116.927 705.803 115.32 696.398C113.105 683.429 113.177 680.162 111.69 674.071C106.391 652.364 96.0455 620.86 94.4304 588.538L94.3611 586.999C93.863 574.932 94.0221 553.893 103.259 535.455C106.827 528.335 112.128 520.861 119.725 514.683C119.573 513.772 119.427 512.88 119.29 512.01C119.276 511.925 119.263 511.84 119.25 511.755C115.451 486.701 112.537 461.51 110.51 436.234L109.986 430.261C108.619 414.631 107.357 398.586 108.368 381.43C104.067 375.107 101.568 367.544 101.448 359.539C101.42 357.692 101.444 355.844 101.517 353.998L101.52 353.916C101.898 344.904 103.773 334.998 105.09 328.982C108.456 313.601 113.452 300.141 119.839 288.003C118.002 278.469 119.643 268.337 124.955 259.617C139.395 235.915 154.544 216.97 174.429 201.844C178.861 198.473 183.404 195.386 188.068 192.535C191.361 183.832 197.676 176.279 206.362 171.553C207.591 170.884 208.86 170.032 212.701 167.431C216.004 165.194 221.078 161.773 227.228 158.603C247.332 148.088 268.852 141.165 290.891 137.98C295.819 132.917 302.116 129.125 309.304 127.221C322.99 123.596 332.092 122.304 344.129 120.99C346.676 120.62 348.906 120.473 350.411 120.4C352.492 120.3 354.46 120.286 355.989 120.29Z" fill="#2A2A2A"/>
<path d="M348.849 161.462C355.713 160.98 365.348 160.704 374.804 161.214C384.276 161.725 393.505 163.023 399.598 165.658L399.703 165.703L399.818 165.698C400.468 165.67 401.409 165.801 402.599 166.08C403.779 166.357 405.171 166.771 406.706 167.29C409.777 168.328 413.398 169.774 417.016 171.341C424.262 174.48 431.435 178.081 434.104 179.829L434.415 180.033L434.7 179.794C435.808 178.863 436.999 177.524 438.167 176.334C439.324 175.155 440.469 174.109 441.596 173.54C443.466 173.701 446.24 174.493 449.049 175.48C451.91 176.487 454.752 177.675 456.604 178.54L456.624 178.55L456.645 178.558C494.891 192.416 526.319 220.441 544.462 256.797L545.316 258.535C552.865 274.496 552.993 292.952 550.064 310.09L550.001 310.462L550.342 310.625L550.777 310.833L550.778 310.834C552.301 311.559 553.943 312.088 555.511 312.625C557.093 313.167 558.607 313.718 559.949 314.492C566.786 318.437 574.88 324.327 581.926 331.16C588.978 338 594.941 345.746 597.571 353.398L597.578 353.419L597.587 353.438C602.222 363.923 605.26 381.641 605.199 393.993C604.557 392.271 603.884 390.791 603.007 389.423C601.711 387.401 599.995 385.648 597.358 383.693L596.5 383.057L596.562 384.124L597.065 392.894L597.066 392.913L597.068 392.932C597.336 394.933 597.201 396.942 596.998 399.038C596.796 401.119 596.525 403.298 596.549 405.562V405.562C596.637 414.01 596.697 422.719 596.641 431.149V431.15C596.635 432.205 596.407 433.999 596.147 435.902C595.923 437.548 595.677 439.264 595.55 440.576L595.503 441.112C594.517 453.948 592.718 466.754 590.796 479.557C588.874 492.354 586.829 505.153 585.359 517.947C584.974 521.31 584.07 523.902 583.284 526.65C582.499 529.395 581.848 532.25 582.036 536.036L582.047 536.252L582.212 536.393L582.584 536.708L582.764 536.86L582.996 536.819C586.815 536.135 588.31 536.534 592.089 536.845C595.002 537.083 597.304 537.842 599.314 539.113C601.331 540.388 603.082 542.196 604.868 544.571C608.681 549.642 611.426 555.391 612.22 561.738L612.222 561.748C613.059 567.58 612.317 573.277 611.858 579.216C610.386 598.247 605.933 616.726 601.28 635.213C596.63 653.688 591.777 672.176 589.535 691.165C588.608 699.024 584.954 704.835 578.779 709.705L578.174 710.174C571.167 715.496 564.538 716.158 556.104 714.86L555.681 714.796L555.551 715.203C554.689 717.91 553.892 721.145 553.1 724.421C552.306 727.703 551.518 731.027 550.673 733.942C546.804 747.115 541.405 759.795 534.592 771.717L534.59 771.721C526.29 786.521 506.406 810.229 484.96 832.522C463.515 854.815 440.58 875.62 426.208 884.638C419.865 888.618 409.662 892.254 402.366 894.305C376.585 901.434 349.035 898.167 325.636 885.205H325.637C310.716 876.753 295.217 861.545 282.586 849.148C258.032 825.051 231.072 797.927 213.638 768.151H213.637C208.198 758.861 201.3 742.374 197.905 731.928V731.927C197.438 730.491 197.054 727.854 196.623 724.937C196.197 722.053 195.728 718.926 195.088 716.601L195 716.279L194.669 716.237C185.202 715.036 178.308 716.407 170.836 709.318C161.191 700.166 160.254 690.874 158.21 678.432L158.209 678.431C157.277 672.817 156.214 667.223 155.019 661.661C152.414 649.523 149.342 637.382 146.475 625.296C142.825 609.914 138.238 595.23 138.564 579.277C138.689 573.186 138.25 566.565 138.95 560.224C139.647 553.914 141.465 548.013 146.035 543.443L146.036 543.444C149.71 539.824 152.744 538.146 155.989 537.347C159.268 536.539 162.784 536.619 167.498 536.583L167.823 536.58L167.953 536.282C167.983 536.212 167.993 536.148 167.997 536.12C168.002 536.085 168.004 536.05 168.005 536.021C168.007 535.961 168.006 535.893 168.003 535.822C167.997 535.678 167.982 535.486 167.959 535.255C167.914 534.79 167.836 534.139 167.731 533.33C167.522 531.711 167.201 529.442 166.803 526.728C166.007 521.298 164.902 514.077 163.76 506.688C161.475 491.907 159.045 476.474 158.645 473.341H158.646C156.914 459.305 155.444 445.237 154.237 431.146L154.236 431.143C152.354 411.06 151.196 399.387 152.135 379.194L152.136 379.173L152.135 379.151C152.039 376.644 152.288 374.01 152.626 371.354C152.96 368.73 153.382 366.057 153.625 363.527C153.957 362.23 154.257 360.575 154.481 359.278C155.516 353.302 157.225 347.711 159.021 341.887L159.411 340.626L158.284 341.312C154.281 343.751 153.036 344.928 149.832 348.144L149.819 348.155L149.809 348.169L147.996 350.257L147.989 350.265L147.982 350.273C147.199 351.258 146.009 352.527 144.946 353.661C145.073 352.365 145.172 351.009 145.273 349.665C145.416 347.782 145.566 345.923 145.812 344.253C146.331 340.718 147.464 335.134 148.895 329.702C150.327 324.261 152.043 319.039 153.716 316.173C154.623 314.824 155.052 313.397 155.465 311.945L155.468 311.937L155.47 311.928C156.168 309.076 158.082 305.183 160.263 301.288C162.432 297.412 164.831 293.59 166.484 290.863C167.643 289.249 168.991 287.593 170.331 285.924C171.671 284.256 173.003 282.576 174.105 280.945L174.127 280.913L174.144 280.879C174.359 280.424 174.647 279.918 174.957 279.356C175.261 278.805 175.581 278.21 175.832 277.614C176.319 276.459 176.635 275.1 175.82 274.002L175.711 273.854L175.531 273.812C174.512 273.577 173.363 273.646 172.251 273.791C171.691 273.864 171.125 273.959 170.579 274.05C170.03 274.141 169.501 274.229 168.997 274.291L168.937 274.299L168.879 274.32C167.373 274.899 164.799 275.983 163.378 276.916L163.369 276.918C163.42 276.78 163.483 276.626 163.559 276.457C163.819 275.877 164.207 275.153 164.693 274.325C165.664 272.671 167.002 270.644 168.417 268.609C171.25 264.537 174.348 260.5 175.394 259.413C175.546 259.269 175.7 259.124 175.853 258.979L175.879 258.954L175.901 258.927C190.475 240.463 206.072 228.166 227.558 217.309L227.595 217.29L227.629 217.265C228.47 216.645 230.191 215.826 231.266 215.271L231.265 215.271C235.382 213.301 241.939 210.716 246.277 209.122L246.405 209.074L246.492 208.969L247.192 208.11L247.277 208.007L247.299 207.875C247.345 207.593 247.384 207.418 247.412 207.28C247.436 207.164 247.473 206.993 247.439 206.812C247.406 206.631 247.311 206.484 247.248 206.384C247.173 206.265 247.074 206.115 246.932 205.866L246.871 205.761L246.77 205.695L246.462 205.51C245.732 205.102 244.922 204.857 244.115 204.683C243.206 204.486 242.229 204.366 241.381 204.224L241.358 204.22L241.335 204.219L240.485 204.169C238.466 204.078 236.21 204.149 234.19 204.23C232.593 204.295 231.163 204.362 230.091 204.37C230.374 204.154 230.707 203.909 231.082 203.646C232.082 202.945 233.35 202.115 234.646 201.294C237.247 199.646 239.924 198.058 240.771 197.637L240.796 197.625L240.819 197.609C241.65 197.071 242.866 196.482 244.146 195.885C245.409 195.296 246.733 194.701 247.721 194.167C258.873 188.139 271.48 183.908 283.751 180.688C287.014 179.833 290.54 179.21 294.111 178.603C297.667 177.997 301.269 177.405 304.656 176.613L304.657 176.614C306.548 176.25 309.504 176.064 312.571 175.944C315.6 175.826 318.75 175.77 320.958 175.661C324.354 175.65 327.749 175.732 331.141 175.907L331.197 175.91L331.253 175.9C331.648 175.831 332.074 175.779 332.521 175.723C332.964 175.667 333.427 175.609 333.873 175.526C334.748 175.365 335.66 175.099 336.294 174.5L336.391 174.408L336.43 174.28C336.666 173.492 336.592 172.716 336.423 171.985C336.26 171.281 335.977 170.516 335.78 169.854L335.708 169.611L335.47 169.526L334.085 169.041C330.88 167.934 327.817 166.996 324.516 166.008H324.517L321.47 165.067C323.323 164.691 325.215 164.232 327.07 163.84C329.609 163.303 332.11 162.883 334.499 162.919C334.758 162.977 335.109 162.994 335.484 162.989C335.927 162.983 336.472 162.951 337.081 162.899C338.3 162.796 339.809 162.615 341.343 162.417C344.433 162.018 347.597 161.55 348.849 161.462Z" fill="#121212" stroke="#FAFAFA"/>
<path d="M434.379 179.408C436.545 177.586 438.992 174.219 441.499 173.027C449.812 182.334 452.626 187.089 458.071 198.387C451.736 193.824 446.215 188.072 439.876 183.461C439.052 182.862 434.842 179.956 434.379 179.408Z" fill="#121212"/>
<path d="M319.381 164.943C324.308 164.14 329.627 162.333 334.546 162.417C332.433 163.799 326.377 164.483 323.843 164.764C333.111 167.776 343.875 171.068 351.522 177.408C351.413 178.378 351.39 178.123 350.604 179.016C349.571 179.153 330.381 176.507 327.319 176.324C323.167 176.076 306.861 177.282 304.562 176.12C308.43 175.374 316.534 175.378 320.956 175.158C324.361 175.147 327.765 175.229 331.166 175.405C332.807 175.117 334.906 175.12 335.95 174.133C336.352 172.791 335.726 171.418 335.301 169.994C331.594 168.672 328.142 167.612 324.369 166.483L319.381 164.943Z" fill="#FAFAFA"/>
<path d="M335.303 169.996C339.823 171.773 346.109 174.845 349.964 177.823C343.397 176.886 337.881 175.575 331.168 175.407C332.809 175.119 334.908 175.122 335.952 174.135C336.354 172.794 335.728 171.421 335.303 169.996Z" fill="#121212"/>
<path d="M175.041 259.059C174.965 260.895 166.502 272.414 164.783 275.186C166.695 274.432 168.444 273.648 170.3 272.776C176.279 269.969 182.861 268.279 189.188 266.445C178.735 275.942 169.622 286.817 162.101 298.77C160.485 301.378 156.251 310.476 154.984 311.808C156.416 305.957 162.771 296.025 166.068 290.587C168.411 287.32 171.514 283.887 173.692 280.664C174.587 278.771 176.701 276.025 175.419 274.299C173.561 273.869 171.122 274.532 169.059 274.786C167.522 275.376 164.931 276.472 163.581 277.381L162.711 277.6C162.536 275.361 172.899 261.279 175.041 259.059Z" fill="#FAFAFA"/>
<path d="M169.059 274.786C173.17 272.4 180.483 269.957 185.129 268.895C181.767 272.15 176.635 278.01 173.692 280.664C174.587 278.771 176.701 276.025 175.419 274.299C173.561 273.869 171.121 274.532 169.059 274.786Z" fill="#121212"/>
<path d="M399.797 165.196C405.551 164.948 428.964 175.861 434.378 179.408C434.841 179.956 439.051 182.861 439.875 183.461C446.214 188.072 451.736 193.823 458.071 198.387C452.625 187.088 449.811 182.334 441.499 173.027C445.386 173.304 453.083 176.34 456.816 178.084C454.941 178.296 446.77 175.189 444.622 174.424C447.883 178.596 458.774 193.837 459.325 198.827C458.784 200.089 459.176 199.671 457.777 200.291C457.032 199.821 450.667 193.737 449.447 192.675C443.441 187.389 437.004 182.614 430.202 178.402C423.68 174.388 415.556 170.973 408.462 168.089C405.525 166.895 402.481 166.656 399.797 165.196Z" fill="#FAFAFA"/>
<path d="M153.293 315.906C153.261 318.783 149.127 328.753 148.418 332.355C147.14 338.857 146.229 345.164 145.379 351.725C151.42 345.923 153.789 342.822 161.068 338.215C155.523 355.784 154.134 361.971 152.108 380.348L151.637 379.168C151.442 374.067 152.653 368.502 153.135 363.434C153.464 362.154 153.764 360.499 153.991 359.19C155.032 353.177 156.751 347.557 158.546 341.737C154.589 344.147 153.376 345.294 150.188 348.494L148.376 350.582C147.309 351.923 145.492 353.79 144.287 355.102C144.715 351.682 144.822 347.558 145.319 344.178C146.365 337.066 149.866 321.765 153.293 315.906Z" fill="#FAFAFA"/>
<path d="M240.547 197.188L240.721 197.745C238.955 199.549 234.49 202.045 232.145 203.817C239.896 202.612 251.333 203.507 258.76 205.774C248.739 209.168 238.946 212.631 229.197 216.755C228.568 217.021 227.98 216.908 227.332 216.86C228.216 216.209 230 215.359 231.037 214.825C235.174 212.844 241.757 210.248 246.105 208.65L246.805 207.792C246.998 206.611 247.095 207.153 246.498 206.113C245.031 205.164 243.062 205.011 241.299 204.715C236.922 204.398 230.939 205.027 228.804 204.833C229.757 203.587 238.802 198.057 240.547 197.188Z" fill="#FAFAFA"/>
<path d="M241.299 204.715C246.568 204.593 249.516 204.762 254.627 206.428C251.819 207.174 248.926 207.985 246.105 208.65L246.805 207.792C246.998 206.611 247.096 207.152 246.499 206.112C245.031 205.163 243.062 205.01 241.299 204.715Z" fill="#121212"/>
<path d="M604.515 390.232C603.408 382.251 603.196 374.482 601.382 366.528C600.703 363.558 597.958 355.762 598.046 353.234C603.072 364.606 606.225 384.364 605.634 396.763C603.732 390.938 602.269 387.954 597.063 384.093L597.566 392.863C597.538 394.704 597.322 396.466 597.131 398.295C596.739 395.647 594.837 384.031 596.224 382.386L597.171 382.46C599.652 383.959 602.741 387.895 604.515 390.232Z" fill="#FAFAFA"/>
<path d="M451.478 333.609C453.321 333.38 455.484 332.894 457.055 333.854L457.005 334.479C454.485 336.75 446.881 339.07 443.321 340.32C450.722 340.547 457.961 341.383 465.222 342.14C483.147 343.795 497.437 347.979 510.149 361.158C530.552 382.309 526.185 409.815 531.004 436.327C532.65 443.574 538.516 448.799 542.216 455.187C547.47 464.25 554.915 475.677 556.621 486.165C559.482 504.41 559.718 523.187 560.377 541.6C561.22 568.848 561.328 595.485 557.176 622.549C549.76 670.915 547.926 723.805 520.942 766.23C511.336 781.334 499.68 794.7 487.595 807.735C478.451 817.633 469.024 827.263 459.323 836.613C460.398 825.992 460.822 820.71 459.758 810.252C455.212 821.609 454.162 827.766 445.341 837.704C438.905 844.953 432.663 852.041 422.358 852.977C420.677 850.479 419.476 847.246 418.298 844.441C416.855 849.788 415.309 853.648 413.174 858.747C409.746 851.278 407.545 848.645 402.312 842.539C402.961 852.301 402.419 854.631 400.447 864.233C395.43 851.802 394.36 850.06 387.281 839.167C387.042 845.121 386.798 849.432 385.628 855.254C380.639 849.408 377.448 843.794 374.562 836.737C370.189 845.368 369.919 847.206 363.253 854.895C361.995 849.105 361.739 845.864 361.514 839.926C355.806 847.202 352.358 853.516 350.336 862.575L349.959 862.651C346.21 858.375 345.696 848.197 346.516 842.755C341.079 848.581 339.223 852.053 335.787 859.21C333.693 854.583 332.124 850.151 330.515 845.344C329.184 848.437 328.201 850.999 326.318 853.812C306.936 849.08 294.528 827.854 288.324 810.42C287.361 817.92 288.227 826.544 288.843 834.112C224.255 768.088 211.102 753.383 197.694 659.763C194.811 639.935 192.331 620.048 190.255 600.116C187.46 573.779 188.187 544.449 189.015 517.908C189.71 507.775 189.76 497.053 191.393 487.018C192.908 477.716 199.35 466.806 203.767 458.608C207.843 451.043 214.703 443.841 216.832 435.467C218.053 430.663 217.831 424.701 218.368 419.746C219.551 399.68 220.156 382.487 233.135 366.183C250.179 344.771 270.158 341.914 295.646 337.735C304.304 336.315 313.042 332.87 322.096 334.968C338.918 338.864 356.23 351.192 373.797 350.569C386.884 350.104 400.547 342.891 413.514 339.517C426.823 336.056 437.85 335 451.478 333.609Z" fill="#FAFAFA"/>
<path d="M391.843 713.541C403.969 712.986 419.186 718.216 430.955 720.662C439.233 722.384 446.031 724.981 454.435 722.652C455.427 722.38 456.144 723.023 456.853 723.599C459.513 729.245 451.152 730.516 448.68 733.237C422.947 761.544 396.736 777.415 356.741 769.695C355.757 769.46 354.777 769.212 353.799 768.956C332.076 763.202 317.538 750.139 302.227 734.699C299.674 732.122 293.077 728.15 291.5 725.445C291.687 724.254 291.982 722.368 293.744 722.608C296.921 723.043 300.379 723.982 303.607 723.579C320.072 721.501 335.86 715.239 352.497 713.773C360.885 712.99 366.164 715.935 373.8 716.434C378.475 716.738 386.48 714.013 391.843 713.541Z" fill="#121212"/>
<path d="M392.936 720.339C398.393 720.203 426.283 724.898 430.38 727.12C430.095 729.581 421.316 732.171 418.901 732.806C398.623 738.153 376.479 738.864 355.639 737.213C346.04 736.067 325.068 733.425 317.945 726.988C329.548 725.202 340.431 721.298 353.012 720.551C362.645 719.983 367.13 722.365 375.296 722.74C377.559 722.844 388.308 720.639 392.936 720.339Z" fill="#FAFAFA"/>
<path d="M375.518 752.222C388.938 747.539 400.37 746.8 412.056 755.762C406.601 758.44 402.056 760.566 396.331 762.571C375.877 768.741 357.526 765.552 338.707 756.45C343.718 751.259 348.948 749.697 355.819 749.109C362.099 748.598 369.545 750.632 375.518 752.222Z" fill="#FAFAFA"/>
<path d="M250.144 457.31C259.366 456.611 299.914 464.353 309.429 469.486C313.622 471.749 323.436 483.21 328.628 487.346C327.833 481.387 324.995 477.626 322.228 472.462C328.898 478.517 331.061 483.476 333.897 491.663C335.187 488.46 335.543 485.036 336.795 482.46L337.258 482.362C339.232 488.065 336.332 494.029 333.196 498.626C338.851 505.235 347.527 519.122 349.817 527.439C353.232 539.834 350.129 554.803 343.934 565.864C345.279 559.83 345.634 550.519 343.025 544.909C340.207 538.847 337.282 536.969 331.487 534.744C331.421 537.017 331.568 538.164 331.863 540.442C318.878 526.444 312.471 516.031 293.854 509.175C280.546 504.582 269.194 505.278 255.964 509.879C242.966 514.401 237.833 523.096 229.92 533.309C239.677 501.795 268.94 499.833 296.524 501.397C293.7 498.056 289.161 492.232 286.355 489.368C280.049 482.93 261.398 478.341 252.47 478.504C236.587 478.794 223.539 493.67 213.502 504.527C214.732 498.731 216.972 487.959 220.205 483.276C226.631 473.968 239.044 460.051 250.144 457.31Z" fill="#121212"/>
<path d="M490.86 457.394C496.074 456.51 501.882 457.951 506.261 460.945C514.612 466.654 526.228 478.581 530.12 487.686C531.455 490.814 533.541 500.761 534.348 504.316C523.719 492.217 509.502 476.955 491.823 478.543C484.071 479.24 469.245 482.967 463.21 487.967C460.344 490.341 454.285 498.121 451.587 501.244C457.575 500.943 463.779 500.623 469.77 500.827C489.832 501.512 512.966 511.399 517.833 533.014C512.874 527.404 507.927 519.284 502.033 515.359C489.225 506.828 476.446 504.599 461.658 507.043C443.619 511.463 435.454 517.902 423.403 532.191C422.162 533.662 418.667 538.021 417.196 538.581C417.308 537.166 417.685 536.359 417.006 535.064L416.125 534.872C403.087 539.068 402.425 555.867 405.344 566.868C399.423 557.781 395.967 542.612 397.903 531.927C399.973 520.511 407.619 507.353 415.361 498.845C414.955 498.292 414.556 497.733 414.165 497.17C410.322 491.61 410.058 486.505 411.244 480.081C411.791 483.453 413.179 488.18 414.085 491.597C417.614 482.487 419.337 479.128 426.299 471.968C424.862 474.728 419.47 483.183 420.553 485.786C423.981 484.664 434.206 472.65 438.559 469.694C446.28 464.451 479.922 458.766 490.86 457.394Z" fill="#121212"/>
<path d="M395.581 675.137C412.356 677.97 423.955 684.759 439.511 690.901C454.117 696.663 474.644 698.932 479.04 717.341C481.298 726.792 477.102 734.827 472.321 742.48C472.086 740.454 471.775 738.875 471.362 736.873C464.423 718.189 457.69 720.474 441.72 715.004C423.608 708.802 408.381 704.83 389.526 701.122C386.282 697.821 381.132 688.043 382.1 683.388C383.36 681.326 392.299 677.227 395.581 675.137Z" fill="#121212"/>
<path d="M352.7 675.129C354.789 675.289 364.482 681.047 366.86 682.393C366.177 689.234 364.365 696.451 359.614 701.65C353.966 702.565 349.401 703.004 343.609 704.303C331.835 706.661 320.428 711.32 309.022 714.572C293.166 719.096 286.241 718.353 278.732 735.607C277.743 737.912 277.536 739.942 277.301 742.4C270.43 732.114 266.098 720.762 274.076 709.625C276.977 705.602 280.758 702.293 285.132 699.951C292.961 695.664 303.178 693.566 311.781 690.245C325.72 684.867 337.711 677.518 352.7 675.129Z" fill="#121212"/>
<path d="M413.247 786.169C413.459 786.777 411.549 788.799 410.985 789.514C406.051 795.8 403.127 800.247 400.357 807.763L396.656 802.137C393.285 809.286 392.574 811.108 391.86 818.968C389.519 816.414 387.959 813.817 386.199 810.888C382.262 815.076 377.71 821.269 374.49 825.961C370.467 820.087 367.786 816.442 363.003 811.208C361.856 813.054 359.434 817.641 357.555 818.165L356.968 817.809L356.753 815.22C355.769 809.853 354.768 807.799 352.605 802.864L348.582 807.316C346.222 799.867 340.713 791.768 335.746 785.754C358.499 797.138 390.365 797.126 413.247 786.169Z" fill="#121212"/>
<path d="M228.166 546.125C230.105 542.856 233.144 539.572 235.607 536.695C242.978 528.083 249.847 520.531 261.392 517.767C274.442 514.582 288.43 515.397 300.127 522.481C309.093 527.912 316.175 535.064 322.819 543.096C324.555 545.194 327.676 547.995 327.967 550.748C326.706 552.003 304.698 554.84 301.077 555.439C303.424 554.105 305.91 553.026 308.49 552.227C314.089 550.089 314.647 549.478 315.397 543.5C315.286 543.364 315.176 543.224 315.064 543.084C298.453 515.607 257.725 512.943 241.727 543.352C249.837 554.756 255.603 556.578 268.338 559.539C262.644 559.535 258.68 559.064 253.14 557.525C250.245 556.722 246.661 553.813 244.53 554.5C243.68 558.269 256.757 563.167 259.9 564.31C252.125 563.151 244.821 561.198 240.1 554.552C236.273 549.166 234.382 548.063 228.166 546.125Z" fill="#121212"/>
<path d="M315.125 550.233C315.322 549.238 316.949 546.017 317.478 544.91C319.404 546.353 321.079 547.547 323.09 548.866C321.092 549.158 316.879 549.665 315.125 550.233Z" fill="#FAFAFA"/>
<path d="M315.395 543.502L315.648 543.227L315.831 543.606L317.544 544.357L317.478 544.909C316.949 546.016 315.322 549.236 315.125 550.231C314.345 551.302 309.853 552.577 308.488 552.229C314.088 550.091 314.646 549.48 315.395 543.502Z" fill="#121212"/>
<path d="M446.897 555.451C442.751 554.788 421.993 552.111 419.954 550.852C419.808 548.45 422.062 546.261 423.565 544.562C436.937 529.434 448.305 517.396 469.679 516.136C495.446 514.616 505.788 527.696 519.754 546.38C514.156 547.927 511.894 548.61 508.258 553.629C503.439 560.278 496.804 562.708 489.016 564.198C495.108 561.457 500.35 559.539 503.846 553.541C494.864 557.789 492.448 558.24 482.524 559.779L482.457 558.872C483.176 558.732 483.893 558.58 484.606 558.416C493.454 556.462 501.149 551.044 505.972 543.372C502.22 537.346 497.32 530.9 491.143 527.2C482.321 521.918 470.068 520.04 459.982 522.557C450.981 524.803 441.793 531.412 435.637 538.333C434.981 539.072 433.037 542.457 432.382 543.559C431.824 548.71 433.694 550.125 438.101 552.135C440.936 552.902 444.147 554.3 446.897 555.451Z" fill="#121212"/>
<path d="M430.747 544.41L430.785 544.89C431.042 548.014 431.42 547.275 431.975 549.737C431.421 549.869 431.184 549.952 430.616 550C429.325 549.401 425.745 549.017 424.164 548.786C426.907 547.291 428.53 546.656 430.747 544.41Z" fill="#FAFAFA"/>
<path d="M430.746 544.41C431.135 543.87 431.629 543.846 432.383 543.559C431.825 548.709 433.695 550.124 438.103 552.134C436.754 552.17 431.527 550.959 430.615 550C431.183 549.952 431.42 549.868 431.974 549.736C431.419 547.275 431.041 548.014 430.784 544.889L430.746 544.41Z" fill="#121212"/>
<path d="M275.404 523.77C284.653 522.364 293.308 528.669 294.806 537.904C296.303 547.138 290.085 555.857 280.865 557.448C274.819 558.491 268.679 556.205 264.784 551.466C260.889 546.723 259.841 540.258 262.037 534.527C264.234 528.797 269.338 524.689 275.404 523.77Z" fill="#121212"/>
<path d="M282.625 533.038C285.225 532.075 288.113 533.39 289.101 535.979C290.088 538.569 288.806 541.47 286.227 542.481C284.535 543.148 282.617 542.852 281.202 541.709C279.788 540.567 279.097 538.752 279.391 536.958C279.685 535.168 280.92 533.67 282.625 533.038Z" fill="#FAFAFA"/>
<path d="M465.095 524.205C474.228 521.976 483.442 527.558 485.699 536.681C487.956 545.807 482.407 555.038 473.289 557.327C464.129 559.625 454.845 554.043 452.577 544.876C450.31 535.71 455.92 526.443 465.095 524.205Z" fill="#121212"/>
<path d="M473.653 533.009C475.412 532.521 477.298 533.017 478.587 534.307C479.877 535.602 480.371 537.488 479.879 539.246C479.387 541.004 477.986 542.359 476.213 542.794C473.53 543.45 470.816 541.835 470.117 539.162C469.418 536.489 470.992 533.752 473.653 533.009Z" fill="#FAFAFA"/>
<path d="M341.471 649.91C353.054 648.799 359.336 662.821 370.17 665.67C381.562 668.663 388.819 657.123 397.553 652.164C400.981 650.254 405.086 649.371 408.918 650.506C411.228 651.189 414.6 653.279 413.39 656.16C412.605 658.026 410.582 658.825 408.847 659.616C404.695 660.823 398.99 660.587 395.122 662.445C387.34 666.181 383.915 674.321 374.163 674.357C364.239 674.389 360.14 666.01 352.634 662.489C345.611 659.193 339.482 662.154 333.084 655.572C335.95 651.56 336.713 650.977 341.471 649.91Z" fill="#121212"/>
<path d="M420.403 620.219C427.106 625.242 432.425 637.069 433.078 645.181C434.044 657.193 427.42 668.429 414.736 669.516C412.5 669.5 410.08 669.308 407.834 669.177C413.952 665.584 421.943 663.746 425.453 656.517C431.657 643.739 423.721 631.467 420.497 620.546L420.403 620.219Z" fill="#121212"/>
<path d="M327.996 619.055L328.267 619.486C322.258 633.36 313.608 654.866 330.42 664.372C332.342 665.459 338.144 667.481 339.027 668.94C337.946 669.647 336.547 669.467 335.173 669.475C330.778 669.591 325.74 668.468 322.523 665.343C308.594 651.805 317.353 631.03 327.996 619.055Z" fill="#121212"/>
<path d="M317.407 561.68C316.824 563.154 311.639 566.647 310.162 567.793C298.322 576.992 281.405 581.467 266.412 579.01L266.236 578.97C267.502 578.466 272.208 577.895 273.785 577.687C282.141 576.568 290.916 573.344 298.573 569.871C305.513 566.727 309.504 563.042 317.407 561.68Z" fill="#121212"/>
<path d="M427.068 561.07C433.643 561.846 440.122 565.957 445.999 568.806C455.097 573.214 464.333 576.614 474.391 577.965C476.243 578.217 478.418 578.62 480.137 579.308C465.19 580.646 450.218 577.018 437.54 568.99C434.401 566.964 430.097 563.44 427.068 561.07Z" fill="#121212"/>
<path d="M482.274 429.027C483.044 428.931 483.817 428.867 484.593 428.833C493.24 428.488 502.805 431.277 509.203 437.253C504.911 435.506 503.081 434.676 498.583 433.436C486.857 430.866 479.907 431.498 468.209 432.618C473.888 430.373 476.247 429.661 482.274 429.027Z" fill="#121212"/>
<path d="M482.525 559.778C481.169 559.914 480.257 560.134 478.98 559.694C479.78 559.011 481.334 558.999 482.458 558.871L482.525 559.778Z" fill="#121212"/>
<path d="M404.575 183.57C411.719 184.451 422.598 191.894 428.212 196.516C447.976 212.789 459.917 236.607 462.466 261.914C463.821 275.358 461.975 288.932 457.076 301.525C456.383 303.327 454.077 309.61 452.299 309.779C451.404 307.403 454.025 297.099 454.499 293.167C456.416 277.284 454.976 256.899 447.229 242.593C448.186 249.129 447.595 275.687 442.443 278.779C440.777 277.837 440.924 273.847 440.7 271.64C439.669 260.443 436.245 249.598 430.66 239.839C434.498 257.276 434.443 276.472 428.928 293.423C427.558 297.632 426.109 302.574 423.744 306.327C422.726 302.651 422.764 295.024 422.552 290.823C421.812 276.176 416.927 263.549 409.044 251.258C392.693 225.987 366.947 211.009 340.291 199.654C339.284 199.225 338.421 198.496 338.141 197.439L338.714 197.053C341.599 196.673 350.461 198.635 353.44 199.426C383.771 207.481 406.367 223.93 422.53 250.476C421.656 246.675 421.122 242.474 420.304 238.571C418.464 229.621 415.073 221.06 410.287 213.277C406.896 207.754 402.776 203.186 398.325 198.547C396.797 196.955 388.029 189.002 387.787 187.733L388.329 187.269C391.755 187.337 396.437 189.994 399.443 191.736C414.292 200.34 424.629 211.213 434.788 224.794C430.206 211.727 424.237 202.862 414.414 192.878C411.617 190.034 407.19 186.632 404.81 183.848L404.575 183.57Z" fill="#FAFAFA"/>
<path d="M308.767 207.051C310.533 207.035 312.769 207.488 314.462 207.895C352.842 217.115 379.082 251.041 380.463 290.236C380.536 292.303 381.707 301.844 379.834 302.938C379.081 302.28 378.522 301.05 378.285 300.09C376.266 291.435 374.288 283.442 371.215 275.07C365.098 258.407 356.15 247.174 343.517 235.102C352.012 250.984 355.761 260.087 358.748 278.53C359.241 280.947 361.722 290.046 359.604 291.236C357.332 289.891 354.95 283.177 353.6 280.54C346.276 266.233 336.047 254.106 323.219 244.432C309.973 234.444 295.383 227.511 279.5 222.932C276.975 222.203 272.835 222.306 271.164 220.25L271.327 219.798C272.388 219.184 273.423 218.964 274.645 218.894C300.68 217.407 317.837 226.448 336.964 242.05C328.647 225.196 322.277 219.594 308.767 207.051Z" fill="#FAFAFA"/>
<path d="M480.26 208.973C483.599 210.053 488.723 216.591 491.04 219.406C503.887 235.01 508.211 251.464 511.703 270.861C512.43 262.811 513.641 257.512 513.105 249.047C512.838 244.826 510.956 236.904 511.211 233.806L511.719 233.48C514.692 234.436 519.982 244.567 521.593 247.582C535.662 273.944 533.936 305.603 510.628 326.009C510.388 326.221 510.069 325.975 509.761 325.857C509.381 324.067 510.848 322.202 511.843 320.76C515.523 315.408 517.425 309.285 519.251 303.122C521.86 292.782 521.345 284.117 520.542 273.65C519.459 277.11 518.7 280.46 517.713 283.85C514.336 295.445 507.939 306.232 498.97 314.374C497.051 316.117 492.971 320.591 490.387 319.813C490.21 319.021 490.36 318.386 490.8 317.673C501.913 299.664 503.619 284.53 500.85 263.977C500.315 267.916 496.577 284.94 492.369 285.708C491.701 285.11 491.721 285.053 491.922 284.032C495.94 263.651 494.661 242.24 486.476 223.016C484.627 218.673 481.47 213.459 480.26 208.973Z" fill="#FAFAFA"/>
<path d="M598.967 564.938C599.571 565.301 599.95 565.801 600.25 566.432C605.329 577.025 593.461 630.426 588.93 641.439C585.442 649.91 578.936 656.496 575.764 665.318C579.104 661.123 582.365 656.963 585.913 652.931C584.291 663.592 583.164 674.517 580.982 685.062C578.189 698.572 572.175 703.419 558.949 703.911L559.613 697.749C561.215 685.57 562.797 670.873 564.911 658.997C572.907 653.591 573.578 647.621 578.005 639.421C583.779 628.728 578.908 615.018 575.016 604.449C577.522 596.333 581.114 588.597 585.697 581.445C588.143 590.423 589.553 598.687 591.723 607.618C591.903 591.486 590.708 579.171 598.967 564.938Z" fill="#FAFAFA"/>
<path d="M149.678 564.551C159.998 571.735 158.107 595.519 159.363 607.263C160.778 598.732 162.963 589.417 164.772 580.874C168.268 586.221 173.328 598.472 175.211 604.554C173.136 613.145 168.273 622.196 169.656 631.238C169.932 632.953 170.393 634.627 171.029 636.241C172.305 639.466 174.596 642.998 175.812 646.051C178.762 653.448 178.637 654.606 185.033 659.381C187.028 668.076 189.162 687.437 190.502 696.899C190.947 698.709 191.352 701.91 191.661 703.852C172.596 703.784 170.412 692.296 167.945 675.857C166.778 668.084 165.474 660.053 164.274 652.261C167.839 656.245 170.602 660.696 174.238 664.664C171.083 655.23 165.625 650.543 161.726 641.959C159.153 636.297 157.6 627.842 156.221 621.588C152.097 602.883 146.749 583.811 149.678 564.551Z" fill="#FAFAFA"/>
<path d="M543.857 328.208C555.05 327.368 570.781 341.227 575.844 350.639C577.434 353.596 581.866 361.79 581.846 364.977L581.33 365.411C579.412 365.724 577.806 363.23 576.12 361.554C571.137 356.606 567.113 354.476 560.824 351.879C571.944 364.28 577.898 382.965 577.182 399.434C575.216 397.046 573.087 392.543 571.348 389.699C566.202 381.258 559.321 374.009 551.162 368.433C555.909 378.044 558.438 383.432 560.292 394.017C560.832 397.144 562.658 409.619 560.828 411.874L560.152 411.825C558.45 410.33 557.103 400.726 556.009 397.231C554.602 392.763 552.844 388.414 550.746 384.224C546.498 375.681 541.076 367.608 534.695 360.466C531.91 357.344 526.727 353.126 524.438 349.976L524.625 349.413C530.255 347.128 549.347 356.674 554.634 359.424C547.118 349.804 542.455 347.122 534.211 338.892C544.796 339.029 550.067 339.84 560.088 343.424C555.781 337.484 549.495 334.12 544.197 329.334C544.061 328.889 543.949 328.514 543.857 328.208Z" fill="#FAFAFA"/>
<path d="M239.996 239.494C251.65 239.159 266.449 245.255 275.684 252.379C290.985 263.806 300.163 281.027 306.506 298.658C307.39 301.114 311.255 310.406 309.794 312.198C307.725 311.776 306.108 308.288 304.729 306.234C298.076 296.332 291.956 289.541 283.071 281.701C271.406 271.054 251.024 261.392 235.451 258.898C232.043 258.352 220.295 256.801 218.082 255.429C219.427 251.916 238.18 251.571 242.219 251.857C251.421 252.508 260.04 255.975 268.571 259.208C260.925 250.941 251.399 246.892 241.666 241.738C240.399 241.068 240.388 240.693 239.996 239.494Z" fill="#FAFAFA"/>
<path d="M160.266 547.117C167.925 548.943 171.339 551.684 176.274 557.846C177.088 562.066 179.789 584.99 177.85 587.38L177.079 587.352C175.713 586.345 174.987 584.495 174.182 582.912C170.832 576.579 164.366 564.719 157.992 560.419C156.072 559.125 152.242 560.823 150.241 558.074C149.209 553.519 156.917 548.819 160.266 547.117Z" fill="#FAFAFA"/>
<path d="M586.977 547.983C593.738 547.412 603.595 555.144 598.437 559.559C596.978 560.031 595.732 559.527 594.185 559.156C585.894 564.031 581.966 571.715 577.515 580.058C576.464 582.204 574.246 587.179 572.632 588.49L571.901 588.254C570.806 585.868 571.537 581.449 571.801 578.748C573.395 562.34 570.118 555.675 586.977 547.983Z" fill="#FAFAFA"/>
<path d="M203.463 289.82C207.518 292.643 211.819 297.826 215.128 301.182C227.771 314.006 242.96 321.009 259.638 326.929C260.483 327.228 260.476 328.026 260.714 328.88C243.152 330.125 225.939 324.186 214.33 310.674C209.876 305.49 204.495 296.617 203.463 289.82Z" fill="#FAFAFA"/>
<path d="M234.068 267.58C248.553 265.698 260.492 274.187 270.541 283.572C272.364 285.275 276.615 288.976 276.826 291.378L276.2 291.984C275.23 291.93 270.191 288.644 269.002 287.913C259.585 281.543 246.743 276.47 235.569 274.266C232.227 273.608 224.037 272.711 221.252 271.599L221.207 270.957C223.25 268.822 230.918 268.001 234.068 267.58Z" fill="#FAFAFA"/>
<path d="M210.094 322.73C215.221 322.333 219.544 322.952 224.467 324.541C228.048 325.697 238.967 330.032 240.534 333.068L240.158 333.723C237.447 334.556 225.54 331.544 221.774 330.766C212.334 329.232 203.552 328.956 194.255 330.795C192.418 331.159 189.674 332.392 188.43 330.991L188.705 330.198C193.337 325.598 203.724 323.467 210.094 322.73Z" fill="#FAFAFA"/>
<path d="M569.155 617.016C570.43 617.795 572.128 620.88 572.544 622.294C574.545 629.159 572.955 635.165 569.946 641.219C568.752 642.122 568.955 642.278 567.749 642.318C566.218 639.237 568.388 620.948 569.155 617.016Z" fill="#FAFAFA"/>
<path d="M179.674 617.648C182.334 619.642 184.131 639.478 182.738 642.403L181.55 642.543C175.022 635.758 177.128 625.548 179.674 617.648Z" fill="#FAFAFA"/>
<path d="M228.805 204.834C230.94 205.027 236.923 204.399 241.3 204.716C243.063 205.011 245.032 205.165 246.499 206.114C247.096 207.154 246.999 206.612 246.806 207.793L246.106 208.651C241.758 210.248 235.175 212.845 231.038 214.825C227.121 211.389 230.861 207.436 228.805 204.834Z" fill="#121212"/>
<path d="M169.06 274.785C171.123 274.531 173.563 273.868 175.421 274.298C176.702 276.024 174.589 278.769 173.693 280.663C171.515 283.886 168.413 287.319 166.069 290.585C165.097 286.139 167.212 281.54 163.582 277.379C164.933 276.471 167.524 275.375 169.06 274.785Z" fill="#121212"/>
<path d="M324.369 166.484C328.143 167.614 331.595 168.674 335.302 169.996C335.726 171.42 336.353 172.793 335.951 174.135C334.907 175.122 332.808 175.118 331.167 175.406C327.766 175.231 324.362 175.148 320.957 175.159C325.669 174.31 324.535 170.488 324.369 166.484Z" fill="#121212"/>
<path d="M150.188 348.495C153.375 345.296 154.589 344.149 158.546 341.738C156.75 347.559 155.031 353.179 153.99 359.192C153.763 360.501 153.464 362.156 153.134 363.436C149.693 359.627 154.885 356.324 152.668 352.768L153.502 351.722C153.507 349.78 152.177 352.224 150.188 348.495Z" fill="#121212"/>
<path d="M150.187 348.496C152.177 352.225 153.506 349.781 153.501 351.723L152.667 352.769C152.34 354.291 152.611 354.327 151.68 355.086C150.512 354.385 149.318 352.003 148.375 350.584L150.187 348.496Z" fill="#121212"/>
</g>
<path d="M1079.13 126.196C1091.71 107.748 1113.49 97.8131 1135.67 100.407C1143.69 101.346 1155.3 103.138 1166.75 107.994C1179.49 113.402 1196.91 124.854 1205.68 147.168C1212.01 163.275 1210.92 178.123 1209.15 187.653C1259.58 183.739 1308.9 178.391 1361.19 173.499L1365.48 173.102C1387.22 171.114 1412.8 169.195 1437.78 170.003C1467.35 170.96 1491.8 193.319 1495.4 222.678C1495.81 226.07 1495.93 229.438 1495.78 232.756C1501.7 236.926 1506.98 241.486 1511.53 246.083C1519.75 254.404 1528.88 266.234 1534.79 281.062C1534.88 280.862 1534.96 280.662 1535.04 280.463C1538.82 271.201 1543.32 260.809 1548.1 251.62C1550.48 247.048 1553.46 241.743 1556.99 236.605C1559.84 232.457 1566.1 223.818 1576.04 216.673L1576.75 216.165C1591.56 205.846 1610.22 202.746 1627.56 207.708C1633.82 208.727 1639.93 210.741 1645.67 213.734C1651.84 216.955 1662.89 223.667 1672.02 229.573C1672.37 229.797 1672.71 230.023 1673.06 230.25C1673.57 226.425 1674.46 222.623 1675.72 218.9C1681.92 200.627 1696.53 186.459 1714.97 180.813C1715.32 180.548 1715.72 180.252 1716.18 179.905L1716.98 179.31C1733.83 166.978 1755.91 164.28 1775.26 172.249C1775.96 172.539 1778.01 173.246 1782.46 174.506C1785.08 175.247 1785.97 175.479 1789.01 176.331C1791.18 176.942 1794.21 177.806 1797.19 178.793C1816.24 185.099 1831.75 197.901 1841.22 206.52C1850.17 214.662 1858.85 223.913 1866.74 233.095C1871.7 227.607 1876.17 222.628 1879.79 218.45C1892.86 203.367 1913.18 181.231 1929.85 166.077L1930.6 165.41C1946.36 151.551 1968.25 146.923 1988.31 153.271C1990.52 153.97 1992.72 154.715 1994.89 155.507C1994.97 155.535 1995.05 155.563 1995.12 155.591C2007.03 159.978 2019.58 166.872 2030.43 178.697C2030.99 179.308 2031.53 179.924 2032.07 180.539C2046.69 185.243 2059.22 195.474 2066.68 209.488C2077.35 229.563 2075.76 253.949 2062.57 272.469C2051.48 288.038 2041.21 299.069 2032.2 308.281C2022.97 317.717 2017.22 323.206 2010.12 331.587C1996.86 347.244 1981.28 366.969 1964.89 386.64C1973.36 400.819 1977.83 409.625 1982.77 417.565C1983.17 417.929 1983.58 418.305 1983.98 418.692C1986.83 421.397 1989.18 424.107 1991.13 426.634L1991.94 427.705L1992.43 428.385C1992.6 428.613 1992.76 428.842 1992.92 429.072C2002.96 443.458 2008.71 452.446 2016.29 462.079L2018.31 464.617C2018.47 464.819 2018.63 465.022 2018.78 465.226C2019.45 466.097 2019.83 466.568 2021.13 468.238C2022.18 469.578 2023.7 471.544 2025.31 473.793C2028.52 478.303 2033.03 485.235 2036.58 494.278C2040.99 505.516 2041.9 517.824 2039.21 529.592C2038.73 531.689 2038.12 533.829 2037.39 535.996C2036.34 545.192 2033.39 556.124 2026.27 566.733C2020.11 575.901 2012.75 581.76 2011 583.197C2007.43 586.133 2007.95 585.59 2005.94 587.321C1993.62 597.927 1977.56 603.046 1961.46 601.606C1963.18 614.616 1960.54 625.043 1959.49 628.862C1957.18 637.262 1953.71 643.849 1952.54 646.057C1952.53 646.071 1952.53 646.086 1952.52 646.1C1933.08 682.795 1919.15 706.698 1910.12 736.599C1901.7 764.474 1874.48 782.28 1845.57 778.825C1843.13 778.534 1833.48 777.573 1828.32 776.792C1822.72 775.947 1808.55 773.713 1794.76 764.923C1787.29 760.167 1781.13 754.337 1776.24 747.805C1766.76 751.941 1756.72 755.531 1746.45 758.156C1725.4 763.535 1687.59 768.178 1655.37 747.903C1643.81 752.123 1629.74 754.699 1613.92 752.46C1603.95 751.049 1594.96 747.976 1586.92 743.761C1579.87 751.868 1570.77 757.945 1560.56 761.339C1540.4 768.04 1521.54 766.114 1506.02 760.251C1498.94 784.032 1489.66 813.554 1476.57 841.9C1463.02 871.209 1443.48 903.612 1413.76 928.156L1413.75 928.162C1380.02 956.008 1340.71 960.948 1307.56 957.273C1300.13 956.45 1268.93 953.035 1248.67 925.437C1234.56 906.224 1232.68 885.069 1234.81 869.093C1236.8 854.128 1242.46 841.335 1247.45 832.099C1257.44 813.569 1272.22 795.872 1285.16 781.814C1285.46 781.486 1285.76 781.159 1286.07 780.83C1281.9 780.901 1277.68 780.697 1273.45 780.191C1266.93 779.41 1260.19 777.847 1253.56 775.404C1251.45 778.654 1249.23 781.776 1246.91 784.754C1221.52 817.273 1176.94 842.015 1125.95 832.463C1125.94 832.462 1125.93 832.46 1125.93 832.459C1110.57 829.578 1097.15 822.301 1088.24 816.266C1081.82 811.916 1071.04 803.736 1062.47 791.396C1055.91 792.486 1049.11 793.151 1042.07 793.305L1042.07 793.306C1029.98 793.57 1017.39 792.104 1005.32 788.209C995.631 797.985 982.034 808.865 964.456 815.112C951.04 819.879 935.185 821.965 918.232 818.527C901.447 815.122 887.243 807.051 875.75 797.091L875.74 797.081C873.017 794.721 870.519 792.262 868.225 789.735C866.254 789.978 864.275 790.124 862.294 790.171C861.831 790.382 861.365 790.593 860.895 790.798C860.847 790.819 860.8 790.839 860.752 790.86C856.487 792.711 852.773 793.727 851.798 793.996C850.161 794.449 848.665 794.807 847.579 795.056C845.38 795.56 843.12 796.015 841.354 796.36C839.506 796.72 837.684 797.059 836.295 797.316C835.556 797.452 834.994 797.557 834.488 797.652C834.246 797.697 834.057 797.732 833.91 797.76C833.758 797.789 833.696 797.801 833.699 797.8C822.387 800.036 810.671 798.966 799.951 794.717C783.739 788.29 756.162 772.173 747.724 736.702L747.449 735.511C741.868 710.503 748.238 687.062 752.575 674.121C757.641 659.002 764.483 645.453 769.249 636.678C775.171 625.77 782.768 614.305 791.719 603.405C783.351 604.815 774.479 604.906 765.241 603.296C739.87 598.873 722.632 583.431 712.735 570.916C702.478 557.947 695.744 542.914 692.189 528.441C688.754 514.458 687.097 496.05 692.605 477.142C701.099 447.885 716.184 390.06 742.692 343.643C756.189 320.007 775.372 294.194 802.929 276.431C829.413 259.36 860.882 251.596 895.138 256.804C899.996 249.998 906.285 244.195 913.694 239.864C927.286 231.92 943.973 227.206 955.525 224.287C968.865 220.917 983.779 217.981 997.891 215.467C1011.59 213.026 1025.42 210.829 1037.38 208.945C1039.86 202.843 1042.37 196.433 1045.51 188.837C1053.08 170.547 1062.36 150.78 1079.13 126.196Z" fill="#2A2A2A"/>
<path d="M974.527 514.071C987.542 513.524 990.15 524.011 990.484 534.896C991.166 563.844 974.693 590.666 961.822 615.747C941.346 655.646 930.863 702.581 933.875 747.631C945.708 743.285 953.169 735.703 961.768 727.212C990.931 698.398 1005.4 661.83 1025.53 627.225C1035.15 611.382 1046.44 600.105 1060.15 588.35C1083.31 568.477 1107.85 596.094 1103.26 618.963C1098.77 641.344 1063.09 662.663 1044.44 675.845C1040.04 685.159 1036.79 700.82 1037.89 711.14C1039.92 730.237 1060.51 718.97 1070.37 714.624C1107.14 698.398 1134.96 667.526 1158.26 635.639C1153.98 623.443 1152.53 613.344 1159.87 601.828C1171.56 583.324 1194.43 570.832 1214.75 585.066C1230.76 596.267 1225.36 611.65 1215.79 624.649C1215.96 615.977 1217.54 609.84 1215.11 601.053C1210.08 582.884 1194.94 584.856 1188.1 600.861C1176.85 627.206 1196.26 650.094 1205.61 673.815C1223.85 666.607 1256.93 655.311 1272.84 647.136C1283.94 626.688 1295.31 606.375 1306.92 586.205C1319.63 588.359 1322.43 588.761 1330.83 598.43C1327.13 610.721 1317.52 635.343 1312.43 647.031C1303.48 667.613 1292.48 684.815 1285.84 707.119C1289.85 706.564 1294.47 705.884 1298.13 704.42C1313.38 698.313 1342.98 669.431 1352.7 655.828C1372.18 628.555 1388.71 600.392 1421.19 584.989C1437.33 577.331 1450.35 581.668 1465.96 587.708C1468.43 585.43 1472.08 583.687 1475.09 582.031C1480.07 582.902 1487.52 583.765 1488.45 589.097C1489.89 597.339 1485.24 610.204 1482.95 617.729C1477.98 634.031 1473.3 649.673 1471.79 666.607C1484.09 657.743 1529.05 625.98 1534.58 615.096C1540.74 602.986 1542.31 588.857 1548.97 576.834C1549.15 576.518 1549.33 576.202 1549.51 575.886C1555.91 577.197 1560.4 577.657 1564.26 583.267C1571.59 593.931 1567.04 619.442 1564.86 631.58C1568.75 625.147 1573.09 619.001 1577.87 613.19C1589.15 599.683 1626.87 562.035 1645.13 581.477C1661.24 598.621 1641.04 633.045 1636.28 652.354C1633.31 664.473 1632.01 668.484 1632.02 681.33C1645.77 676.898 1669.65 653.396 1677.09 640.646C1691.38 616.168 1699.88 587.497 1726.02 571.712C1748.44 558.157 1776.7 578.413 1767.19 603.742C1759.85 622.715 1732.06 633.61 1714.24 641.038C1699.73 669.996 1704.05 696.196 1742.8 684.316C1786.43 670.943 1808.67 642.273 1828.85 603.943C1821.23 601.129 1812.63 597.271 1808.12 590.398C1794.16 569.128 1828.66 540.878 1843.85 564.073C1848.76 571.588 1845.53 583.85 1843.27 592.073C1858.39 592.217 1892.75 593.49 1901.43 607.964C1903.07 610.683 1901 615.173 1899.5 618.016C1881.54 651.922 1863.85 682.297 1852.68 719.248C1828.89 716.405 1817.87 718.176 1823.01 691.554C1829.53 657.752 1850.87 633.858 1863.08 604.336L1863.64 602.958C1857.97 601.828 1848.31 602.269 1842.45 602.422C1831.43 623.444 1804.19 658.47 1785.11 673.547C1761.38 692.31 1701.93 720.607 1677.68 687.897C1669.94 677.472 1671.14 666.952 1673.27 654.957C1661.06 673.011 1628.32 715.945 1601.54 678.248C1593.18 666.464 1643.09 600.325 1630.32 592.303C1612.75 594.677 1579.76 641.708 1569.78 657.742C1558.31 676.151 1556.58 686.231 1541.64 704.4C1528.53 708.756 1518.75 700.084 1510.36 691.19C1512.83 672.342 1521.14 651.434 1529.03 634.193C1507.15 647.844 1486.41 661.696 1471.2 683.024C1458.96 700.188 1455.27 720.329 1449.41 740.126C1435.11 788.373 1415.5 848.911 1375.56 881.89C1357.99 896.392 1336.6 900.126 1314.17 897.637C1308.02 896.957 1300.9 895.195 1297.04 889.931C1276.05 861.346 1372.26 781.27 1392.47 761.799C1404.67 750.044 1416.4 737.944 1426.56 724.351C1440.45 705.779 1447.18 689.993 1451.44 667.268C1448.91 664.673 1444.22 657.034 1442.98 656.488C1437.67 659.322 1433.16 670.609 1428.24 676.353C1415.12 691.679 1385.01 726.379 1362.42 708.306C1351.16 699.298 1352.35 683.809 1352 670.359C1347.7 673.183 1341.51 681.311 1337.83 685.351C1327.62 696.637 1317.47 707.138 1304.42 715.141C1290.51 723.67 1269.15 723.842 1261.26 707.243C1254.25 692.492 1264.09 670.092 1269.58 655.656C1249.23 661.448 1229.71 673.461 1208.34 681.282C1230.82 726.571 1186.36 782.735 1136.99 773.487C1128.27 771.85 1114.31 762.909 1110.44 754.974C1094.65 722.637 1155.67 692.712 1177.08 681.301C1172.84 666.473 1168.99 654.718 1163.92 640.129C1160.38 644.236 1156.9 648.783 1153.51 653.109C1125.89 688.309 1089.52 732.257 1040.76 733.319C1009.25 734.008 1001.04 714.279 1002.21 687.322C990.497 704.802 982.746 722.311 968.779 739.227C954.708 756.266 935.656 769.61 915.044 751.747C899.532 738.297 900.366 707.761 899.653 688.165C885.166 703.548 879.343 717.094 860.851 730.189C864.514 723.374 871.109 714.777 875.402 707.875C880.851 699.126 883.941 692.818 888.236 683.57C870.635 700.036 858.724 726.265 836.866 735.818C834.946 736.651 825.064 738.346 822.062 738.939C814.479 735.934 808.052 731.051 806.093 722.809C801.994 705.587 813.89 680.2 821.975 665.314C833.501 644.082 854.744 618.81 877.999 610.252C889.44 606.653 904.898 613.411 915.1 619.164C921.24 604.125 931.148 586.301 938.698 571.77C945.775 558.157 961.633 521.302 974.527 514.071ZM1432.64 731.158C1419.77 744.589 1405.67 759.532 1393.09 773.135C1378.04 789.409 1299.75 861.176 1317.74 884.246C1378.94 889.626 1420.35 780.822 1433.75 732.92C1433.38 732.336 1433.01 731.742 1432.64 731.158ZM1175.43 696.034C1155.35 704.602 1137.34 716.261 1128.58 737.092C1124.76 746.176 1127.14 753.806 1134.58 759.741C1152.51 768.624 1167.12 756.821 1172.33 739.686C1175.35 729.758 1179.15 706.689 1177.95 696.532C1176.79 696.197 1176.57 695.996 1175.43 696.034ZM900.36 631.705C880.047 642.484 870.056 661.18 858.461 680.307C853.437 688.597 846.452 699.27 844.11 708.671L845.04 709.79L847.159 708.671C859.774 699.127 912.4 647.692 905.564 633.036C903.238 631.591 903.168 631.83 900.36 631.705ZM1457.35 608.004C1461.51 595.55 1452.13 594.957 1442.88 595.56C1432.84 601.351 1424.08 611.344 1417.26 620.62C1401.17 642.523 1378.8 666.675 1378.49 695.308C1384.62 693.642 1386.45 693.172 1392.2 690.291C1407.62 681.551 1415.38 676.469 1426.34 662.215C1439.15 645.549 1450.63 628.126 1457.35 608.004ZM1081.63 596.211C1069.06 605.449 1045.93 640.102 1048.81 655.026L1050.35 655.926C1052.84 654.921 1053.36 654.701 1055.63 653.294C1068.64 645.291 1085.78 626.509 1090.3 611.547C1092.12 605.535 1087.92 597.101 1081.63 596.211ZM1748.58 578.793C1738.97 586.633 1721.85 612.078 1720.45 623.508L1721.11 625.346C1724.04 625.7 1724.53 624.79 1727.71 623.287C1738.94 617.534 1752.76 610.9 1756.93 598.044C1759.22 590.941 1758.09 579.416 1748.58 578.793ZM980.63 535.807C976.95 541.234 973.814 547.007 971.272 553.048C968.848 558.716 953.165 603.448 956.89 607.23C964.503 591.195 984.936 554.005 981.965 537.339L980.63 535.807ZM1827.01 563.5C1816.58 571.11 1819.07 576.452 1827.89 583.612L1830.13 583.632C1833.48 579.362 1834.55 568.507 1830.43 564.237L1827.01 563.5Z" fill="#F4F4F4"/>
<path d="M1395.63 850.219C1395.61 850.429 1395.58 850.649 1395.55 850.87C1386.76 867.928 1369.06 884.499 1352.64 892.301L1352.39 891.429C1353.73 888.146 1357.85 886.404 1361.02 884.413C1375.2 875.51 1384.19 862.041 1395.63 850.219Z" fill="#F4F4F4"/>
<path d="M1128.7 160C1154.22 162.986 1154.3 170.32 1144.44 192.939C1135.02 214.536 1124.3 236.134 1113.02 256.823C1144.76 255.744 1174.76 250.393 1206 248.066C1259.81 244.058 1313.09 238.26 1366.78 233.237C1389.27 231.132 1413.31 229.241 1435.84 229.971C1435.5 230.068 1435.15 230.165 1434.8 230.263L1433.06 230.712C1420.5 234.025 1382.18 238.238 1366.13 240.809L1252.24 258.423C1239.05 260.418 1225.95 262.826 1212.73 264.766C1178.01 269.859 1134.27 271.322 1101.95 285.005C1092.06 301.147 1087.17 313.632 1079.38 330.098C1058.56 374.102 1044.23 418.914 1034.56 466.569C1031.32 482.496 1025.76 514.641 1035.94 528.45C1038.93 532.509 1040.47 534.969 1040.88 540.081C1039.5 543.786 1040.62 542.312 1037.34 544.619C1026.46 546.524 1014.63 536.75 1011.36 527.369C993.343 475.603 1030.61 394.084 1047.28 345.416C1026.08 379.035 1000.37 410.583 976.536 442.368C961.833 461.974 949.1 482.823 933.978 502.094C924.893 513.672 905.418 533.706 889.991 521.003C883.245 515.37 882.066 506.063 881.562 497.75C881.802 466.652 888.998 441.567 891.767 410.064C854.719 449.272 833.299 499.992 794.999 537.19C767.787 561.907 743.261 517.598 750.224 493.87C768.912 429.506 802.597 295.729 893.603 317.592C974.607 339.113 953.41 346.991 929.487 410.993C923.279 427.603 910.705 479.858 906.746 499.593C926.324 490.067 941.106 471.276 955.05 454.833C998.758 403.291 1042.72 347.449 1071.05 285.858C1048.1 290.597 1025.91 297.059 1002.56 300.543C979.623 303.965 962.802 310.401 943.97 291.664C966.36 278.577 1048.48 268.652 1078.81 262.934C1098.91 223.348 1101.12 200.429 1128.7 160ZM911.457 349.778C904.637 338.998 896.209 328.569 882.128 330.452C830.663 350.472 800.715 452.511 790.037 501.751C796.276 495.4 802.358 488.897 808.275 482.246C831.912 455.383 877.989 394.803 889.878 362.325L898.324 366.969C902.178 362.07 908.239 354.797 911.457 349.778Z" fill="#F4F4F4"/>
<path d="M856.652 442.172C856.655 447.941 837.816 473.026 832.925 479.87L832.547 478.555C833.603 472.922 852.228 447.472 856.652 442.172Z" fill="#F4F4F4"/>
<path d="M1726.31 424.098L1729.06 425.075C1718.6 437.678 1686.28 487.155 1676.81 492.041C1681.16 484.45 1689.63 475.695 1694.91 468.199C1705.27 453.468 1714.61 437.775 1726.31 424.098Z" fill="#F4F4F4"/>
<path d="M1611.06 265.391C1612.26 268.682 1609.25 274.66 1609.52 280.302C1613.88 278.299 1616.17 271.329 1617.91 266.925C1625.14 270.696 1654.49 288.819 1658.75 294.186C1667.89 305.725 1650.27 344.826 1649.35 358.855C1648.27 375.291 1640.9 391.711 1637.57 407.02C1631.9 433.017 1623.88 474.074 1636.42 498.242C1679.9 477.373 1721.95 423.828 1750.15 385.909C1753.66 381.2 1768.66 362.911 1773.61 362.333C1773.27 371.628 1734.43 413.138 1727.25 422.81L1726.31 424.098L1729.06 425.075C1733.63 419.465 1740.43 412.404 1745.94 407.855C1739.21 421.455 1729.06 436.267 1719.64 448.307C1702.36 470.389 1686.55 493.277 1665.52 512.042C1648.35 527.355 1635.79 527.374 1614.49 525.785C1589.1 523.89 1580.12 509.853 1575.27 486.818C1567.61 457.997 1573.99 441.962 1577.7 414.066C1573.41 423.741 1571.29 434.087 1567.62 443.975C1560.3 463.628 1544.88 484.438 1529.51 498.572C1509.07 517.354 1477.86 526.005 1450.42 524.617C1436.07 523.89 1422.31 519.109 1412.65 507.962C1394.18 486.643 1394.85 451.759 1397 425.481C1400.51 382.721 1411.05 340.197 1424.63 299.626C1426.69 293.475 1429.77 280.07 1435.41 276.368C1438.73 274.188 1443.73 274.254 1447.42 275.181C1462.12 278.863 1478.71 294.779 1480.87 309.916C1482.99 324.895 1474.48 352.096 1471.21 367.697C1467.48 385.566 1454.65 454.96 1462.95 467.962C1464.6 470.547 1467.02 472.326 1470.09 472.774C1479.68 474.167 1492.95 463.221 1499.84 457.277C1521.76 438.377 1540.33 414.455 1554.11 389.059C1561.42 375.613 1567.66 361.296 1573.53 347.173C1580.45 330.574 1599.58 273.641 1611.06 265.391ZM1565.5 382.762C1557.45 397.868 1552.51 413.277 1545.6 428.802C1539.32 442.906 1529.01 457.807 1522.34 471.154L1522.89 472.341L1523.21 472.454C1536.38 454.356 1563.48 404.533 1566.47 383.633L1565.5 382.762ZM1549.41 403.709C1546.21 409.652 1529.38 436.963 1528.23 441.384L1529 442.37C1534.91 434.028 1548.97 414.958 1550.68 405.524L1549.41 403.709Z" fill="#F4F4F4"/>
<path d="M1970.21 210.473C1971.61 210.915 1973 211.387 1974.38 211.889C1985.29 215.91 1988.73 221.132 1993.25 231.004C1988.88 241.288 1976.81 252.612 1975.55 256.988L1976.89 257.234C1977.91 256.148 1978.92 255.066 1979.94 253.99C1992.3 240.983 1996.43 238.1 2013.7 237.657C1996.62 261.633 1982.16 271.773 1964.34 292.798C1939.89 321.66 1917.24 351.795 1891.28 379.822C1897.51 392.219 1905.52 404.319 1912.72 416.299C1920.9 429.914 1929.58 446.895 1938.82 459.73C1941.12 461.109 1942.21 461.375 1943.72 463.417C1952.9 476.566 1961.01 489.121 1971.11 501.656C1974.72 506.378 1978.58 510.722 1980.72 516.188C1979.93 519.655 1976.89 518.516 1977.33 521.808C1979 534.338 1976.83 533.208 1966.8 541.843C1963.05 541.297 1958.09 540.666 1954.54 539.546C1944.66 536.416 1943.62 530.069 1934.13 533.477C1925.31 531.887 1861.26 443.629 1854.72 431.148C1848.13 439.1 1839.15 449.278 1833.07 457.415C1825.27 467.851 1796.37 514.88 1786.56 519.449C1784.23 518.452 1782.07 516.974 1779.66 516.965C1781.63 522.841 1781.39 522.162 1776.94 527.158C1772.43 533.084 1769.36 536.999 1764.27 542.389C1764 542.36 1763.74 542.331 1763.48 542.303L1762.15 542.13C1753.06 541.039 1738.51 535.755 1728.88 532.893C1735.9 515.487 1764.2 474.753 1776.21 457.598C1789.31 438.874 1811.91 403.723 1825.81 387.436C1804.32 358.09 1785.59 327.979 1766.23 297.221C1762.15 290.726 1757.01 283.442 1753.55 276.72L1754.11 275.499L1757.77 274.313L1758.29 273.246L1756.71 272.014C1754.34 273.339 1755.28 273.054 1752.58 273.407C1748.09 267.949 1738.93 247.063 1732.54 238.18C1742.26 235.251 1744.65 233.609 1752.41 227.728C1760.68 231.133 1772.04 233.668 1778.32 235.748C1804.48 244.402 1850.7 307.038 1861.81 329.986C1879.72 306.955 1905.82 280.013 1925.12 257.758C1937.63 243.319 1956.15 223.256 1970.21 210.473ZM1810.01 453.684C1799.73 464.259 1784.51 486.667 1776.54 499.457L1776.77 501.126C1784.03 493.962 1803.18 465.532 1810.12 455.754L1810.01 453.684ZM1957.83 271.531C1942.66 288.203 1928.22 305.506 1914.52 323.393C1906.53 334.011 1897.75 347.287 1889.26 357.165L1889.38 358.733L1890.59 359.072C1900.35 347.866 1909.12 334.738 1918.1 322.759C1930.97 305.559 1944.68 289.013 1959.21 273.186L1958.78 271.858L1957.83 271.531Z" fill="#5B3DF6"/>
<path d="M1148.52 362.91C1157.34 362.718 1172.83 369.892 1170.95 378.522C1162.2 418.56 1137.73 442.216 1140.45 486.281C1177.55 456.227 1212.48 418.04 1238.94 378.385C1251.08 360.176 1263.32 356.494 1276.73 377.595C1275.09 393.139 1270.61 401.547 1264.93 416.097C1255.05 441.378 1247.46 462.107 1247.56 489.545C1278.41 472.96 1307.21 427.587 1319.32 395.606C1320.59 392.258 1322.87 386.108 1325.77 384.318L1330.91 385.633C1334.13 387.011 1345.58 393.181 1344.19 397.579C1334.78 427.118 1322.45 455.145 1315.49 485.585C1313.8 492.941 1311.37 501.752 1301.94 497.999C1297.06 496.02 1293.17 492.171 1291.15 487.312C1286.68 476.266 1289.92 466.228 1294.11 455.995C1279.53 470.364 1255.3 503.048 1234.33 504.624C1211.37 506.348 1216.56 470.106 1217.17 456.189C1204.74 471.091 1191.78 494.021 1176.2 503.208C1120.14 536.262 1076.49 499.563 1106.8 438.557C1118.02 415.985 1126.78 389.672 1139.5 367.765C1140.41 366.198 1146.67 363.698 1148.52 362.91ZM1211.72 428.742C1204.4 437.489 1160.54 490.313 1162.93 498.941C1177.73 490.925 1204.11 449.043 1211.51 432.111C1211.98 431.022 1211.91 429.884 1211.72 428.742ZM1203.62 455.412C1201.16 459.545 1194.79 469.488 1194.14 473.929C1198.7 468.626 1201.73 464.696 1204.1 458.1C1203.99 457.344 1203.86 456.078 1203.62 455.412Z" fill="#F4F4F4"/>
<path d="M1336.71 521.273C1351.96 522.374 1355.1 529.209 1347.7 543.281C1343.34 551.59 1335.4 556.664 1326.4 559.182C1306.6 559.182 1310.24 538.418 1320.37 528.405C1327.23 521.647 1327.37 521.551 1336.71 521.273Z" fill="#F4F4F4"/>
<path d="M1344.03 294.969C1357.03 295.483 1359.8 298.733 1364.63 310.342C1360.56 316.854 1357.07 321.481 1351.81 327C1333.4 338.354 1325.93 307.953 1344.03 294.969Z" fill="#F4F4F4"/>
<defs>
<clipPath id="clip0_409_15734">
<rect width="549.026" height="818.36" fill="white" transform="translate(100 119.988)"/>
</clipPath>
</defs>
</svg>
