<svg width="2174" height="1059" viewBox="0 0 2174 1059" fill="none" xmlns="http://www.w3.org/2000/svg">
<g opacity="0.9" clip-path="url(#clip0_409_15736)">
<path d="M355.872 114.301C357.387 114.305 358.929 114.331 359.914 114.345C361.117 114.363 361.58 114.363 361.757 114.36L363.645 114.339C386.926 114.206 410.758 118.726 432.908 128.271C439.186 126.825 445.864 126.883 452.394 128.664C483.97 137.274 517.099 154.434 543.562 179.118C570.159 203.926 591.95 238.315 595.12 280.72C595.187 281.615 595.24 282.51 595.283 283.403C609.875 293.062 622.136 305.128 631.262 320.627C644.74 343.518 648.574 369.25 649.091 394.962C649.275 404.108 646.351 412.682 641.228 419.589C640.31 451.646 635.294 483.024 631.392 509.109C642.392 518.169 648.358 529.719 651.598 539.142C658.594 559.494 657.102 582.053 655.397 595.128C652.749 615.433 647.752 634.87 643.53 651.563C639.112 669.032 635.442 683.857 633.596 698.697L633.597 698.698C631.147 718.393 620.076 734.998 606.293 745.593C601.838 749.018 596.696 752.101 591.027 754.517C583.964 776.577 574.075 797.168 556.331 819.129L556.329 819.13C545.182 832.926 532.986 848.129 517.603 862.693L517.602 862.694C476.732 901.384 424.03 943.696 347.216 930.042C310.277 924.382 276.998 902.336 251.244 880.042C224.517 856.905 201.366 829.521 184.789 806.804L184.787 806.802C174.348 792.495 165.385 773.176 159.21 754.68C146.378 749.42 136.286 740.449 128.823 728.916C119.885 715.101 116.809 699.815 115.203 690.41C112.987 677.441 113.06 674.173 111.573 668.083C106.274 646.376 95.9283 614.871 94.3132 582.55L94.2439 581.011C93.7459 568.944 93.9049 547.904 103.142 529.467C106.71 522.346 112.011 514.872 119.608 508.695C119.456 507.784 119.31 506.891 119.173 506.022C119.159 505.937 119.145 505.852 119.132 505.767C115.334 480.713 112.42 455.522 110.393 430.246L109.869 424.273C108.502 408.643 107.239 392.598 108.251 375.442C103.95 369.119 101.451 361.555 101.331 353.551C101.303 351.703 101.326 349.855 101.4 348.01L101.403 347.928C101.781 338.916 103.655 329.01 104.972 322.994C108.339 307.612 113.335 294.153 119.721 282.015C117.885 272.481 119.526 262.349 124.838 253.629C139.278 229.927 154.427 210.982 174.312 195.856C178.744 192.485 183.287 189.398 187.951 186.546C191.244 177.844 197.558 170.291 206.245 165.565C207.474 164.896 208.743 164.043 212.583 161.443C215.887 159.206 220.961 155.785 227.111 152.615C247.215 142.099 268.735 135.177 290.774 131.992C295.702 126.929 301.999 123.137 309.187 121.233C322.873 117.608 331.974 116.315 344.012 115.002C346.559 114.632 348.789 114.484 350.294 114.412C352.375 114.311 354.343 114.297 355.872 114.301Z" fill="#2A2A2A"/>
<path d="M351.46 161.254C367.359 160.477 386.667 160.512 401.671 165.879L401.698 165.889L401.727 165.895C407.469 167.22 412.091 169.153 416.497 171.217C420.878 173.268 425.085 175.469 429.932 177.298C434.966 180.456 439.219 183.352 443.806 187.156C448.405 190.971 452.92 195.231 457.749 198.815L458.497 198.194C455.535 192.131 453.62 188.334 451.327 184.757C449.19 181.422 446.729 178.291 442.803 173.693C445.314 174.197 448.605 175.327 451.948 176.627C455.904 178.166 459.871 179.916 462.607 181.084L462.642 181.099L462.678 181.108C467.62 182.393 472.998 185.585 477.571 188.105C513.963 208.161 549.339 244.708 552.16 288.053C552.398 291.733 551.847 295.326 551.308 298.956C550.805 302.342 550.313 305.76 550.537 309.219L550.591 309.911C550.613 310.147 550.759 310.318 550.849 310.409C550.954 310.517 551.089 310.618 551.23 310.713C551.517 310.904 551.906 311.113 552.351 311.329C553.244 311.764 554.431 312.261 555.636 312.75C556.85 313.243 558.074 313.724 559.077 314.139C559.577 314.345 560.013 314.532 560.355 314.69C560.712 314.856 560.927 314.973 561.016 315.039L561.037 315.056L561.061 315.069C567.696 318.982 575.831 325.166 582.862 332.235C589.903 339.314 595.786 347.232 597.992 354.606L598.004 354.643L598.02 354.677C600.653 360.225 602.423 367.698 603.551 375.348C604.496 381.759 604.988 388.27 605.166 393.831C604.538 392.199 603.896 390.816 603.072 389.534C601.793 387.544 600.095 385.82 597.394 383.749L596.535 383.092L596.59 384.172C596.786 388.081 597.166 392.492 596.853 396.251C596.73 396.7 596.652 397.458 596.599 398.398C596.541 399.404 596.508 400.674 596.495 402.121C596.469 405.017 596.517 408.641 596.591 412.312C596.738 419.669 596.984 427.183 596.933 429.475V429.485C596.931 431.012 596.694 432.603 596.437 434.228C596.181 435.837 595.903 437.485 595.842 439.064C595.34 452.111 592.878 464.905 591.023 477.921L586.433 508.768V508.77C586.262 509.944 585.954 511.623 585.908 512.856C585.747 516.994 584.862 520.79 583.872 524.619C582.885 528.437 581.788 532.301 581.241 536.506L581.166 537.081L581.747 537.069C587.117 536.967 591.381 536.673 595.179 537.585C598.922 538.484 602.227 540.567 605.584 545.311L605.585 545.312C609.35 550.576 611.668 556.738 612.307 563.176L612.308 563.181C612.924 568.866 612.24 574.059 611.774 579.801C609.599 606.555 601.802 632.203 595.556 658.297L594.956 660.824C593.311 667.865 591.925 674.962 590.805 682.103V682.105C590.539 683.861 590.363 685.71 590.167 687.52C589.97 689.337 589.751 691.122 589.399 692.786C586.006 708.844 571.714 717.595 556.135 714.846L555.691 714.768L555.567 715.2C549.878 734.969 546.977 750.39 536.018 769.005C529.448 780.164 523.381 788.018 515.125 797.986C501.455 814.493 484.395 832.683 465.511 848.192C446.622 863.705 425.936 876.515 405.012 882.293C375.81 890.355 341.423 885.168 315.39 869.999L315.384 869.996L313.945 869.174C283.831 851.799 259.703 826.882 237.317 800.63C219.33 779.538 206.819 759.482 198.287 733.038C197.541 730.725 197.118 727.985 196.695 725.123C196.275 722.279 195.856 719.318 195.108 716.635L195.02 716.317L194.692 716.273L193.563 716.136C190.954 715.846 188.516 715.765 186.177 715.554C183.648 715.325 181.158 714.943 178.468 713.987L177.927 713.788C170.862 711.103 166.36 704.972 163.33 698.125C161.146 693.188 159.993 687.798 159.08 682.311C158.17 676.845 157.495 671.25 156.264 666.011C154.332 657.794 152.235 649.864 150.766 641.535C150.597 640.576 150.066 639.162 149.539 637.776C148.999 636.357 148.453 634.947 148.2 633.918C147.787 632.239 147.457 630.336 147.115 628.427C146.776 626.527 146.426 624.621 145.976 622.974C141.056 604.961 137.306 586.28 138.617 567.589C139.019 561.858 138.955 556.374 141.152 550.897C142.394 547.803 144.779 544.505 147.734 541.914C150.601 539.401 153.957 537.593 157.272 537.238L157.593 537.208C158.225 537.159 158.988 537.131 159.821 537.103C160.65 537.074 161.546 537.044 162.429 536.992C164.172 536.889 165.956 536.695 167.132 536.195L167.233 536.151L167.308 536.069C167.59 535.757 167.91 535.433 168.103 535.052C168.29 534.68 168.353 534.277 168.293 533.776L168.259 533.556C160.191 488.958 154.084 443.906 151.833 398.624C151.532 392.564 151.486 379.871 152.417 373.995L152.421 373.969L152.422 373.942C152.773 367.059 154.874 357.524 156.329 350.61L159.269 341.62L159.705 340.283L158.522 341.044C155.684 342.869 153.472 344.541 151.048 346.917C149.403 348.463 146.761 351.531 144.865 353.702C146.849 329.533 153.342 312.356 165.984 291.598C169.414 286.678 173.094 282.276 177.052 277.756L177.164 277.628L177.175 277.458C177.203 277.005 177.249 276.64 177.292 276.313C177.334 275.994 177.377 275.689 177.39 275.394C177.416 274.759 177.302 274.181 176.885 273.345L176.812 273.199L176.667 273.124L176.527 273.057C175.82 272.74 174.97 272.708 174.176 272.754C173.34 272.802 172.408 272.954 171.718 273.024L171.665 273.03L171.615 273.046C170.34 273.456 168.491 274.372 166.81 275.192C165.959 275.608 165.145 276.001 164.445 276.309C163.926 276.537 163.496 276.703 163.173 276.8C164.596 274.541 166.6 271.361 168.682 268.281C170.894 265.009 173.172 261.887 174.922 260.102C175.164 259.946 175.458 259.689 175.769 259.383C176.128 259.029 176.552 258.576 177.018 258.057C177.949 257.018 179.063 255.696 180.188 254.342C182.454 251.615 184.744 248.785 185.745 247.758C189.039 244.381 191.89 241.275 195.615 238.043C201.661 232.896 208.151 228.293 215.007 224.288C216.742 223.289 218.68 222.274 220.605 221.244C222.526 220.217 224.432 219.176 226.077 218.136L226.088 218.128L226.099 218.121C227.62 217.044 230.772 215.468 232.597 214.508L233.38 214.342L233.439 214.329L233.494 214.303C235.586 213.284 238.836 212.024 241.129 211.031C242.446 210.466 243.681 210.03 244.994 209.588L246.649 209.036L246.679 208.709C246.715 208.301 246.754 208.015 246.785 207.789C246.815 207.572 246.843 207.372 246.84 207.177C246.833 206.756 246.682 206.401 246.391 205.746L246.338 205.627L246.232 205.549L245.976 205.374C245.37 204.995 244.711 204.812 244.053 204.707C243.462 204.613 242.812 204.572 242.207 204.524L242.182 204.263L241.757 204.235L239.992 204.119C238.256 204.009 236.579 203.93 234.732 204.015L234.721 204.016C234.055 204.063 233.222 204.098 232.429 204.17C231.664 204.239 230.879 204.347 230.208 204.55C230.135 204.548 230.061 204.543 229.985 204.535C230 204.522 230.015 204.507 230.03 204.493C230.347 204.205 230.768 203.867 231.267 203.497C232.264 202.757 233.546 201.907 234.869 201.088C236.191 200.269 237.546 199.486 238.686 198.878C239.846 198.259 240.729 197.852 241.134 197.749L241.133 197.748C241.383 197.7 241.708 197.583 242.059 197.435C242.441 197.272 242.898 197.057 243.4 196.806C244.405 196.303 245.616 195.647 246.836 194.969C248.056 194.289 249.291 193.584 250.342 192.98C251.396 192.375 252.261 191.875 252.752 191.602C260.709 187.171 269.301 184.506 278.073 182.405C282.46 181.355 286.884 180.446 291.297 179.526C295.698 178.609 300.087 177.681 304.395 176.592C306.184 176.254 309.142 176.057 312.183 175.929C315.222 175.8 318.258 175.74 320.28 175.664L320.281 175.665C325.679 175.641 332.848 175.773 338.207 176.389L338.335 176.403L338.455 176.354C339.56 175.899 340.042 175.037 340.149 174.109C340.252 173.219 340.014 172.271 339.727 171.52L339.654 171.328L339.468 171.243C334.099 168.788 328.451 167.101 322.811 165.547C322.593 165.454 322.428 165.393 322.304 165.347C322.165 165.295 322.107 165.273 322.064 165.249C322.055 165.244 322.045 165.238 322.034 165.229C322.162 165.157 322.311 165.081 322.484 165.004C322.877 164.829 323.361 164.656 323.914 164.489C325.019 164.157 326.368 163.859 327.75 163.612C330.495 163.123 333.29 162.853 334.503 162.913C334.784 162.983 335.187 162.997 335.624 162.989C336.128 162.98 336.756 162.94 337.466 162.879C338.886 162.757 340.663 162.548 342.48 162.319C346.138 161.86 349.931 161.329 351.46 161.254Z" fill="#121212" stroke="#FAFAFA"/>
<path d="M174.596 259.719L174.793 260.232C171.832 265.097 167.325 270.56 164.804 275.327C175.345 270.247 177.834 269.673 189.202 266.446C162.269 290.894 149.623 316.039 145.321 351.795C151.818 345.512 153.522 343.217 161.155 338.079C156.078 353.674 153.599 363.099 152.084 379.758L151.923 373.916C152.277 366.976 154.393 357.381 155.844 350.486L158.793 341.464C155.973 343.277 153.788 344.93 151.39 347.281C149.453 349.102 146.117 353.065 144.25 355.163C146.093 330.102 152.624 312.57 165.565 291.324C169.013 286.377 172.71 281.955 176.676 277.426C176.793 275.545 177.209 275.116 176.437 273.568C175.222 272.94 173.255 273.37 171.768 273.522C169.304 274.315 164.535 277.097 162.94 277.371C162.613 277.298 162.801 277.379 162.477 276.966C165.341 272.423 171.015 263.352 174.596 259.719Z" fill="#FAFAFA"/>
<path d="M171.768 273.522C176.013 271.527 180.457 269.985 185.026 268.922C182.25 271.688 179.301 274.541 176.675 277.426C176.793 275.545 177.208 275.116 176.437 273.568C175.221 272.94 173.254 273.37 171.768 273.522Z" fill="#121212"/>
<path d="M322.645 166.018C321.76 165.635 321.785 165.811 321.312 165.124C323.061 163.533 332.076 162.268 334.576 162.414C332.668 163.668 326.857 164.533 324.42 164.926C334.56 168.448 342.566 170.583 351.5 177.178C351.453 178.299 351.434 177.975 350.527 179.051C351.013 178.999 332.368 176.818 331.994 176.707C326.978 175.209 306.848 177.338 304.376 176.478L304.297 176.099C307.957 175.406 316.283 175.314 320.279 175.163C325.681 175.139 332.875 175.271 338.265 175.89C340.09 175.138 339.811 173.133 339.26 171.696C333.92 169.254 328.293 167.574 322.645 166.018Z" fill="#FAFAFA"/>
<path d="M339.259 171.695C342.769 173.349 347.029 175.616 350.158 177.912C347.634 177.468 340.413 176.011 338.264 175.889C340.089 175.137 339.81 173.132 339.259 171.695Z" fill="#121212"/>
<path d="M401.838 165.406C413.421 168.08 420.468 173.201 430.155 176.847C435.218 180.021 439.501 182.936 444.123 186.77C448.76 190.616 453.228 194.836 458.046 198.413C452.12 186.28 450.434 183.323 441.535 172.979C446.887 173.597 457.344 178.294 462.802 180.623C461.832 180.628 447.115 175.317 444.709 174.509C449.283 180.442 453.475 185.856 456.498 192.721C457.209 194.336 459.6 197.361 459.411 199.076C457.376 199.614 459.51 199.49 457.667 200.265C456.016 199.222 452.765 195.484 450.771 193.787C443.681 187.655 436.307 181.897 428.214 177.135C426.194 175.991 424.054 175.012 421.965 174.013C415.59 170.965 409.062 168.227 402.317 166.104C402.157 165.871 401.998 165.639 401.838 165.406Z" fill="#FAFAFA"/>
<path d="M230.271 205.05C229.876 205.052 229.433 204.95 229.028 204.883C229.824 203.301 239.114 197.744 241.011 197.262C239.055 199.565 235.132 201.565 232.562 203.717C240.404 202.267 251.179 203.861 258.932 205.688C248.428 209.377 238.047 212.854 227.848 217.354C227.344 217.576 226.378 217.742 225.811 217.71C227.384 216.596 230.64 214.973 232.424 214.032L233.276 213.85C235.379 212.825 238.672 211.547 240.932 210.57C242.711 209.805 244.344 209.274 246.181 208.662C246.33 206.977 246.54 207.303 245.935 205.947C244.766 205.08 243.271 205.134 241.75 204.986L241.725 204.731C239.312 204.573 237.184 204.4 234.756 204.511C233.378 204.609 231.544 204.643 230.271 205.05Z" fill="#FAFAFA"/>
<path d="M241.725 204.731C247.84 204.649 248.71 204.829 254.419 206.359L246.18 208.662C246.33 206.978 246.539 207.304 245.934 205.947C244.766 205.08 243.27 205.135 241.749 204.987L241.725 204.731Z" fill="#121212"/>
<path d="M604.556 390.33C603.43 383.495 603.505 376.259 601.927 369.157C601.268 366.191 598.351 356.597 598.471 354.461C603.801 365.691 605.583 384.58 605.735 396.911C603.689 390.878 602.439 388.245 597.088 384.144C597.284 388.036 597.672 392.519 597.348 396.331L597.008 396.3C596.269 394.475 594.667 383.839 596.313 382.348C598.822 382.629 603.042 388.269 604.556 390.33Z" fill="#FAFAFA"/>
<path d="M451.5 333.606C453.127 333.404 455.803 332.799 457.094 333.971L456.794 334.706C453.55 337.088 447.288 338.898 443.256 340.253C454.361 340.886 468.008 341.952 478.721 344.11C508.965 350.204 524.912 373.839 527.386 403.413C528.277 414.076 529.14 428.3 531.629 438.557C532.424 441.827 539.393 450.85 541.543 454.206C546.15 461.411 554.349 475.322 556.12 483.815C558.501 495.239 559.336 512.436 559.768 524.224C559.964 545.151 561.965 567.592 560.523 588.462C557.97 625.444 551.736 663.837 545.599 700.247C538.65 741.477 520.257 773.205 491.334 802.662C479.167 815.054 469.581 825.415 454.669 835.365C459.079 822.174 461.853 805.515 459.385 791.742C458.152 795.717 454.853 804.548 452.712 808.257C447.662 817.008 438.852 827.073 430.112 832.332C428.211 833.475 425.398 834.546 423.225 833.854C420.676 833.039 419.161 828.496 418.092 826.058C416.742 831.816 415.452 834.474 412.948 839.816C409.655 833.103 406.891 829.427 402.134 823.785C402.962 833.299 402.681 836.448 400.074 845.51C395.208 834.046 394.1 831.013 387.018 820.716C386.841 827.373 386.975 830.534 385.502 837.055C378.9 828.444 378.812 826.889 374.172 818.051C371.087 824.86 368.309 831.109 362.828 836.364C361.755 830.374 361.335 827.241 361.357 821.179C355.595 827.625 352.213 835.617 350.2 843.908C350.123 844.088 349.926 844.18 349.778 844.308C345.496 837.547 345.333 831.705 346.201 824.204C340.512 830.23 339.116 833.271 335.508 840.631C333.435 835.696 331.92 831.908 330.125 826.806C328.752 829.99 327.608 832.204 325.947 835.257C311.366 831.205 301.2 819.257 294.269 806.327C291.849 801.811 289.967 796.421 287.867 791.658C286.778 807.449 288.504 818.146 292.876 833.307C278.552 824.148 264.01 807.769 252.34 795.534C245.161 788.009 238.073 779.047 232.141 770.547C210.446 739.479 203.641 700.975 198.354 664.188C195.102 642.115 192.32 619.974 190.01 597.785C189.275 590.464 188.807 582.576 188.627 575.216C188.021 550.453 188.194 525.655 190.013 500.94C190.652 492.267 190.85 485.998 194.187 477.781C196.839 471.404 199.903 465.206 203.362 459.228C206.58 453.778 216.08 440.768 216.811 435.686C220.517 409.949 216.084 387.861 233.359 365.919C249.358 345.597 270.819 341.437 295.382 337.761C303.894 336.487 313.211 332.79 322.086 334.977C338.819 338.8 356.053 351.042 373.483 350.576C386.617 350.226 400.434 342.923 413.38 339.552C426.485 336.14 438.063 334.911 451.5 333.606Z" fill="#FAFAFA"/>
<path d="M481.037 458.205C498.088 455.089 522.786 474.161 529.978 489.095C532.004 493.305 533.463 499.384 534.629 503.911C528.995 499.957 524.448 495.079 518.354 491.251C504.653 482.64 490.29 479.18 474.35 482.682C457.878 486.301 447.156 499.499 438.587 513.052C454.946 507.57 467.359 507.077 484.366 510.715C501.652 514.413 511.709 520.546 519.665 536.577C505.508 527.559 507.194 522.088 488.89 516.24C463.956 507.557 442.09 515.595 423.341 531.595C421.796 532.913 418.047 535.511 416.052 535.65C400.932 536.709 403.593 554.583 406.599 564.88C399.027 554.407 394.063 540.13 397.263 527.235C400.088 515.854 407.769 505.278 414.411 495.83C409.085 488.883 408.621 485.946 410.427 477.624C411.052 483.383 411.195 485.222 413.378 490.593C415.211 481.228 418.32 475.789 425.091 469.257C423.531 472.307 418.956 480.315 419.759 483.553C421.247 484.378 423.209 480.71 424.476 479.394C427.602 476.145 433.545 468.262 437.341 466.347C449.832 460.047 467.156 459.799 481.037 458.205Z" fill="#121212"/>
<path d="M258.438 461.736C268.302 461.014 278.054 462.862 287.872 463.244C293.429 463.46 307.536 465.857 311.816 469.065C316.24 472.381 324.644 481.86 328.472 486.308L328.899 486.115C330.214 482.326 325.289 474.888 323.381 471.241C329.61 477.265 333.049 482.607 334.976 491.067C336.215 488.012 337.25 483.383 338.059 480.086C339.857 486.666 339.136 492.552 333.898 497.3C350.157 521.57 357.486 533.31 344.554 561.888C344.765 551 346.649 533.37 330.316 535.2C324.605 531.012 318.776 526.992 312.837 523.136C295.504 511.98 282.857 510.682 262.714 515.041C255.039 517.237 247.796 518.762 241.921 524.515C239.716 526.677 236.763 530.269 234.419 531.871L233.423 531.256C232.012 531.907 229.06 534.457 227.711 535.543C236.797 517.532 251.407 511.737 270.406 509.424C284.081 507.759 295.558 507.796 308.723 512.019C298.209 497.403 286.091 485.687 267.289 484.666C252.83 483.88 239.85 487.643 228.031 496.095C222.644 499.948 217.983 504.38 212.969 508.608C216.768 493.262 219.555 485.062 233.005 474.971C242.454 467.883 245.834 464.016 258.438 461.736Z" fill="#121212"/>
<path d="M350.117 681.103L350.59 681.063C357.318 680.476 362.324 682.77 367.349 687.025C367.704 693.742 366.629 698.673 363.551 704.767C362.955 705.946 361.202 708.807 359.884 709.183C354.673 710.665 349.549 710.649 344.186 711.816C332.782 714.193 318.893 720.319 307.126 718.677C294.281 716.887 287.019 717.426 280.921 730.401C279.652 733.881 278.989 737.494 278.209 741.122C273.308 731.648 268.944 721.658 274.765 711.36C277.101 707.273 280.639 704.008 284.899 702.002C293.381 697.934 306.438 697.283 315.97 694.178C328.058 690.242 337.982 684.376 350.117 681.103Z" fill="#121212"/>
<path d="M395.456 681.123C403.773 680.855 421.747 690.637 431.119 693.718C441.578 697.957 456.16 697.386 465.844 703.028C481.008 711.859 478.387 728.39 470.886 740.637C470.361 738.024 469.598 735.303 468.924 732.714C463.006 717.082 455.256 716.638 440.607 718.696C430.287 720.151 416.492 714.464 406.385 712.343C400.626 711.136 395.438 710.6 389.564 709.861C383.357 704.367 381.459 695.376 381.548 687.436C385.778 683.536 389.859 682.034 395.456 681.123Z" fill="#121212"/>
<path d="M295.669 722.959C301.105 723.942 305.28 728.833 313.072 729.409C320.179 729.94 324.784 729.692 331.977 728.262C339.133 726.843 349.137 723.487 356.358 723.934C362.17 724.298 367.865 730.196 374.821 729.936C381.65 729.676 388.358 723.563 394.334 723.831C406.698 724.382 418.323 730.172 431.066 729.673C435.659 729.441 438.944 729.185 443.485 727.635C446.547 726.588 451.476 719.95 455.243 724.414C456.103 725.437 455.693 726.656 455.397 727.834C455.103 728.17 454.815 728.482 454.491 728.785C449.472 733.513 430.7 736.993 423.701 737.948C417.421 738.807 411.051 739.051 404.802 740.122C394.812 741.832 383.797 745.6 373.639 745.173C364.348 744.781 355.508 742.004 346.387 740.541C335.7 738.827 300.42 736.306 293.831 728.386C293.183 727.607 292.935 726.772 293.109 725.785C293.358 724.378 294.568 723.675 295.669 722.959Z" fill="#121212"/>
<path d="M274.911 523.355C286.476 523.515 294.687 525.242 304.993 530.5C309.613 532.858 329.949 543.806 328.773 549.696C329.283 549.501 300.78 551.95 300.456 551.942C310.343 548.326 311.573 547.367 322.442 546.688C314.625 541.589 304.617 535.315 295.93 532.094C295.582 537.225 295.178 541.813 292.123 546.132C289.529 549.832 285.558 552.338 281.1 553.089C269.941 554.955 261.995 547.575 260.35 536.858C260.229 535.275 259.968 533.493 259.769 531.899C254.076 535.047 247.77 538.923 243.165 543.531C251.856 552.753 257.301 554.216 269.317 556.789C263.346 556.973 257.74 555.982 252.032 554.248C249.849 553.584 246.491 552.202 244.367 551.89C243.613 553.001 243.65 552.585 243.807 553.644C246.222 556.465 256.464 560.717 259.993 562.06C251.586 560.857 246.953 559.406 240.038 554.1C237.424 552.094 234.894 550.072 231.783 548.957C229.296 548.066 226.603 548.19 223.928 548.114C227.771 546.028 233.071 541.557 236.568 538.608C248.226 528.774 259.556 524.039 274.911 523.355Z" fill="#121212"/>
<path d="M283.73 528.668C286.432 528.348 288.896 530.238 289.291 532.928C289.686 535.621 287.867 538.138 285.188 538.606C283.386 538.926 281.556 538.234 280.408 536.812C279.26 535.389 278.976 533.455 279.667 531.761C280.358 530.067 281.914 528.884 283.73 528.668Z" fill="#FAFAFA"/>
<path d="M463.725 523.706C490.219 521.044 501.316 533.815 520.812 547.669C512.844 549.08 510.431 551.065 503.901 555.597C501.176 557.491 494.415 561.227 491.082 560.584C493.139 560.188 502.015 555.449 501.84 553.271C498.469 552.332 487.15 557.327 482.511 556.995C481.655 556.931 477.514 557.299 477.015 556.848C478.653 555.845 482.141 556.144 484.21 555.601C492.636 553.379 498.012 549.639 504.545 544.356C500.405 540.512 492.768 534.319 487.422 532.421C487.053 534.027 486.753 536.085 486.508 537.719C483.639 556.919 457.732 559.157 451.972 540.5C451.039 537.479 451.183 535.246 451.219 532.121C442.097 535.09 432.222 541.551 424.16 546.926C432.105 547.433 438.235 548.672 445.537 552.136C438.474 551.917 425.145 550.122 418.174 548.944C418.581 548.268 419.019 547.609 419.488 546.974C427.77 535.905 449.887 525.815 463.725 523.706Z" fill="#121212"/>
<path d="M474.298 528.719C476.984 528.399 479.438 530.273 479.835 532.951C480.232 535.628 478.429 538.133 475.764 538.609C473.972 538.925 472.149 538.245 471.004 536.831C469.859 535.416 469.573 533.49 470.258 531.804C470.943 530.118 472.491 528.935 474.298 528.719Z" fill="#FAFAFA"/>
<path d="M415.278 761.749C415.059 763.564 405.599 773.461 403.95 777.078C402.736 779.743 402.266 780.558 401.173 783.843C399.85 782.404 398.334 780.974 396.927 779.595C394.044 784.71 392.864 791.215 391.745 796.889L385.969 789.545C382.566 792.873 377.195 800.498 374.758 804.593C371.013 800.673 368.272 795.411 363.101 790.152C361.322 792.486 359.408 794.719 357.524 796.969C357.047 794.188 356.514 791.411 355.926 788.65C355.052 785.725 353.702 782.628 352.375 779.887C351.217 780.93 349.414 782.212 348.134 783.183C346.301 775.18 338.781 768.039 333.75 761.605C336.564 762.828 340.592 764.806 343.466 765.609C366.363 771.987 393.672 772.311 415.278 761.749Z" fill="#121212"/>
<path d="M341.548 649.9C353.42 648.73 359.91 663.846 371.016 665.892C384.145 668.445 391.335 652.386 403.01 650.052C410.572 648.542 419.922 655.283 407.965 659.966C399.36 661.065 393.924 661.429 387.622 667.954C381.474 674.323 372.761 676.861 364.992 671.646C360.997 668.965 357.394 665.077 353.149 662.711C348.753 660.262 335.992 660.769 333.655 655.75C333.614 652.078 338.739 650.52 341.548 649.9Z" fill="#121212"/>
<path d="M420.433 620.234C420.512 620.29 420.59 620.346 420.668 620.402C427.603 627.155 432.196 635.335 433.074 645.133C434.181 657.504 427.179 668.605 414.256 669.544L407.404 669.292C413.929 665.78 421.654 663.71 425.392 656.533C432.023 643.798 423.533 631.838 420.433 620.234Z" fill="#121212"/>
<path d="M328.027 619.012C328.204 620.199 326.796 622.708 326.289 624.126C323.055 633.165 318.265 644.905 321.756 654.467C324.705 662.551 333.463 666.012 340.597 669.24L334.455 669.504C330.067 669.7 325.853 668.441 322.649 665.364C308.486 651.774 317.244 631.119 328.027 619.012Z" fill="#121212"/>
<path d="M314.531 562.082H315.103L315.221 562.442C298.483 575.101 287.981 580.163 266.805 578.213C265.67 577.894 265.679 578.086 264.975 577.362C275.695 575.896 281.707 575.241 292.193 571.129C299.954 568.084 306.734 563.117 314.531 562.082Z" fill="#121212"/>
<path d="M427.576 560.652C436.144 560.752 455.682 573.507 465.713 575.026C467.231 575.257 479.89 577.559 480.084 577.703C462.168 581.607 441.417 571.102 427.576 560.652Z" fill="#121212"/>
<path d="M404.682 183.594C410.281 184.467 414.111 186.898 418.819 189.861C433.131 198.784 444.68 211.513 452.174 226.624C464.092 250.227 466.659 277.409 456.833 302.252C455.866 304.697 454.594 309.132 452.23 310.317C450.646 309.469 452.506 304.419 452.901 302.551C453.724 298.727 454.341 294.862 454.75 290.972C456.273 276.254 454.626 255.66 447.159 242.553C448.051 248.912 448.161 255.978 447.2 262.331C446.786 265.068 444.606 277.482 443.086 278.815L442.292 278.644C441.052 277.012 440.85 274.494 440.689 272.473C439.732 260.47 436.555 250.129 430.571 239.643C430.645 239.972 430.718 240.302 430.787 240.632C434.462 258.031 434.372 276.609 428.911 293.529C427.606 297.569 426.005 302.781 423.7 306.325C422.729 302.532 422.762 294.698 422.539 290.403C421.813 276.44 416.757 263.074 409.136 251.405C397.271 233.137 378.35 218.254 359.08 208.371C352.617 205.057 345.721 202.467 339.366 199.001C338.076 198.297 338.294 198.555 338.023 197.526L338.775 197.047C341.615 196.73 350.216 198.6 353.16 199.376C383.819 207.453 406.093 223.74 422.516 250.419C421.701 246.908 421.191 242.886 420.445 239.252C418.724 230.475 415.491 222.064 410.892 214.393C408.201 209.987 405.112 205.838 401.663 201.997C399.204 199.234 388.114 189.295 387.787 187.574C388.306 187.207 388.72 186.988 389.419 187.24C408.131 193.97 423.294 209.233 434.801 224.83C429.982 211.252 424.085 202.636 413.82 192.281C411.662 190.103 406.113 185.662 404.682 183.594Z" fill="#FAFAFA"/>
<path d="M308.764 207.082C322.498 207.119 344.897 220.352 354.493 230.022C373.525 249.202 380.506 271.763 380.838 298.315C380.857 299.797 381.145 302.543 380.256 303.461C377.703 302.222 376.256 290.994 375.221 287.346C368.712 264.388 360.591 251.258 343.558 235.199C351.643 250.603 355.61 259.163 358.525 277.119C359.09 280.078 361.204 289.408 360.334 291.709C358.453 291.848 358.401 290.709 357.34 288.327C352.722 277.961 346.17 266.791 338.479 258.389C324.849 243.709 307.835 232.587 288.92 225.993C285.75 224.891 282.613 223.852 279.397 222.891C277.234 222.244 271.904 222.282 271.18 220.011C271.851 219.062 274.248 218.883 275.369 218.816C299.41 217.365 319.178 226.749 337.101 242.262C328.569 225.184 322.537 219.807 308.764 207.082Z" fill="#FAFAFA"/>
<path d="M480.203 208.941C483.814 210.4 488.07 215.826 490.636 218.895C503.694 234.519 507.965 250.941 511.689 270.436C512.924 260.874 513.975 252.376 512.405 242.848C512.045 240.645 510.479 235.271 511.414 233.518L512.257 233.632C514.183 234.99 515.729 237.637 517.004 239.612C531.285 261.775 536.859 291.018 521.008 313.941C519.262 316.467 512.888 325.393 510.275 326.145L509.795 325.76C509.52 322.87 513.352 318.901 514.626 316.109C516.64 311.697 517.967 307.34 519.317 302.698C521.995 294.512 521.152 282.08 520.548 273.595C519.293 277.333 518.462 281.641 517.192 285.538C513.148 297.97 506.447 308.147 496.518 316.649C494.776 318.141 492.858 320.072 490.52 319.934C489.731 318.501 493.946 311.962 494.996 309.834C502.531 294.554 503.51 280.685 500.785 264.089C500.385 267.471 496.232 287.018 491.959 285.449C491.632 284.65 492.819 278.486 493.02 277.09C494.159 269.47 494.443 261.746 493.865 254.063C493.056 242.779 490.326 231.716 485.791 221.351C484.062 217.373 481.326 212.985 480.203 208.941Z" fill="#FAFAFA"/>
<path d="M598.948 564.938C599.583 565.237 599.959 565.877 600.262 566.488C605.313 576.761 593.434 630.578 588.934 641.339C585.37 649.862 578.921 656.492 575.744 665.374C578.889 661.402 582.389 656.755 585.853 653.147C584.219 663.62 583.196 674.277 581.046 684.655C578.221 698.317 572.511 703.423 558.934 703.895L559.709 697.198C561.407 684.739 562.79 671.232 564.895 658.957C572.535 653.922 570.633 652.651 574.829 645.846C583.808 631.293 581.022 619.945 575.001 604.501C577.45 596.669 581.174 588.321 585.674 581.449C588.119 590.367 589.777 598.735 591.639 607.77C591.324 592.889 591.3 577.92 598.948 564.938Z" fill="#FAFAFA"/>
<path d="M149.713 564.586C159.884 571.719 158.201 595.454 159.36 607.134C160.801 598.603 162.96 589.368 164.791 580.853C168.574 586.983 173.089 597.82 175.228 604.641C173.086 613.308 168.302 622.055 169.646 631.241C169.904 632.892 170.34 634.51 170.946 636.065C172.225 639.373 174.532 642.91 175.787 646.042C178.735 653.399 178.546 654.578 184.958 659.285C186.758 666.565 189.147 687.38 190.269 695.496C190.785 697.909 191.248 701.33 191.656 703.835C186.502 703.799 181.885 703.659 177.633 700.307C169.598 693.965 169.21 682.873 167.683 673.634C166.496 666.445 165.299 659.477 164.338 652.316C167.795 656.376 171.026 660.931 174.502 665.115C170.309 654.697 165.88 650.542 161.287 640.952C159.449 637.115 157.391 626.914 156.36 622.207C152.337 603.842 146.599 583.415 149.713 564.586Z" fill="#FAFAFA"/>
<path d="M543.864 328.188C546.418 327.958 549.155 328.777 551.544 329.702C564.271 334.627 574.265 345.311 579.491 357.782C580.294 359.701 582.053 363.053 581.777 365.071L580.698 365.579C579.248 365.304 576.139 361.477 574.528 360.04C569.777 355.802 566.533 354.212 560.855 351.903L561.186 352.287C571.56 364.517 578.468 383.519 577.074 399.414C575.332 397.281 572.99 392.438 571.4 389.811C566.269 381.326 559.376 374.042 551.189 368.45C555.46 377.132 558.577 383.77 560.207 393.362C560.791 396.743 563.192 410.354 560.107 411.946C559.844 411.828 559.58 411.71 559.316 411.592C558.553 407.099 557.135 400.811 555.804 396.679C551.237 382.937 543.781 370.331 533.935 359.712C530.375 355.892 526.387 352.656 523.074 348.614C534.003 349.3 545.119 354.338 554.629 359.435C547.449 350.09 542.31 346.91 534.195 338.887C545.123 338.989 549.638 339.907 560.052 343.339C555.56 337.412 549.598 334.163 544.2 329.32C544.2 329.32 543.896 328.292 543.864 328.188Z" fill="#FAFAFA"/>
<path d="M240.005 239.495C246.404 239.257 253.903 241.376 259.836 243.577C279.529 250.878 293.467 268.047 301.711 286.822C303.104 289.993 311.174 309.381 310.209 311.896L309.433 312.017C307.027 310.688 303.236 303.932 301.211 301.198C295.386 293.335 290.495 288.286 283.238 281.892C271.831 271.266 251.035 261.354 235.648 258.943C232.159 258.396 220.375 256.808 218.064 255.384C218.822 253.155 225.904 252.77 228.074 252.392C243.171 249.76 254.889 253.967 268.777 259.334C260.407 250.458 252.82 247.807 242.323 242.163C240.355 241.105 240.483 241.175 240.005 239.495Z" fill="#FAFAFA"/>
<path d="M160.239 547.109C167.867 548.932 171.38 551.617 176.289 557.882C177.033 562.174 179.714 584.491 177.968 587.3L177.168 587.36C175.801 586.481 174.957 584.427 174.175 582.913L173.849 582.325C169.9 575.268 164.91 565.582 158.358 560.592C156.435 559.129 148.33 560.935 150.414 555.765C151.991 551.853 156.662 548.943 160.239 547.109Z" fill="#FAFAFA"/>
<path d="M586.97 547.994C593.807 547.351 603.553 555.199 598.43 559.55C596.964 560.034 595.701 559.514 594.138 559.127C585.679 564.234 582.155 571.51 577.544 580.013C576.525 582.063 574.163 587.19 572.705 588.445C572.169 588.245 571.99 588.313 571.718 587.769C570.651 585.652 572.825 561.868 574 558.871C576.141 553.413 581.903 550.26 586.97 547.994Z" fill="#FAFAFA"/>
<path d="M203.33 289.758C207.524 292.137 213.916 300.203 217.807 303.749C230.018 314.874 243.216 321.227 258.699 326.459C260.283 326.994 260.227 327.254 260.792 328.718C258.162 329.262 253.595 329.042 250.847 328.891C229.69 327.726 207.816 311.109 203.33 289.758Z" fill="#FAFAFA"/>
<path d="M233.884 267.584C248.389 265.668 260.381 274.049 270.443 283.474C272.311 285.224 276.64 288.937 276.853 291.399L276.218 291.991C275.195 291.947 270.278 288.705 269.041 287.943C259.54 281.51 246.469 276.353 235.176 274.181C231.816 273.535 224.171 272.784 221.288 271.54L221.119 270.947C222.973 268.956 230.951 268 233.884 267.584Z" fill="#FAFAFA"/>
<path d="M210.159 322.738C219.714 321.58 231.724 326.754 239.902 331.788C240.855 332.374 240.897 332.744 240.997 333.591C239.6 335.237 224.391 331.306 221.69 330.777C215.03 329.431 205.371 329.155 198.566 330.053C196.198 330.365 190.692 331.875 188.927 331.629L188.514 330.934L188.855 330.085C193.613 325.523 203.627 323.442 210.159 322.738Z" fill="#FAFAFA"/>
<path d="M569.154 617.008C570.452 617.867 572.143 620.992 572.566 622.482C574.484 629.203 572.93 635.245 569.937 641.183C568.822 642.002 568.782 642.358 567.735 642.302C566.281 639.125 568.366 620.94 569.154 617.008Z" fill="#FAFAFA"/>
<path d="M179.787 617.402C182.198 619.9 184.192 639.36 182.738 642.413L181.527 642.533C174.982 635.839 177.132 625.21 179.787 617.402Z" fill="#FAFAFA"/>
<path d="M430.156 176.848C435.324 174.598 435.905 173.61 441.536 172.98C450.434 183.324 452.121 186.282 458.047 198.414C453.229 194.838 448.761 190.617 444.124 186.771C439.502 182.937 435.219 180.022 430.156 176.848Z" fill="#121212"/>
<path d="M171.769 273.52C173.256 273.368 175.223 272.938 176.438 273.566C177.21 275.114 176.794 275.543 176.677 277.424C172.711 281.953 169.014 286.374 165.566 291.322C162.893 286.684 166.642 282.076 162.941 277.369C164.536 277.095 169.305 274.312 171.769 273.52Z" fill="#121212"/>
<path d="M322.643 166.02C328.291 167.575 333.919 169.255 339.259 171.698C339.809 173.135 340.088 175.139 338.263 175.892C332.873 175.272 325.679 175.141 320.277 175.165L321.968 174.723C324.055 172.555 324.581 168.316 322.643 166.02Z" fill="#121212"/>
<path d="M234.756 204.516C237.184 204.405 239.312 204.578 241.725 204.735L241.75 204.991L240.546 205.346C240.052 207.265 239.941 208.358 240.47 210.304L240.931 210.574C238.672 211.552 235.379 212.83 233.276 213.854C233.09 212.652 233.089 212.61 233.405 211.422C235.493 209.357 236.112 206.553 232.773 205.696C233.237 205.331 234.727 205.319 235.77 205.017L234.756 204.516Z" fill="#121212"/>
<path d="M230.27 205.055C231.542 204.648 233.376 204.613 234.754 204.516L235.769 205.017C234.725 205.319 233.235 205.331 232.772 205.696C236.11 206.553 235.492 209.357 233.404 211.422C233.087 212.61 233.089 212.652 233.274 213.854L232.423 214.036C231.141 212.346 230.471 207.554 231.023 205.374L230.27 205.055Z" fill="#121212"/>
<path d="M151.391 347.278C153.789 344.927 155.974 343.274 158.793 341.461L155.845 350.482L155.515 349.702C154.535 349.535 153.615 349.412 152.629 349.285C152.393 348.181 152.217 348.046 151.391 347.278Z" fill="#121212"/>
<path d="M241.75 204.988C243.27 205.137 244.766 205.082 245.935 205.949C246.539 207.305 246.33 206.979 246.181 208.664C244.343 209.276 242.711 209.807 240.931 210.572L240.47 210.302C239.941 208.356 240.052 207.263 240.546 205.344L241.75 204.988Z" fill="#121212"/>
</g>
<path d="M1079.13 126.196C1091.71 107.748 1113.49 97.8131 1135.67 100.407C1143.69 101.346 1155.3 103.138 1166.75 107.994C1179.49 113.402 1196.91 124.854 1205.68 147.168C1212.01 163.275 1210.92 178.123 1209.15 187.653C1259.58 183.739 1308.9 178.391 1361.19 173.499L1365.48 173.102C1387.22 171.114 1412.8 169.195 1437.78 170.003C1467.35 170.96 1491.8 193.319 1495.4 222.678C1495.81 226.07 1495.93 229.438 1495.78 232.756C1501.7 236.926 1506.98 241.486 1511.53 246.083C1519.75 254.404 1528.88 266.234 1534.79 281.062C1534.88 280.862 1534.96 280.662 1535.04 280.463C1538.82 271.201 1543.32 260.809 1548.1 251.62C1550.48 247.048 1553.46 241.743 1556.99 236.605C1559.84 232.457 1566.1 223.818 1576.04 216.673L1576.75 216.165C1591.56 205.846 1610.22 202.746 1627.56 207.708C1633.82 208.727 1639.93 210.741 1645.67 213.734C1651.84 216.955 1662.89 223.667 1672.02 229.573C1672.37 229.797 1672.71 230.023 1673.06 230.25C1673.57 226.425 1674.46 222.623 1675.72 218.9C1681.92 200.627 1696.53 186.459 1714.97 180.813C1715.32 180.548 1715.72 180.252 1716.18 179.905L1716.98 179.31C1733.83 166.978 1755.91 164.28 1775.26 172.249C1775.96 172.539 1778.01 173.246 1782.46 174.506C1785.08 175.247 1785.97 175.479 1789.01 176.331C1791.18 176.942 1794.21 177.806 1797.19 178.793C1816.24 185.099 1831.75 197.901 1841.22 206.52C1850.17 214.662 1858.85 223.913 1866.74 233.095C1871.7 227.607 1876.17 222.628 1879.79 218.45C1892.86 203.367 1913.18 181.231 1929.85 166.077L1930.6 165.41C1946.36 151.551 1968.25 146.923 1988.31 153.271C1990.52 153.97 1992.72 154.715 1994.89 155.507C1994.97 155.535 1995.05 155.563 1995.12 155.591C2007.03 159.978 2019.58 166.872 2030.43 178.697C2030.99 179.308 2031.53 179.924 2032.07 180.539C2046.69 185.243 2059.22 195.474 2066.68 209.488C2077.35 229.563 2075.76 253.949 2062.57 272.469C2051.48 288.038 2041.21 299.069 2032.2 308.281C2022.97 317.717 2017.22 323.206 2010.12 331.587C1996.86 347.244 1981.28 366.969 1964.89 386.64C1973.36 400.819 1977.83 409.625 1982.77 417.565C1983.17 417.929 1983.58 418.305 1983.98 418.692C1986.83 421.397 1989.18 424.107 1991.13 426.634L1991.94 427.705L1992.43 428.385C1992.6 428.613 1992.76 428.842 1992.92 429.072C2002.96 443.458 2008.71 452.446 2016.29 462.079L2018.31 464.617C2018.47 464.819 2018.63 465.022 2018.78 465.226C2019.45 466.097 2019.83 466.568 2021.13 468.238C2022.18 469.578 2023.7 471.544 2025.31 473.793C2028.52 478.303 2033.03 485.235 2036.58 494.278C2040.99 505.516 2041.9 517.824 2039.21 529.592C2038.73 531.689 2038.12 533.829 2037.39 535.996C2036.34 545.192 2033.39 556.124 2026.27 566.733C2020.11 575.901 2012.75 581.76 2011 583.197C2007.43 586.133 2007.95 585.59 2005.94 587.321C1993.62 597.927 1977.56 603.046 1961.46 601.606C1963.18 614.616 1960.54 625.043 1959.49 628.862C1957.18 637.262 1953.71 643.849 1952.54 646.057C1952.53 646.071 1952.53 646.086 1952.52 646.1C1933.08 682.795 1919.15 706.698 1910.12 736.599C1901.7 764.474 1874.48 782.28 1845.57 778.825C1843.13 778.534 1833.48 777.573 1828.32 776.792C1822.72 775.947 1808.55 773.713 1794.76 764.923C1787.29 760.167 1781.13 754.337 1776.24 747.805C1766.76 751.941 1756.72 755.531 1746.45 758.156C1725.4 763.535 1687.59 768.178 1655.37 747.903C1643.81 752.123 1629.74 754.699 1613.92 752.46C1603.95 751.049 1594.96 747.976 1586.92 743.761C1579.87 751.868 1570.77 757.945 1560.56 761.339C1540.4 768.04 1521.54 766.114 1506.02 760.251C1498.94 784.032 1489.66 813.554 1476.57 841.9C1463.02 871.209 1443.48 903.612 1413.76 928.156L1413.75 928.162C1380.02 956.008 1340.71 960.948 1307.56 957.273C1300.13 956.45 1268.93 953.035 1248.67 925.437C1234.56 906.224 1232.68 885.069 1234.81 869.093C1236.8 854.128 1242.46 841.335 1247.45 832.099C1257.44 813.569 1272.22 795.872 1285.16 781.814C1285.46 781.486 1285.76 781.159 1286.07 780.83C1281.9 780.901 1277.68 780.697 1273.45 780.191C1266.93 779.41 1260.19 777.847 1253.56 775.404C1251.45 778.654 1249.23 781.776 1246.91 784.754C1221.52 817.273 1176.94 842.015 1125.95 832.463C1125.94 832.462 1125.93 832.46 1125.93 832.459C1110.57 829.578 1097.15 822.301 1088.24 816.266C1081.82 811.916 1071.04 803.736 1062.47 791.396C1055.91 792.486 1049.11 793.151 1042.07 793.305L1042.07 793.306C1029.98 793.57 1017.39 792.104 1005.32 788.209C995.631 797.985 982.034 808.865 964.456 815.112C951.04 819.879 935.185 821.965 918.232 818.527C901.447 815.122 887.243 807.051 875.75 797.091L875.74 797.081C873.017 794.721 870.519 792.262 868.225 789.735C866.254 789.978 864.275 790.124 862.294 790.171C861.831 790.382 861.365 790.593 860.895 790.798C860.847 790.819 860.8 790.839 860.752 790.86C856.487 792.711 852.773 793.727 851.798 793.996C850.161 794.449 848.665 794.807 847.579 795.056C845.38 795.56 843.12 796.015 841.354 796.36C839.506 796.72 837.684 797.059 836.295 797.316C835.556 797.452 834.994 797.557 834.488 797.652C834.246 797.697 834.057 797.732 833.91 797.76C833.758 797.789 833.696 797.801 833.699 797.8C822.387 800.036 810.671 798.966 799.951 794.717C783.739 788.29 756.162 772.173 747.724 736.702L747.449 735.511C741.868 710.503 748.238 687.062 752.575 674.121C757.641 659.002 764.483 645.453 769.249 636.678C775.171 625.77 782.768 614.305 791.719 603.405C783.351 604.815 774.479 604.906 765.241 603.296C739.87 598.873 722.632 583.431 712.735 570.916C702.478 557.947 695.744 542.914 692.189 528.441C688.754 514.458 687.097 496.05 692.605 477.142C701.099 447.885 716.184 390.06 742.692 343.643C756.189 320.007 775.372 294.194 802.929 276.431C829.413 259.36 860.882 251.596 895.138 256.804C899.996 249.998 906.285 244.195 913.694 239.864C927.286 231.92 943.973 227.206 955.525 224.287C968.865 220.917 983.779 217.981 997.891 215.467C1011.59 213.026 1025.42 210.829 1037.38 208.945C1039.86 202.843 1042.37 196.433 1045.51 188.837C1053.08 170.547 1062.36 150.78 1079.13 126.196Z" fill="#2A2A2A"/>
<path d="M974.527 514.071C987.542 513.524 990.15 524.011 990.484 534.896C991.166 563.844 974.693 590.666 961.822 615.747C941.346 655.646 930.863 702.581 933.875 747.631C945.708 743.285 953.169 735.703 961.768 727.212C990.931 698.398 1005.4 661.83 1025.53 627.225C1035.15 611.382 1046.44 600.105 1060.15 588.35C1083.31 568.477 1107.85 596.094 1103.26 618.963C1098.77 641.344 1063.09 662.663 1044.44 675.845C1040.04 685.159 1036.79 700.82 1037.89 711.14C1039.92 730.237 1060.51 718.97 1070.37 714.624C1107.14 698.398 1134.96 667.526 1158.26 635.639C1153.98 623.443 1152.53 613.344 1159.87 601.828C1171.56 583.324 1194.43 570.832 1214.75 585.066C1230.76 596.267 1225.36 611.65 1215.79 624.649C1215.96 615.977 1217.54 609.84 1215.11 601.053C1210.08 582.884 1194.94 584.856 1188.1 600.861C1176.85 627.206 1196.26 650.094 1205.61 673.815C1223.85 666.607 1256.93 655.311 1272.84 647.136C1283.94 626.688 1295.31 606.375 1306.92 586.205C1319.63 588.359 1322.43 588.761 1330.83 598.43C1327.13 610.721 1317.52 635.343 1312.43 647.031C1303.48 667.613 1292.48 684.815 1285.84 707.119C1289.85 706.564 1294.47 705.884 1298.13 704.42C1313.38 698.313 1342.98 669.431 1352.7 655.828C1372.18 628.555 1388.71 600.392 1421.19 584.989C1437.33 577.331 1450.35 581.668 1465.96 587.708C1468.43 585.43 1472.08 583.687 1475.09 582.031C1480.07 582.902 1487.52 583.765 1488.45 589.097C1489.89 597.339 1485.24 610.204 1482.95 617.729C1477.98 634.031 1473.3 649.673 1471.79 666.607C1484.09 657.743 1529.05 625.98 1534.58 615.096C1540.74 602.986 1542.31 588.857 1548.97 576.834C1549.15 576.518 1549.33 576.202 1549.51 575.886C1555.91 577.197 1560.4 577.657 1564.26 583.267C1571.59 593.931 1567.04 619.442 1564.86 631.58C1568.75 625.147 1573.09 619.001 1577.87 613.19C1589.15 599.683 1626.87 562.035 1645.13 581.477C1661.24 598.621 1641.04 633.045 1636.28 652.354C1633.31 664.473 1632.01 668.484 1632.02 681.33C1645.77 676.898 1669.65 653.396 1677.09 640.646C1691.38 616.168 1699.88 587.497 1726.02 571.712C1748.44 558.157 1776.7 578.413 1767.19 603.742C1759.85 622.715 1732.06 633.61 1714.24 641.038C1699.73 669.996 1704.05 696.196 1742.8 684.316C1786.43 670.943 1808.67 642.273 1828.85 603.943C1821.23 601.129 1812.63 597.271 1808.12 590.398C1794.16 569.128 1828.66 540.878 1843.85 564.073C1848.76 571.588 1845.53 583.85 1843.27 592.073C1858.39 592.217 1892.75 593.49 1901.43 607.964C1903.07 610.683 1901 615.173 1899.5 618.016C1881.54 651.922 1863.85 682.297 1852.68 719.248C1828.89 716.405 1817.87 718.176 1823.01 691.554C1829.53 657.752 1850.87 633.858 1863.08 604.336L1863.64 602.958C1857.97 601.828 1848.31 602.269 1842.45 602.422C1831.43 623.444 1804.19 658.47 1785.11 673.547C1761.38 692.31 1701.93 720.607 1677.68 687.897C1669.94 677.472 1671.14 666.952 1673.27 654.957C1661.06 673.011 1628.32 715.945 1601.54 678.248C1593.18 666.464 1643.09 600.325 1630.32 592.303C1612.75 594.677 1579.76 641.708 1569.78 657.742C1558.31 676.151 1556.58 686.231 1541.64 704.4C1528.53 708.756 1518.75 700.084 1510.36 691.19C1512.83 672.342 1521.14 651.434 1529.03 634.193C1507.15 647.844 1486.41 661.696 1471.2 683.024C1458.96 700.188 1455.27 720.329 1449.41 740.126C1435.11 788.373 1415.5 848.911 1375.56 881.89C1357.99 896.392 1336.6 900.126 1314.17 897.637C1308.02 896.957 1300.9 895.195 1297.04 889.931C1276.05 861.346 1372.26 781.27 1392.47 761.799C1404.67 750.044 1416.4 737.944 1426.56 724.351C1440.45 705.779 1447.18 689.993 1451.44 667.268C1448.91 664.673 1444.22 657.034 1442.98 656.488C1437.67 659.322 1433.16 670.609 1428.24 676.353C1415.12 691.679 1385.01 726.379 1362.42 708.306C1351.16 699.298 1352.35 683.809 1352 670.359C1347.7 673.183 1341.51 681.311 1337.83 685.351C1327.62 696.637 1317.47 707.138 1304.42 715.141C1290.51 723.67 1269.15 723.842 1261.26 707.243C1254.25 692.492 1264.09 670.092 1269.58 655.656C1249.23 661.448 1229.71 673.461 1208.34 681.282C1230.82 726.571 1186.36 782.735 1136.99 773.487C1128.27 771.85 1114.31 762.909 1110.44 754.974C1094.65 722.637 1155.67 692.712 1177.08 681.301C1172.84 666.473 1168.99 654.718 1163.92 640.129C1160.38 644.236 1156.9 648.783 1153.51 653.109C1125.89 688.309 1089.52 732.257 1040.76 733.319C1009.25 734.008 1001.04 714.279 1002.21 687.322C990.497 704.802 982.746 722.311 968.779 739.227C954.708 756.266 935.656 769.61 915.044 751.747C899.532 738.297 900.366 707.761 899.653 688.165C885.166 703.548 879.343 717.094 860.851 730.189C864.514 723.374 871.109 714.777 875.402 707.875C880.851 699.126 883.941 692.818 888.236 683.57C870.635 700.036 858.724 726.265 836.866 735.818C834.946 736.651 825.064 738.346 822.062 738.939C814.479 735.934 808.052 731.051 806.093 722.809C801.994 705.587 813.89 680.2 821.975 665.314C833.501 644.082 854.744 618.81 877.999 610.252C889.44 606.653 904.898 613.411 915.1 619.164C921.24 604.125 931.148 586.301 938.698 571.77C945.775 558.157 961.633 521.302 974.527 514.071ZM1432.64 731.158C1419.77 744.589 1405.67 759.532 1393.09 773.135C1378.04 789.409 1299.75 861.176 1317.74 884.246C1378.94 889.626 1420.35 780.822 1433.75 732.92C1433.38 732.336 1433.01 731.742 1432.64 731.158ZM1175.43 696.034C1155.35 704.602 1137.34 716.261 1128.58 737.092C1124.76 746.176 1127.14 753.806 1134.58 759.741C1152.51 768.624 1167.12 756.821 1172.33 739.686C1175.35 729.758 1179.15 706.689 1177.95 696.532C1176.79 696.197 1176.57 695.996 1175.43 696.034ZM900.36 631.705C880.047 642.484 870.056 661.18 858.461 680.307C853.437 688.597 846.452 699.27 844.11 708.671L845.04 709.79L847.159 708.671C859.774 699.127 912.4 647.692 905.564 633.036C903.238 631.591 903.168 631.83 900.36 631.705ZM1457.35 608.004C1461.51 595.55 1452.13 594.957 1442.88 595.56C1432.84 601.351 1424.08 611.344 1417.26 620.62C1401.17 642.523 1378.8 666.675 1378.49 695.308C1384.62 693.642 1386.45 693.172 1392.2 690.291C1407.62 681.551 1415.38 676.469 1426.34 662.215C1439.15 645.549 1450.63 628.126 1457.35 608.004ZM1081.63 596.211C1069.06 605.449 1045.93 640.102 1048.81 655.026L1050.35 655.926C1052.84 654.921 1053.36 654.701 1055.63 653.294C1068.64 645.291 1085.78 626.509 1090.3 611.547C1092.12 605.535 1087.92 597.101 1081.63 596.211ZM1748.58 578.793C1738.97 586.633 1721.85 612.078 1720.45 623.508L1721.11 625.346C1724.04 625.7 1724.53 624.79 1727.71 623.287C1738.94 617.534 1752.76 610.9 1756.93 598.044C1759.22 590.941 1758.09 579.416 1748.58 578.793ZM980.63 535.807C976.95 541.234 973.814 547.007 971.272 553.048C968.848 558.716 953.165 603.448 956.89 607.23C964.503 591.195 984.936 554.005 981.965 537.339L980.63 535.807ZM1827.01 563.5C1816.58 571.11 1819.07 576.452 1827.89 583.612L1830.13 583.632C1833.48 579.362 1834.55 568.507 1830.43 564.237L1827.01 563.5Z" fill="#F4F4F4"/>
<path d="M1395.63 850.219C1395.61 850.429 1395.58 850.649 1395.55 850.87C1386.76 867.928 1369.06 884.499 1352.64 892.301L1352.39 891.429C1353.73 888.146 1357.85 886.404 1361.02 884.413C1375.2 875.51 1384.19 862.041 1395.63 850.219Z" fill="#F4F4F4"/>
<path d="M1128.7 160C1154.22 162.986 1154.3 170.32 1144.44 192.939C1135.02 214.536 1124.3 236.134 1113.02 256.823C1144.76 255.744 1174.76 250.393 1206 248.066C1259.81 244.058 1313.09 238.26 1366.78 233.237C1389.27 231.132 1413.31 229.241 1435.84 229.971C1435.5 230.068 1435.15 230.165 1434.8 230.263L1433.06 230.712C1420.5 234.025 1382.18 238.238 1366.13 240.809L1252.24 258.423C1239.05 260.418 1225.95 262.826 1212.73 264.766C1178.01 269.859 1134.27 271.322 1101.95 285.005C1092.06 301.147 1087.17 313.632 1079.38 330.098C1058.56 374.102 1044.23 418.914 1034.56 466.569C1031.32 482.496 1025.76 514.641 1035.94 528.45C1038.93 532.509 1040.47 534.969 1040.88 540.081C1039.5 543.786 1040.62 542.312 1037.34 544.619C1026.46 546.524 1014.63 536.75 1011.36 527.369C993.343 475.603 1030.61 394.084 1047.28 345.416C1026.08 379.035 1000.37 410.583 976.536 442.368C961.833 461.974 949.1 482.823 933.978 502.094C924.893 513.672 905.418 533.706 889.991 521.003C883.245 515.37 882.066 506.063 881.562 497.75C881.802 466.652 888.998 441.567 891.767 410.064C854.719 449.272 833.299 499.992 794.999 537.19C767.787 561.907 743.261 517.598 750.224 493.87C768.912 429.506 802.597 295.729 893.603 317.592C974.607 339.113 953.41 346.991 929.487 410.993C923.279 427.603 910.705 479.858 906.746 499.593C926.324 490.067 941.106 471.276 955.05 454.833C998.758 403.291 1042.72 347.449 1071.05 285.858C1048.1 290.597 1025.91 297.059 1002.56 300.543C979.623 303.965 962.802 310.401 943.97 291.664C966.36 278.577 1048.48 268.652 1078.81 262.934C1098.91 223.348 1101.12 200.429 1128.7 160ZM911.457 349.778C904.637 338.998 896.209 328.569 882.128 330.452C830.663 350.472 800.715 452.511 790.037 501.751C796.276 495.4 802.358 488.897 808.275 482.246C831.912 455.383 877.989 394.803 889.878 362.325L898.324 366.969C902.178 362.07 908.239 354.797 911.457 349.778Z" fill="#F4F4F4"/>
<path d="M856.652 442.172C856.655 447.941 837.816 473.026 832.925 479.87L832.547 478.555C833.603 472.922 852.228 447.472 856.652 442.172Z" fill="#F4F4F4"/>
<path d="M1726.31 424.098L1729.06 425.075C1718.6 437.678 1686.28 487.155 1676.81 492.041C1681.16 484.45 1689.63 475.695 1694.91 468.199C1705.27 453.468 1714.61 437.775 1726.31 424.098Z" fill="#F4F4F4"/>
<path d="M1611.06 265.391C1612.26 268.682 1609.25 274.66 1609.52 280.302C1613.88 278.299 1616.17 271.329 1617.91 266.925C1625.14 270.696 1654.49 288.819 1658.75 294.186C1667.89 305.725 1650.27 344.826 1649.35 358.855C1648.27 375.291 1640.9 391.711 1637.57 407.02C1631.9 433.017 1623.88 474.074 1636.42 498.242C1679.9 477.373 1721.95 423.828 1750.15 385.909C1753.66 381.2 1768.66 362.911 1773.61 362.333C1773.27 371.628 1734.43 413.138 1727.25 422.81L1726.31 424.098L1729.06 425.075C1733.63 419.465 1740.43 412.404 1745.94 407.855C1739.21 421.455 1729.06 436.267 1719.64 448.307C1702.36 470.389 1686.55 493.277 1665.52 512.042C1648.35 527.355 1635.79 527.374 1614.49 525.785C1589.1 523.89 1580.12 509.853 1575.27 486.818C1567.61 457.997 1573.99 441.962 1577.7 414.066C1573.41 423.741 1571.29 434.087 1567.62 443.975C1560.3 463.628 1544.88 484.438 1529.51 498.572C1509.07 517.354 1477.86 526.005 1450.42 524.617C1436.07 523.89 1422.31 519.109 1412.65 507.962C1394.18 486.643 1394.85 451.759 1397 425.481C1400.51 382.721 1411.05 340.197 1424.63 299.626C1426.69 293.475 1429.77 280.07 1435.41 276.368C1438.73 274.188 1443.73 274.254 1447.42 275.181C1462.12 278.863 1478.71 294.779 1480.87 309.916C1482.99 324.895 1474.48 352.096 1471.21 367.697C1467.48 385.566 1454.65 454.96 1462.95 467.962C1464.6 470.547 1467.02 472.326 1470.09 472.774C1479.68 474.167 1492.95 463.221 1499.84 457.277C1521.76 438.377 1540.33 414.455 1554.11 389.059C1561.42 375.613 1567.66 361.296 1573.53 347.173C1580.45 330.574 1599.58 273.641 1611.06 265.391ZM1565.5 382.762C1557.45 397.868 1552.51 413.277 1545.6 428.802C1539.32 442.906 1529.01 457.807 1522.34 471.154L1522.89 472.341L1523.21 472.454C1536.38 454.356 1563.48 404.533 1566.47 383.633L1565.5 382.762ZM1549.41 403.709C1546.21 409.652 1529.38 436.963 1528.23 441.384L1529 442.37C1534.91 434.028 1548.97 414.958 1550.68 405.524L1549.41 403.709Z" fill="#F4F4F4"/>
<path d="M1970.21 210.473C1971.61 210.915 1973 211.387 1974.38 211.889C1985.29 215.91 1988.73 221.132 1993.25 231.004C1988.88 241.288 1976.81 252.612 1975.55 256.988L1976.89 257.234C1977.91 256.148 1978.92 255.066 1979.94 253.99C1992.3 240.983 1996.43 238.1 2013.7 237.657C1996.62 261.633 1982.16 271.773 1964.34 292.798C1939.89 321.66 1917.24 351.795 1891.28 379.822C1897.51 392.219 1905.52 404.319 1912.72 416.299C1920.9 429.914 1929.58 446.895 1938.82 459.73C1941.12 461.109 1942.21 461.375 1943.72 463.417C1952.9 476.566 1961.01 489.121 1971.11 501.656C1974.72 506.378 1978.58 510.722 1980.72 516.188C1979.93 519.655 1976.89 518.516 1977.33 521.808C1979 534.338 1976.83 533.208 1966.8 541.843C1963.05 541.297 1958.09 540.666 1954.54 539.546C1944.66 536.416 1943.62 530.069 1934.13 533.477C1925.31 531.887 1861.26 443.629 1854.72 431.148C1848.13 439.1 1839.15 449.278 1833.07 457.415C1825.27 467.851 1796.37 514.88 1786.56 519.449C1784.23 518.452 1782.07 516.974 1779.66 516.965C1781.63 522.841 1781.39 522.162 1776.94 527.158C1772.43 533.084 1769.36 536.999 1764.27 542.389C1764 542.36 1763.74 542.331 1763.48 542.303L1762.15 542.13C1753.06 541.039 1738.51 535.755 1728.88 532.893C1735.9 515.487 1764.2 474.753 1776.21 457.598C1789.31 438.874 1811.91 403.723 1825.81 387.436C1804.32 358.09 1785.59 327.979 1766.23 297.221C1762.15 290.726 1757.01 283.442 1753.55 276.72L1754.11 275.499L1757.77 274.313L1758.29 273.246L1756.71 272.014C1754.34 273.339 1755.28 273.054 1752.58 273.407C1748.09 267.949 1738.93 247.063 1732.54 238.18C1742.26 235.251 1744.65 233.609 1752.41 227.728C1760.68 231.133 1772.04 233.668 1778.32 235.748C1804.48 244.402 1850.7 307.038 1861.81 329.986C1879.72 306.955 1905.82 280.013 1925.12 257.758C1937.63 243.319 1956.15 223.256 1970.21 210.473ZM1810.01 453.684C1799.73 464.259 1784.51 486.667 1776.54 499.457L1776.77 501.126C1784.03 493.962 1803.18 465.532 1810.12 455.754L1810.01 453.684ZM1957.83 271.531C1942.66 288.203 1928.22 305.506 1914.52 323.393C1906.53 334.011 1897.75 347.287 1889.26 357.165L1889.38 358.733L1890.59 359.072C1900.35 347.866 1909.12 334.738 1918.1 322.759C1930.97 305.559 1944.68 289.013 1959.21 273.186L1958.78 271.858L1957.83 271.531Z" fill="#5B3DF6"/>
<path d="M1148.52 362.91C1157.34 362.718 1172.83 369.892 1170.95 378.522C1162.2 418.56 1137.73 442.216 1140.45 486.281C1177.55 456.227 1212.48 418.04 1238.94 378.385C1251.08 360.176 1263.32 356.494 1276.73 377.595C1275.09 393.139 1270.61 401.547 1264.93 416.097C1255.05 441.378 1247.46 462.107 1247.56 489.545C1278.41 472.96 1307.21 427.587 1319.32 395.606C1320.59 392.258 1322.87 386.108 1325.77 384.318L1330.91 385.633C1334.13 387.011 1345.58 393.181 1344.19 397.579C1334.78 427.118 1322.45 455.145 1315.49 485.585C1313.8 492.941 1311.37 501.752 1301.94 497.999C1297.06 496.02 1293.17 492.171 1291.15 487.312C1286.68 476.266 1289.92 466.228 1294.11 455.995C1279.53 470.364 1255.3 503.048 1234.33 504.624C1211.37 506.348 1216.56 470.106 1217.17 456.189C1204.74 471.091 1191.78 494.021 1176.2 503.208C1120.14 536.262 1076.49 499.563 1106.8 438.557C1118.02 415.985 1126.78 389.672 1139.5 367.765C1140.41 366.198 1146.67 363.698 1148.52 362.91ZM1211.72 428.742C1204.4 437.489 1160.54 490.313 1162.93 498.941C1177.73 490.925 1204.11 449.043 1211.51 432.111C1211.98 431.022 1211.91 429.884 1211.72 428.742ZM1203.62 455.412C1201.16 459.545 1194.79 469.488 1194.14 473.929C1198.7 468.626 1201.73 464.696 1204.1 458.1C1203.99 457.344 1203.86 456.078 1203.62 455.412Z" fill="#F4F4F4"/>
<path d="M1336.71 521.273C1351.96 522.374 1355.1 529.209 1347.7 543.281C1343.34 551.59 1335.4 556.664 1326.4 559.182C1306.6 559.182 1310.24 538.418 1320.37 528.405C1327.23 521.647 1327.37 521.551 1336.71 521.273Z" fill="#F4F4F4"/>
<path d="M1344.03 294.969C1357.03 295.483 1359.8 298.733 1364.63 310.342C1360.56 316.854 1357.07 321.481 1351.81 327C1333.4 338.354 1325.93 307.953 1344.03 294.969Z" fill="#F4F4F4"/>
<defs>
<clipPath id="clip0_409_15736">
<rect width="549.026" height="818.36" fill="white" transform="translate(100 119.988)"/>
</clipPath>
</defs>
</svg>
