<svg width="2174" height="1059" viewBox="0 0 2174 1059" fill="none" xmlns="http://www.w3.org/2000/svg">
<g opacity="0.9" clip-path="url(#clip0_409_15738)">
<path d="M355.751 114.305C357.266 114.309 358.808 114.335 359.793 114.349C360.996 114.367 361.459 114.367 361.636 114.364L363.524 114.343C386.805 114.21 410.637 118.73 432.787 128.275C439.065 126.829 445.743 126.887 452.273 128.668C483.849 137.278 516.977 154.438 543.441 179.122C570.038 203.93 591.829 238.319 594.999 280.724C595.066 281.618 595.119 282.514 595.162 283.407C609.754 293.066 622.015 305.132 631.141 320.631C644.619 343.522 648.453 369.254 648.97 394.966C649.153 404.112 646.23 412.686 641.106 419.592C640.189 451.65 635.173 483.028 631.271 509.113C642.271 518.173 648.237 529.722 651.477 539.146C658.472 559.498 656.981 582.057 655.276 595.132C652.628 615.437 647.631 634.874 643.409 651.567C638.991 669.036 635.321 683.861 633.475 698.701L633.476 698.702C631.026 718.397 619.955 735.002 606.172 745.597C601.717 749.022 596.575 752.105 590.906 754.521C583.843 776.581 573.954 797.172 556.21 819.133L556.208 819.134C545.061 832.929 532.865 848.133 517.482 862.696L517.481 862.697C476.611 901.388 423.909 943.7 347.095 930.046C310.156 924.385 276.877 902.34 251.123 880.046C224.396 856.909 201.245 829.525 184.667 806.808L184.665 806.806C174.227 792.499 165.264 773.18 159.089 754.684C146.257 749.424 136.164 740.453 128.702 728.92C119.764 715.105 116.688 699.819 115.082 690.414C112.866 677.444 112.939 674.177 111.452 668.087C106.153 646.38 95.8072 614.875 94.1921 582.554L94.1228 581.015C93.6248 568.948 93.7838 547.908 103.021 529.471C106.589 522.35 111.89 514.876 119.487 508.699C119.335 507.788 119.189 506.895 119.051 506.026C119.038 505.941 119.024 505.856 119.011 505.771C115.213 480.717 112.298 455.526 110.272 430.25L109.748 424.277C108.381 408.646 107.118 392.602 108.13 375.446C103.829 369.123 101.33 361.559 101.21 353.555C101.182 351.707 101.205 349.859 101.279 348.014L101.282 347.932C101.66 338.92 103.534 329.014 104.851 322.998C108.218 307.616 113.214 294.157 119.6 282.019C117.764 272.485 119.404 262.352 124.716 253.633C139.157 229.93 154.306 210.986 174.191 195.86C178.623 192.489 183.166 189.402 187.83 186.55C191.123 177.848 197.437 170.295 206.123 165.569C207.353 164.9 208.622 164.047 212.462 161.447C215.766 159.21 220.84 155.789 226.99 152.619C247.094 142.103 268.614 135.181 290.652 131.996C295.581 126.932 301.877 123.141 309.065 121.237C322.752 117.612 331.853 116.319 343.891 115.006C346.438 114.636 348.668 114.488 350.173 114.416C352.253 114.315 354.222 114.301 355.751 114.305Z" fill="#2A2A2A"/>
<path d="M352.861 161.099C361.389 160.816 371.481 160.731 381.403 161.649C391.332 162.568 401.056 164.49 408.863 168.201L408.888 168.213L408.913 168.222C414.882 170.311 423.196 173.746 428.923 176.685C430.696 177.841 432.326 178.875 434.16 179.945C438.788 183.168 442.573 186.328 446.247 189.451C449.921 192.574 453.49 195.668 457.66 198.734L459.213 199.875L458.411 198.123C457.008 195.057 454.322 189.76 451.282 184.773C449.762 182.28 448.149 179.856 446.56 177.824C445.236 176.132 443.91 174.686 442.651 173.702C442.976 173.759 443.36 173.839 443.8 173.946C444.765 174.182 445.953 174.529 447.29 174.959C449.962 175.818 453.206 176.998 456.409 178.245C459.612 179.492 462.766 180.805 465.259 181.931C466.505 182.493 467.582 183.008 468.414 183.441C469.264 183.884 469.812 184.22 470.042 184.425L470.116 184.491L470.21 184.523C476.106 186.58 481.166 190.102 486.487 193.483C519.659 214.568 551.69 249.707 552.208 290.968L552.215 291.944C552.215 294.281 551.811 297.563 551.339 300.933C550.869 304.283 550.332 307.717 550.079 310.3L550.04 310.7L550.422 310.824C560.177 314.002 570.262 320.245 578.854 328.121C587.179 335.751 594.077 344.889 597.918 354.21L598.28 355.113C598.325 355.229 598.361 355.308 598.392 355.367C598.397 355.437 598.406 355.546 598.425 355.721L598.434 355.8L598.466 355.872C600.769 360.994 602.504 368.386 603.644 375.937C604.608 382.329 605.14 388.804 605.238 394.062C604.473 392.113 603.847 390.693 603.011 389.413C601.84 387.622 600.274 386.124 597.424 383.797L596.545 383.079L596.608 384.212C596.861 388.716 597.283 393.583 596.946 397.973C596.659 399.328 596.53 401.552 596.486 404.186C596.442 406.861 596.486 410.003 596.558 413.174C596.7 419.535 596.949 425.986 596.816 429.134L596.815 429.142V429.15C596.8 430.775 596.557 432.428 596.289 434.112C596.024 435.785 595.733 437.494 595.646 439.18C594.956 452.4 593.017 465.534 590.955 478.679C588.894 491.816 586.711 504.969 585.542 518.194C585.369 520.148 584.375 523.747 583.449 527.232C582.99 528.959 582.552 530.648 582.252 532.057C582.102 532.761 581.985 533.404 581.918 533.952C581.852 534.49 581.83 534.976 581.89 535.348L581.913 535.492L582.011 535.601C582.278 535.899 582.651 536.118 583.06 536.284C583.473 536.452 583.957 536.581 584.479 536.683C585.524 536.885 586.779 536.988 588.052 537.051C589.324 537.113 590.644 537.137 591.801 537.174C592.973 537.212 593.967 537.264 594.638 537.379H594.639C599.585 538.224 603.975 542.388 607.177 547.622C610.371 552.844 612.304 559.009 612.411 563.654H612.412C612.914 585.3 608.466 606.39 603.246 627.45C598.031 648.492 592.039 669.522 589.503 690.961C587.53 707.641 572.523 717.62 556.092 714.798L555.662 714.725L555.53 715.14C554.691 717.785 553.932 720.802 553.188 723.84C552.442 726.884 551.713 729.947 550.931 732.709L550.93 732.711C547.121 746.375 541.589 759.498 534.462 771.764C529.745 779.805 521.9 789.863 515.726 797.288C486.619 831.891 447.496 871.063 402.807 882.887C374.324 890.425 338.33 884.074 313.399 868.854C274.646 845.194 242.275 810.379 216.619 773.159C209.944 763.476 204.974 749.633 200.104 738.742L200.104 738.741C198.58 735.351 197.793 731.621 197.154 727.801C196.519 724.002 196.027 720.087 195.089 716.43L194.999 716.08L194.641 716.055L192.031 715.871C186.108 715.452 181.305 715.038 177.109 713.379C172.359 711.5 168.352 708.004 164.475 700.929C163.096 698.412 161.268 694.94 160.729 692.232C158.298 680.025 156.46 667.588 153.65 655.41H153.651C148.887 634.191 142.1 613.337 139.358 591.822C137.781 579.444 137.624 565.82 140.241 553.606C141.88 546.279 148.113 539.507 155.644 537.428C156.162 537.285 157.052 537.188 158.165 537.116C159.266 537.045 160.536 537 161.796 536.947C163.05 536.895 164.294 536.835 165.324 536.733C165.839 536.683 166.309 536.62 166.706 536.541C167.092 536.464 167.451 536.363 167.715 536.216L167.92 536.101L167.962 535.87C168.049 535.398 168.024 534.614 167.938 533.658C167.85 532.681 167.692 531.462 167.485 530.081C167.072 527.318 166.462 523.882 165.817 520.391C164.523 513.386 163.099 506.196 162.823 503.655C161.909 495.214 160.218 485.119 159.03 476.376L158.801 474.646C157.032 460.74 155.556 446.798 154.375 432.829V432.825C152.455 411.994 151.116 400.73 152.15 379.723L152.152 379.698L152.151 379.674C151.986 376.299 152.524 371.315 153.297 366.272C154.068 361.242 155.066 356.191 155.805 352.699C156.481 349.555 158.194 344.755 159.249 341.594L159.724 340.172L158.49 341.024C154.396 343.854 151.887 345.825 148.534 349.618L148.521 349.634C147.479 350.915 146.113 352.381 144.865 353.737C145.532 344.96 146.239 338.859 148.981 330.186L148.998 330.132L149.003 330.074C149.013 329.954 149.081 329.656 149.177 329.29C149.222 329.118 149.269 328.943 149.312 328.785C149.355 328.629 149.395 328.485 149.422 328.383V328.382C152.946 314.772 158.45 303.898 165.697 291.933C168.612 287.915 171.669 284.001 174.861 280.199C178.263 276.442 181.786 272.795 185.424 269.266L186.704 268.022L184.964 268.42C180.104 269.528 172.366 272.181 168.035 274.729C167.313 275.02 166.004 275.638 164.804 276.199C164.203 276.48 163.625 276.748 163.148 276.96C163.46 276.305 163.915 275.497 164.479 274.58C165.378 273.115 166.523 271.423 167.718 269.73C170.107 266.345 172.678 262.975 173.848 261.436L173.876 261.398L173.896 261.357C173.892 261.367 173.908 261.337 173.979 261.247C174.04 261.168 174.125 261.065 174.232 260.938C174.448 260.686 174.742 260.355 175.092 259.965C175.787 259.191 176.71 258.18 177.645 257.133C178.582 256.083 179.547 254.98 180.342 254.004C181.124 253.044 181.78 252.161 182.063 251.563C182.123 251.437 182.269 251.221 182.513 250.915C182.749 250.618 183.056 250.264 183.416 249.869C184.135 249.079 185.048 248.143 185.987 247.206C187.866 245.331 189.826 243.474 190.53 242.79L190.531 242.791C197.605 235.951 205.467 229.977 213.952 224.994C216.317 223.603 218.683 222.34 221.063 221.053C223.437 219.769 225.823 218.464 228.214 216.999L231.115 215.333L232.7 214.612C235.109 213.528 237.536 212.486 239.98 211.485L239.984 211.483C241.792 210.727 243.274 210.189 245.141 209.562L245.279 209.516L245.371 209.401C246.057 208.548 246.345 207.745 246.175 207.008C246.006 206.278 245.429 205.787 244.803 205.458C243.799 204.93 242.416 204.685 241.344 204.574L241.506 204.221L240.753 204.198L235.089 204.033H235.064L235.04 204.034C233.328 204.153 231.554 204.147 229.839 204.835L229.723 204.78C229.774 204.727 229.833 204.671 229.897 204.61C230.199 204.329 230.615 203.991 231.117 203.615C232.121 202.864 233.437 201.983 234.799 201.12C236.159 200.259 237.559 199.42 238.729 198.753C239.863 198.106 240.753 197.639 241.183 197.46C241.522 197.413 241.957 197.26 242.425 197.062C242.956 196.836 243.591 196.526 244.293 196.161C245.697 195.432 247.396 194.467 249.109 193.482C250.827 192.495 252.56 191.488 254.044 190.666C255.542 189.836 256.741 189.22 257.406 188.993C270.247 184.612 282.849 180.233 296.272 178.217C298.816 177.835 302.252 177.303 304.761 176.652L304.765 176.651L305.007 176.586C306.679 176.249 310.105 176.052 313.697 175.923C315.49 175.858 317.31 175.811 318.952 175.771C320.587 175.73 322.048 175.696 323.126 175.658C325.138 175.705 327.185 175.726 329.177 175.802L329.187 175.803L329.196 175.802C329.704 175.801 330.281 175.831 330.917 175.852C331.543 175.872 332.211 175.881 332.857 175.837C334.114 175.751 335.46 175.452 336.208 174.425L336.285 174.319L336.301 174.189C336.434 173.078 336.336 172.491 336.134 171.919C335.942 171.377 335.721 170.983 335.544 170.062L335.493 169.782L335.439 169.493L335.161 169.398C331.599 168.194 328.013 167.059 324.407 165.994L321.823 165.024C325.89 164.096 330.369 162.988 334.206 162.759L334.243 162.757L334.279 162.749C334.534 162.696 334.685 162.67 334.775 162.659C334.79 162.667 334.803 162.679 334.819 162.687C334.97 162.759 335.143 162.773 335.318 162.772C338.267 162.758 341.156 162.386 344.046 161.997C346.944 161.607 349.844 161.199 352.861 161.099Z" fill="#121212" stroke="#FAFAFA"/>
<path d="M334.176 162.258L334.239 162.884C330.328 164.026 327.445 164.428 323.418 164.479C334.066 168.702 341.806 169.827 351.468 177.267C351.527 178.27 351.448 178.004 350.601 179.053C349.974 179.164 340.983 177.643 339.659 177.482C335.181 176.924 330.681 176.55 326.172 176.361C323.052 176.253 305.878 176.681 304.891 176.097C308.321 175.398 318.818 175.307 323.12 175.156C325.129 175.203 327.194 175.224 329.195 175.3C331.268 175.297 334.594 175.79 335.804 174.128C336.056 172.032 335.425 172.095 335.053 170.154L335.001 169.87C331.44 168.666 327.855 167.532 324.25 166.468L320.078 164.902C324.509 163.935 329.765 162.521 334.176 162.258Z" fill="#FAFAFA"/>
<path d="M335.003 169.871C340.161 171.973 345.5 174.575 350.056 177.807C341.916 176.605 337.616 175.68 329.197 175.301C331.27 175.298 334.596 175.791 335.806 174.129C336.058 172.033 335.427 172.096 335.055 170.155L335.003 169.871Z" fill="#121212"/>
<path d="M409.078 167.746C415.071 169.844 423.418 173.292 429.171 176.246C430.958 177.412 432.593 178.451 434.436 179.525C443.742 186.005 449.651 192.222 457.957 198.328C455.166 192.227 447.245 177.214 441.65 173.595L441.71 173.103C445.437 172.984 468.11 182.035 470.374 184.048C470.263 184.042 447.337 175.364 444.637 174.448C447.685 178.346 461.731 196.734 458.135 200.346L457.583 200.302C448.023 190.641 436.394 181.301 424.218 175.073C421.824 173.849 409.943 169.062 409.078 167.746Z" fill="#FAFAFA"/>
<path d="M173.449 261.133C173.394 263.164 166.352 272.685 164.646 275.339C175.196 270.512 177.894 269.726 189.236 266.425C173.555 280.268 160.109 298.568 152.912 318.174C152.533 319.206 149.385 328.557 149.198 328.709L148.938 328.256C152.48 314.575 158.013 303.652 165.276 291.661C168.205 287.623 171.277 283.69 174.485 279.87C177.896 276.102 181.428 272.446 185.075 268.906C180.232 270.01 172.523 272.659 168.258 275.178C166.868 275.73 162.999 277.663 162.259 277.855C163.141 274.639 171.112 264.21 173.449 261.133Z" fill="#FAFAFA"/>
<path d="M241.048 196.973C240.275 198.922 234.656 201.932 232.447 203.719C237.96 202.734 253.6 203.424 257.804 205.736C257.161 206.571 255.607 206.945 254.591 207.239C245.783 209.79 237.427 213.709 228.842 216.836L227.965 216.565L230.891 214.886L232.495 214.156C234.908 213.069 237.341 212.024 239.791 211.022C241.613 210.259 243.107 209.717 244.981 209.088C247.554 205.889 242.774 205.145 240.595 205.012L240.739 204.698L235.075 204.533C233.237 204.66 231.504 204.647 229.824 205.381L228.961 204.973C229.479 203.532 239.267 197.68 241.048 196.973Z" fill="#FAFAFA"/>
<path d="M240.739 204.697C246.823 204.684 248.736 204.682 254.591 206.368C251.414 207.236 248.111 208.086 244.982 209.087C247.554 205.889 242.775 205.144 240.596 205.012L240.739 204.697Z" fill="#121212"/>
<path d="M148.506 330.035C148.763 332.382 145.824 347.3 145.356 351.703C151.202 346.202 154.041 342.483 161.103 338.18C155.787 354.731 153.582 363.455 152.128 381.02L151.653 379.698C151.316 372.839 153.837 359.589 155.317 352.594C156.001 349.414 157.729 344.572 158.776 341.435C154.701 344.251 152.227 346.197 148.91 349.95C147.575 351.591 145.706 353.543 144.258 355.146C144.962 345.563 145.597 339.233 148.506 330.035Z" fill="#FAFAFA"/>
<path d="M598.923 355.664C603.586 366.033 605.892 385.444 605.752 396.779C603.163 390.01 602.799 388.827 597.109 384.181C597.361 388.669 597.788 393.594 597.445 398.033L596.857 397.716C596.31 392.505 595.874 387.282 595.559 382.052L595.906 381.731C597.796 382.063 603.091 388.275 604.473 390.159C603.802 383.798 603.346 377.897 602.367 371.523C601.84 368.081 598.803 358.094 598.923 355.664Z" fill="#FAFAFA"/>
<path d="M451.502 333.606C453.351 333.384 455.471 332.908 457.054 333.862L456.951 334.549C454.227 336.834 447.108 338.95 443.433 340.213C470.264 342.366 496.413 342.322 514.198 365.841C530.186 386.979 526.462 411.856 530.985 436.362C532.567 443.233 538.153 448.432 541.746 454.488C547.807 464.7 555.379 476.42 557.074 488.453C558.532 498.844 559.131 510.214 559.587 520.767C560.578 543.743 561.249 566.924 560.454 589.916C559.311 613.316 554.872 637.004 552.139 660.28C544.451 716.666 536.383 755.77 495.321 798.402C479.719 814.601 474.998 820.331 455.829 834.892C459.462 822.309 460.98 809.119 458.984 796.132C453.017 813.79 442.007 835.16 422.203 839.764C420.11 836.787 419.057 834.321 417.644 831.044C416.282 837.502 415.266 839.148 412.382 845.046C408.932 837.806 407.554 835.788 401.991 830.069C402.649 839.372 402.191 841.821 399.733 850.908C398.349 848.059 397 844.051 395.634 841.022C393.062 835.32 390.604 831.664 386.881 826.729C386.863 832.459 386.561 836.771 385.616 842.409C380.57 836.279 377.357 830.461 374.362 823.196C370.46 831.172 368.626 835.34 363.128 842.105C361.561 836.163 361.524 833.05 361.742 827.053C355.908 833.874 352.594 839.935 350.696 848.73C350.583 849.378 350.533 849.366 350.157 849.917C346.192 845.789 346.016 835.64 346.377 830.185C342.186 834.137 338.191 840.503 336.122 845.829C333.645 841.058 332.32 837.186 330.651 832.099C329.347 835.48 328.359 837.062 326.519 840.135C306.304 835.084 296.123 814.425 288.847 796.876C287.649 809.998 288.923 820.559 292.192 833.194C289.652 831.012 286.963 828.963 284.371 826.821C268.229 813.542 254.176 798.05 240.726 782.111C212.468 748.633 204.386 706.448 198.355 664.316C195.074 642.09 192.275 619.797 189.962 597.448C186.825 565.873 188.362 531.792 190.059 500.093C190.496 491.938 191.134 485.331 194.252 477.644C196.974 471.122 200.127 464.789 203.691 458.686C206.804 453.458 216.056 440.706 216.769 435.769C220.515 409.835 216.05 387.665 233.583 365.649C249.72 345.385 270.727 341.539 295.337 337.787C303.855 336.488 313.096 332.768 321.997 334.967C338.913 338.819 356.022 351.082 373.682 350.576C386.656 350.203 400.055 343.061 412.82 339.704C426.247 336.172 437.743 334.945 451.502 333.606Z" fill="#FAFAFA"/>
<path d="M374.11 713.302C377.476 712.024 382.393 709.151 385.785 708.927C398.625 708.084 408.172 720.731 416 729.022C418.404 731.568 422.807 735.092 425.525 737.382C402.349 735.472 408.789 741.913 391.068 747.659C378.247 751.943 360.367 751.036 348.583 744.442C335.532 737.142 336.316 736.107 320.973 737.462C323.371 735.42 328.456 731.236 330.436 729.106C338.824 720.063 344.736 711.916 357.53 709.059C364.11 708.343 367.512 711.596 374.11 713.302Z" fill="#121212"/>
<path d="M251.262 454.883C254.656 454.747 260.091 455.121 263.539 455.763C279.939 458.815 296.702 457.775 312.902 461.537C317.844 462.685 331.462 476.206 332.924 476.421L333.32 475.806C333.273 472.264 327.768 465.288 325.618 462.317C332.361 468.009 336.872 473.084 339.741 481.386C340.784 477.145 341.171 474.176 341.72 469.853C345.064 479.838 341.702 493.126 328.886 492.479C325.361 492.3 320.879 490.581 317.464 489.494C298.15 484.4 283.63 477.944 262.785 477.255C238.973 476.468 231.229 486.283 215.6 500.728C216.577 494.091 217.537 488.327 220.66 482.209C225.694 472.345 240.933 458.224 251.262 454.883Z" fill="#121212"/>
<path d="M490.131 454.999C495.033 454.225 498.976 455.681 503.055 458.543C510.97 464.095 521.392 473.399 525.775 482.072C528.428 487.324 529.971 495.438 531.093 501.091C499.327 465.689 475.074 476.472 435.153 487.887C425.745 490.415 409.484 498.2 404.789 483.868C403.96 481.336 402.503 472.498 405.035 470.813C404.839 470.607 406.473 480.183 406.733 481.342C409.519 474.048 414.33 467.699 420.6 463.044C418.844 465.396 412.285 473.775 413.537 476.327C415.036 476.19 416.637 474.015 417.97 472.997C421.783 470.082 430.421 462.073 434.974 461.01C444.951 458.682 456.043 458.977 466.227 457.935C474.31 457.13 482.192 456.001 490.131 454.999Z" fill="#121212"/>
<path d="M351.626 677.532C353.427 677.433 354.815 677.44 356.043 678.891C357.766 682.675 354.806 692.341 353.477 696.317C349.329 699.014 343.217 700.852 338.678 703.25C327.282 709.276 316.733 716.401 305.232 722.29C294.03 728.029 289.396 739.297 284.446 750.034C283.848 751.061 284.257 750.725 283.282 751.185C282.2 750.166 282.029 748.136 281.665 746.705C278.875 735.729 279.66 723.565 286.845 714.295C289.325 711.13 292.289 708.381 295.627 706.139C300.244 703.042 309.451 699.17 315.098 696.381C326.225 690.887 339.615 679.067 351.626 677.532Z" fill="#121212"/>
<path d="M272.855 520.925C273.266 520.869 273.678 520.825 274.091 520.797C292.148 519.627 311.034 530 323.689 542.471C325.387 544.145 328.879 547.17 329.019 549.476C326.678 549.987 320.038 550.243 317.324 550.459C311.535 550.958 305.757 551.574 299.993 552.305C308.155 548.337 313.716 547.306 322.605 546.691C317.193 543.558 312.254 539.362 307.037 535.878C302.876 533.101 298.896 531.394 294.331 529.325C295.628 534.491 296.127 538.499 293.742 543.558C291.809 547.666 288.301 550.823 284.011 552.313C273.357 556.017 264.333 550.131 260.805 539.934C260.178 535.494 260.378 534.004 261.348 529.6C254.997 532.593 247.513 537.944 242.533 542.903C250.946 552.513 257.508 554.211 269.322 556.768C259.646 556.94 253.738 554.846 244.758 552.001C244.296 551.853 243.818 552.457 243.529 552.753C244.214 555.801 256.647 560.76 259.636 561.915C245.862 560.397 242.926 554.95 231.781 548.964C230.264 548.153 225.972 548.169 224.031 548.113C229.066 545.228 232.519 541.768 236.803 537.92C248.686 527.251 257.214 522.887 272.855 520.925Z" fill="#121212"/>
<path d="M283.183 528.985C285.769 528.338 288.404 529.852 289.148 532.414C289.892 534.971 288.48 537.664 285.951 538.504C284.226 539.079 282.326 538.663 280.998 537.421C279.67 536.182 279.127 534.312 279.582 532.554C280.038 530.795 281.42 529.425 283.183 528.985Z" fill="#FAFAFA"/>
<path d="M392.464 677.729C407.191 677.549 418.354 689.365 430.881 695.622C437.76 699.063 445.158 701.828 451.563 706.004C468.567 717.088 469.255 733.268 464.508 751.117C463.447 751.365 463.072 749.787 462.682 748.86C459.764 742.378 455.844 733.008 450.2 728.245C439.305 719.046 423.865 712.753 411.751 704.849C407.061 701.788 399.227 699.019 394.12 696.645C392.475 692.026 390.677 685.652 390.606 680.71C390.584 679.175 391.44 678.708 392.464 677.729Z" fill="#121212"/>
<path d="M418.301 548.9C420.805 544.697 423.021 543.222 426.271 540.053C445.425 521.381 473.372 514.093 497.18 528.701C502.493 531.962 507.356 536.045 512.015 540.185C514.836 542.627 517.865 545.831 521.045 547.713C519.323 548.037 515.671 548.688 514.233 549.352C503.7 554.231 502.457 558.998 489.802 561.256C493.036 559.913 500.195 556.604 502.077 553.823L501.762 553.3C499.102 552.784 487.84 556.269 483.769 556.976L481.596 556.616L481.347 556.077C489.834 554.71 499.162 549.847 505.078 543.602C498.642 538.263 493.818 533.756 486.06 530.283C486.398 531.97 486.777 533.688 486.794 535.41C486.935 550.011 470.126 558.307 458.399 549.959C454.779 547.414 452.348 543.51 451.665 539.138C451.122 535.826 451.517 532.933 452.388 529.724C441.82 532.741 433.604 540.693 424.23 546.838C431.82 547.466 439.199 548.904 446.147 552.221C438.491 551.853 425.752 550.383 418.301 548.9Z" fill="#121212"/>
<path d="M474.054 529.063C476.632 528.596 479.118 530.25 479.687 532.808C480.256 535.365 478.705 537.914 476.173 538.586C474.441 539.045 472.598 538.522 471.369 537.219C470.141 535.912 469.724 534.042 470.284 532.34C470.844 530.642 472.291 529.383 474.054 529.063Z" fill="#FAFAFA"/>
<path d="M363.065 774.676C369.812 773.841 386.857 774.432 393.843 775.503C399.049 776.298 405.175 778.069 410.696 778.596L411.225 778.644C405.36 784.162 403.212 787.771 400.009 794.939C398.892 793.173 397.778 790.831 396.812 788.937C393.04 795.786 392.326 798.428 391.525 806.092L385.881 797.341C383.975 799.499 381.813 802.44 380.008 804.761C377.859 807.598 376.376 809.9 374.478 812.913C370.209 806.643 368.035 803.482 362.91 797.996C361.007 800.793 359.26 803.478 357.055 806.052C356.349 799.135 355.589 795.95 352.482 789.541C350.913 791.079 349.876 792.31 348.467 794.008C346.069 787.579 342.598 783.571 338.109 778.656C346.661 777.665 354.538 775.471 363.065 774.676Z" fill="#121212"/>
<path d="M341.454 649.936C352.556 648.749 358.668 661.656 368.761 665.224C381.5 669.744 388.913 656.374 399.268 651.275C403.012 649.433 414.191 648.598 413.248 656.266C413.066 657.752 409.816 659.203 408.306 659.83C404.731 660.725 400.334 660.493 396.854 661.74C387.634 665.041 384.803 674.279 373.951 674.315C364.289 674.351 360.808 666.815 353.096 662.647C348.612 660.226 336.231 660.917 333.787 655.87C333.918 651.97 338.299 650.607 341.454 649.936Z" fill="#121212"/>
<path d="M464.553 505.357C469.883 504.857 479.382 505.966 484.593 507.215C499.65 510.824 509.908 518.834 517.987 531.847C505.101 522.605 499.525 514.624 481.851 510.881C473.577 509.413 464.651 508.891 456.474 511.068C446.063 513.841 433.42 520.942 425.609 528.195C426.297 526.988 427.6 525.234 428.539 524.219C438.477 513.448 449.821 506.419 464.553 505.357Z" fill="#121212"/>
<path d="M271.941 505.752C294.534 503.866 307.314 511.394 321.442 528.229C304.52 515.878 295.858 509.595 274.482 509.578C254.201 510.737 243.386 519.136 228.52 531.985C239.323 515.125 251.899 507.685 271.941 505.752Z" fill="#121212"/>
<path d="M420.43 620.23C427.533 626.388 432.593 636.71 433.143 646.024C433.848 657.948 426.767 668.753 414.25 669.548L407.293 669.368C413.659 666.087 421.899 663.362 425.366 656.589C431.908 643.814 423.565 631.303 420.532 620.598L420.43 620.23Z" fill="#121212"/>
<path d="M328 619.07C328.427 619.722 325.944 624.936 325.547 626.059C317.281 649.431 316.969 659.245 340.712 669.147C338.867 669.315 336.728 669.379 334.854 669.479C330.231 669.678 326.132 668.595 322.707 665.375C308.418 651.929 317.279 631.11 328 619.07Z" fill="#121212"/>
<path d="M341.824 513.738C343.863 515.264 345.677 518.01 346.86 520.244C354.397 534.473 351.843 550.449 347.408 565.034C347.019 566.049 346.254 567.484 345.755 568.499C347.834 556.699 348.356 542.094 346.006 530.326C344.999 525.283 343.103 518.875 341.824 513.738Z" fill="#121212"/>
<path d="M314.432 562.055L315.137 562.151C314.467 563.617 308.195 567.417 306.472 568.592C293.99 577.107 282.341 579.832 267.256 578.23C266.687 578.078 266.086 577.85 265.525 577.655C266.894 576.843 274.63 576.272 276.833 575.761C283.881 574.122 290.562 572.084 297.162 569.04C303.175 566.262 307.749 563.002 314.432 562.055Z" fill="#121212"/>
<path d="M427.555 560.656C430.27 560.64 450.148 568.468 452.754 570.446C457.16 573.791 480.017 577.635 480.025 577.639C479.444 577.803 478.233 578.13 477.672 578.182C458.276 579.877 442.18 571.361 427.555 560.656Z" fill="#121212"/>
<path d="M474.309 556.989C476.733 556.506 478.899 556.322 481.347 556.078L481.597 556.618L483.769 556.977C480.73 557.285 477.383 557.081 474.309 556.989Z" fill="#121212"/>
<path d="M404.624 183.598C405.358 183.71 406.089 183.842 406.816 183.993C410.659 184.806 414.113 187.049 417.438 189.003C450.942 208.692 469.181 251.278 460.877 289.162C459.965 293.321 455.652 307.887 452.446 309.954C451.037 308.221 453.21 301.185 453.625 298.765C456.585 281.515 455.949 258.287 447.211 242.644C448.895 252.864 447.255 264.431 444.863 274.408C444.421 276.251 444.07 277.91 442.468 278.857C440.762 278.02 441.108 274.529 440.813 272.204C439.241 259.795 436.817 250.664 430.637 239.754C434.814 259.049 434.336 278.894 427.648 297.444C426.875 299.589 425.981 303.181 423.967 304.193C423.746 303.995 423.525 303.797 423.303 303.6C422.358 297.524 422.771 288.235 421.697 282.37C419.664 271.578 415.544 261.286 409.568 252.071C397.647 233.351 377.971 217.872 358.259 207.953C351.839 204.722 344.678 202.129 338.541 198.449C338.03 198.143 338.211 198.235 338.066 197.483C339.869 196.488 342.948 197.304 344.982 197.663C378.218 203.53 404.936 221.734 422.458 250.381C418.717 230.81 416.527 219.417 402.771 203.162C400.355 200.308 388.46 189.693 387.723 187.491C390.523 185.777 401.77 193.266 404.533 195.012C416.964 202.87 426.11 213.175 434.798 224.809C430.153 212.03 424.079 202.431 414.346 192.807C411.47 189.963 406.935 186.587 404.624 183.598Z" fill="#FAFAFA"/>
<path d="M308.755 207.073C312.279 206.976 320.043 209.216 323.467 210.542C345.633 219.129 362.439 234.028 372.38 255.734C378.015 268.036 379.887 280.64 380.757 294.025C380.907 296.335 381.147 301.341 380.391 303.305C379.565 303.227 379.063 302.922 378.839 302.03C376.986 294.63 375.259 287.392 372.968 280.103C367.004 261.124 357.477 248.444 343.332 234.931C351.133 248.001 356.311 262.467 358.579 277.518C359.064 280.046 361.894 290.774 359.602 291.909C358.083 290.868 355.64 284.519 354.525 282.327C351.716 276.865 348.533 271.604 344.998 266.582C329.324 244.731 302.747 228.414 276.417 222.347C274.642 221.938 272.258 221.827 271.17 220.22L271.54 219.642C272.597 219.155 273.767 218.926 274.923 218.864C300.552 217.501 318.257 226.539 337.079 242.186C328.377 225.004 322.694 219.987 308.755 207.073Z" fill="#FAFAFA"/>
<path d="M480.203 208.941C483.399 209.971 488.124 215.905 490.372 218.58C503.651 234.386 508.018 250.925 511.711 270.702C512.674 261.233 514.116 253.008 512.482 243.518C512.074 241.152 510.552 235.198 511.411 233.498C513.808 233.895 516.502 238.766 517.796 240.834C534.151 266.971 536.557 298.965 514.372 322.606C512.961 324.11 512.098 325.823 509.92 325.973C509.637 325.416 509.477 324.957 509.853 324.347C514.292 317.144 516.937 311.198 519.207 303.091C521.952 291.426 521.285 285.221 520.561 273.294C516.318 288.661 512.694 301.538 500.582 312.834C498.477 314.8 493.213 320.576 490.379 319.83C490.148 319.08 490.392 318.406 490.794 317.719C501.705 299.046 503.807 285.737 500.85 263.963C500.183 268.599 496.783 283.888 492.613 285.727L491.847 285.354C491.679 284.685 493.15 276.494 493.331 275.032C494.218 267.709 494.372 260.315 493.79 252.962C492.784 241.519 490.225 231.635 485.658 221.075C483.914 217.044 481.394 213.06 480.203 208.941Z" fill="#FAFAFA"/>
<path d="M598.908 564.926C599.527 565.333 599.95 565.849 600.306 566.504C605.437 576.026 593.413 630.443 589.01 641.251C585.522 649.803 578.916 656.404 575.788 665.315C579.06 661.179 582.349 656.903 585.893 653.007C584.323 663.225 583.232 673.634 581.254 683.772C578.501 697.849 573.047 703.388 558.945 703.911L559.665 697.702C561.267 685.678 562.653 670.625 564.959 658.933C565.834 658.35 568.731 656.444 569.267 655.717C572.499 651.349 575.816 643.609 578.301 638.81C583.484 628.812 578.948 614.723 575.009 604.517C577.354 596.793 581.274 588.114 585.737 581.369C588.003 590.252 589.549 598.907 591.751 607.542C591.539 603.838 591.811 599.686 591.851 595.962C591.979 583.667 592.834 575.839 598.908 564.926Z" fill="#FAFAFA"/>
<path d="M149.701 564.566C160.031 571.839 158.066 595.347 159.343 607.115C160.805 598.763 162.884 589.225 164.819 580.934C168.195 586.012 173.475 598.719 175.147 604.605C173.278 613.428 168.084 622.055 169.707 631.63C169.988 633.212 170.424 634.758 171.011 636.253C172.31 639.545 174.634 643.094 175.895 646.215C178.834 653.479 178.537 654.61 184.969 659.209C186.945 667.505 189.004 686.389 190.27 695.492L191.701 703.804C186.568 703.847 181.709 703.596 177.551 700.235C169.417 693.67 169.078 682.082 167.519 672.6C166.395 665.763 165.238 659.125 164.332 652.324C167.726 656.176 171.204 661.035 174.478 665.159C170.466 654.946 166.496 651.421 161.789 642.143C159.456 637.544 157.339 626.751 156.134 621.264C151.99 602.4 146.824 584.002 149.701 564.566Z" fill="#FAFAFA"/>
<path d="M543.862 328.202C559.302 327.481 577.359 348.205 581.187 361.935C581.587 363.366 581.966 364.058 581.279 365.407C578.514 365.413 573.939 358.804 570.798 356.857C567.022 354.517 564.784 353.55 560.785 351.819C572.033 365.109 577.875 382.144 577.147 399.541C574.978 396.64 573.164 392.64 571.182 389.458C565.707 380.671 559.454 374.34 551.131 368.338C555.558 377.304 558.303 383.251 560.137 393.106C560.729 396.399 562.507 409.606 561.004 411.924L560.029 411.748C558.079 409.624 558.455 406.571 557.836 403.913C553.924 387.138 545.089 371.885 533.545 359.202C530.964 356.364 526.376 353.011 524.395 349.97L524.602 349.383C529.649 346.927 549.744 356.863 554.679 359.458C546.987 349.838 542.643 347.205 534.2 338.911C544.945 339.018 549.988 339.862 560.233 343.428C558.283 341.047 556.105 338.862 553.732 336.905C551.318 334.899 544.577 330.631 543.862 328.202Z" fill="#FAFAFA"/>
<path d="M239.984 239.539C247.042 239.053 257.749 242.425 264.269 245.442C287.326 256.114 300.162 279.44 307.911 302.549C308.787 305.162 310.938 309.768 309.791 312.274L309.233 312.35C307.886 311.28 301.505 301.62 299.825 299.406C295.287 293.36 290.104 287.827 284.368 282.903C272.282 271.743 254.072 262.677 237.938 259.348C232.541 258.234 223.097 257.276 218.463 255.868L218.178 255.305C219.482 252.872 226.033 252.741 228.549 252.318C243.28 249.845 255.107 254.018 268.664 259.289C260.299 250.464 251.25 246.854 240.699 241.254C240.018 240.892 240.082 240.214 239.984 239.539Z" fill="#FAFAFA"/>
<path d="M160.247 547.094C168.187 549.16 171.231 551.513 176.349 557.955C177.172 564.899 177.873 571.86 178.451 578.833C178.642 581.059 179.313 585.678 177.886 587.372L177.026 587.296C175.656 586.29 174.742 584.096 173.931 582.517C170.068 575.173 164.468 565.555 158.124 560.192C154.958 559.505 152.019 560.192 150.082 558.214C149.192 553.627 156.806 548.904 160.247 547.094Z" fill="#FAFAFA"/>
<path d="M586.973 547.997C593.247 547.557 603.576 554.394 598.705 559.353C597.303 560.1 595.668 559.533 594.066 559.205C585.715 564.224 582.039 571.652 577.495 580.088C575.781 583.584 574.035 587.22 571.685 590.313C570.854 585.41 572.445 564.076 573.999 558.49C575.154 554.326 582.886 549.847 586.973 547.997Z" fill="#FAFAFA"/>
<path d="M203.416 289.797C206.448 291.536 215.64 301.998 220.085 305.738C228.45 312.802 237.892 318.482 248.052 322.562C251.617 324.014 255.673 325.074 259.246 326.698C260.51 327.272 260.353 327.483 260.769 328.66C259.201 329.082 257.318 329.038 255.701 329.055C237.934 329.237 220.625 320.71 210.63 305.888C207.837 301.747 204.274 294.818 203.416 289.797Z" fill="#FAFAFA"/>
<path d="M234.011 267.583C234.704 267.486 235.402 267.426 236.102 267.403C251.096 266.772 262.439 275.599 272.597 285.582C274.153 287.111 276.765 289.332 276.856 291.497L276.193 291.996C275.041 291.877 270.095 288.6 268.769 287.774C259.538 281.299 244.35 275.651 233.234 273.83C230.699 273.415 222.879 272.562 221.201 271.654L221.214 270.903C223.265 268.81 230.877 267.998 234.011 267.583Z" fill="#FAFAFA"/>
<path d="M210.106 322.736C215.143 322.343 220.15 323.042 224.933 324.65C228.446 325.832 238.943 330.118 240.447 333.086L240.048 333.703C237.089 334.509 225.047 331.427 221.169 330.682C214.387 329.471 206.004 329.162 199.136 329.973C196.588 330.274 190.833 331.884 188.923 331.634L188.508 330.936C189.828 326.327 205.279 323.216 210.106 322.736Z" fill="#FAFAFA"/>
<path d="M569.15 617.023C570.532 617.919 572.202 621.083 572.638 622.674C574.424 629.235 572.978 635.337 569.969 641.139C568.782 642.07 568.958 642.254 567.743 642.317C566.229 639.265 568.374 620.84 569.15 617.023Z" fill="#FAFAFA"/>
<path d="M179.924 617.324C182.004 620.761 184.594 639.865 182.476 642.458L181.215 642.259C175.311 634.551 176.689 625.752 179.924 617.324Z" fill="#FAFAFA"/>
<path d="M441.652 173.598C447.247 177.216 455.167 192.229 457.958 198.33C449.652 192.224 443.743 186.007 434.438 179.527C439.642 180.312 439.735 181.144 444.103 178.515C443.239 177.034 442.003 175.206 441.652 173.598Z" fill="#121212"/>
<path d="M168.259 275.178L168.661 275.16C170.979 275.046 172.824 274.172 174.561 274.525C176.103 276.045 175.062 277.912 174.486 279.869C171.278 283.69 168.206 287.623 165.277 291.661C161.625 286.143 166.433 280.421 162.26 277.855C162.999 277.663 166.868 275.73 168.259 275.178Z" fill="#121212"/>
<path d="M324.251 166.469C327.856 167.533 331.44 168.667 335.001 169.871L335.053 170.155C335.425 172.096 336.056 172.033 335.805 174.129C334.594 175.791 331.269 175.298 329.196 175.301C327.194 175.225 325.129 175.204 323.121 175.157L324.116 174.437C325.243 171.635 324.667 169.403 324.251 166.469Z" fill="#121212"/>
<path d="M429.172 176.247C430.413 176.156 430.522 176.046 431.667 175.479C433.601 171.628 433.646 174.167 434.485 174.045C437.112 173.664 438.869 172.615 441.711 173.104L441.651 173.596C442.002 175.204 443.238 177.032 444.102 178.514C439.734 181.143 439.641 180.31 434.437 179.526C432.594 178.452 430.959 177.413 429.172 176.247Z" fill="#121212"/>
<path d="M229.825 205.38C231.504 204.646 233.238 204.659 235.075 204.531C234.976 206.07 235.766 208.852 235.334 209.816L234.908 210.119C233.022 211.474 232.663 211.762 232.495 214.154L230.891 214.885C229.206 212.207 228.704 208.368 229.825 205.38Z" fill="#121212"/>
<path d="M168.26 275.178C172.525 272.659 180.233 270.01 185.076 268.906C181.429 272.445 177.898 276.102 174.487 279.869C175.063 277.912 176.104 276.045 174.562 274.525C172.825 274.172 170.98 275.047 168.662 275.16L168.26 275.178Z" fill="#121212"/>
<path d="M235.076 204.531L240.74 204.696L240.597 205.011C240.767 205.794 239.861 209.576 239.792 211.02C237.343 212.023 234.91 213.068 232.496 214.154C232.664 211.762 233.023 211.474 234.909 210.119L235.335 209.816C235.767 208.852 234.977 206.07 235.076 204.531Z" fill="#121212"/>
<path d="M148.91 349.948C152.227 346.195 154.701 344.25 158.776 341.434C157.729 344.57 156.001 349.412 155.317 352.592C151.243 349.029 151.507 352.302 148.91 349.948Z" fill="#121212"/>
<path d="M240.595 205.012C242.774 205.144 247.554 205.888 244.982 209.087C243.107 209.716 241.613 210.258 239.791 211.021C239.859 209.577 240.765 205.795 240.595 205.012Z" fill="#121212"/>
</g>
<path d="M1079.13 126.196C1091.71 107.748 1113.49 97.8131 1135.67 100.407C1143.69 101.346 1155.3 103.138 1166.75 107.994C1179.49 113.402 1196.91 124.854 1205.68 147.168C1212.01 163.275 1210.92 178.123 1209.15 187.653C1259.58 183.739 1308.9 178.391 1361.19 173.499L1365.48 173.102C1387.22 171.114 1412.8 169.195 1437.78 170.003C1467.35 170.96 1491.8 193.319 1495.4 222.678C1495.81 226.07 1495.93 229.438 1495.78 232.756C1501.7 236.926 1506.98 241.486 1511.53 246.083C1519.75 254.404 1528.88 266.234 1534.79 281.062C1534.88 280.862 1534.96 280.662 1535.04 280.463C1538.82 271.201 1543.32 260.809 1548.1 251.62C1550.48 247.048 1553.46 241.743 1556.99 236.605C1559.84 232.457 1566.1 223.818 1576.04 216.673L1576.75 216.165C1591.56 205.846 1610.22 202.746 1627.56 207.708C1633.82 208.727 1639.93 210.741 1645.67 213.734C1651.84 216.955 1662.89 223.667 1672.02 229.573C1672.37 229.797 1672.71 230.023 1673.06 230.25C1673.57 226.425 1674.46 222.623 1675.72 218.9C1681.92 200.627 1696.53 186.459 1714.97 180.813C1715.32 180.548 1715.72 180.252 1716.18 179.905L1716.98 179.31C1733.83 166.978 1755.91 164.28 1775.26 172.249C1775.96 172.539 1778.01 173.246 1782.46 174.506C1785.08 175.247 1785.97 175.479 1789.01 176.331C1791.18 176.942 1794.21 177.806 1797.19 178.793C1816.24 185.099 1831.75 197.901 1841.22 206.52C1850.17 214.662 1858.85 223.913 1866.74 233.095C1871.7 227.607 1876.17 222.628 1879.79 218.45C1892.86 203.367 1913.18 181.231 1929.85 166.077L1930.6 165.41C1946.36 151.551 1968.25 146.923 1988.31 153.271C1990.52 153.97 1992.72 154.715 1994.89 155.507C1994.97 155.535 1995.05 155.563 1995.12 155.591C2007.03 159.978 2019.58 166.872 2030.43 178.697C2030.99 179.308 2031.53 179.924 2032.07 180.539C2046.69 185.243 2059.22 195.474 2066.68 209.488C2077.35 229.563 2075.76 253.949 2062.57 272.469C2051.48 288.038 2041.21 299.069 2032.2 308.281C2022.97 317.717 2017.22 323.206 2010.12 331.587C1996.86 347.244 1981.28 366.969 1964.89 386.64C1973.36 400.819 1977.83 409.625 1982.77 417.565C1983.17 417.929 1983.58 418.305 1983.98 418.692C1986.83 421.397 1989.18 424.107 1991.13 426.634L1991.94 427.705L1992.43 428.385C1992.6 428.613 1992.76 428.842 1992.92 429.072C2002.96 443.458 2008.71 452.446 2016.29 462.079L2018.31 464.617C2018.47 464.819 2018.63 465.022 2018.78 465.226C2019.45 466.097 2019.83 466.568 2021.13 468.238C2022.18 469.578 2023.7 471.544 2025.31 473.793C2028.52 478.303 2033.03 485.235 2036.58 494.278C2040.99 505.516 2041.9 517.824 2039.21 529.592C2038.73 531.689 2038.12 533.829 2037.39 535.996C2036.34 545.192 2033.39 556.124 2026.27 566.733C2020.11 575.901 2012.75 581.76 2011 583.197C2007.43 586.133 2007.95 585.59 2005.94 587.321C1993.62 597.927 1977.56 603.046 1961.46 601.606C1963.18 614.616 1960.54 625.043 1959.49 628.862C1957.18 637.262 1953.71 643.849 1952.54 646.057C1952.53 646.071 1952.53 646.086 1952.52 646.1C1933.08 682.795 1919.15 706.698 1910.12 736.599C1901.7 764.474 1874.48 782.28 1845.57 778.825C1843.13 778.534 1833.48 777.573 1828.32 776.792C1822.72 775.947 1808.55 773.713 1794.76 764.923C1787.29 760.167 1781.13 754.337 1776.24 747.805C1766.76 751.941 1756.72 755.531 1746.45 758.156C1725.4 763.535 1687.59 768.178 1655.37 747.903C1643.81 752.123 1629.74 754.699 1613.92 752.46C1603.95 751.049 1594.96 747.976 1586.92 743.761C1579.87 751.868 1570.77 757.945 1560.56 761.339C1540.4 768.04 1521.54 766.114 1506.02 760.251C1498.94 784.032 1489.66 813.554 1476.57 841.9C1463.02 871.209 1443.48 903.612 1413.76 928.156L1413.75 928.162C1380.02 956.008 1340.71 960.948 1307.56 957.273C1300.13 956.45 1268.93 953.035 1248.67 925.437C1234.56 906.224 1232.68 885.069 1234.81 869.093C1236.8 854.128 1242.46 841.335 1247.45 832.099C1257.44 813.569 1272.22 795.872 1285.16 781.814C1285.46 781.486 1285.76 781.159 1286.07 780.83C1281.9 780.901 1277.68 780.697 1273.45 780.191C1266.93 779.41 1260.19 777.847 1253.56 775.404C1251.45 778.654 1249.23 781.776 1246.91 784.754C1221.52 817.273 1176.94 842.015 1125.95 832.463C1125.94 832.462 1125.93 832.46 1125.93 832.459C1110.57 829.578 1097.15 822.301 1088.24 816.266C1081.82 811.916 1071.04 803.736 1062.47 791.396C1055.91 792.486 1049.11 793.151 1042.07 793.305L1042.07 793.306C1029.98 793.57 1017.39 792.104 1005.32 788.209C995.631 797.985 982.034 808.865 964.456 815.112C951.04 819.879 935.185 821.965 918.232 818.527C901.447 815.122 887.243 807.051 875.75 797.091L875.74 797.081C873.017 794.721 870.519 792.262 868.225 789.735C866.254 789.978 864.275 790.124 862.294 790.171C861.831 790.382 861.365 790.593 860.895 790.798C860.847 790.819 860.8 790.839 860.752 790.86C856.487 792.711 852.773 793.727 851.798 793.996C850.161 794.449 848.665 794.807 847.579 795.056C845.38 795.56 843.12 796.015 841.354 796.36C839.506 796.72 837.684 797.059 836.295 797.316C835.556 797.452 834.994 797.557 834.488 797.652C834.246 797.697 834.057 797.732 833.91 797.76C833.758 797.789 833.696 797.801 833.699 797.8C822.387 800.036 810.671 798.966 799.951 794.717C783.739 788.29 756.162 772.173 747.724 736.702L747.449 735.511C741.868 710.503 748.238 687.062 752.575 674.121C757.641 659.002 764.483 645.453 769.249 636.678C775.171 625.77 782.768 614.305 791.719 603.405C783.351 604.815 774.479 604.906 765.241 603.296C739.87 598.873 722.632 583.431 712.735 570.916C702.478 557.947 695.744 542.914 692.189 528.441C688.754 514.458 687.097 496.05 692.605 477.142C701.099 447.885 716.184 390.06 742.692 343.643C756.189 320.007 775.372 294.194 802.929 276.431C829.413 259.36 860.882 251.596 895.138 256.804C899.996 249.998 906.285 244.195 913.694 239.864C927.286 231.92 943.973 227.206 955.525 224.287C968.865 220.917 983.779 217.981 997.891 215.467C1011.59 213.026 1025.42 210.829 1037.38 208.945C1039.86 202.843 1042.37 196.433 1045.51 188.837C1053.08 170.547 1062.36 150.78 1079.13 126.196Z" fill="#2A2A2A"/>
<path d="M974.527 514.071C987.542 513.524 990.15 524.011 990.484 534.896C991.166 563.844 974.693 590.666 961.822 615.747C941.346 655.646 930.863 702.581 933.875 747.631C945.708 743.285 953.169 735.703 961.768 727.212C990.931 698.398 1005.4 661.83 1025.53 627.225C1035.15 611.382 1046.44 600.105 1060.15 588.35C1083.31 568.477 1107.85 596.094 1103.26 618.963C1098.77 641.344 1063.09 662.663 1044.44 675.845C1040.04 685.159 1036.79 700.82 1037.89 711.14C1039.92 730.237 1060.51 718.97 1070.37 714.624C1107.14 698.398 1134.96 667.526 1158.26 635.639C1153.98 623.443 1152.53 613.344 1159.87 601.828C1171.56 583.324 1194.43 570.832 1214.75 585.066C1230.76 596.267 1225.36 611.65 1215.79 624.649C1215.96 615.977 1217.54 609.84 1215.11 601.053C1210.08 582.884 1194.94 584.856 1188.1 600.861C1176.85 627.206 1196.26 650.094 1205.61 673.815C1223.85 666.607 1256.93 655.311 1272.84 647.136C1283.94 626.688 1295.31 606.375 1306.92 586.205C1319.63 588.359 1322.43 588.761 1330.83 598.43C1327.13 610.721 1317.52 635.343 1312.43 647.031C1303.48 667.613 1292.48 684.815 1285.84 707.119C1289.85 706.564 1294.47 705.884 1298.13 704.42C1313.38 698.313 1342.98 669.431 1352.7 655.828C1372.18 628.555 1388.71 600.392 1421.19 584.989C1437.33 577.331 1450.35 581.668 1465.96 587.708C1468.43 585.43 1472.08 583.687 1475.09 582.031C1480.07 582.902 1487.52 583.765 1488.45 589.097C1489.89 597.339 1485.24 610.204 1482.95 617.729C1477.98 634.031 1473.3 649.673 1471.79 666.607C1484.09 657.743 1529.05 625.98 1534.58 615.096C1540.74 602.986 1542.31 588.857 1548.97 576.834C1549.15 576.518 1549.33 576.202 1549.51 575.886C1555.91 577.197 1560.4 577.657 1564.26 583.267C1571.59 593.931 1567.04 619.442 1564.86 631.58C1568.75 625.147 1573.09 619.001 1577.87 613.19C1589.15 599.683 1626.87 562.035 1645.13 581.477C1661.24 598.621 1641.04 633.045 1636.28 652.354C1633.31 664.473 1632.01 668.484 1632.02 681.33C1645.77 676.898 1669.65 653.396 1677.09 640.646C1691.38 616.168 1699.88 587.497 1726.02 571.712C1748.44 558.157 1776.7 578.413 1767.19 603.742C1759.85 622.715 1732.06 633.61 1714.24 641.038C1699.73 669.996 1704.05 696.196 1742.8 684.316C1786.43 670.943 1808.67 642.273 1828.85 603.943C1821.23 601.129 1812.63 597.271 1808.12 590.398C1794.16 569.128 1828.66 540.878 1843.85 564.073C1848.76 571.588 1845.53 583.85 1843.27 592.073C1858.39 592.217 1892.75 593.49 1901.43 607.964C1903.07 610.683 1901 615.173 1899.5 618.016C1881.54 651.922 1863.85 682.297 1852.68 719.248C1828.89 716.405 1817.87 718.176 1823.01 691.554C1829.53 657.752 1850.87 633.858 1863.08 604.336L1863.64 602.958C1857.97 601.828 1848.31 602.269 1842.45 602.422C1831.43 623.444 1804.19 658.47 1785.11 673.547C1761.38 692.31 1701.93 720.607 1677.68 687.897C1669.94 677.472 1671.14 666.952 1673.27 654.957C1661.06 673.011 1628.32 715.945 1601.54 678.248C1593.18 666.464 1643.09 600.325 1630.32 592.303C1612.75 594.677 1579.76 641.708 1569.78 657.742C1558.31 676.151 1556.58 686.231 1541.64 704.4C1528.53 708.756 1518.75 700.084 1510.36 691.19C1512.83 672.342 1521.14 651.434 1529.03 634.193C1507.15 647.844 1486.41 661.696 1471.2 683.024C1458.96 700.188 1455.27 720.329 1449.41 740.126C1435.11 788.373 1415.5 848.911 1375.56 881.89C1357.99 896.392 1336.6 900.126 1314.17 897.637C1308.02 896.957 1300.9 895.195 1297.04 889.931C1276.05 861.346 1372.26 781.27 1392.47 761.799C1404.67 750.044 1416.4 737.944 1426.56 724.351C1440.45 705.779 1447.18 689.993 1451.44 667.268C1448.91 664.673 1444.22 657.034 1442.98 656.488C1437.67 659.322 1433.16 670.609 1428.24 676.353C1415.12 691.679 1385.01 726.379 1362.42 708.306C1351.16 699.298 1352.35 683.809 1352 670.359C1347.7 673.183 1341.51 681.311 1337.83 685.351C1327.62 696.637 1317.47 707.138 1304.42 715.141C1290.51 723.67 1269.15 723.842 1261.26 707.243C1254.25 692.492 1264.09 670.092 1269.58 655.656C1249.23 661.448 1229.71 673.461 1208.34 681.282C1230.82 726.571 1186.36 782.735 1136.99 773.487C1128.27 771.85 1114.31 762.909 1110.44 754.974C1094.65 722.637 1155.67 692.712 1177.08 681.301C1172.84 666.473 1168.99 654.718 1163.92 640.129C1160.38 644.236 1156.9 648.783 1153.51 653.109C1125.89 688.309 1089.52 732.257 1040.76 733.319C1009.25 734.008 1001.04 714.279 1002.21 687.322C990.497 704.802 982.746 722.311 968.779 739.227C954.708 756.266 935.656 769.61 915.044 751.747C899.532 738.297 900.366 707.761 899.653 688.165C885.166 703.548 879.343 717.094 860.851 730.189C864.514 723.374 871.109 714.777 875.402 707.875C880.851 699.126 883.941 692.818 888.236 683.57C870.635 700.036 858.724 726.265 836.866 735.818C834.946 736.651 825.064 738.346 822.062 738.939C814.479 735.934 808.052 731.051 806.093 722.809C801.994 705.587 813.89 680.2 821.975 665.314C833.501 644.082 854.744 618.81 877.999 610.252C889.44 606.653 904.898 613.411 915.1 619.164C921.24 604.125 931.148 586.301 938.698 571.77C945.775 558.157 961.633 521.302 974.527 514.071ZM1432.64 731.158C1419.77 744.589 1405.67 759.532 1393.09 773.135C1378.04 789.409 1299.75 861.176 1317.74 884.246C1378.94 889.626 1420.35 780.822 1433.75 732.92C1433.38 732.336 1433.01 731.742 1432.64 731.158ZM1175.43 696.034C1155.35 704.602 1137.34 716.261 1128.58 737.092C1124.76 746.176 1127.14 753.806 1134.58 759.741C1152.51 768.624 1167.12 756.821 1172.33 739.686C1175.35 729.758 1179.15 706.689 1177.95 696.532C1176.79 696.197 1176.57 695.996 1175.43 696.034ZM900.36 631.705C880.047 642.484 870.056 661.18 858.461 680.307C853.437 688.597 846.452 699.27 844.11 708.671L845.04 709.79L847.159 708.671C859.774 699.127 912.4 647.692 905.564 633.036C903.238 631.591 903.168 631.83 900.36 631.705ZM1457.35 608.004C1461.51 595.55 1452.13 594.957 1442.88 595.56C1432.84 601.351 1424.08 611.344 1417.26 620.62C1401.17 642.523 1378.8 666.675 1378.49 695.308C1384.62 693.642 1386.45 693.172 1392.2 690.291C1407.62 681.551 1415.38 676.469 1426.34 662.215C1439.15 645.549 1450.63 628.126 1457.35 608.004ZM1081.63 596.211C1069.06 605.449 1045.93 640.102 1048.81 655.026L1050.35 655.926C1052.84 654.921 1053.36 654.701 1055.63 653.294C1068.64 645.291 1085.78 626.509 1090.3 611.547C1092.12 605.535 1087.92 597.101 1081.63 596.211ZM1748.58 578.793C1738.97 586.633 1721.85 612.078 1720.45 623.508L1721.11 625.346C1724.04 625.7 1724.53 624.79 1727.71 623.287C1738.94 617.534 1752.76 610.9 1756.93 598.044C1759.22 590.941 1758.09 579.416 1748.58 578.793ZM980.63 535.807C976.95 541.234 973.814 547.007 971.272 553.048C968.848 558.716 953.165 603.448 956.89 607.23C964.503 591.195 984.936 554.005 981.965 537.339L980.63 535.807ZM1827.01 563.5C1816.58 571.11 1819.07 576.452 1827.89 583.612L1830.13 583.632C1833.48 579.362 1834.55 568.507 1830.43 564.237L1827.01 563.5Z" fill="#F4F4F4"/>
<path d="M1395.63 850.219C1395.61 850.429 1395.58 850.649 1395.55 850.87C1386.76 867.928 1369.06 884.499 1352.64 892.301L1352.39 891.429C1353.73 888.146 1357.85 886.404 1361.02 884.413C1375.2 875.51 1384.19 862.041 1395.63 850.219Z" fill="#F4F4F4"/>
<path d="M1128.7 160C1154.22 162.986 1154.3 170.32 1144.44 192.939C1135.02 214.536 1124.3 236.134 1113.02 256.823C1144.76 255.744 1174.76 250.393 1206 248.066C1259.81 244.058 1313.09 238.26 1366.78 233.237C1389.27 231.132 1413.31 229.241 1435.84 229.971C1435.5 230.068 1435.15 230.165 1434.8 230.263L1433.06 230.712C1420.5 234.025 1382.18 238.238 1366.13 240.809L1252.24 258.423C1239.05 260.418 1225.95 262.826 1212.73 264.766C1178.01 269.859 1134.27 271.322 1101.95 285.005C1092.06 301.147 1087.17 313.632 1079.38 330.098C1058.56 374.102 1044.23 418.914 1034.56 466.569C1031.32 482.496 1025.76 514.641 1035.94 528.45C1038.93 532.509 1040.47 534.969 1040.88 540.081C1039.5 543.786 1040.62 542.312 1037.34 544.619C1026.46 546.524 1014.63 536.75 1011.36 527.369C993.343 475.603 1030.61 394.084 1047.28 345.416C1026.08 379.035 1000.37 410.583 976.536 442.368C961.833 461.974 949.1 482.823 933.978 502.094C924.893 513.672 905.418 533.706 889.991 521.003C883.245 515.37 882.066 506.063 881.562 497.75C881.802 466.652 888.998 441.567 891.767 410.064C854.719 449.272 833.299 499.992 794.999 537.19C767.787 561.907 743.261 517.598 750.224 493.87C768.912 429.506 802.597 295.729 893.603 317.592C974.607 339.113 953.41 346.991 929.487 410.993C923.279 427.603 910.705 479.858 906.746 499.593C926.324 490.067 941.106 471.276 955.05 454.833C998.758 403.291 1042.72 347.449 1071.05 285.858C1048.1 290.597 1025.91 297.059 1002.56 300.543C979.623 303.965 962.802 310.401 943.97 291.664C966.36 278.577 1048.48 268.652 1078.81 262.934C1098.91 223.348 1101.12 200.429 1128.7 160ZM911.457 349.778C904.637 338.998 896.209 328.569 882.128 330.452C830.663 350.472 800.715 452.511 790.037 501.751C796.276 495.4 802.358 488.897 808.275 482.246C831.912 455.383 877.989 394.803 889.878 362.325L898.324 366.969C902.178 362.07 908.239 354.797 911.457 349.778Z" fill="#F4F4F4"/>
<path d="M856.652 442.172C856.655 447.941 837.816 473.026 832.925 479.87L832.547 478.555C833.603 472.922 852.228 447.472 856.652 442.172Z" fill="#F4F4F4"/>
<path d="M1726.3 424.098L1729.06 425.075C1718.6 437.678 1686.28 487.155 1676.81 492.041C1681.16 484.45 1689.63 475.695 1694.91 468.199C1705.27 453.468 1714.61 437.775 1726.3 424.098Z" fill="#F4F4F4"/>
<path d="M1611.06 265.391C1612.26 268.682 1609.25 274.66 1609.52 280.302C1613.88 278.299 1616.17 271.329 1617.91 266.925C1625.14 270.696 1654.49 288.819 1658.75 294.186C1667.89 305.725 1650.27 344.826 1649.35 358.855C1648.27 375.291 1640.9 391.711 1637.57 407.02C1631.9 433.017 1623.88 474.074 1636.42 498.242C1679.9 477.373 1721.95 423.828 1750.15 385.909C1753.66 381.2 1768.66 362.911 1773.61 362.333C1773.27 371.628 1734.43 413.138 1727.25 422.81L1726.31 424.098L1729.06 425.075C1733.63 419.465 1740.43 412.404 1745.94 407.855C1739.21 421.455 1729.06 436.267 1719.64 448.307C1702.36 470.389 1686.55 493.277 1665.52 512.042C1648.35 527.355 1635.79 527.374 1614.49 525.785C1589.1 523.89 1580.12 509.853 1575.27 486.818C1567.61 457.997 1573.99 441.962 1577.7 414.066C1573.41 423.741 1571.29 434.087 1567.62 443.975C1560.3 463.628 1544.88 484.438 1529.51 498.572C1509.07 517.354 1477.86 526.005 1450.42 524.617C1436.07 523.89 1422.31 519.109 1412.65 507.962C1394.18 486.643 1394.85 451.759 1397 425.481C1400.51 382.721 1411.05 340.197 1424.63 299.626C1426.69 293.475 1429.77 280.07 1435.41 276.368C1438.73 274.188 1443.73 274.254 1447.42 275.181C1462.12 278.863 1478.71 294.779 1480.87 309.916C1482.99 324.895 1474.48 352.096 1471.21 367.697C1467.48 385.566 1454.65 454.96 1462.95 467.962C1464.6 470.547 1467.02 472.326 1470.09 472.774C1479.68 474.167 1492.95 463.221 1499.84 457.277C1521.76 438.377 1540.33 414.455 1554.11 389.059C1561.42 375.613 1567.66 361.296 1573.53 347.173C1580.45 330.574 1599.58 273.641 1611.06 265.391ZM1565.5 382.762C1557.45 397.868 1552.51 413.277 1545.6 428.802C1539.32 442.906 1529.01 457.807 1522.34 471.154L1522.89 472.341L1523.21 472.454C1536.38 454.356 1563.48 404.533 1566.47 383.633L1565.5 382.762ZM1549.41 403.709C1546.21 409.652 1529.38 436.963 1528.23 441.384L1529 442.37C1534.91 434.028 1548.97 414.958 1550.68 405.524L1549.41 403.709Z" fill="#F4F4F4"/>
<path d="M1970.21 210.473C1971.61 210.915 1973 211.387 1974.38 211.889C1985.29 215.91 1988.74 221.132 1993.25 231.004C1988.88 241.288 1976.81 252.612 1975.55 256.988L1976.89 257.234C1977.91 256.148 1978.92 255.066 1979.94 253.99C1992.31 240.983 1996.43 238.1 2013.7 237.657C1996.62 261.633 1982.16 271.773 1964.34 292.798C1939.9 321.66 1917.24 351.795 1891.29 379.822C1897.51 392.219 1905.52 404.319 1912.72 416.299C1920.9 429.914 1929.59 446.895 1938.82 459.73C1941.12 461.109 1942.21 461.375 1943.72 463.417C1952.9 476.566 1961.01 489.121 1971.11 501.656C1974.72 506.378 1978.58 510.722 1980.72 516.188C1979.93 519.655 1976.89 518.516 1977.33 521.808C1979 534.338 1976.84 533.208 1966.8 541.843C1963.05 541.297 1958.09 540.666 1954.54 539.546C1944.66 536.416 1943.62 530.069 1934.13 533.477C1925.32 531.887 1861.27 443.629 1854.73 431.148C1848.13 439.1 1839.15 449.278 1833.07 457.415C1825.27 467.851 1796.37 514.88 1786.56 519.449C1784.23 518.452 1782.07 516.974 1779.66 516.965C1781.63 522.841 1781.39 522.162 1776.94 527.158C1772.43 533.084 1769.37 536.999 1764.27 542.389C1764.01 542.36 1763.75 542.331 1763.48 542.303L1762.15 542.13C1753.06 541.039 1738.51 535.755 1728.88 532.893C1735.9 515.487 1764.21 474.753 1776.21 457.598C1789.32 438.874 1811.91 403.723 1825.82 387.436C1804.33 358.09 1785.59 327.979 1766.24 297.221C1762.15 290.726 1757.01 283.442 1753.55 276.72L1754.11 275.499L1757.77 274.313L1758.29 273.246L1756.71 272.014C1754.35 273.339 1755.28 273.054 1752.58 273.407C1748.1 267.949 1738.93 247.063 1732.54 238.18C1742.27 235.251 1744.65 233.609 1752.41 227.728C1760.68 231.133 1772.05 233.668 1778.33 235.748C1804.48 244.402 1850.71 307.038 1861.81 329.986C1879.72 306.955 1905.83 280.013 1925.12 257.758C1937.64 243.319 1956.15 223.256 1970.21 210.473ZM1810.01 453.684C1799.73 464.259 1784.51 486.667 1776.55 499.457L1776.78 501.126C1784.03 493.962 1803.18 465.532 1810.12 455.754L1810.01 453.684ZM1957.83 271.531C1942.67 288.203 1928.22 305.506 1914.52 323.393C1906.53 334.011 1897.75 347.287 1889.26 357.165L1889.38 358.733L1890.59 359.072C1900.35 347.866 1909.12 334.738 1918.1 322.759C1930.97 305.559 1944.69 289.013 1959.21 273.186L1958.79 271.858L1957.83 271.531Z" fill="#5B3DF6"/>
<path d="M1148.52 362.91C1157.34 362.718 1172.83 369.892 1170.95 378.522C1162.2 418.56 1137.73 442.216 1140.45 486.281C1177.55 456.227 1212.48 418.04 1238.94 378.385C1251.08 360.176 1263.32 356.494 1276.73 377.595C1275.09 393.139 1270.61 401.547 1264.93 416.097C1255.05 441.378 1247.46 462.107 1247.56 489.545C1278.41 472.96 1307.21 427.587 1319.32 395.606C1320.59 392.258 1322.87 386.108 1325.77 384.318L1330.91 385.633C1334.13 387.011 1345.58 393.181 1344.19 397.579C1334.78 427.118 1322.45 455.145 1315.49 485.585C1313.8 492.941 1311.37 501.752 1301.94 497.999C1297.06 496.02 1293.17 492.171 1291.15 487.312C1286.68 476.266 1289.92 466.228 1294.11 455.995C1279.53 470.364 1255.3 503.048 1234.33 504.624C1211.37 506.348 1216.56 470.106 1217.17 456.189C1204.74 471.091 1191.78 494.021 1176.2 503.208C1120.14 536.262 1076.49 499.563 1106.8 438.557C1118.02 415.985 1126.78 389.672 1139.5 367.765C1140.41 366.198 1146.67 363.698 1148.52 362.91ZM1211.72 428.742C1204.4 437.489 1160.54 490.313 1162.93 498.941C1177.73 490.925 1204.11 449.043 1211.51 432.111C1211.98 431.022 1211.91 429.884 1211.72 428.742ZM1203.62 455.412C1201.16 459.545 1194.79 469.488 1194.14 473.929C1198.7 468.626 1201.73 464.696 1204.1 458.1C1203.99 457.344 1203.86 456.078 1203.62 455.412Z" fill="#F4F4F4"/>
<path d="M1336.71 521.273C1351.96 522.374 1355.1 529.209 1347.7 543.281C1343.34 551.59 1335.4 556.664 1326.4 559.182C1306.6 559.182 1310.24 538.418 1320.37 528.405C1327.23 521.647 1327.37 521.551 1336.71 521.273Z" fill="#F4F4F4"/>
<path d="M1344.03 294.969C1357.03 295.483 1359.8 298.733 1364.63 310.342C1360.56 316.854 1357.07 321.481 1351.81 327C1333.4 338.354 1325.93 307.953 1344.03 294.969Z" fill="#F4F4F4"/>
<defs>
<clipPath id="clip0_409_15738">
<rect width="549.026" height="818.36" fill="white" transform="translate(100 119.988)"/>
</clipPath>
</defs>
</svg>
