<svg width="2174" height="1059" viewBox="0 0 2174 1059" fill="none" xmlns="http://www.w3.org/2000/svg">
<g opacity="0.9" clip-path="url(#clip0_409_15740)">
<path d="M355.788 113.93C357.303 113.934 358.845 113.96 359.83 113.974C361.033 113.992 361.496 113.992 361.673 113.989L363.561 113.968C386.842 113.835 410.674 118.355 432.824 127.9C439.102 126.454 445.78 126.512 452.31 128.293C483.886 136.903 517.015 154.063 543.478 178.747C570.075 203.555 591.866 237.944 595.036 280.349C595.103 281.243 595.156 282.139 595.199 283.032C609.791 292.691 622.052 304.757 631.178 320.256C644.656 343.147 648.49 368.879 649.007 394.591C649.191 403.737 646.267 412.311 641.144 419.217C640.226 451.275 635.21 482.653 631.308 508.738C642.308 517.798 648.274 529.347 651.514 538.771C658.51 559.123 657.018 581.682 655.313 594.757C652.665 615.062 647.668 634.499 643.446 651.192C639.028 668.661 635.358 683.486 633.512 698.326L633.513 698.327C631.063 718.022 619.992 734.627 606.209 745.222C601.754 748.647 596.612 751.73 590.943 754.146C583.88 776.206 573.991 796.797 556.247 818.758L556.245 818.759C545.098 832.554 532.902 847.758 517.519 862.321L517.518 862.322C476.648 901.013 423.946 943.325 347.132 929.671C310.193 924.01 276.914 901.965 251.16 879.671C224.433 856.534 201.282 829.15 184.705 806.433L184.703 806.431C174.264 792.124 165.301 772.805 159.127 754.309C146.294 749.049 136.202 740.078 128.739 728.545C119.801 714.73 116.725 699.444 115.119 690.039C112.903 677.069 112.976 673.802 111.489 667.712C106.19 646.005 95.8443 614.5 94.2293 582.179L94.1599 580.64C93.6619 568.573 93.8209 547.533 103.058 529.096C106.626 521.975 111.927 514.501 119.524 508.324C119.372 507.413 119.226 506.52 119.089 505.651C119.075 505.566 119.061 505.481 119.049 505.396C115.25 480.342 112.336 455.151 110.309 429.875L109.785 423.902C108.418 408.271 107.155 392.227 108.167 375.071C103.866 368.748 101.367 361.184 101.247 353.18C101.219 351.332 101.242 349.484 101.316 347.639L101.319 347.557C101.697 338.545 103.572 328.639 104.888 322.623C108.255 307.241 113.251 293.782 119.637 281.644C117.801 272.11 119.442 261.977 124.754 253.258C139.194 229.555 154.343 210.611 174.228 195.485C178.66 192.114 183.203 189.027 187.867 186.175C191.16 177.473 197.474 169.92 206.161 165.194C207.39 164.525 208.659 163.672 212.499 161.072C215.803 158.835 220.877 155.414 227.027 152.244C247.131 141.728 268.651 134.806 290.69 131.621C295.618 126.557 301.915 122.766 309.103 120.862C322.789 117.237 331.89 115.944 343.928 114.631C346.475 114.261 348.705 114.113 350.21 114.041C352.291 113.94 354.259 113.926 355.788 113.93Z" fill="#2A2A2A"/>
<path d="M338.529 162.823C357.459 159.723 377.786 160.395 396.498 164.535C397.138 164.677 398.598 164.987 400.019 165.329C400.728 165.5 401.422 165.677 401.994 165.843C402.585 166.014 402.993 166.16 403.168 166.258L403.219 166.286L403.275 166.302C413.329 169.177 420.791 172.911 430.192 177.391L430.319 177.451L430.459 177.437C430.645 177.417 430.914 177.338 431.199 177.242C431.502 177.141 431.877 177.002 432.303 176.84C433.154 176.514 434.226 176.082 435.352 175.632C437.572 174.743 439.982 173.793 441.426 173.396C443.626 173.682 446.758 174.575 450.367 175.847C454.021 177.134 458.133 178.799 462.207 180.58C470.361 184.145 478.325 188.162 482.132 190.543L482.14 190.547C506.785 205.411 528.57 225.83 541.779 251.579C545.049 257.951 547.706 263.879 549.419 270.824C552.695 284.1 552.562 296.54 550.067 310.034L549.999 310.404L550.336 310.572L550.771 310.79H550.772C552.386 311.592 554.02 312.125 555.58 312.671C557.152 313.221 558.66 313.788 560.098 314.661C576.841 324.83 591.523 337.408 598.657 356.102L598.659 356.104C598.721 356.262 598.73 356.385 598.758 356.581L598.767 356.647L598.793 356.708C602.966 366.422 605.018 382.577 605.242 394.055C604.515 392.22 603.846 390.757 602.979 389.42C601.734 387.499 600.099 385.86 597.367 383.722L596.497 383.041L596.56 384.144C596.796 388.343 597.224 392.709 596.854 396.782C596.723 397.289 596.634 398.079 596.573 399.05C596.509 400.07 596.473 401.33 596.456 402.752C596.423 405.596 596.47 409.106 596.541 412.675C596.674 419.384 596.891 426.273 596.824 429.409L596.807 429.984C596.748 431.395 596.54 432.836 596.314 434.294C596.09 435.742 595.847 437.213 595.733 438.644C595.375 443.097 595.258 447.424 594.677 451.848C594.108 456.165 593.467 460.489 592.827 464.817C592.188 469.145 591.551 473.477 590.993 477.804C590.139 484.445 589.126 491.076 588.125 497.714C587.125 504.349 586.136 510.991 585.334 517.645C585.082 519.726 584.173 523.379 583.367 527.03C582.967 528.842 582.596 530.645 582.354 532.223C582.114 533.786 581.991 535.181 582.118 536.153L582.157 536.453L582.44 536.558C583.348 536.892 584.49 536.831 585.533 536.725C586.632 536.612 587.632 536.45 588.447 536.484C588.853 536.501 590.883 536.759 592.923 537.05C593.934 537.194 594.934 537.345 595.716 537.475C596.107 537.539 596.44 537.598 596.692 537.648C596.819 537.674 596.921 537.696 596.998 537.715C597.084 537.736 597.112 537.746 597.108 537.744L597.11 537.745C599.876 538.894 602.426 541.274 604.613 544.09C606.795 546.899 608.586 550.101 609.847 552.833V552.834C612.321 558.184 612.918 566.43 612.291 576.263C611.665 586.073 609.827 597.379 607.5 608.794C605.173 620.206 602.361 631.714 599.788 641.925C597.217 652.128 594.883 661.052 593.521 667.271L593.521 667.274C592.456 672.295 591.539 677.347 590.771 682.424L590.77 682.427C590.593 683.644 590.446 684.937 590.294 686.252C590.142 687.57 589.987 688.911 589.796 690.239C589.412 692.9 588.888 695.471 587.982 697.629V697.63C582.494 710.726 569.854 717.556 556.147 714.814L555.693 714.724L555.568 715.17C550.844 732.067 546.574 751.443 537.33 766.64C512.856 806.856 475.407 844.783 435.208 869.468C407.757 886.324 374.484 889.978 343.685 881.894C302.11 870.12 267.322 835.149 239.604 803.386C220.253 781.212 207.325 760.599 198.376 732.603C197.641 730.304 197.165 727.552 196.707 724.71C196.252 721.883 195.814 718.967 195.154 716.399L195.062 716.041L194.692 716.024L191.215 715.877C183.191 715.524 175.842 714.85 169.88 708.369C164.186 702.179 161.359 694.638 159.535 686.6C158.623 682.58 157.964 678.447 157.319 674.302C156.676 670.162 156.046 666.008 155.194 661.973C153.378 653.366 151.145 644.731 148.905 636.074C146.664 627.414 144.416 618.731 142.563 610.011C138.858 592.57 136.742 575.012 139.429 557.271C140.448 550.536 143.501 545.083 148.005 541.446C152.507 537.811 158.494 535.961 165.436 536.49V536.491C166.259 536.561 167.076 536.69 167.88 536.876L168.584 537.039L168.488 536.322C167.774 530.987 166.66 525.42 165.71 520.048L165.314 517.759C163.127 504.669 161.116 491.55 159.284 478.406C159.146 477.347 158.658 473.628 158.21 469.94C157.986 468.094 157.772 466.256 157.616 464.767C157.459 463.26 157.367 462.15 157.377 461.726L157.378 461.672L157.368 461.619C156.051 454.782 155.368 442.216 154.639 434.575C151.499 401.672 148.398 373.16 159.541 341.447L159.995 340.152L158.814 340.851C152.474 344.6 149.263 348.509 144.869 353.7C147.045 329.48 152.52 314.143 165.042 292.856C168.233 288.333 171.655 283.975 175.294 279.803L175.366 279.72L175.396 279.613C175.644 278.76 175.965 277.879 176.112 277.05C176.266 276.185 176.25 275.3 175.823 274.357L175.755 274.205L175.608 274.125C174.309 273.413 173.04 273.554 171.783 273.894C171.164 274.061 170.508 274.288 169.858 274.494C169.362 274.651 168.853 274.802 168.322 274.922L167.785 275.03L167.387 275.1L167.345 275.106L167.305 275.121C166.686 275.34 165.61 275.816 164.63 276.236C164.133 276.45 163.655 276.65 163.257 276.806C163.254 276.807 163.252 276.807 163.249 276.808C163.292 276.709 163.34 276.602 163.395 276.488C163.669 275.917 164.072 275.196 164.571 274.371C165.57 272.723 166.933 270.689 168.365 268.646C171.207 264.595 174.283 260.567 175.291 259.472C176.566 258.618 177.47 257.343 178.343 256.016C179.244 254.645 180.124 253.201 181.38 251.889C185.425 247.661 191.239 241.99 197.323 236.769C203.416 231.539 209.746 226.79 214.828 224.372L214.857 224.356L219.359 221.845L221.895 220.462C223.495 219.828 225.848 218.567 227.746 217.508L229.457 216.542C233.563 214.35 238.299 212.41 242.642 210.528L242.643 210.529C243.766 210.046 244.972 209.6 246.14 209.147L246.262 209.101L246.345 209.001C246.874 208.362 246.95 208.172 247.314 207.478L247.412 207.292L247.348 207.092L247.087 206.288L247.044 206.156L246.939 206.064L246.673 205.852C246.029 205.379 245.241 205.075 244.459 204.847C243.575 204.588 242.598 204.403 241.812 204.214L241.769 204.203L241.724 204.201L234.993 203.811L234.97 203.809L234.945 203.81C233.379 203.868 231.598 204.119 229.913 204.378C233.978 201.634 239.564 197.992 243.094 196.274L243.162 196.241L243.218 196.189C243.459 195.963 243.954 195.638 244.691 195.231C245.416 194.832 246.337 194.373 247.396 193.875C249.516 192.88 252.17 191.74 254.884 190.615C260.302 188.37 265.932 186.199 267.97 185.397C275.105 183.125 282.054 180.695 289.378 179.455C293.223 178.804 297.172 178.11 300.989 177.287L301.004 177.284L301.018 177.28C307.106 175.593 313.478 175.874 319.982 175.659H319.99L319.998 175.658C321.277 175.576 322.953 175.514 324.259 175.326C326.405 175.617 328.562 175.73 330.702 175.836C332.872 175.943 335.025 176.045 337.176 176.32L337.335 176.341L337.477 176.265C337.938 176.016 338.251 175.623 338.489 175.237C338.714 174.875 338.932 174.41 339.107 174.09L339.193 173.933L339.16 173.758C338.981 172.791 338.713 172.183 338.252 171.642C337.83 171.146 337.227 170.697 336.505 170.071L336.472 170.043L336.435 170.021L336.136 169.856C335.373 169.466 334.179 169.037 333.007 168.651C331.662 168.209 330.275 167.803 329.458 167.555C328.744 167.234 326.95 166.647 325.163 166.086C324.007 165.723 322.848 165.366 321.936 165.086C322.349 164.945 322.818 164.804 323.329 164.664C324.456 164.357 325.76 164.063 327.086 163.8C329.739 163.273 332.456 162.867 333.966 162.693L334.024 162.687L334.079 162.666C334.717 162.433 335.25 162.516 335.941 162.658C336.63 162.8 337.463 162.998 338.529 162.823Z" fill="#121212" stroke="#FAFAFA"/>
<path d="M174.959 259.098L175.14 259.81C172.051 264.948 167.524 270.309 164.687 275.416C175.208 270.301 177.784 269.661 189.185 266.471C163.362 289.578 148.732 317.373 145.308 351.894C151.398 345.897 153.745 342.964 160.99 338.321C154.393 359.156 151.622 372.612 151.921 394.72C152.013 401.537 157.328 462.086 157.233 462.2L156.878 461.717C155.555 454.849 154.868 442.222 154.143 434.625C151.005 401.74 147.885 373.117 159.07 341.284C152.337 345.266 149.193 349.413 144.234 355.227C146.321 330.006 151.792 314.397 164.621 292.591C167.826 288.046 171.263 283.668 174.918 279.477C175.442 277.673 176.119 276.221 175.37 274.567C173.108 273.327 170.919 274.986 167.872 275.526L167.474 275.595C166.277 276.019 163.271 277.452 162.514 277.577C162.437 275.501 172.958 261.24 174.959 259.098Z" fill="#FAFAFA"/>
<path d="M167.473 275.591C171.632 272.963 180.305 270.059 185.124 268.824C181.496 272.437 178.331 275.629 174.917 279.473C175.441 277.669 176.118 276.217 175.369 274.563C173.107 273.323 170.918 274.982 167.871 275.522L167.473 275.591Z" fill="#121212"/>
<path d="M430.406 176.94C431.386 176.839 438.453 173.668 441.389 172.887C449.476 181.871 452.928 187.471 458.087 198.434C449.632 192.28 442.628 184.323 433.461 179.009C432.766 178.606 430.927 177.406 430.406 176.94Z" fill="#121212"/>
<path d="M333.907 162.199L334.458 162.585C333.072 163.654 325.651 164.55 323.711 164.65C329.591 166.783 347.988 172.5 351.201 177.614L351.088 178.367C350.786 178.518 350.411 178.705 349.964 178.928C342.443 178.173 334.633 176.606 327.053 176.314C321.741 176.109 317.348 176.35 312.282 176.445C309.599 176.495 302.833 177.248 300.883 176.801C307.046 175.093 313.514 175.374 319.965 175.162C321.293 175.077 322.969 175.018 324.257 174.826C328.545 175.414 332.892 175.271 337.238 175.827C337.938 175.45 338.261 174.594 338.668 173.852C338.33 172.036 337.709 171.779 336.176 170.452C334.848 169.656 330.929 168.528 329.288 168.029C327.994 167.43 322.123 165.685 320.455 165.155C322.987 163.831 330.859 162.55 333.907 162.199Z" fill="#FAFAFA"/>
<path d="M336.176 170.449C341.024 172.203 345.811 174.91 350.076 177.814C346.079 177.278 340.889 176.072 337.237 175.824C337.937 175.447 338.26 174.591 338.667 173.849C338.33 172.033 337.709 171.776 336.176 170.449Z" fill="#121212"/>
<path d="M403.414 165.82C413.516 168.709 421.017 172.463 430.409 176.938C430.93 177.405 432.769 178.604 433.464 179.008C442.631 184.321 449.635 192.279 458.09 198.433C452.931 187.47 449.478 181.869 441.391 172.885C450.435 174.003 474.724 185.318 482.399 190.118C480.868 190.085 476.932 187.662 475.305 186.835C465.369 181.786 455.223 178.045 444.692 174.471C447.564 178.425 461.406 196.212 458.308 200.217C458.064 200.234 457.82 200.251 457.575 200.269C455.032 197.606 450.818 193.993 448.295 191.725C434.955 179.732 420.237 172.026 403.262 166.34L403.414 165.82Z" fill="#FAFAFA"/>
<path d="M242.876 195.824C242.34 197.565 234.769 201.836 232.529 203.727C239.931 202.516 251.616 203.624 258.76 205.75C256.654 206.575 229.446 216.234 229.372 216.216L229.209 216.107C233.342 213.899 238.113 211.946 242.445 210.069C243.579 209.581 244.803 209.13 245.96 208.681C246.453 208.085 246.509 207.936 246.872 207.245L246.612 206.441C245.405 205.392 243.345 205.096 241.695 204.699L234.965 204.309C232.73 204.392 230.049 204.871 227.801 205.208C231.835 202.448 238.739 197.838 242.876 195.824Z" fill="#FAFAFA"/>
<path d="M241.695 204.702C247.434 204.655 248.979 204.813 254.613 206.368C252.141 207.032 248.362 208.178 245.96 208.684C246.454 208.088 246.509 207.939 246.872 207.248L246.612 206.444C245.405 205.395 243.345 205.099 241.695 204.702Z" fill="#121212"/>
<path d="M599.252 356.512C603.811 367.123 605.845 385.276 605.761 396.81C603.404 390.512 602.481 388.36 597.058 384.116C597.294 388.295 597.73 392.731 597.35 396.862C595.979 394.581 595.784 384.074 595.504 380.667C599.012 384.161 601.486 386.176 604.522 390.147C603.448 382.802 603.284 375.693 601.633 368.346C601.078 365.859 599.092 358.492 599.252 356.512Z" fill="#FAFAFA"/>
<path d="M451.72 333.601C453.497 333.372 455.808 332.739 457.122 334.105C455.82 336.497 445.986 339.322 443.15 340.257C453.884 340.774 468.873 342.078 479.209 344.203C508.816 350.29 524.827 373.826 527.321 402.88C528.244 413.653 529.163 427.957 531.576 438.368C532.375 441.801 539.863 451.456 542.121 455.069C546.548 462.161 554.524 475.778 556.198 484.115C558.548 495.829 559.343 512.426 559.775 524.47C560.518 545.189 561.257 567.027 560.562 587.705C559.962 605.551 556.694 624.588 554.56 642.166C552.107 662.373 548.846 682.58 545.166 702.392C537.29 744.784 519.84 773.383 490.205 803.88C478.81 815.607 468.946 826.041 454.628 835.387C459.005 822.56 461.944 805.078 459.347 791.712L459.288 791.94C455.278 806.948 444.795 823.036 431.316 831.511C422.656 836.954 421.45 833.729 418.072 825.997C416.764 831.819 415.549 834.412 412.944 839.847C410.057 833.577 406.593 829.042 402.166 823.855C402.943 832.962 402.658 836.678 400.111 845.449C394.735 834.081 394.821 831.771 387.068 820.866C386.882 827.355 386.907 830.792 385.515 837.073C380.144 829.877 377.697 826.217 374.315 817.961C371.114 824.634 368.34 831.175 362.814 836.294C361.749 830.348 361.396 827.144 361.352 821.11C355.484 828.251 352.549 834.676 350.255 843.523C350.161 844.002 350.267 843.751 349.823 844.21C345.569 839.091 345.471 830.46 346.183 824.223C340.354 830.328 339.271 833.389 335.484 840.498C333.302 835.787 331.862 831.719 330.17 826.808C328.73 830.021 327.604 832.182 325.874 835.251C324.34 834.8 322.824 834.292 321.327 833.733C309.987 829.445 299.444 816.567 294.112 806.037C291.91 801.686 289.954 796.343 287.873 791.74C286.866 807.14 288.368 818.421 292.916 833.293C276.909 822.796 264.612 807.983 251.466 794.545C214.744 757.008 205.611 714.431 198.331 664.027C195.026 641.738 192.221 619.377 189.919 596.96C187.466 571.282 188.202 542.324 189.082 516.474C189.782 506.691 189.831 496.388 191.471 486.708C193.027 477.521 199.223 466.903 203.608 458.779C207.677 451.243 214.635 443.937 216.824 435.566C218.102 430.68 217.751 424.522 218.334 419.473C219.713 398.625 220.175 382.064 233.813 365.372C250.71 344.69 270.238 341.959 295.256 337.805C303.884 336.372 312.953 332.919 321.884 334.931C338.887 338.761 356.271 351.277 374.007 350.566C387.04 350.043 400.47 342.916 413.384 339.558C426.702 336.094 438.06 334.89 451.72 333.601Z" fill="#FAFAFA"/>
<path d="M490.649 464.138C498.286 462.982 509.63 472.249 515.58 476.465C526.025 483.867 531.343 493.784 533.141 506.358C507.692 486.333 497.197 482.55 465.981 496.158C460.697 498.461 454.336 500.381 448.844 502.538C446.102 503.615 441.87 507.208 447.134 508.692C450.263 508.922 455.295 508.278 458.68 508.265C475.456 508.197 494.119 510.175 507.816 520.79C513.941 525.521 516.343 529.933 519.719 536.566C510.988 531.128 507.476 525.617 499.205 520.399C495.953 518.346 490.267 516.655 486.516 515.465C470.56 510.957 450.621 512.182 436.562 521.781C430.469 525.949 424.243 531.519 417.764 535.016C413.791 537.157 409.876 534.908 406.786 540.554C402.518 548.354 404.294 556.438 406.36 564.517C391.59 545.513 393.651 523.164 411.343 506.849C402.86 502.709 398.591 494.015 399.004 484.792C416.945 489 435.238 477.482 452.035 473.211C463.898 470.194 478.785 466.383 490.649 464.138Z" fill="#121212"/>
<path d="M250.269 470.47C253.607 470.291 265.374 472.698 268.944 473.634C277.033 475.754 285.97 477.028 293.923 479.294C308.243 483.374 323.307 490.317 338.147 492.117C341.331 492.503 344.921 491.828 347.98 491.084C347.168 501.451 346.058 503.749 339.498 511.937C350.597 522.222 352.892 537.775 348.371 551.656C347.201 555.249 345.93 558.713 344.602 562.245C344.311 556.639 345.319 551.093 343.692 545.535C341.95 539.589 338.314 531.948 331.605 538.634C319.323 527.769 305.63 516.203 288.984 513.276C281.885 512.027 272.852 513.157 265.792 514.311C258.254 516.073 248.042 518.597 242.438 524.017C240.043 526.334 237.111 530.106 234.424 531.841L233.458 531.257C231.724 532.056 229.237 534.31 227.683 535.605C242.204 507.332 271.136 508.586 298.717 508.364C292.922 506.702 286.235 504.747 280.771 502.498C261.422 494.534 243.937 487.794 225.046 501.703C220.849 504.792 216.508 508.548 212.047 511.478C213.948 501.581 217.898 491.132 225.964 484.63C232.798 479.121 241.747 472.714 250.269 470.47Z" fill="#121212"/>
<path d="M356.466 681.949C360.161 682.005 369.036 682.345 369.635 687.312C370.188 691.891 368.38 701.609 364.663 704.834C361.247 707.803 353.485 708.35 349.278 710.316C340.669 713.952 333.322 718.644 325.086 722.871C317.245 726.895 308.18 728.434 300.833 733.293C295.417 736.873 292.902 740.026 289.43 745.168L285.638 751.21C272.33 719.675 296.751 710.572 320.381 699.663C332.182 694.213 343.286 683.256 356.466 681.949Z" fill="#121212"/>
<path d="M393.607 679.899C406.256 678.329 417.364 686.233 428.892 689.861C454.11 697.793 483.416 700.81 471.008 735.894C469.659 733.568 468.365 731.526 466.906 729.277C464.124 725.656 451.321 711.974 446.829 712.813C445.826 714.116 445.787 715.427 445.507 717.085C432.231 715.615 421.68 711.139 409 707.283C401.328 704.949 388.278 706.232 385.778 697.173C382.809 686.416 381.781 683.284 393.607 679.899Z" fill="#121212"/>
<path d="M395.065 715.418C410.385 714.682 419.943 724.64 434.66 726.746C441.267 727.717 445.476 721.104 451.567 720.92C453.677 720.86 453.856 723.629 453.614 725.144C453.36 726.782 452.47 728.256 451.137 729.243C438.492 738.486 419.779 731.05 405.433 733.032C396.575 734.254 388.696 738.678 380.287 739.129C376.635 739.325 367.182 737.631 363.027 736.987C349.235 735.965 337.891 740.472 324.498 742.965C319.576 743.589 310.821 746.278 306.928 742.374C305.077 740.408 307.35 736.912 309.497 736.952C314.968 737.111 318.97 737.495 324.201 735.225C331.268 732.16 337.784 727.597 344.617 724.097C350.998 720.828 356.572 717.479 363.969 717.911C369.879 718.255 376.931 723.773 382.666 722.147C386.599 721.032 390.79 717.224 395.065 715.418Z" fill="#121212"/>
<path d="M274.575 523.355C281.827 523.479 288.159 524.302 295.234 526.221C300.498 527.647 330.961 543.075 328.631 549.76C318.321 550.256 310.148 551.347 300.161 552.186C309.206 548.238 312.729 547.243 322.559 546.731C312.962 540.913 306.564 536.362 295.907 531.995C295.624 536.582 295.35 540.726 292.996 544.825C290.727 548.789 286.952 551.666 282.529 552.801C271.833 555.566 263.149 549.033 260.623 538.7C260.363 536.402 260.081 534.112 259.778 531.823C254.091 535.027 247.78 538.915 243.155 543.531C252.098 553.572 257.675 553.469 268.888 556.817C263.642 556.817 258.419 556.126 253.355 554.759C250.749 554.052 245.238 550.955 243.68 552.693L243.897 553.62C247.659 557.9 255.188 559.219 259.38 561.976C251.277 560.873 246.534 559.095 239.943 554.012C237.345 552.01 234.898 550.048 231.792 548.957C229.29 548.078 226.61 548.21 223.926 548.142C227.511 546.204 232.946 541.677 236.248 538.876C247.949 528.95 259.089 524.123 274.575 523.355Z" fill="#121212"/>
<path d="M283.829 528.649C286.518 528.386 288.935 530.296 289.302 532.973C289.669 535.65 287.855 538.14 285.194 538.611C283.379 538.931 281.533 538.231 280.385 536.789C279.236 535.35 278.968 533.392 279.687 531.698C280.405 530 281.994 528.829 283.829 528.649Z" fill="#FAFAFA"/>
<path d="M426.454 747.332C426.359 751.751 413.25 763.236 410.599 767.344C407.919 771.499 406.608 776.722 405.289 781.473L401.56 775.571C398.437 781.237 397.019 786.476 396.334 792.833C394.067 790.224 392.761 787.842 391.074 784.885C385.519 790.292 382.979 793.405 379.291 800.222C374.715 793.165 373.532 791.483 367.778 785.405C366.459 787.311 363.999 791.251 362.132 792.222L361.6 791.866L361.385 790.492C360.607 784.17 359.824 781.953 357.12 776.37C355.882 777.673 354.671 779.163 353.505 780.55C351.182 768.099 348.257 766.7 338.746 758.98C360.385 766.289 383.614 765.19 405.538 759.336C409.599 758.253 422.759 750.017 426.454 747.332Z" fill="#121212"/>
<path d="M470.348 523.348C493.067 523.264 504.106 536.127 520.868 547.675C506.851 549.729 503.882 559.043 491.918 560.782C492.647 559.239 501.325 556.642 502.212 553.261C501.537 552.746 501.473 552.694 500.31 552.978C491.875 555.012 484.458 558.004 475.577 556.726C488.63 555.359 494.534 552.73 504.474 544.283C501.792 541.845 490.773 532.615 487.693 532.742C486.814 534.253 486.555 537.557 486.251 539.464C483.046 553.229 466.101 558.08 456.23 548.027C451.667 543.375 451.172 538.049 451.221 531.943C441.563 535.452 432.784 541.374 424.138 546.832C432.493 547.595 437.938 548.522 445.694 552.171C438.257 551.919 425.533 550.161 418.16 548.954C425.244 537.725 444.917 528.355 457.39 524.867C461.202 523.804 466.412 523.504 470.348 523.348Z" fill="#121212"/>
<path d="M474.382 528.727C477.056 528.447 479.47 530.337 479.845 532.998C480.219 535.66 478.418 538.141 475.772 538.608C473.973 538.928 472.144 538.241 471.002 536.814C469.86 535.388 469.588 533.454 470.293 531.768C470.997 530.081 472.565 528.918 474.382 528.727Z" fill="#FAFAFA"/>
<path d="M341.496 649.905C353.039 648.774 359.317 662.764 370.158 665.653C381.711 668.733 388.821 656.985 397.721 652.067C401.115 650.204 405.146 649.353 408.922 650.504C411.193 651.195 414.561 653.281 413.391 656.134C412.624 658.008 410.607 658.848 408.876 659.635C404.625 660.762 399.292 660.478 395.403 662.328C387.633 666.024 383.643 674.312 373.967 674.324C364.335 674.34 360.01 666.048 352.657 662.52C345.471 659.067 339.574 662.212 333.027 655.563C336.024 651.579 336.678 650.9 341.496 649.905Z" fill="#121212"/>
<path d="M420.43 620.23C421.595 621.126 422.764 622.952 423.892 624.043C437.185 636.869 437.594 668.049 414.285 669.548L407.555 669.3C413.974 665.516 421.584 663.918 425.415 656.533C432.088 643.674 423.443 631.851 420.43 620.23Z" fill="#121212"/>
<path d="M328.007 619.062C328.449 619.774 328.107 619.87 327.741 620.757C321.577 635.765 313.235 657.012 333.048 665.639C334.452 666.25 337.998 667.733 338.983 668.744C338.209 669.499 337.17 669.327 335.838 669.455C316.302 669.934 312.011 650.274 317.954 635.106C320.745 627.981 322.915 624.713 328.007 619.062Z" fill="#121212"/>
<path d="M478.689 442.164C494.484 440.699 506.75 445.677 517.727 456.89C511.621 453.893 505.196 450.557 498.685 448.696C482.598 444.588 469.61 447.471 454.195 452.323C461.181 447.203 470.165 443.648 478.689 442.164Z" fill="#121212"/>
<path d="M314.416 562.062L315.198 562.066L315.242 562.434C298.581 575.149 288.121 579.976 267.135 578.254C266.422 578.066 265.796 577.818 265.108 577.563C264.927 577.75 276.634 575.605 277.309 575.553C289.727 574.614 303.48 563.629 314.416 562.062Z" fill="#121212"/>
<path d="M427.457 560.391C438.497 562.193 451.361 570.728 463.006 574.212C465.9 575.08 479.197 577.085 480.11 577.729C463.986 581.401 439.224 571.136 427.457 560.391Z" fill="#121212"/>
<path d="M361.364 480.277C361.49 480.541 361.61 480.807 361.725 481.075C366.719 492.567 363.167 504.439 351.268 509.407C350.461 509.601 350.123 509.63 349.312 509.714L349.305 509.262C349.723 508.897 350.138 508.527 350.55 508.154C358.445 500.977 360.841 490.528 361.364 480.277Z" fill="#121212"/>
<path d="M386.773 469.988C387.44 470.753 387.104 475.643 387.009 476.754C386.232 485.825 388.658 491.847 390.974 500.286L390.643 500.608L389.417 499.735C380.902 490.515 381.614 480.6 386.773 469.988Z" fill="#121212"/>
<path d="M404.488 183.822C411.505 183.551 425.552 194.086 430.816 198.763C449.518 215.376 460.99 239.651 462.683 264.447C463.618 277.686 461.465 290.962 456.393 303.226C455.564 305.203 454.124 308.572 452.758 310.135L452.166 310.124C451.291 307.723 453.856 297.941 454.4 293.97C456.497 278.674 455.008 256.376 447.251 242.71C448.201 249.403 447.477 274.757 442.671 278.762L441.933 278.655C441.338 277.929 440.649 271.402 440.425 269.848C439.037 260.222 436.603 249.281 431.229 240.955L430.949 240.525C433.705 259.441 435.029 273.564 429.234 292.39C427.843 296.909 426.218 302.351 423.714 306.372C422.708 302.468 422.771 294.808 422.526 290.439C421.719 276.049 416.709 262.823 408.768 250.868C398.322 233.841 376.488 217.021 358.834 208.24C352.605 205.142 343.671 201.734 338.131 198.213L338.031 197.52C340.05 196.245 346.73 197.978 349.264 198.497C372.058 203.165 393.927 215.479 409.577 232.716C414.445 238.078 418.54 244.114 422.491 250.172C421.636 246.693 421.227 242.753 420.439 239.156C418.327 229.506 415.365 221.33 410.045 213.012C407.227 208.581 404.002 204.422 400.412 200.59C398.022 198 388.181 189.524 387.781 187.573C388.311 187.202 388.715 186.983 389.428 187.239C408.25 193.997 423.159 209.197 434.801 224.807C428.122 205.802 419.09 196.929 404.488 183.822Z" fill="#FAFAFA"/>
<path d="M308.777 207.077C312.833 206.917 321.048 209.543 324.93 211.118C347.154 220.131 363.791 235.608 373.267 257.751C378.295 269.5 380.074 281.98 380.768 294.648C380.892 296.917 381.167 301.351 380.37 303.3C378.536 303.083 377.881 299.133 377.574 297.482C372.649 271.002 362.579 253.447 343.474 235.043C351.632 249.513 355.805 260.887 358.572 277.517C359.167 280.655 361.072 289.036 360.4 291.638L359.419 291.829C358.833 291.328 352.466 278.564 351.411 276.636C337.978 252.082 314.387 235.114 288.412 225.781C285.162 224.613 271.908 221.555 271.129 220.157C272.083 219.212 273.265 219.003 274.608 218.898C299.612 216.948 318.147 226.794 336.94 242.019C329.047 225.566 321.828 219.158 308.777 207.077Z" fill="#FAFAFA"/>
<path d="M480.211 208.934C480.839 209.185 481.438 209.504 481.997 209.886C485.09 212.038 488.398 216.103 490.775 219.079C504.378 236.117 507.686 249.977 511.71 270.491C513.037 260.305 513.992 250.856 512.09 240.633C511.666 238.361 510.479 235.667 511.474 233.603C513.704 233.309 516.405 238.816 517.54 240.585C524.053 250.734 528.488 262.29 530.087 274.265C532.233 289.801 527.965 305.541 518.263 317.865C516.877 319.664 512.17 325.721 510.176 325.978L509.628 325.335C510.959 322.256 513.2 318.563 514.735 315.415C516.873 311.031 517.912 307.667 519.27 302.992C521.891 291.319 521.384 285.546 520.553 273.553C520.065 275.02 519.638 276.532 519.242 278.291C515.526 294.811 506.388 310.274 492.16 319.765C491.606 320.135 491.408 319.942 490.86 319.741C490.344 317.172 496.015 307.932 497.246 304.921C503.007 290.824 502.963 278.89 500.833 263.926C500.322 267.996 496.677 284.7 492.371 285.68C491.645 285.017 491.73 285.107 491.993 283.625C493.627 274.424 494.419 266.789 494.06 257.422C493.6 245.106 490.841 232.984 485.925 221.682C484.11 217.474 481.482 213.223 480.211 208.934Z" fill="#FAFAFA"/>
<path d="M598.952 564.926C599.635 565.233 600.066 566.021 600.37 566.68C605.169 577.049 593.509 630.339 588.918 641.431C585.398 649.939 578.773 656.424 575.796 665.363C579.048 661.227 582.325 656.915 585.869 653.047C584.339 663.461 583.168 674.09 581.118 684.399C578.369 698.225 572.623 703.396 558.945 703.907L559.585 697.993C561.499 685.027 562.693 671.896 564.903 658.969C565.986 658.246 568.735 656.452 569.446 655.505C572.747 651.105 575.632 643.885 578.201 638.994C583.536 628.832 578.944 614.867 575.029 604.477C577.354 596.981 581.318 587.938 585.697 581.409C588.031 590.012 589.362 598.399 591.587 606.635C591.939 591.023 590.864 578.672 598.952 564.926Z" fill="#FAFAFA"/>
<path d="M149.708 564.578C160.161 571.803 157.875 595.434 159.376 607.114C160.765 598.691 162.967 589.313 164.799 580.885C168.663 587.095 173.012 597.736 175.236 604.649C173.078 613.208 168.294 622.235 169.645 631.242C169.914 632.96 170.371 634.646 171.009 636.265C172.287 639.505 174.572 642.986 175.81 646.055C178.746 653.319 178.586 654.57 184.915 659.261C186.978 667.884 188.978 686.121 190.341 695.887C190.829 698.381 191.232 701.306 191.641 703.847C178.541 703.723 171.671 698.325 169.384 684.631C167.619 674.062 165.547 662.953 164.409 652.372C167.827 656.328 170.721 660.875 174.225 664.631C170.787 654.997 165.849 650.734 161.744 641.959C159.239 636.604 157.611 627.821 156.271 621.803C153.562 609.64 150.121 596.026 149.134 583.671C148.584 577.305 148.776 570.9 149.708 564.578Z" fill="#FAFAFA"/>
<path d="M543.872 328.21C547.8 327.857 552.723 330 556.279 331.854C568.459 338.202 576.958 349.831 581.437 362.614C581.888 363.901 581.845 364.446 581.273 365.451C578.628 365.462 574.061 358.94 570.92 357.039C567.172 354.77 564.83 353.566 560.798 351.822C571.567 364.799 578.32 382.476 577.137 399.368C574.812 396.388 573.218 392.689 571.184 389.431C565.697 380.647 559.532 374.327 551.161 368.391C555.712 377.673 558.041 382.652 560.123 392.711C560.547 395.525 563.02 410.439 560.603 411.69C560.287 411.618 559.911 411.532 559.472 411.431C558.892 410.167 558.337 407.04 558.069 405.758C556.767 399.518 555.22 394.063 552.623 388.251C547.996 377.677 541.611 367.964 533.739 359.525C530.33 355.93 526.067 352.392 523.086 348.556C534.326 349.434 544.739 354.22 554.561 359.384C547.756 350.27 541.938 346.663 534.246 338.896C545.267 338.987 549.726 339.911 560.179 343.392C557.882 340.469 555.636 338.614 552.927 336.224C550.569 334.144 544.635 330.859 543.872 328.21Z" fill="#FAFAFA"/>
<path d="M240.01 239.487C241.697 239.42 243.387 239.505 245.058 239.74C263.18 242.104 278.662 251.996 289.721 266.364C292.902 270.559 295.737 275.005 298.199 279.659C300.267 283.514 312.788 310.175 309.298 312.406C308.382 311.804 306.193 308.449 305.461 307.346C298.925 297.495 293.031 290.532 284.217 282.746C272.322 271.473 253.715 262.696 237.701 259.268C234.66 258.617 218.991 256.86 218.059 255.132C219.551 252.674 232.49 251.929 235.685 251.735C247.465 251.019 257.954 255.122 268.739 259.319C260.268 250.288 252.66 247.711 242.015 241.993C240.253 241.047 240.442 241.034 240.01 239.487Z" fill="#FAFAFA"/>
<path d="M160.268 547.102C167.912 548.952 171.439 551.669 176.351 557.91C177.337 566.038 178.802 579.077 178.743 587.081C178.072 588.012 178.517 587.716 177.317 587.92C176.165 586.881 174.766 584 173.95 582.513C171.595 578.154 169.065 573.886 166.367 569.726C162.231 563.453 159.821 559.609 152.151 559.417C150.396 559.373 149.658 557.495 150.343 555.94C152.129 551.877 156.457 549.048 160.268 547.102Z" fill="#FAFAFA"/>
<path d="M586.957 547.973C591.005 547.729 593.726 548.728 596.771 551.509C598.829 553.387 601.394 557 598.693 559.401C597.162 560.12 595.828 559.581 594.082 559.209C585.858 563.745 581.383 572.803 577.051 580.931C576.048 583.005 574.074 588.411 571.737 588.359L571.365 587.796C571.277 582.178 572.196 576.619 572.36 571.185C572.764 557.971 574.334 553.723 586.957 547.973Z" fill="#FAFAFA"/>
<path d="M203.355 289.762C206.535 291.537 215.269 301.639 219.558 305.301C228.095 312.617 237.781 318.473 248.227 322.632C251.645 324.004 255.477 324.954 258.896 326.534C260.448 327.251 260.13 327.126 260.664 328.664C251.04 331.156 234.112 325.948 225.856 320.602C215.327 313.784 206.042 302.11 203.355 289.762Z" fill="#FAFAFA"/>
<path d="M234.018 267.582C247.77 265.296 261.131 274.567 270.546 283.578C272.079 285.045 276.842 289.374 276.876 291.246L276.058 292.032C274.221 291.237 270.631 288.895 268.785 287.762C259.333 281.158 244.407 275.683 233.081 273.786C230.568 273.364 222.88 272.517 221.199 271.657L221.217 270.905C223.232 268.843 230.944 268 234.018 267.582Z" fill="#FAFAFA"/>
<path d="M210.329 322.741C220.478 321.745 231.703 326.537 240.029 332.071C240.607 332.455 240.488 333.093 240.524 333.702L239.866 334.268C237.556 334.241 224.815 331.385 221.41 330.695C209.822 328.95 200.685 329.221 189.351 331.637C188.878 331.737 188.635 331.095 188.414 330.755C188.839 329.364 191.055 328.591 192.246 327.882C198.083 324.408 203.579 323.403 210.329 322.741Z" fill="#FAFAFA"/>
<path d="M569.095 617.195C570.681 617.923 572.224 621.019 572.667 622.662C574.373 629.003 572.995 635.289 570.018 641.019C569.119 641.726 568.691 642.345 567.76 642.325C566.286 638.933 568.38 621.479 569.095 617.195Z" fill="#FAFAFA"/>
<path d="M179.796 617.406C182.199 620.02 184.181 639.34 182.748 642.429L181.649 642.521C174.972 635.727 177.09 625.358 179.796 617.406Z" fill="#FAFAFA"/>
<path d="M573.596 160.095C581.6 158.7 593.268 161.195 600.037 165.538C606.362 169.555 610.769 175.987 612.228 183.337C616.164 202.479 599.094 209.902 589.04 222.345C585.368 226.839 586.543 238.805 578.775 239.266C563.035 240.202 568.701 219.43 574.843 212.454C579.254 207.063 588.245 201.272 591.805 195.179C593.743 191.913 594.239 187.989 593.172 184.343C590.606 175.301 581.856 172.533 573.289 174.787C564.817 177.149 563.179 185.904 559.895 192.775C557.094 198.638 551.735 198.27 547.004 194.956C545.278 193.724 544.135 191.84 543.831 189.742C543.036 184.128 546.453 177.253 549.765 172.895C555.799 164.96 563.874 161.38 573.596 160.095Z" fill="#5B3DF6"/>
<path d="M577.212 247.216C583.058 246.859 588.109 251.251 588.572 257.089C589.032 262.927 584.728 268.057 578.902 268.622C575.038 268.996 571.274 267.255 569.057 264.07C566.835 260.884 566.511 256.749 568.202 253.255C569.892 249.761 573.34 247.452 577.212 247.216Z" fill="#5B3DF6"/>
<path d="M167.471 275.592L167.869 275.522C170.916 274.983 173.105 273.323 175.367 274.563C176.117 276.217 175.439 277.669 174.916 279.474C171.26 283.665 167.823 288.042 164.619 292.587C162.425 287.477 163.207 286.475 163.816 280.829C164.015 278.983 163.567 278.847 162.512 277.574C163.268 277.449 166.274 276.016 167.471 275.592Z" fill="#121212"/>
<path d="M320.455 165.152C322.123 165.683 327.994 167.428 329.288 168.027C330.933 169.708 331.568 170.074 332.2 172.285C331.59 175.62 326.189 173.733 324.257 174.824C322.969 175.016 321.293 175.075 319.965 175.16C320.95 174.962 321.327 174.964 322.148 174.359C324.17 170.873 323.636 167.616 320.455 165.152Z" fill="#121212"/>
<path d="M329.289 168.027C330.929 168.526 334.848 169.654 336.177 170.451C337.71 171.777 338.331 172.034 338.668 173.85C338.262 174.593 337.938 175.449 337.239 175.826C332.892 175.27 328.546 175.413 324.258 174.824C326.189 173.734 331.591 175.621 332.2 172.286C331.568 170.075 330.934 169.709 329.289 168.027Z" fill="#121212"/>
</g>
<path d="M1079.13 126.196C1091.71 107.748 1113.49 97.8131 1135.67 100.407C1143.69 101.346 1155.3 103.138 1166.75 107.994C1179.49 113.402 1196.91 124.854 1205.68 147.168C1212.01 163.275 1210.92 178.123 1209.15 187.653C1259.58 183.739 1308.9 178.391 1361.19 173.499L1365.48 173.102C1387.22 171.114 1412.8 169.195 1437.78 170.003C1467.35 170.96 1491.8 193.319 1495.4 222.678C1495.81 226.07 1495.93 229.438 1495.78 232.756C1501.7 236.926 1506.98 241.486 1511.53 246.083C1519.75 254.404 1528.88 266.234 1534.79 281.062C1534.88 280.862 1534.96 280.662 1535.04 280.463C1538.82 271.201 1543.32 260.809 1548.1 251.62C1550.48 247.048 1553.46 241.743 1556.99 236.605C1559.84 232.457 1566.1 223.818 1576.04 216.673L1576.75 216.165C1591.56 205.846 1610.22 202.746 1627.56 207.708C1633.82 208.727 1639.93 210.741 1645.67 213.734C1651.84 216.955 1662.89 223.667 1672.02 229.573C1672.37 229.797 1672.71 230.023 1673.06 230.25C1673.57 226.425 1674.46 222.623 1675.72 218.9C1681.92 200.627 1696.53 186.459 1714.97 180.813C1715.32 180.548 1715.72 180.252 1716.18 179.905L1716.98 179.31C1733.83 166.978 1755.91 164.28 1775.26 172.249C1775.96 172.539 1778.01 173.246 1782.46 174.506C1785.08 175.247 1785.97 175.479 1789.01 176.331C1791.18 176.942 1794.21 177.806 1797.19 178.793C1816.24 185.099 1831.75 197.901 1841.22 206.52C1850.17 214.662 1858.85 223.913 1866.74 233.095C1871.7 227.607 1876.17 222.628 1879.79 218.45C1892.86 203.367 1913.18 181.231 1929.85 166.077L1930.6 165.41C1946.36 151.551 1968.25 146.923 1988.31 153.271C1990.52 153.97 1992.72 154.715 1994.89 155.507C1994.97 155.535 1995.05 155.563 1995.12 155.591C2007.03 159.978 2019.58 166.872 2030.43 178.697C2030.99 179.308 2031.53 179.924 2032.07 180.539C2046.69 185.243 2059.22 195.474 2066.68 209.488C2077.35 229.563 2075.76 253.949 2062.57 272.469C2051.48 288.038 2041.21 299.069 2032.2 308.281C2022.97 317.717 2017.22 323.206 2010.12 331.587C1996.86 347.244 1981.28 366.969 1964.89 386.64C1973.36 400.819 1977.83 409.625 1982.77 417.565C1983.17 417.929 1983.58 418.305 1983.98 418.692C1986.83 421.397 1989.18 424.107 1991.13 426.634L1991.94 427.705L1992.43 428.385C1992.6 428.613 1992.76 428.842 1992.92 429.072C2002.96 443.458 2008.71 452.446 2016.29 462.079L2018.31 464.617C2018.47 464.819 2018.63 465.022 2018.78 465.226C2019.45 466.097 2019.83 466.568 2021.13 468.238C2022.18 469.578 2023.7 471.544 2025.31 473.793C2028.52 478.303 2033.03 485.235 2036.58 494.278C2040.99 505.516 2041.9 517.824 2039.21 529.592C2038.73 531.689 2038.12 533.829 2037.39 535.996C2036.34 545.192 2033.39 556.124 2026.27 566.733C2020.11 575.901 2012.75 581.76 2011 583.197C2007.43 586.133 2007.95 585.59 2005.94 587.321C1993.62 597.927 1977.56 603.046 1961.46 601.606C1963.18 614.616 1960.54 625.043 1959.49 628.862C1957.18 637.262 1953.71 643.849 1952.54 646.057C1952.53 646.071 1952.53 646.086 1952.52 646.1C1933.08 682.795 1919.15 706.698 1910.12 736.599C1901.7 764.474 1874.48 782.28 1845.57 778.825C1843.13 778.534 1833.48 777.573 1828.32 776.792C1822.72 775.947 1808.55 773.713 1794.76 764.923C1787.29 760.167 1781.13 754.337 1776.24 747.805C1766.76 751.941 1756.72 755.531 1746.45 758.156C1725.4 763.535 1687.59 768.178 1655.37 747.903C1643.81 752.123 1629.74 754.699 1613.92 752.46C1603.95 751.049 1594.96 747.976 1586.92 743.761C1579.87 751.868 1570.77 757.945 1560.56 761.339C1540.4 768.04 1521.54 766.114 1506.02 760.251C1498.94 784.032 1489.66 813.554 1476.57 841.9C1463.02 871.209 1443.48 903.612 1413.76 928.156L1413.75 928.162C1380.02 956.008 1340.71 960.948 1307.56 957.273C1300.13 956.45 1268.93 953.035 1248.67 925.437C1234.56 906.224 1232.68 885.069 1234.81 869.093C1236.8 854.128 1242.46 841.335 1247.45 832.099C1257.44 813.569 1272.22 795.872 1285.16 781.814C1285.46 781.486 1285.76 781.159 1286.07 780.83C1281.9 780.901 1277.68 780.697 1273.45 780.191C1266.93 779.41 1260.19 777.847 1253.56 775.404C1251.45 778.654 1249.23 781.776 1246.91 784.754C1221.52 817.273 1176.94 842.015 1125.95 832.463C1125.94 832.462 1125.93 832.46 1125.93 832.459C1110.57 829.578 1097.15 822.301 1088.24 816.266C1081.82 811.916 1071.04 803.736 1062.47 791.396C1055.91 792.486 1049.11 793.151 1042.07 793.305L1042.07 793.306C1029.98 793.57 1017.39 792.104 1005.32 788.209C995.631 797.985 982.034 808.865 964.456 815.112C951.04 819.879 935.185 821.965 918.232 818.527C901.447 815.122 887.243 807.051 875.75 797.091L875.74 797.081C873.017 794.721 870.519 792.262 868.225 789.735C866.254 789.978 864.275 790.124 862.294 790.171C861.831 790.382 861.365 790.593 860.895 790.798C860.847 790.819 860.8 790.839 860.752 790.86C856.487 792.711 852.773 793.727 851.798 793.996C850.161 794.449 848.665 794.807 847.579 795.056C845.38 795.56 843.12 796.015 841.354 796.36C839.506 796.72 837.684 797.059 836.295 797.316C835.556 797.452 834.994 797.557 834.488 797.652C834.246 797.697 834.057 797.732 833.91 797.76C833.758 797.789 833.696 797.801 833.699 797.8C822.387 800.036 810.671 798.966 799.951 794.717C783.739 788.29 756.162 772.173 747.724 736.702L747.449 735.511C741.868 710.503 748.238 687.062 752.575 674.121C757.641 659.002 764.483 645.453 769.249 636.678C775.171 625.77 782.768 614.305 791.719 603.405C783.351 604.815 774.479 604.906 765.241 603.296C739.87 598.873 722.632 583.431 712.735 570.916C702.478 557.947 695.744 542.914 692.189 528.441C688.754 514.458 687.097 496.05 692.605 477.142C701.099 447.885 716.184 390.06 742.692 343.643C756.189 320.007 775.372 294.194 802.929 276.431C829.413 259.36 860.882 251.596 895.138 256.804C899.996 249.998 906.285 244.195 913.694 239.864C927.286 231.92 943.973 227.206 955.525 224.287C968.865 220.917 983.779 217.981 997.891 215.467C1011.59 213.026 1025.42 210.829 1037.38 208.945C1039.86 202.843 1042.37 196.433 1045.51 188.837C1053.08 170.547 1062.36 150.78 1079.13 126.196Z" fill="#2A2A2A"/>
<path d="M974.527 514.071C987.542 513.524 990.15 524.011 990.484 534.896C991.166 563.844 974.693 590.666 961.822 615.747C941.346 655.646 930.863 702.581 933.875 747.631C945.708 743.285 953.169 735.703 961.768 727.212C990.931 698.398 1005.4 661.83 1025.53 627.225C1035.15 611.382 1046.44 600.105 1060.15 588.35C1083.31 568.477 1107.85 596.094 1103.26 618.963C1098.77 641.344 1063.09 662.663 1044.44 675.845C1040.04 685.159 1036.79 700.82 1037.89 711.14C1039.92 730.237 1060.51 718.97 1070.37 714.624C1107.14 698.398 1134.96 667.526 1158.26 635.639C1153.98 623.443 1152.53 613.344 1159.87 601.828C1171.56 583.324 1194.43 570.832 1214.75 585.066C1230.76 596.267 1225.36 611.65 1215.79 624.649C1215.96 615.977 1217.54 609.84 1215.11 601.053C1210.08 582.884 1194.94 584.856 1188.1 600.861C1176.85 627.206 1196.26 650.094 1205.61 673.815C1223.85 666.607 1256.93 655.311 1272.84 647.136C1283.94 626.688 1295.31 606.375 1306.92 586.205C1319.63 588.359 1322.43 588.761 1330.83 598.43C1327.13 610.721 1317.52 635.343 1312.43 647.031C1303.48 667.613 1292.48 684.815 1285.84 707.119C1289.85 706.564 1294.47 705.884 1298.13 704.42C1313.38 698.313 1342.98 669.431 1352.7 655.828C1372.18 628.555 1388.71 600.392 1421.19 584.989C1437.33 577.331 1450.35 581.668 1465.96 587.708C1468.43 585.43 1472.08 583.687 1475.09 582.031C1480.07 582.902 1487.52 583.765 1488.45 589.097C1489.89 597.339 1485.24 610.204 1482.95 617.729C1477.98 634.031 1473.3 649.673 1471.79 666.607C1484.09 657.743 1529.05 625.98 1534.58 615.096C1540.74 602.986 1542.31 588.857 1548.97 576.834C1549.15 576.518 1549.33 576.202 1549.51 575.886C1555.91 577.197 1560.4 577.657 1564.26 583.267C1571.59 593.931 1567.04 619.442 1564.86 631.58C1568.75 625.147 1573.09 619.001 1577.87 613.19C1589.15 599.683 1626.87 562.035 1645.13 581.477C1661.24 598.621 1641.04 633.045 1636.28 652.354C1633.31 664.473 1632.01 668.484 1632.02 681.33C1645.77 676.898 1669.65 653.396 1677.09 640.646C1691.38 616.168 1699.88 587.497 1726.02 571.712C1748.44 558.157 1776.7 578.413 1767.19 603.742C1759.85 622.715 1732.06 633.61 1714.24 641.038C1699.73 669.996 1704.05 696.196 1742.8 684.316C1786.43 670.943 1808.67 642.273 1828.85 603.943C1821.23 601.129 1812.63 597.271 1808.12 590.398C1794.16 569.128 1828.66 540.878 1843.85 564.073C1848.76 571.588 1845.53 583.85 1843.27 592.073C1858.39 592.217 1892.75 593.49 1901.43 607.964C1903.07 610.683 1901 615.173 1899.5 618.016C1881.54 651.922 1863.85 682.297 1852.68 719.248C1828.89 716.405 1817.87 718.176 1823.01 691.554C1829.53 657.752 1850.87 633.858 1863.08 604.336L1863.64 602.958C1857.97 601.828 1848.31 602.269 1842.45 602.422C1831.43 623.444 1804.19 658.47 1785.11 673.547C1761.38 692.31 1701.93 720.607 1677.68 687.897C1669.94 677.472 1671.14 666.952 1673.27 654.957C1661.06 673.011 1628.32 715.945 1601.54 678.248C1593.18 666.464 1643.09 600.325 1630.32 592.303C1612.75 594.677 1579.76 641.708 1569.78 657.742C1558.31 676.151 1556.58 686.231 1541.64 704.4C1528.53 708.756 1518.75 700.084 1510.36 691.19C1512.83 672.342 1521.14 651.434 1529.03 634.193C1507.15 647.844 1486.41 661.696 1471.2 683.024C1458.96 700.188 1455.27 720.329 1449.41 740.126C1435.11 788.373 1415.5 848.911 1375.56 881.89C1357.99 896.392 1336.6 900.126 1314.17 897.637C1308.02 896.957 1300.9 895.195 1297.04 889.931C1276.05 861.346 1372.26 781.27 1392.47 761.799C1404.67 750.044 1416.4 737.944 1426.56 724.351C1440.45 705.779 1447.18 689.993 1451.44 667.268C1448.91 664.673 1444.22 657.034 1442.98 656.488C1437.67 659.322 1433.16 670.609 1428.24 676.353C1415.12 691.679 1385.01 726.379 1362.42 708.306C1351.16 699.298 1352.35 683.809 1352 670.359C1347.7 673.183 1341.51 681.311 1337.83 685.351C1327.62 696.637 1317.47 707.138 1304.42 715.141C1290.51 723.67 1269.15 723.842 1261.26 707.243C1254.25 692.492 1264.09 670.092 1269.58 655.656C1249.23 661.448 1229.71 673.461 1208.34 681.282C1230.82 726.571 1186.36 782.735 1136.99 773.487C1128.27 771.85 1114.31 762.909 1110.44 754.974C1094.65 722.637 1155.67 692.712 1177.08 681.301C1172.84 666.473 1168.99 654.718 1163.92 640.129C1160.38 644.236 1156.9 648.783 1153.51 653.109C1125.89 688.309 1089.52 732.257 1040.76 733.319C1009.25 734.008 1001.04 714.279 1002.21 687.322C990.497 704.802 982.746 722.311 968.779 739.227C954.708 756.266 935.656 769.61 915.044 751.747C899.532 738.297 900.366 707.761 899.653 688.165C885.166 703.548 879.343 717.094 860.851 730.189C864.514 723.374 871.109 714.777 875.402 707.875C880.851 699.126 883.941 692.818 888.236 683.57C870.635 700.036 858.724 726.265 836.866 735.818C834.946 736.651 825.064 738.346 822.062 738.939C814.479 735.934 808.052 731.051 806.093 722.809C801.994 705.587 813.89 680.2 821.975 665.314C833.501 644.082 854.744 618.81 877.999 610.252C889.44 606.653 904.898 613.411 915.1 619.164C921.24 604.125 931.148 586.301 938.698 571.77C945.775 558.157 961.633 521.302 974.527 514.071ZM1432.64 731.158C1419.77 744.589 1405.67 759.532 1393.09 773.135C1378.04 789.409 1299.75 861.176 1317.74 884.246C1378.94 889.626 1420.35 780.822 1433.75 732.92C1433.38 732.336 1433.01 731.742 1432.64 731.158ZM1175.43 696.034C1155.35 704.602 1137.34 716.261 1128.58 737.092C1124.76 746.176 1127.14 753.806 1134.58 759.741C1152.51 768.624 1167.12 756.821 1172.33 739.686C1175.35 729.758 1179.15 706.689 1177.95 696.532C1176.79 696.197 1176.57 695.996 1175.43 696.034ZM900.36 631.705C880.047 642.484 870.056 661.18 858.461 680.307C853.437 688.597 846.452 699.27 844.11 708.671L845.04 709.79L847.159 708.671C859.774 699.127 912.4 647.692 905.564 633.036C903.238 631.591 903.168 631.83 900.36 631.705ZM1457.35 608.004C1461.51 595.55 1452.13 594.957 1442.88 595.56C1432.84 601.351 1424.08 611.344 1417.26 620.62C1401.17 642.523 1378.8 666.675 1378.49 695.308C1384.62 693.642 1386.45 693.172 1392.2 690.291C1407.62 681.551 1415.38 676.469 1426.34 662.215C1439.15 645.549 1450.63 628.126 1457.35 608.004ZM1081.63 596.211C1069.06 605.449 1045.93 640.102 1048.81 655.026L1050.35 655.926C1052.84 654.921 1053.36 654.701 1055.63 653.294C1068.64 645.291 1085.78 626.509 1090.3 611.547C1092.12 605.535 1087.92 597.101 1081.63 596.211ZM1748.58 578.793C1738.97 586.633 1721.85 612.078 1720.45 623.508L1721.11 625.346C1724.04 625.7 1724.53 624.79 1727.71 623.287C1738.94 617.534 1752.76 610.9 1756.93 598.044C1759.22 590.941 1758.09 579.416 1748.58 578.793ZM980.63 535.807C976.95 541.234 973.814 547.007 971.272 553.048C968.848 558.716 953.165 603.448 956.89 607.23C964.503 591.195 984.936 554.005 981.965 537.339L980.63 535.807ZM1827.01 563.5C1816.58 571.11 1819.07 576.452 1827.89 583.612L1830.13 583.632C1833.48 579.362 1834.55 568.507 1830.43 564.237L1827.01 563.5Z" fill="#F4F4F4"/>
<path d="M1395.63 850.219C1395.61 850.429 1395.58 850.649 1395.55 850.87C1386.76 867.928 1369.06 884.499 1352.64 892.301L1352.39 891.429C1353.73 888.146 1357.85 886.404 1361.02 884.413C1375.2 875.51 1384.19 862.041 1395.63 850.219Z" fill="#F4F4F4"/>
<path d="M1128.7 160C1154.22 162.986 1154.3 170.32 1144.44 192.939C1135.02 214.536 1124.3 236.134 1113.02 256.823C1144.76 255.744 1174.76 250.393 1206 248.066C1259.81 244.058 1313.09 238.26 1366.78 233.237C1389.27 231.132 1413.31 229.241 1435.84 229.971C1435.5 230.068 1435.15 230.165 1434.8 230.263L1433.06 230.712C1420.5 234.025 1382.18 238.238 1366.13 240.809L1252.24 258.423C1239.05 260.418 1225.95 262.826 1212.73 264.766C1178.01 269.859 1134.27 271.322 1101.95 285.005C1092.06 301.147 1087.17 313.632 1079.38 330.098C1058.56 374.102 1044.23 418.914 1034.56 466.569C1031.32 482.496 1025.76 514.641 1035.94 528.45C1038.93 532.509 1040.47 534.969 1040.88 540.081C1039.5 543.786 1040.62 542.312 1037.34 544.619C1026.46 546.524 1014.63 536.75 1011.36 527.369C993.343 475.603 1030.61 394.084 1047.28 345.416C1026.08 379.035 1000.37 410.583 976.536 442.368C961.833 461.974 949.1 482.823 933.978 502.094C924.893 513.672 905.418 533.706 889.991 521.003C883.245 515.37 882.066 506.063 881.562 497.75C881.802 466.652 888.998 441.567 891.767 410.064C854.719 449.272 833.299 499.992 794.999 537.19C767.787 561.907 743.261 517.598 750.224 493.87C768.912 429.506 802.597 295.729 893.603 317.592C974.607 339.113 953.41 346.991 929.487 410.993C923.279 427.603 910.705 479.858 906.746 499.593C926.324 490.067 941.106 471.276 955.05 454.833C998.758 403.291 1042.72 347.449 1071.05 285.858C1048.1 290.597 1025.91 297.059 1002.56 300.543C979.623 303.965 962.802 310.401 943.97 291.664C966.36 278.577 1048.48 268.652 1078.81 262.934C1098.91 223.348 1101.12 200.429 1128.7 160ZM911.457 349.778C904.637 338.998 896.209 328.569 882.128 330.452C830.663 350.472 800.715 452.511 790.037 501.751C796.276 495.4 802.358 488.897 808.275 482.246C831.912 455.383 877.989 394.803 889.878 362.325L898.324 366.969C902.178 362.07 908.239 354.797 911.457 349.778Z" fill="#F4F4F4"/>
<path d="M856.652 442.172C856.655 447.941 837.816 473.026 832.925 479.87L832.547 478.555C833.603 472.922 852.228 447.472 856.652 442.172Z" fill="#F4F4F4"/>
<path d="M1726.3 424.098L1729.06 425.075C1718.6 437.678 1686.28 487.155 1676.81 492.041C1681.16 484.45 1689.63 475.695 1694.91 468.199C1705.27 453.468 1714.61 437.775 1726.3 424.098Z" fill="#F4F4F4"/>
<path d="M1611.06 265.391C1612.26 268.682 1609.25 274.66 1609.52 280.302C1613.88 278.299 1616.17 271.329 1617.91 266.925C1625.14 270.696 1654.49 288.819 1658.75 294.186C1667.89 305.725 1650.27 344.826 1649.35 358.855C1648.27 375.291 1640.9 391.711 1637.57 407.02C1631.9 433.017 1623.88 474.074 1636.42 498.242C1679.9 477.373 1721.95 423.828 1750.15 385.909C1753.66 381.2 1768.66 362.911 1773.61 362.333C1773.27 371.628 1734.43 413.138 1727.25 422.81L1726.31 424.098L1729.06 425.075C1733.63 419.465 1740.43 412.404 1745.94 407.855C1739.21 421.455 1729.06 436.267 1719.64 448.307C1702.36 470.389 1686.55 493.277 1665.52 512.042C1648.35 527.355 1635.79 527.374 1614.49 525.785C1589.1 523.89 1580.12 509.853 1575.27 486.818C1567.61 457.997 1573.99 441.962 1577.7 414.066C1573.41 423.741 1571.29 434.087 1567.62 443.975C1560.3 463.628 1544.88 484.438 1529.51 498.572C1509.07 517.354 1477.86 526.005 1450.42 524.617C1436.07 523.89 1422.31 519.109 1412.65 507.962C1394.18 486.643 1394.85 451.759 1397 425.481C1400.51 382.721 1411.05 340.197 1424.63 299.626C1426.69 293.475 1429.77 280.07 1435.41 276.368C1438.73 274.188 1443.73 274.254 1447.42 275.181C1462.12 278.863 1478.71 294.779 1480.87 309.916C1482.99 324.895 1474.48 352.096 1471.21 367.697C1467.48 385.566 1454.65 454.96 1462.95 467.962C1464.6 470.547 1467.02 472.326 1470.09 472.774C1479.68 474.167 1492.95 463.221 1499.84 457.277C1521.76 438.377 1540.33 414.455 1554.11 389.059C1561.42 375.613 1567.66 361.296 1573.53 347.173C1580.45 330.574 1599.58 273.641 1611.06 265.391ZM1565.5 382.762C1557.45 397.868 1552.51 413.277 1545.6 428.802C1539.32 442.906 1529.01 457.807 1522.34 471.154L1522.89 472.341L1523.21 472.454C1536.38 454.356 1563.48 404.533 1566.47 383.633L1565.5 382.762ZM1549.41 403.709C1546.21 409.652 1529.38 436.963 1528.23 441.384L1529 442.37C1534.91 434.028 1548.97 414.958 1550.68 405.524L1549.41 403.709Z" fill="#F4F4F4"/>
<path d="M1970.21 210.473C1971.61 210.915 1973 211.387 1974.38 211.889C1985.29 215.91 1988.74 221.132 1993.25 231.004C1988.88 241.288 1976.81 252.612 1975.55 256.988L1976.89 257.234C1977.91 256.148 1978.92 255.066 1979.94 253.99C1992.31 240.983 1996.43 238.1 2013.7 237.657C1996.62 261.633 1982.16 271.773 1964.34 292.798C1939.9 321.66 1917.24 351.795 1891.29 379.822C1897.51 392.219 1905.52 404.319 1912.72 416.299C1920.9 429.914 1929.59 446.895 1938.82 459.73C1941.12 461.109 1942.21 461.375 1943.72 463.417C1952.9 476.566 1961.01 489.121 1971.11 501.656C1974.72 506.378 1978.58 510.722 1980.72 516.188C1979.93 519.655 1976.89 518.516 1977.33 521.808C1979 534.338 1976.84 533.208 1966.8 541.843C1963.05 541.297 1958.09 540.666 1954.54 539.546C1944.66 536.416 1943.62 530.069 1934.13 533.477C1925.32 531.887 1861.27 443.629 1854.73 431.148C1848.13 439.1 1839.15 449.278 1833.07 457.415C1825.27 467.851 1796.37 514.88 1786.56 519.449C1784.23 518.452 1782.07 516.974 1779.66 516.965C1781.63 522.841 1781.39 522.162 1776.94 527.158C1772.43 533.084 1769.37 536.999 1764.27 542.389C1764.01 542.36 1763.75 542.331 1763.48 542.303L1762.15 542.13C1753.06 541.039 1738.51 535.755 1728.88 532.893C1735.9 515.487 1764.21 474.753 1776.21 457.598C1789.32 438.874 1811.91 403.723 1825.82 387.436C1804.33 358.09 1785.59 327.979 1766.24 297.221C1762.15 290.726 1757.01 283.442 1753.55 276.72L1754.11 275.499L1757.77 274.313L1758.29 273.246L1756.71 272.014C1754.35 273.339 1755.28 273.054 1752.58 273.407C1748.1 267.949 1738.93 247.063 1732.54 238.18C1742.27 235.251 1744.65 233.609 1752.41 227.728C1760.68 231.133 1772.05 233.668 1778.33 235.748C1804.48 244.402 1850.71 307.038 1861.81 329.986C1879.72 306.955 1905.83 280.013 1925.12 257.758C1937.64 243.319 1956.15 223.256 1970.21 210.473ZM1810.01 453.684C1799.73 464.259 1784.51 486.667 1776.55 499.457L1776.78 501.126C1784.03 493.962 1803.18 465.532 1810.12 455.754L1810.01 453.684ZM1957.83 271.531C1942.67 288.203 1928.22 305.506 1914.52 323.393C1906.53 334.011 1897.75 347.287 1889.26 357.165L1889.38 358.733L1890.59 359.072C1900.35 347.866 1909.12 334.738 1918.1 322.759C1930.97 305.559 1944.69 289.013 1959.21 273.186L1958.79 271.858L1957.83 271.531Z" fill="#5B3DF6"/>
<path d="M1148.52 362.91C1157.34 362.718 1172.83 369.892 1170.95 378.522C1162.2 418.56 1137.73 442.216 1140.45 486.281C1177.55 456.227 1212.48 418.04 1238.94 378.385C1251.08 360.176 1263.32 356.494 1276.73 377.595C1275.09 393.139 1270.61 401.547 1264.93 416.097C1255.05 441.378 1247.46 462.107 1247.56 489.545C1278.41 472.96 1307.21 427.587 1319.32 395.606C1320.59 392.258 1322.87 386.108 1325.77 384.318L1330.91 385.633C1334.13 387.011 1345.58 393.181 1344.19 397.579C1334.78 427.118 1322.45 455.145 1315.49 485.585C1313.8 492.941 1311.37 501.752 1301.94 497.999C1297.06 496.02 1293.17 492.171 1291.15 487.312C1286.68 476.266 1289.92 466.228 1294.11 455.995C1279.53 470.364 1255.3 503.048 1234.33 504.624C1211.37 506.348 1216.56 470.106 1217.17 456.189C1204.74 471.091 1191.78 494.021 1176.2 503.208C1120.14 536.262 1076.49 499.563 1106.8 438.557C1118.02 415.985 1126.78 389.672 1139.5 367.765C1140.41 366.198 1146.67 363.698 1148.52 362.91ZM1211.72 428.742C1204.4 437.489 1160.54 490.313 1162.93 498.941C1177.73 490.925 1204.11 449.043 1211.51 432.111C1211.98 431.022 1211.91 429.884 1211.72 428.742ZM1203.62 455.412C1201.16 459.545 1194.79 469.488 1194.14 473.929C1198.7 468.626 1201.73 464.696 1204.1 458.1C1203.99 457.344 1203.86 456.078 1203.62 455.412Z" fill="#F4F4F4"/>
<path d="M1336.71 521.273C1351.96 522.374 1355.1 529.209 1347.7 543.281C1343.34 551.59 1335.4 556.664 1326.4 559.182C1306.6 559.182 1310.24 538.418 1320.37 528.405C1327.23 521.647 1327.37 521.551 1336.71 521.273Z" fill="#F4F4F4"/>
<path d="M1344.03 294.969C1357.03 295.483 1359.8 298.733 1364.63 310.342C1360.56 316.854 1357.07 321.481 1351.81 327C1333.4 338.354 1325.93 307.953 1344.03 294.969Z" fill="#F4F4F4"/>
<defs>
<clipPath id="clip0_409_15740">
<rect width="549.026" height="818.36" fill="white" transform="translate(100 119.988)"/>
</clipPath>
</defs>
</svg>
