<svg width="83" height="40" viewBox="0 0 83 40" fill="none" xmlns="http://www.w3.org/2000/svg">
<g opacity="0.9" clip-path="url(#clip0_394_13196)">
<path d="M13.4449 4.32034C13.5022 4.32049 13.5605 4.32146 13.5977 4.322C13.6432 4.32265 13.6607 4.32266 13.6674 4.32255L13.7387 4.32178C14.6186 4.31674 15.5194 4.48755 16.3565 4.84832C16.5938 4.79367 16.8462 4.79586 17.093 4.86316C18.2864 5.18858 19.5385 5.83716 20.5387 6.77007C21.5439 7.70771 22.3676 9.00744 22.4874 10.6101C22.4899 10.644 22.4919 10.6778 22.4935 10.7116C23.045 11.0766 23.5084 11.5327 23.8533 12.1184C24.3628 12.9836 24.5077 13.9561 24.5272 14.9279C24.5341 15.2736 24.4236 15.5977 24.23 15.8587C24.1953 17.0703 24.0058 18.2563 23.8582 19.2421C24.274 19.5846 24.4995 20.0211 24.6219 20.3772C24.8863 21.1464 24.83 21.9991 24.7655 22.4932C24.6655 23.2607 24.4766 23.9953 24.317 24.6262C24.15 25.2865 24.0113 25.8468 23.9416 26.4076L23.9416 26.4077C23.849 27.1521 23.4306 27.7797 22.9096 28.1801C22.7413 28.3095 22.5469 28.4261 22.3327 28.5174C22.0657 29.3511 21.692 30.1294 21.0213 30.9594L21.0213 30.9594C20.6 31.4808 20.139 32.0554 19.5576 32.6059L19.5576 32.6059C18.0129 34.0682 16.021 35.6674 13.1178 35.1514C11.7217 34.9374 10.4639 34.1042 9.49053 33.2616C8.48036 32.3871 7.60536 31.3522 6.97882 30.4936L6.97875 30.4935C6.58421 29.9527 6.24548 29.2226 6.0121 28.5235C5.52708 28.3247 5.14565 27.9857 4.8636 27.5498C4.52577 27.0277 4.40954 26.4499 4.34882 26.0944C4.26509 25.6043 4.26783 25.4808 4.21163 25.2506C4.01136 24.4302 3.62034 23.2394 3.5593 22.0179L3.55668 21.9597C3.53785 21.5036 3.54386 20.7084 3.89299 20.0116C4.02783 19.7424 4.22818 19.46 4.51532 19.2265C4.50957 19.1921 4.50406 19.1583 4.49886 19.1255C4.49835 19.1223 4.49783 19.119 4.49735 19.1158C4.35377 18.1689 4.24363 17.2168 4.16705 16.2615L4.14722 16.0358C4.09557 15.445 4.04784 14.8386 4.08607 14.1902C3.92353 13.9512 3.82907 13.6653 3.82453 13.3628C3.82348 13.293 3.82436 13.2231 3.82715 13.1534L3.82726 13.1503C3.84155 12.8097 3.91239 12.4353 3.96216 12.2079C4.08939 11.6266 4.27822 11.1178 4.5196 10.6591C4.4502 10.2988 4.5122 9.9158 4.71297 9.58624C5.25873 8.6904 5.83129 7.97439 6.58286 7.4027C6.75036 7.27529 6.92207 7.15861 7.09834 7.05084C7.2228 6.72193 7.46146 6.43647 7.78976 6.25785C7.83623 6.23256 7.88419 6.20034 8.02933 6.10205C8.15419 6.0175 8.34596 5.8882 8.57839 5.76839C9.33824 5.37096 10.1516 5.10933 10.9845 4.98895C11.1708 4.79758 11.4088 4.65428 11.6805 4.58232C12.1978 4.44531 12.5417 4.39646 12.9967 4.3468C13.093 4.33282 13.1772 4.32725 13.2341 4.32451C13.3128 4.32071 13.3872 4.32018 13.4449 4.32034Z" fill="#2A2A2A"/>
<path d="M13.2105 6.07616C13.335 6.05311 13.5685 6.0667 13.7 6.06453C14.8665 6.04522 16.0537 6.43137 16.9441 7.23351C17.0633 7.34071 17.179 7.45542 17.3035 7.55627L17.3216 7.57074C17.112 7.12618 16.9957 6.90986 16.6534 6.54402C18.5762 7.06832 20.7015 8.65206 20.8672 10.8731C20.8879 11.1477 20.8587 11.4486 20.8301 11.723C22.3635 12.3973 22.8355 13.3476 22.8695 15.0381C22.7731 14.754 22.7498 14.7001 22.5254 14.5098C22.7008 15.9914 22.4408 17.6029 22.2217 19.0705C22.1645 19.4554 22.0596 19.8611 21.9993 20.2535C23.1826 20.0284 23.2272 21.4041 23.1161 22.2565C22.9459 23.5612 22.4682 24.8001 22.3046 26.115C22.2326 26.694 21.6172 27.2177 21.0182 27.0532C20.7547 28.1576 20.4702 28.9512 19.7515 29.8407C19.3281 30.3646 18.9347 30.8523 18.4462 31.3147C16.9571 32.7245 15.4783 33.8115 13.3782 33.4311C11.4438 33.1462 9.43907 31.0038 8.29834 29.4406C7.86563 28.8475 7.47304 27.8243 7.3407 27.0878C6.88327 27.0991 6.53755 27.0348 6.26529 26.614C5.95033 26.1273 5.95797 25.3723 5.82017 24.8079C5.57877 23.819 5.25945 22.8874 5.21716 21.8626C5.18338 21.0441 5.33019 20.0479 6.37578 20.2533C6.29682 19.808 6.19693 19.3473 6.1268 18.9041C5.9903 18.0039 5.88566 17.0987 5.8131 16.1903C5.70798 14.9874 5.6213 14.062 6.03242 12.9015C5.74523 13.1095 5.71369 13.1676 5.48172 13.4466C5.4811 13.4052 5.48161 13.3637 5.48327 13.3223C5.49184 13.118 5.53928 12.8501 5.58286 12.651C5.81039 11.6113 6.28787 10.892 7.02109 10.1807C6.62485 10.2823 6.50519 10.3488 6.13857 10.5283C7.09637 8.9561 7.93261 8.37099 9.63858 7.81496C9.28217 7.74177 8.96452 7.72803 8.60541 7.78729C8.85249 7.65286 9.06619 7.46862 9.35166 7.32147C10.5615 6.68638 11.9394 6.49107 13.2673 6.76645C12.8039 6.46932 12.6299 6.42416 12.102 6.27062C12.5239 6.15887 12.7851 6.12209 13.2105 6.07616Z" fill="#121212"/>
<path d="M11.0132 31.3618C10.8855 31.2673 10.761 31.1681 10.6401 31.0644C10.1853 30.6722 9.83348 30.286 9.43722 29.8481C8.18038 28.4598 7.9013 27.2374 7.60269 25.413C7.44688 24.4159 7.31956 23.4143 7.22091 22.4094C7.20236 22.2026 7.19337 21.9959 7.18844 21.7855C7.16273 20.6865 7.16691 19.5669 7.27727 18.4734C7.29287 18.3188 7.38019 18.0979 7.44103 17.9586C7.53891 17.737 7.64962 17.5218 7.77253 17.3142C7.88973 17.1201 8.22996 16.6588 8.25456 16.4743C8.38203 15.5177 8.22034 14.6768 8.85946 13.8652C9.48443 13.0716 10.279 12.9587 11.194 12.8174C11.5064 12.7692 11.8432 12.6277 12.1663 12.7106C12.7947 12.8561 13.4775 13.3367 14.1316 13.3043C14.6383 13.2792 15.1687 13.0012 15.6698 12.8704C16.2087 12.7296 16.7188 12.6966 17.2689 12.6426C17.0269 12.7257 16.8097 12.8259 16.5598 12.9015C17.0015 12.9206 17.738 12.9861 18.1661 13.0759C18.8951 13.2351 19.4896 13.7845 19.7299 14.5212C19.9296 15.1495 19.8898 15.9106 20.0173 16.5518C20.0496 16.7139 20.3628 17.0897 20.46 17.255C20.7123 17.6839 20.9787 18.1217 21.0148 18.6399C21.0567 19.0715 21.0923 19.5034 21.1014 19.9375C21.1168 20.6858 21.1568 21.4517 21.1261 22.1994C21.1038 22.7332 21.0187 23.314 20.9522 23.8455C20.8507 24.7178 20.7196 25.5861 20.5594 26.4486C20.2402 28.1204 19.6825 29.0488 18.542 30.257C18.116 30.7085 17.7551 31.0783 17.2412 31.437C17.4149 30.8718 17.4921 30.3113 17.3703 29.7231C17.2426 30.0992 17.1212 30.4892 16.8534 30.8079C16.6959 30.9956 16.2894 31.4716 15.9937 31.4461C15.9502 31.4424 15.8925 31.3027 15.8707 31.2545L15.7811 31.0339C15.7307 31.3103 15.708 31.3699 15.5985 31.6167C15.4637 31.3532 15.349 31.1859 15.1274 30.9932C15.1948 31.3162 15.1971 31.4775 15.1082 31.7978C14.9324 31.3824 14.8591 31.2134 14.569 30.8562C14.5988 31.0898 14.5937 31.2679 14.5471 31.5013C14.3266 31.2103 14.2846 31.1136 14.139 30.7769C14.0268 31.0469 13.9377 31.2642 13.7426 31.4859C13.6886 31.264 13.683 31.0865 13.7143 30.8573C13.4796 31.1508 13.2921 31.4049 13.2122 31.7831C13.0692 31.4989 13.0917 31.3145 13.1422 31.0066C12.9019 31.2404 12.8339 31.3285 12.6854 31.6357C12.5964 31.4374 12.5441 31.2937 12.4919 31.0804C12.4639 31.1534 12.4447 31.2062 12.4088 31.2748C12.3801 31.3493 12.3386 31.4153 12.2991 31.4844C11.789 31.3469 11.3431 30.8083 11.1152 30.3314C11.0202 30.1327 10.9548 29.9154 10.862 29.7127C10.8082 30.3763 10.8383 30.725 11.0132 31.3618Z" fill="#FAFAFA"/>
<path d="M8.42402 18.3824C8.36827 18.1773 8.93901 17.4848 9.08611 17.3418C9.40636 17.0305 9.54248 16.9566 9.52993 16.4917C9.48683 14.8954 9.38682 13.5292 11.2034 13.1713C12.4558 12.9245 12.8282 13.7102 14.0297 13.6567C15.0075 13.572 15.7614 12.9695 16.7804 13.1758C18.4784 13.4998 18.6927 15.0079 18.5307 16.5472C18.4729 17.0959 18.9875 17.2212 19.2825 17.5916C19.3794 17.7132 19.701 18.116 19.6708 18.2734C19.4974 18.1489 18.8922 17.7146 18.6899 17.7257C18.4991 17.7362 18.0727 17.8534 17.8648 17.9009C17.3814 18.0114 16.809 18.0341 16.3466 18.1944C16.2801 18.1996 16.0066 18.2082 15.9696 18.2475L15.8887 18.2781C15.4677 18.3218 15.0176 18.7275 14.5875 18.8291C13.9567 18.9781 13.3848 18.7966 12.8148 18.5134C12.7049 18.459 12.4805 18.3369 12.364 18.323L12.2441 18.2715C12.2544 18.2751 11.9183 18.2214 11.9012 18.2184C11.4793 18.0352 10.7971 18.0288 10.335 17.9074C10.1451 17.8576 9.67945 17.7615 9.50058 17.7435C9.26353 17.7196 8.62412 18.2294 8.42402 18.3824Z" fill="#FAFAFA"/>
<path d="M9.65351 19.5852C9.67534 19.5811 9.83458 19.5292 9.86652 19.5201C10.0703 19.461 10.198 19.4404 10.4062 19.4272C10.6311 19.4409 10.9097 19.6116 11.0724 19.7719C11.072 19.808 11.0763 19.7944 11.0679 19.8141C11.4288 19.9556 12.2054 20.3119 12.4485 20.6918C12.4626 20.7137 12.4552 20.7854 12.4522 20.8159C12.5495 20.8389 12.5525 20.7384 12.6585 20.7362C12.9066 20.9064 12.2522 21.7017 12.1231 21.8688C11.9411 22.1022 11.7463 22.3245 11.5396 22.5343C11.7155 22.4511 12.1333 22.2303 12.3147 22.2487C12.4896 22.4033 12.1805 23.3393 12.1618 23.5998C11.9204 24.045 11.7586 24.4795 12.0088 24.9696C12.0282 25.1473 12.1193 25.2817 12.2402 25.4023C12.4274 25.5891 12.9049 25.6013 13.0224 25.6664C13.2147 25.6296 13.3225 25.5833 13.4849 25.7155C13.476 25.9675 13.436 26.1446 13.3545 26.3838C13.2015 26.4793 13.0124 26.5295 12.8472 26.605C12.6028 26.7168 12.3695 26.8469 12.1385 26.986C11.1156 27.4668 11.1406 27.4549 10.6623 28.468C10.5763 28.1964 10.5739 28.0511 10.5175 27.8011C10.4894 27.9171 10.4921 28.0487 10.4477 28.166C10.4221 28.2338 10.3964 28.3085 10.3257 28.3384C10.2932 28.3522 10.2541 28.3464 10.2262 28.3318C9.60528 28.0056 9.60989 26.5739 9.36078 25.9976C9.19226 25.6541 8.99417 25.3707 8.78418 25.0492C8.14029 24.063 7.60675 22.7683 8.02461 21.5785C8.09339 21.3826 8.23853 21.3034 8.41315 21.2382C8.51105 21.2984 8.61628 21.4036 8.69608 21.4909C9.10837 21.9422 10.1068 22.176 10.6439 21.8835C10.9482 21.8348 11.1965 21.7197 11.475 21.5937C11.6507 21.593 12.377 21.2463 12.3143 21.0248C12.1255 20.9237 11.0211 21.1616 10.7281 21.1945C10.4914 21.2196 10.2535 21.2298 10.0156 21.2246C9.50755 21.2945 9.18554 21.0629 8.81213 20.7499L8.43166 20.7254C9.01197 20.3472 9.03807 20.1178 9.82247 19.832C9.74484 19.7831 9.71654 19.7929 9.64561 19.7288C9.62516 19.6511 9.6321 19.6736 9.65351 19.5852Z" fill="#FAFAFA"/>
<path d="M9.65351 19.5852C9.67534 19.5811 9.83458 19.5292 9.86652 19.5201C10.0703 19.461 10.198 19.4404 10.4062 19.4272C10.6311 19.4409 10.9097 19.6116 11.0724 19.7719C11.072 19.808 11.0763 19.7944 11.0679 19.8141C11.4288 19.9556 12.2054 20.3119 12.4485 20.6918C12.4626 20.7137 12.4552 20.7854 12.4522 20.8159C12.123 20.7869 11.3838 20.8954 11.062 20.9545C11.4603 20.7797 11.6425 20.6525 12.0767 20.6221C11.8364 20.4769 11.4787 20.2515 11.2286 20.1535C11.2152 20.2925 11.2115 20.3927 11.1574 20.5221C11.028 20.8319 10.7226 20.9787 10.4081 20.9354C10.2255 20.912 10.06 20.8118 9.94996 20.6577C9.83476 20.494 9.81628 20.3527 9.80094 20.158C9.61912 20.262 9.39837 20.3851 9.25154 20.5358C9.61961 20.9523 10.1343 20.9995 10.6506 21.0229C10.0923 21.1153 9.75681 21.0843 9.23193 20.8717C9.51887 21.0895 9.6669 21.1367 10.0156 21.2246C9.50755 21.2945 9.18554 21.0629 8.81213 20.7499L8.43166 20.7254C9.01197 20.3472 9.03807 20.1178 9.82247 19.832C9.74484 19.7831 9.71654 19.7929 9.64561 19.7288C9.62516 19.6511 9.6321 19.6736 9.65351 19.5852Z" fill="#121212"/>
<path d="M9.65351 19.5852C9.67534 19.5811 9.83458 19.5292 9.86652 19.5201C10.0703 19.461 10.198 19.4404 10.4062 19.4272C10.6311 19.4409 10.9097 19.6116 11.0724 19.7719C11.072 19.808 11.0763 19.7944 11.0679 19.8141C10.5976 19.7158 10.2978 19.6842 9.82247 19.832C9.74484 19.7831 9.71654 19.7929 9.64561 19.7288C9.62516 19.6511 9.6321 19.6736 9.65351 19.5852Z" fill="#FAFAFA"/>
<path d="M10.7181 20.0106C10.7945 19.991 10.8725 20.0362 10.8968 20.1144C10.9211 20.1927 10.8836 20.2773 10.8107 20.3083C10.7586 20.3306 10.699 20.3206 10.6563 20.2823C10.6136 20.244 10.5949 20.184 10.6079 20.1267C10.6209 20.0695 10.6634 20.0247 10.7181 20.0106Z" fill="#FAFAFA"/>
<path d="M13.0224 25.6664C13.2147 25.6296 13.3225 25.5833 13.4849 25.7155C13.476 25.9675 13.436 26.1446 13.3545 26.3838C13.2015 26.4793 13.0124 26.5295 12.8472 26.605C12.6028 26.7168 12.3695 26.8469 12.1385 26.986C11.1156 27.4668 11.1406 27.4549 10.6623 28.468C10.5763 28.1964 10.5739 28.0511 10.5175 27.8011C10.5711 26.6646 11.2423 26.652 12.0595 26.2024C12.3976 26.0163 12.6452 25.8004 13.0224 25.6664Z" fill="#121212"/>
<path d="M15.8682 21.2846C16.0755 21.3334 16.5577 21.5907 16.7784 21.6923C17.5237 22.0401 18.4661 22.1588 19.1882 21.6862C19.3877 21.5555 19.5386 21.3427 19.7293 21.2128C19.8806 21.182 20.0678 21.353 20.1201 21.4563C20.4005 22.0103 20.343 22.6967 20.2367 23.2818C20.0271 24.4348 19.1832 25.2059 18.7977 26.2358C18.5666 26.8534 18.64 27.8152 18.0828 28.3032C17.9697 28.4096 17.8292 28.1516 17.8159 28.0536C17.8025 27.9548 17.7787 27.8362 17.7542 27.7364C17.6996 28.0791 17.706 28.1336 17.5899 28.49C17.2727 27.4937 16.9722 27.4318 16.1566 27.0047C15.9363 26.8686 15.673 26.7151 15.439 26.6075C15.2692 26.5292 15.0857 26.4638 14.9104 26.385C14.8478 26.1975 14.798 25.915 14.7587 25.7128C14.9073 25.6234 14.9301 25.6345 15.1001 25.6392C15.1874 25.6011 15.2736 25.6052 15.3659 25.5881C15.6573 25.5342 16.0138 25.4769 16.1134 25.1379C16.2165 24.9848 16.2807 24.9448 16.3422 24.7413C16.4603 24.3516 16.3122 24.0087 16.1466 23.6702C16.0853 23.3569 15.7405 22.4662 15.8213 22.2057C15.8469 22.1804 15.87 22.1503 15.9137 22.1652C16.2167 22.2687 16.4852 22.4579 16.7969 22.5566C16.4208 22.0804 16.1891 21.8198 15.8682 21.2846Z" fill="#FAFAFA"/>
<path d="M14.7587 25.7129C14.9073 25.6235 14.9301 25.6346 15.1001 25.6393C15.6125 25.7497 15.8271 26.0147 16.262 26.236C17.0095 26.6167 17.6813 26.712 17.7542 27.7365C17.6996 28.0792 17.706 28.1336 17.5899 28.4901C17.2727 27.4937 16.9722 27.4318 16.1566 27.0047C15.9363 26.8687 15.673 26.7152 15.439 26.6076C15.2692 26.5293 15.0857 26.4639 14.9104 26.3851C14.8478 26.1976 14.798 25.9151 14.7587 25.7129Z" fill="#121212"/>
<path d="M16.3466 18.1944C16.809 18.0341 17.3814 18.0114 17.8648 17.9009C18.0727 17.8534 18.4991 17.7362 18.6899 17.7257C18.8922 17.7146 19.4974 18.1489 19.6708 18.2734C20.0654 18.6264 20.1452 18.9152 20.2591 19.4361C19.7631 19.0548 19.2225 18.5876 18.5606 18.7128C18.2654 18.7687 17.4212 19.0432 17.15 19.1722C17.8851 19.1636 18.7469 19.2019 19.3324 19.7583C19.5065 19.9237 19.6077 20.155 19.7088 20.3735C19.6199 20.3153 19.443 20.209 19.3708 20.1466C19.065 19.8821 19.0051 19.7505 18.621 19.5963C18.2506 19.46 17.9541 19.4015 17.5615 19.4299C16.6278 19.4063 15.8277 20.4339 15.599 20.4328C15.5964 20.3743 15.6021 20.3802 15.5818 20.3284C15.1239 20.4934 15.3538 21.145 15.4242 21.4996C14.8594 20.7616 14.707 19.9903 15.3963 19.2843C15.1913 18.9929 15.2278 18.8255 15.3369 18.5038C15.3551 18.6546 15.3988 18.818 15.4346 18.9668C15.5469 18.6607 15.6529 18.4879 15.8887 18.2781L15.9696 18.2475C16.0066 18.2082 16.2801 18.1996 16.3466 18.1944Z" fill="#121212"/>
<path d="M15.9696 18.2475C16.0066 18.2082 16.28 18.1996 16.3465 18.1944C16.0978 18.3849 15.9047 18.6316 15.6765 18.8486C15.7317 18.6998 15.9623 18.3076 15.9696 18.2475Z" fill="#FAFAFA"/>
<path d="M8.42396 18.3824C8.62406 18.2294 9.26347 17.7196 9.50052 17.7435C9.67939 17.7615 10.1451 17.8576 10.3349 17.9074C10.797 18.0288 11.4793 18.0352 11.9011 18.2184C11.9182 18.2214 12.2543 18.2751 12.244 18.2715L12.364 18.323C12.5425 18.5103 12.6913 18.7256 12.7734 18.9783C12.7978 18.8921 12.8452 18.6555 12.8762 18.605L12.899 18.61C13.0121 18.8416 12.9668 19.0586 12.8485 19.2739C13.139 19.6535 13.3341 19.9628 13.285 20.4807C13.26 20.7443 13.0986 21.1982 12.9662 21.4186C12.9774 21.0576 13.0832 20.6725 12.8281 20.3707C12.7819 20.3161 12.7623 20.3122 12.7025 20.3066C12.6437 20.3404 12.6346 20.3583 12.5927 20.4114C12.5165 20.39 12.3078 20.2349 12.236 20.175C11.7298 19.754 11.0951 19.3281 10.4061 19.4271C10.198 19.4403 10.0702 19.461 9.86648 19.5201C9.83454 19.5292 9.6753 19.581 9.65347 19.5851C9.21996 19.6875 9.14887 19.9356 8.84621 20.1663C8.83617 20.1364 8.84216 20.151 8.82813 20.122C8.70964 20.2107 8.66798 20.2421 8.53672 20.3034C8.91943 19.4539 9.58371 19.2702 10.437 19.1833C10.6132 19.1654 10.7974 19.1823 10.9713 19.1619L10.9886 19.1597C10.5685 19.0166 10.1403 18.8456 9.71225 18.7347C9.25157 18.6154 8.83094 18.7788 8.45643 19.0587C8.30358 19.1729 8.1562 19.3082 7.99411 19.4136L7.97235 19.4275C8.04802 19.0281 8.14111 18.6766 8.42396 18.3824Z" fill="#121212"/>
<path d="M11.9012 18.2184C11.9183 18.2214 12.2544 18.2751 12.2441 18.2715C12.2592 18.3519 12.4244 18.5828 12.4638 18.673C12.495 18.7443 12.5124 18.7952 12.5369 18.8702C12.3457 18.6616 12.1135 18.3977 11.9012 18.2184Z" fill="#FAFAFA"/>
<path d="M11.5319 27.9879C12.042 27.9355 12.4452 27.7775 12.9426 27.6911C13.3388 27.6223 13.742 27.805 14.136 27.8098C14.4835 27.8139 14.859 27.6478 15.2319 27.6796C15.7702 27.7256 16.203 27.9713 16.7516 27.9844C16.9747 28.1663 17.1095 28.3663 17.1527 28.664C17.2194 29.1231 16.8045 29.3987 16.4093 29.2532C15.968 29.0906 15.7585 28.8203 16.0473 28.3765C15.649 28.5971 15.3835 28.7438 14.9335 28.8291C14.8339 28.848 14.5226 28.8763 14.4719 28.8889C14.2354 28.8945 13.9989 28.8945 13.7625 28.8887C13.3976 28.82 13.0217 28.7835 12.6824 28.6159C12.5015 28.5265 12.3215 28.4351 12.1418 28.3434C12.5856 28.7939 12.2716 29.125 11.8012 29.2867C11.2196 29.4864 10.8279 28.9759 11.127 28.4278C11.2041 28.2866 11.3818 28.0317 11.5319 27.9879Z" fill="#FAFAFA"/>
<path d="M13.4848 25.7154C14.1557 25.669 13.1536 26.4851 14.1303 26.7064C14.6513 26.5629 14.615 26.3366 14.5654 25.8535C14.6301 25.7829 14.6687 25.7456 14.7587 25.7129C14.798 25.9151 14.8478 26.1976 14.9104 26.3851C15.0857 26.4639 15.2692 26.5293 15.439 26.6076C15.673 26.7152 15.9363 26.8687 16.1566 27.0047C16.2411 27.2025 16.584 27.4428 16.6923 27.6329C16.9448 27.5669 17.113 27.9366 16.7516 27.9844C16.203 27.9713 15.7702 27.7256 15.2319 27.6796C14.859 27.6478 14.4835 27.8139 14.136 27.8098C13.742 27.805 13.3388 27.6223 12.9426 27.6911C12.4452 27.7775 12.042 27.9355 11.5319 27.9879C11.2162 27.9726 11.2645 27.6225 11.5336 27.6233C11.5725 27.6234 11.6121 27.6231 11.651 27.6231L11.6189 27.6058C11.6334 27.4512 12.0522 27.1397 12.1385 26.986C12.3694 26.8469 12.6028 26.7168 12.8472 26.6049C13.0123 26.5295 13.2014 26.4793 13.3545 26.3838C13.436 26.1446 13.4759 25.9675 13.4848 25.7154Z" fill="#121212"/>
<path d="M13.4849 25.7155C14.1558 25.669 13.1536 26.4851 14.1304 26.7064C14.6513 26.5629 14.6151 26.3366 14.5655 25.8535C14.6302 25.7829 14.6688 25.7455 14.7587 25.7128C14.798 25.915 14.8478 26.1976 14.9104 26.3851C15.0857 26.4639 15.2692 26.5293 15.439 26.6075C15.673 26.7152 15.9363 26.8687 16.1566 27.0047C16.2411 27.2025 16.5841 27.4428 16.6924 27.6329C16.1351 27.6136 15.1684 26.3327 14.4831 26.8754C14.0132 27.2475 13.7963 26.7001 13.3648 26.7416C12.7717 26.7984 12.1773 27.4859 11.651 27.6231L11.619 27.6058C11.6335 27.4512 12.0523 27.1397 12.1385 26.986C12.3695 26.8469 12.6028 26.7168 12.8472 26.605C13.0124 26.5295 13.2015 26.4793 13.3545 26.3838C13.436 26.1446 13.476 25.9675 13.4849 25.7155Z" fill="#FAFAFA"/>
<path d="M12.4088 31.2748C12.3411 31.2292 12.243 31.0802 12.2136 31.003C11.9123 30.2098 12.9013 30.0756 13.4164 29.8459C13.4309 29.96 13.4471 30.0743 13.4544 30.1892C13.5832 30.0782 13.628 30.0297 13.7165 29.8719C13.8804 30.0689 14.0057 30.2269 14.151 30.444C14.2905 30.1895 14.3926 30.0771 14.5754 29.8591C14.66 30.0096 14.6956 30.0691 14.8268 30.1882C14.833 30.0788 14.8336 29.9771 14.8608 29.8714C15.1824 29.9303 15.8215 30.1511 16.0284 30.4302C16.1836 30.6397 16.101 31.1419 15.8707 31.2545L15.7811 31.0339C15.7308 31.3103 15.708 31.3699 15.5985 31.6167C15.4637 31.3532 15.349 31.1859 15.1275 30.9932C15.1949 31.3162 15.1972 31.4775 15.1083 31.7978C14.9324 31.3824 14.8592 31.2134 14.569 30.8562C14.5989 31.0898 14.5937 31.2679 14.5471 31.5013C14.3266 31.2103 14.2847 31.1136 14.1391 30.7769C14.0269 31.0469 13.9378 31.2642 13.7427 31.4859C13.6886 31.264 13.683 31.0865 13.7144 30.8573C13.4796 31.1508 13.2921 31.4049 13.2122 31.7831C13.0692 31.4989 13.0917 31.3145 13.1422 31.0066C12.9019 31.2404 12.8339 31.3285 12.6854 31.6357C12.5964 31.4374 12.5442 31.2937 12.4919 31.0804C12.4639 31.1534 12.4448 31.2062 12.4088 31.2748Z" fill="#FAFAFA"/>
<path d="M17.5615 19.4299C17.9541 19.4015 18.2507 19.46 18.6211 19.5963C18.6236 19.6892 18.6355 19.8278 18.6045 19.9113C19.0535 20.1605 19.36 20.398 19.764 20.7261C19.3735 20.7612 19.3552 20.7924 19.0394 21.0344C18.8565 21.1745 18.4678 21.2803 18.2425 21.2197C18.2249 21.2167 18.2231 21.2147 18.205 21.2171C17.5475 21.3065 16.9627 21.0398 16.3172 21.0197C16.1531 21.0145 15.6725 21.0502 15.6398 20.8605C15.6777 20.7837 15.67 20.8053 15.7483 20.751C15.9065 20.3848 16.6629 20.0116 17.0062 19.8683C17.0966 19.6687 17.3819 19.5269 17.5615 19.4299Z" fill="#121212"/>
<path d="M16.1345 20.6289C16.4559 20.4306 16.6576 20.2936 17.0027 20.152C17.0054 20.3892 17.0299 20.5525 17.1992 20.7338C17.4708 21.0242 17.9637 21.0103 18.2279 20.7163C18.3835 20.5446 18.4114 20.3875 18.4335 20.1669C18.6687 20.2948 18.7914 20.3756 18.9906 20.5637C18.543 20.9512 18.1657 21.0127 17.5891 21.0159C18.0701 21.159 18.4884 21.0648 18.9475 20.8967C18.7574 21.0702 18.4868 21.1687 18.2425 21.2198C18.2249 21.2168 18.2231 21.2147 18.205 21.2172C17.5475 21.3066 16.9627 21.0399 16.3172 21.0198C16.1531 21.0146 15.6725 21.0503 15.6398 20.8605C15.6777 20.7837 15.67 20.8053 15.7483 20.751C15.9079 20.825 16.7977 20.8938 17.0573 20.9278C16.7674 20.7683 16.462 20.646 16.1345 20.6289Z" fill="#FAFAFA"/>
<path d="M17.5615 19.4299C17.9541 19.4015 18.2506 19.46 18.621 19.5963C18.6235 19.6892 18.6354 19.8278 18.6045 19.9113C18.0449 19.6883 17.5745 19.671 17.0062 19.8683C17.0965 19.6687 17.3819 19.5269 17.5615 19.4299Z" fill="#FAFAFA"/>
<path d="M17.8972 20.0132C17.9768 19.9918 18.0581 20.0411 18.0798 20.1238C18.1016 20.2065 18.0561 20.2923 17.9773 20.3167C17.9251 20.3329 17.8685 20.3182 17.8296 20.2786C17.7905 20.2388 17.775 20.1801 17.7891 20.1251C17.8031 20.0701 17.8445 20.0273 17.8972 20.0132Z" fill="#FAFAFA"/>
<path d="M14.4719 28.8889C14.5697 28.8882 14.6692 28.8875 14.7667 28.8956C15.0695 28.9213 15.315 29.043 15.6207 29.0426C15.3357 29.3514 15.2615 29.3582 15.1388 29.7766C15.0835 29.6952 15.0345 29.6274 14.9902 29.5383C14.9331 29.6619 14.8959 29.7381 14.8607 29.8714C14.8335 29.9771 14.833 30.0788 14.8268 30.1883C14.6956 30.0691 14.66 30.0097 14.5754 29.8591C14.3926 30.0771 14.2905 30.1896 14.1509 30.444C14.0057 30.2269 13.8803 30.0689 13.7165 29.8719C13.628 30.0297 13.5831 30.0782 13.4544 30.1892C13.447 30.0743 13.4308 29.96 13.4163 29.8459C13.3836 29.7322 13.354 29.6558 13.311 29.5465L13.1496 29.7173C13.0088 29.3705 12.9234 29.3012 12.6692 29.0425C12.9939 29.0404 13.3542 28.9001 13.7624 28.8888C13.9989 28.8945 14.2354 28.8945 14.4719 28.8889Z" fill="#121212"/>
<path d="M12.5156 23.2314C12.4644 23.3632 12.3673 23.586 12.3286 23.7104L12.2432 23.9262C12.078 24.4984 12.0968 24.8995 12.6949 25.1485C12.7833 25.1852 12.9054 25.2292 12.9888 25.2727C12.5698 25.3697 12.2894 25.3574 12.0088 24.9696C11.7586 24.4795 11.9204 24.0449 12.1619 23.5998C12.2899 23.4433 12.356 23.3539 12.5156 23.2314Z" fill="#121212"/>
<path d="M15.753 23.2331C15.9169 23.3809 16.0037 23.5046 16.1466 23.6702C16.3122 24.0087 16.4603 24.3516 16.3422 24.7413C16.2807 24.9448 16.2165 24.9848 16.1134 25.1379L16.0981 25.1487L16.0721 25.1662C15.7757 25.3686 15.5816 25.3495 15.2553 25.2727C15.5458 25.1418 15.9169 25.0625 16.0606 24.7244C16.181 24.4415 16.0954 24.1111 15.998 23.8383L15.9379 23.6871C15.9066 23.5868 15.8001 23.358 15.753 23.2331Z" fill="#121212"/>
<path d="M15.2081 24.1669C15.2897 23.9719 15.3679 23.4764 15.5457 23.4186C15.6718 23.4357 15.8021 23.5933 15.9102 23.6684L15.938 23.6872L15.9981 23.8383C16.0085 24.4406 15.8757 24.3155 15.4323 24.1906C15.3798 24.1758 15.2667 24.1711 15.2081 24.1669Z" fill="#FAFAFA"/>
<path d="M12.3286 23.7104C12.4672 23.6132 12.5621 23.4132 12.7456 23.3991C12.7855 23.4156 12.8275 23.4385 12.8365 23.4883C12.8956 23.8126 12.8415 23.8827 12.9878 24.2014C12.7007 24.2715 12.3427 24.4724 12.2742 24.078C12.2638 24.0183 12.2688 23.9855 12.2432 23.9262L12.3286 23.7104Z" fill="#FAFAFA"/>
<path d="M9.74402 21.8097C10.2941 21.7441 10.6985 21.6983 11.2136 21.4694C11.3826 21.4088 11.5529 21.2675 11.7229 21.219C11.8509 21.1824 11.9791 21.193 12.1188 21.1547C11.9036 21.3207 11.7031 21.4504 11.475 21.5937C11.1965 21.7197 10.9482 21.8348 10.6439 21.8835C10.2583 21.8974 10.1428 21.9076 9.74402 21.8097Z" fill="#121212"/>
<path d="M13.9945 19.7706C14.8781 19.6723 14.6665 20.5315 14.7013 21.119C14.7397 21.7645 14.771 22.3838 14.9518 23.0081C15.0333 23.2898 15.1165 23.6827 14.9689 23.9502C14.8149 24.2251 14.5376 24.4146 14.2477 24.4973C13.8455 24.5343 13.361 24.2754 13.2231 23.8611C13.0607 23.3731 13.396 22.8386 13.4564 22.3646C13.5122 21.9268 13.5282 21.4733 13.5352 21.0319C13.5434 20.7315 13.5 20.3351 13.6109 20.057C13.6733 19.9007 13.8477 19.8154 13.9945 19.7706Z" fill="#FAFAFA"/>
<path d="M12.9448 24.4929C13.4197 24.5066 13.6369 25.0649 14.0724 25.1151C14.5782 25.1733 14.8688 24.4129 15.4033 24.5111C15.5272 24.5338 15.7093 24.6187 15.6561 24.7871C15.6264 24.8813 15.4955 24.9246 15.4143 24.959C15.2701 24.9926 15.1346 24.9709 14.9812 25.0285C14.7475 25.1162 14.5621 25.4158 14.3263 25.4731C13.7934 25.6024 13.6685 25.242 13.2946 25.032C13.2341 24.998 12.7556 24.9696 12.6474 24.8672C12.5831 24.8062 12.592 24.8395 12.5714 24.7482C12.6098 24.5715 12.7978 24.5183 12.9448 24.4929Z" fill="#121212"/>
<path d="M16.0108 21.1226C16.3439 21.1042 16.827 21.4017 17.1467 21.5316C17.5296 21.6872 17.8451 21.7508 18.2581 21.7889C18.3113 21.7937 18.2997 21.7851 18.3632 21.8015L18.3532 21.8266C17.514 22.0492 16.6653 21.6543 16.0108 21.1226Z" fill="#121212"/>
<path d="M15.1224 23.1409C15.2322 23.231 15.2235 23.4282 15.1917 23.5557L15.1901 23.5561C15.1563 23.5184 15.1313 23.2173 15.1224 23.1409Z" fill="#FAFAFA"/>
<path d="M15.3908 7.03026C15.482 7.04766 15.614 7.13033 15.6973 7.17692C17.197 8.01348 17.9476 10.1212 17.0776 11.732C17.0878 11.6951 17.0977 11.658 17.1072 11.6209C17.3369 10.7274 17.2802 9.78439 16.8317 8.97347C16.9237 9.55324 16.8901 9.99423 16.7142 10.5525C16.6351 9.79579 16.5577 9.47939 16.1573 8.82485C16.4233 9.79947 16.4057 10.5828 16.014 11.5161C16.0386 10.662 15.8846 10.0812 15.4073 9.37964C14.8887 8.68481 14.2203 8.18276 13.464 7.80499C13.2481 7.69717 13.0039 7.61352 12.8039 7.51079L12.7889 7.50297C14.0941 7.64978 15.3716 8.42287 16.0012 9.64799C15.9961 9.57603 15.9898 9.50416 15.9824 9.43244C15.8671 8.38358 15.4212 7.75583 14.6581 7.1178C15.1897 7.31011 15.8216 7.80774 16.179 8.25861C16.3033 8.41528 16.4066 8.58242 16.5265 8.74358C16.3412 7.9922 15.9496 7.50975 15.3908 7.03026Z" fill="#FAFAFA"/>
<path d="M11.7806 7.90473C12.3361 7.98032 13.0923 8.42412 13.4752 8.85226C14.1744 9.63429 14.3618 10.4429 14.3521 11.4767C14.1479 10.3188 13.736 9.45446 12.8339 8.73499C13.2031 9.33809 13.3553 9.70462 13.501 10.4208C13.5325 10.6289 13.5672 10.8364 13.6052 11.0433C13.4789 10.7371 13.3239 10.4448 13.1424 10.1705C12.5119 9.22424 11.3449 8.54869 10.2721 8.34714C10.2846 8.34579 10.2972 8.34462 10.3098 8.34361C11.367 8.25797 12.0868 8.6389 12.8573 9.33062C12.5467 8.6592 12.3177 8.38184 11.7806 7.90473Z" fill="#FAFAFA"/>
<path d="M22.6137 21.3963C22.6739 21.4729 22.6636 21.5712 22.6654 21.6675C22.6775 22.2964 22.5317 22.8988 22.3839 23.5028C22.3288 23.7286 22.2801 23.9857 22.1987 24.2055C21.9718 24.6789 21.7814 24.7213 21.6594 25.2681C21.7824 25.1304 21.928 24.9311 22.0587 24.7784C22.0061 25.0891 21.9759 25.4078 21.9202 25.7177C21.8249 26.2474 21.6893 26.5269 21.1398 26.5397C21.1509 26.4367 21.1688 26.3226 21.183 26.2195C21.2172 25.9866 21.3155 25.0783 21.3648 24.899C21.4073 24.8575 21.5358 24.8081 21.552 24.7741C21.6503 24.5698 21.7422 24.3607 21.8535 24.163C22.0975 23.7301 21.8768 23.2508 21.7465 22.8164C21.8194 22.5652 21.9622 22.2726 22.0939 22.0498C22.2031 22.4089 22.241 22.7979 22.3473 23.166C22.4191 22.5146 22.2829 21.9448 22.6137 21.3963Z" fill="#FAFAFA"/>
<path d="M5.71043 21.3943C6.04523 21.6465 5.95589 22.7174 6.02144 23.1516L6.02578 23.1794C6.09831 22.7982 6.17866 22.4185 6.2668 22.0409C6.3706 22.2425 6.54958 22.6271 6.60756 22.8388C6.47092 23.2952 6.24811 23.7244 6.50326 24.1621C6.61681 24.357 6.69234 24.5198 6.75567 24.7397C6.8332 24.8213 6.88739 24.8453 6.97806 24.9103C7.0077 24.9951 7.13623 26.0132 7.16191 26.1829L7.22083 26.5368C6.4916 26.5652 6.46996 25.921 6.38527 25.3428C6.35743 25.148 6.32514 24.9542 6.28844 24.7611C6.40879 24.901 6.58911 25.1687 6.7023 25.2735C6.59622 24.9148 6.51704 24.7711 6.30076 24.4676C6.07621 24.1522 6.03999 23.7565 5.94847 23.3777C5.81153 22.8105 5.60929 21.9755 5.71043 21.3943Z" fill="#FAFAFA"/>
<path d="M18.2053 8.01508C18.2958 8.07391 18.4511 8.26536 18.5213 8.355C18.9889 8.95113 19.24 9.67066 19.2912 10.4366C19.4578 9.86844 19.4461 9.43064 19.3214 8.86435C19.7051 9.35102 20.0188 10.0981 19.9989 10.7386C19.9788 11.3927 19.7032 11.8804 19.2588 12.3251C19.5305 11.9042 19.6315 11.6511 19.7034 11.1506C19.7391 10.8635 19.7089 10.4467 19.6466 10.1688C19.6066 10.3016 19.5791 10.5161 19.5319 10.6788C19.3545 11.2906 19.0384 11.7462 18.5345 12.1037C19.0359 11.2287 19.0919 10.7391 18.9034 9.74214C18.8607 10.2103 18.8163 10.4039 18.6031 10.8146C18.7749 10.0086 18.7236 9.09225 18.3639 8.34996C18.3095 8.23794 18.2546 8.12979 18.2053 8.01508Z" fill="#FAFAFA"/>
<path d="M20.5536 12.4389C20.704 12.469 20.8496 12.521 20.9862 12.5933C21.4675 12.8473 21.7701 13.284 21.9385 13.811C21.5865 13.4589 21.4954 13.3818 21.0344 13.2256C21.5518 13.7522 21.7157 14.2932 21.7611 15.0298C21.5429 14.5009 21.1356 14.0977 20.6763 13.7944C20.8753 14.1277 20.9928 14.3789 21.0909 14.7586C21.1445 15.0306 21.1782 15.2892 21.1537 15.5661C21.0234 14.6331 20.507 13.8092 19.8123 13.2232C20.3139 13.3329 20.6473 13.4392 21.0769 13.7431C20.8498 13.3535 20.5773 13.1506 20.2584 12.862C20.6455 12.8651 20.8866 12.9341 21.2467 13.0694C20.9908 12.7342 20.8932 12.67 20.5536 12.4389Z" fill="#FAFAFA"/>
<path d="M9.10439 9.10256C10.6237 9.25086 11.3067 10.4069 11.7143 11.8085C11.346 11.2507 11.1152 10.9497 10.5953 10.5275C9.79305 9.93782 9.22347 9.78484 8.26851 9.67271C9.11116 9.46244 9.55401 9.59709 10.3142 9.9333C9.88802 9.44463 9.63009 9.37319 9.10439 9.10256Z" fill="#FAFAFA"/>
<path d="M6.07733 20.7146C6.34173 20.7395 6.47681 20.8878 6.64912 21.08C6.70067 21.4143 6.72352 21.8533 6.74889 22.1979L6.62181 21.9678C6.48785 21.7327 6.35331 21.4788 6.17515 21.2792C6.01148 21.0956 5.99156 21.1027 5.75931 21.0962L5.74203 21.0746C5.73671 20.9183 5.95147 20.7627 6.07733 20.7146Z" fill="#FAFAFA"/>
<path d="M22.1718 20.7343C22.3921 20.7051 22.7045 20.9731 22.5811 21.1207C22.5281 21.1055 22.458 21.0796 22.4081 21.0967C22.1513 21.1848 21.9177 21.6214 21.7909 21.8437C21.7249 21.9678 21.6604 22.0927 21.5973 22.2184C21.6293 21.8597 21.639 21.4452 21.6942 21.0934C21.8538 20.8932 21.9516 20.8369 22.1718 20.7343Z" fill="#FAFAFA"/>
<path d="M7.76537 11.0636C7.83955 11.1208 8.11549 11.4367 8.22305 11.5317C8.78336 12.0266 9.18554 12.1739 9.84261 12.4166C8.93958 12.4809 8.05945 11.9885 7.76537 11.0636Z" fill="#FAFAFA"/>
<path d="M8.90649 10.1646C9.50328 10.0886 10.0922 10.6024 10.4578 11.0313C10.3467 10.9692 10.221 10.884 10.1119 10.8139C9.50322 10.4647 9.06726 10.3461 8.39158 10.2702C8.55938 10.217 8.73188 10.1816 8.90649 10.1646Z" fill="#FAFAFA"/>
<path d="M7.97805 12.2466C8.37546 12.2136 8.77669 12.4124 9.10473 12.6228C8.83834 12.5782 8.59427 12.5054 8.31596 12.4657C7.82606 12.4168 7.63431 12.4058 7.15722 12.5263C7.42631 12.3397 7.66152 12.2748 7.97805 12.2466Z" fill="#FAFAFA"/>
<path d="M21.5116 23.3855C21.6746 23.6033 21.6247 23.9676 21.4867 24.1908L21.4547 24.2165C21.4149 24.1378 21.4972 23.5161 21.5116 23.3855Z" fill="#FAFAFA"/>
<path d="M6.82325 23.4006C6.87398 23.5062 6.91884 24.0818 6.90792 24.2165L6.8871 24.2137C6.69527 23.9005 6.72508 23.74 6.82325 23.4006Z" fill="#FAFAFA"/>
<path d="M13.3535 6.07031C13.6759 6.05962 14.0582 6.05607 14.4336 6.09082C14.8092 6.12558 15.1775 6.19909 15.4736 6.33984H15.4746C15.7002 6.41879 16.0147 6.54804 16.2314 6.65918V6.66016C16.2988 6.70413 16.3611 6.74262 16.4307 6.7832C16.6059 6.90524 16.7488 7.02545 16.8877 7.14355C17.0266 7.26165 17.162 7.37844 17.3193 7.49414L17.3574 7.52148L17.3369 7.47949C17.284 7.36387 17.183 7.16373 17.0684 6.97559C17.011 6.88147 16.9505 6.78942 16.8906 6.71289C16.8333 6.63956 16.7755 6.57991 16.7227 6.54395C16.7389 6.54504 16.7629 6.5483 16.793 6.55566C16.8296 6.56462 16.8743 6.57851 16.9248 6.59473C17.026 6.62725 17.1494 6.67157 17.2705 6.71875C17.3914 6.76584 17.5103 6.81587 17.6045 6.8584C17.6516 6.87966 17.693 6.89858 17.7246 6.91504C17.7562 6.9315 17.7775 6.94476 17.7871 6.95312L17.7959 6.94434L17.7871 6.9541L17.792 6.95605C18.0155 7.03412 18.2076 7.16743 18.4082 7.29492C19.6725 8.09852 20.8948 9.44365 20.8955 11.0225C20.8955 11.1113 20.8801 11.2361 20.8623 11.3633C20.8445 11.49 20.824 11.6194 20.8145 11.7168L20.8135 11.7266L20.8232 11.7295C21.193 11.8499 21.5751 12.0866 21.9004 12.3848C22.2256 12.6829 22.4932 13.0421 22.6357 13.4072C22.6376 13.4121 22.6396 13.415 22.6406 13.417V13.418L22.6416 13.4316L22.6426 13.4355C22.73 13.6299 22.7958 13.9099 22.8389 14.1953C22.8776 14.4521 22.8966 14.7129 22.8984 14.918C22.8633 14.8267 22.8385 14.7647 22.8027 14.71C22.7591 14.6432 22.7004 14.5869 22.5928 14.499L22.5713 14.4814L22.5732 14.5088C22.5828 14.6784 22.5986 14.863 22.5859 15.0293C22.575 15.0796 22.57 15.164 22.5684 15.2646C22.5667 15.3656 22.5686 15.4847 22.5713 15.6045C22.5767 15.8445 22.5861 16.0888 22.5811 16.208L22.5615 16.3965C22.5515 16.4598 22.5404 16.5246 22.5371 16.5879C22.511 17.0878 22.4373 17.5844 22.3594 18.0811C22.2815 18.5776 22.1994 19.0747 22.1553 19.5742C22.1486 19.6488 22.111 19.7858 22.0762 19.917C22.0588 19.9822 22.0416 20.0456 22.0303 20.0986C22.0246 20.1252 22.0201 20.1495 22.0176 20.1699C22.0152 20.1895 22.0147 20.2068 22.0166 20.2197L22.0146 20.2207L22.0195 20.2266C22.0286 20.2367 22.0418 20.2449 22.0566 20.251C22.0717 20.2571 22.0899 20.2618 22.1094 20.2656C22.1483 20.2732 22.1953 20.2769 22.2432 20.2793C22.291 20.2816 22.341 20.2828 22.3848 20.2842C22.429 20.2856 22.4673 20.2876 22.4932 20.292C22.683 20.3244 22.8503 20.4842 22.9717 20.6826C23.0927 20.8806 23.1667 21.1142 23.1709 21.291C23.1899 22.11 23.0215 22.9082 22.8242 23.7041C22.6271 24.4995 22.4005 25.2939 22.3047 26.1035C22.2296 26.7381 21.6585 27.1179 21.0342 27.0107L21.0234 27.0088L21.0205 27.0186C20.9889 27.1183 20.9598 27.2328 20.9316 27.3477C20.9035 27.4624 20.8762 27.5782 20.8467 27.6826C20.7026 28.1995 20.4932 28.6961 20.2236 29.1602C20.0451 29.4646 19.7481 29.8453 19.5146 30.126C18.4146 31.4338 16.9344 32.9158 15.2432 33.3633C14.1648 33.6486 12.8029 33.4081 11.8594 32.832C10.3937 31.9372 9.1692 30.6211 8.19922 29.2139C7.94651 28.8472 7.75792 28.3229 7.57422 27.9121C7.51631 27.7833 7.48704 27.6414 7.46289 27.4971C7.43882 27.3531 7.42013 27.2053 7.38477 27.0674L7.38281 27.0586H7.37402C7.10435 27.0394 6.8914 27.0292 6.70898 26.957C6.52775 26.8854 6.37557 26.7516 6.22852 26.4834C6.17653 26.3885 6.10656 26.2559 6.08594 26.1523C5.99398 25.6905 5.92453 25.2209 5.81836 24.7607C5.63851 23.9598 5.382 23.1707 5.27832 22.3574C5.21863 21.8891 5.21235 21.3728 5.31152 20.9102C5.37404 20.6309 5.61148 20.3732 5.89844 20.2939C5.91879 20.2883 5.95311 20.2849 5.99512 20.2822C6.03683 20.2795 6.08526 20.2774 6.13281 20.2754C6.18011 20.2734 6.227 20.2714 6.26562 20.2676C6.28493 20.2657 6.30272 20.2637 6.31738 20.2607C6.33172 20.2579 6.34454 20.254 6.35352 20.249L6.35645 20.2549L6.35938 20.2402C6.36247 20.2234 6.36166 20.1944 6.3584 20.1582C6.35509 20.1215 6.34859 20.0755 6.34082 20.0234C6.32523 19.9192 6.30267 19.789 6.27832 19.6572C6.22949 19.3929 6.17547 19.1207 6.16504 19.0244C6.1282 18.6842 6.05769 18.2738 6.0127 17.9287C5.97924 17.6658 5.94879 17.4022 5.9209 17.1387L5.8457 16.3477C5.77314 15.5605 5.72262 15.1342 5.76172 14.3398V14.2314C5.7662 14.1153 5.78279 13.9729 5.80469 13.8301C5.83382 13.6401 5.87149 13.4493 5.89941 13.3174C5.92507 13.1981 5.99051 13.0156 6.03027 12.8965L6.04199 12.8623L6.01172 12.8828C5.85734 12.9895 5.76281 13.0634 5.63672 13.2061V13.207C5.59384 13.2597 5.53554 13.3203 5.48535 13.375C5.51096 13.0335 5.53687 12.8001 5.64258 12.4658V12.4629C5.64299 12.4576 5.64584 12.4453 5.64941 12.4316C5.65108 12.4253 5.65271 12.4189 5.6543 12.4131C5.65592 12.4072 5.6572 12.4013 5.6582 12.3975H5.65918C5.79261 11.8823 5.99941 11.47 6.27344 11.0176L6.27441 11.0186C6.38489 10.8662 6.5001 10.7173 6.62109 10.5732C6.74975 10.4311 6.88393 10.2936 7.02148 10.1602L7.05273 10.1299L7.00977 10.1396C6.82654 10.1814 6.53496 10.2812 6.37207 10.377C6.34527 10.3876 6.2952 10.412 6.24902 10.4336C6.22593 10.4444 6.20375 10.4548 6.18555 10.4629C6.1813 10.4648 6.17652 10.4652 6.17285 10.4668C6.18467 10.4395 6.20338 10.4032 6.22852 10.3623C6.26262 10.3068 6.30641 10.2427 6.35156 10.1787L6.58301 9.86523L6.58496 9.86133C6.58558 9.86045 6.58688 9.85971 6.58789 9.8584C6.5903 9.8553 6.59356 9.85051 6.59766 9.8457C6.60575 9.83621 6.61689 9.82404 6.62988 9.80957C6.65621 9.78025 6.69125 9.7417 6.72656 9.70215C6.76195 9.66252 6.79821 9.62071 6.82812 9.58398C6.85774 9.54762 6.88224 9.51491 6.89258 9.49316C6.89516 9.48772 6.9011 9.47917 6.91016 9.46777C6.91923 9.45639 6.93166 9.44272 6.94531 9.42773C6.97248 9.3979 7.00664 9.36243 7.04199 9.32715C7.1127 9.25659 7.18701 9.18622 7.21387 9.16016C7.48157 8.90132 7.7795 8.6749 8.10059 8.48633C8.19009 8.43369 8.28019 8.38554 8.37012 8.33691C8.45976 8.28845 8.5495 8.23885 8.63965 8.18359L8.74805 8.12012L8.74902 8.12109L8.80957 8.09375C8.90054 8.05281 8.99264 8.01337 9.08496 7.97559C9.15335 7.94696 9.2098 7.92601 9.28027 7.90234L9.28125 7.9043L9.28613 7.89844C9.3115 7.8669 9.3212 7.83847 9.31543 7.81348C9.30967 7.78874 9.28951 7.77181 9.2666 7.75977C9.2267 7.73884 9.17014 7.7302 9.12891 7.72656L9.13477 7.71289H9.11719L8.90234 7.70605H8.90137C8.83502 7.71065 8.76846 7.71067 8.7041 7.7373L8.68848 7.72949C8.69173 7.72565 8.69677 7.72182 8.70215 7.7168C8.71381 7.70591 8.72994 7.693 8.74902 7.67871C8.78714 7.65017 8.83714 7.61662 8.88867 7.58398C8.94013 7.5514 8.99287 7.51936 9.03711 7.49414C9.08129 7.46895 9.11575 7.44983 9.13184 7.44336C9.14368 7.44179 9.15983 7.43729 9.17773 7.42969C9.19752 7.42128 9.22171 7.41017 9.24805 7.39648C9.30093 7.36899 9.36497 7.3321 9.42969 7.29492C9.4945 7.25769 9.56013 7.21956 9.61621 7.18848C9.67255 7.15726 9.71833 7.13383 9.74414 7.125C10.2293 6.95947 10.7068 6.79407 11.2148 6.71777C11.3109 6.70334 11.4399 6.68264 11.5342 6.6582L11.5439 6.65527V6.65625C11.6077 6.64333 11.7382 6.63574 11.874 6.63086C11.9417 6.62843 12.0103 6.62653 12.0723 6.625C12.1338 6.62348 12.1889 6.62153 12.2295 6.62012C12.3055 6.62189 12.3835 6.62312 12.459 6.62598H12.46C12.4792 6.62596 12.5016 6.62717 12.5254 6.62793C12.5489 6.62867 12.5737 6.62859 12.5977 6.62695C12.6449 6.62372 12.6933 6.61325 12.7197 6.57715L12.7207 6.57812L12.7217 6.57129C12.7266 6.53026 12.723 6.50874 12.7158 6.48828L12.6934 6.41699L12.6914 6.40625L12.7041 6.4043L12.6826 6.39648C12.5481 6.35103 12.4125 6.30877 12.2764 6.26855H12.2773L12.1572 6.22266C12.3163 6.18676 12.4959 6.14195 12.6484 6.13281H12.6504C12.6617 6.13044 12.6684 6.12923 12.6719 6.12891C12.6755 6.12861 12.6726 6.12864 12.6699 6.12695C12.6709 6.12788 12.6725 6.12972 12.6748 6.13086C12.6791 6.13291 12.685 6.13382 12.6914 6.13379C12.8023 6.13321 12.9114 6.11918 13.0205 6.10449C13.1297 6.0898 13.2394 6.07414 13.3535 6.07031Z" stroke="#FAFAFA" stroke-width="0.02447"/>
</g>
<path d="M40.7848 4.77131C41.2603 4.0741 42.0836 3.6986 42.9218 3.79665C43.225 3.83211 43.664 3.89985 44.0965 4.0834C44.5782 4.28779 45.2366 4.72062 45.568 5.56398C45.8071 6.17273 45.7661 6.73392 45.6992 7.09409C47.605 6.94616 49.4692 6.74406 51.4454 6.55916L51.6077 6.54414C52.4293 6.46903 53.3962 6.39647 54.3404 6.42703C55.4577 6.46321 56.382 7.30826 56.5179 8.41788C56.5336 8.54608 56.5382 8.67339 56.5324 8.79878C56.7562 8.95638 56.9558 9.12872 57.1275 9.30249C57.4382 9.61698 57.7833 10.0641 58.0069 10.6245C58.01 10.617 58.013 10.6094 58.0161 10.6019C58.1591 10.2518 58.329 9.85906 58.5097 9.51176C58.5997 9.33894 58.7122 9.13843 58.8457 8.94424C58.9535 8.78749 59.19 8.46099 59.5656 8.19092L59.5928 8.17173C60.1524 7.78173 60.8578 7.66454 61.5131 7.8521C61.7495 7.89062 61.9807 7.96671 62.1974 8.07983C62.4307 8.20157 62.8482 8.45528 63.1934 8.6785C63.2064 8.68694 63.2196 8.69548 63.2328 8.70407C63.2521 8.5595 63.2855 8.41582 63.3332 8.27508C63.5676 7.58447 64.1198 7.04898 64.8167 6.83558C64.83 6.82558 64.845 6.81437 64.8623 6.80125L64.8925 6.77877C65.5294 6.31269 66.3639 6.21074 67.0953 6.51192C67.1219 6.52288 67.1992 6.5496 67.3674 6.59722C67.4663 6.62521 67.5003 6.63401 67.6149 6.6662C67.6972 6.6893 67.8116 6.72194 67.9242 6.75925C68.644 6.9976 69.2303 7.48142 69.5883 7.80718C69.9265 8.11491 70.2545 8.46456 70.5528 8.81159C70.7403 8.60417 70.9092 8.41601 71.0462 8.2581C71.5402 7.68802 72.3081 6.85138 72.9381 6.27865L72.9663 6.25344C73.5622 5.72963 74.3896 5.55473 75.1477 5.79462C75.2312 5.82105 75.3141 5.84922 75.3963 5.87915C75.3992 5.8802 75.4021 5.88126 75.405 5.88232C75.8549 6.04812 76.3295 6.30867 76.7394 6.7556C76.7606 6.77871 76.7812 6.80197 76.8013 6.82524C77.354 7.00302 77.8277 7.38971 78.1094 7.91935C78.5129 8.67811 78.4528 9.59977 77.9543 10.2997C77.5351 10.8882 77.1468 11.3051 76.8064 11.6532C76.4577 12.0099 76.2403 12.2173 75.9719 12.5341C75.4706 13.1259 74.8818 13.8714 74.2623 14.6148C74.5827 15.1508 74.7516 15.4836 74.9382 15.7837C74.9534 15.7974 74.9687 15.8116 74.9841 15.8262C75.0917 15.9285 75.1806 16.0309 75.2541 16.1264L75.2847 16.1669L75.3034 16.1926C75.3096 16.2012 75.3157 16.2099 75.3218 16.2186C75.7014 16.7623 75.9186 17.102 76.2051 17.4661L76.2815 17.562C76.2875 17.5696 76.2934 17.5773 76.2993 17.585C76.3245 17.6179 76.3389 17.6357 76.3882 17.6988C76.4277 17.7495 76.4852 17.8238 76.5458 17.9088C76.6675 18.0793 76.8378 18.3412 76.9719 18.683C77.1385 19.1078 77.1731 19.573 77.0712 20.0177C77.0531 20.097 77.0303 20.1779 77.0025 20.2598C76.963 20.6074 76.8514 21.0205 76.5822 21.4215C76.3496 21.768 76.0713 21.9894 76.0052 22.0437C75.8701 22.1547 75.89 22.1342 75.814 22.1996C75.3483 22.6005 74.7413 22.794 74.1327 22.7395C74.1977 23.2312 74.098 23.6253 74.0583 23.7696C73.9709 24.0871 73.8398 24.3361 73.7957 24.4195C73.7954 24.4201 73.7951 24.4206 73.7948 24.4212C73.0602 25.8081 72.5338 26.7115 72.1924 27.8416C71.8741 28.8951 70.8454 29.5681 69.7526 29.4375C69.6603 29.4265 69.2958 29.3902 69.1006 29.3607C68.8892 29.3287 68.3537 29.2443 67.8322 28.9121C67.55 28.7323 67.3171 28.512 67.1322 28.2651C66.7742 28.4214 66.3945 28.5571 66.0063 28.6564C65.2108 28.8597 63.782 29.0351 62.5642 28.2688C62.127 28.4283 61.5955 28.5257 60.9975 28.4411C60.6206 28.3877 60.2808 28.2716 59.9769 28.1123C59.7106 28.4187 59.3667 28.6484 58.9807 28.7767C58.2187 29.0299 57.5059 28.9571 56.9195 28.7355C56.6517 29.6343 56.3011 30.7501 55.8061 31.8214C55.2943 32.9292 54.5558 34.1539 53.4325 35.0815L53.4321 35.0818C52.1571 36.1342 50.6716 36.3209 49.4187 36.182C49.1379 36.1509 47.9584 36.0218 47.1928 34.9787C46.6597 34.2526 46.5884 33.453 46.6688 32.8492C46.7442 32.2836 46.9582 31.8001 47.1465 31.451C47.5244 30.7507 48.0827 30.0818 48.5718 29.5505C48.5832 29.5381 48.5947 29.5257 48.6062 29.5133C48.4485 29.516 48.2892 29.5083 48.1293 29.4891C47.8828 29.4596 47.6284 29.4006 47.3775 29.3082C47.298 29.4311 47.214 29.5491 47.1261 29.6616C46.1668 30.8907 44.4817 31.8258 42.5545 31.4648C42.5542 31.4647 42.554 31.4647 42.5537 31.4646C41.9734 31.3557 41.466 31.0807 41.1294 30.8526C40.8867 30.6882 40.4793 30.3791 40.1551 29.9126C39.9074 29.9539 39.6504 29.979 39.3843 29.9848L39.3844 29.9848C38.9274 29.9948 38.4517 29.9394 37.9955 29.7922C37.6291 30.1617 37.1152 30.5729 36.4509 30.809C35.9438 30.9892 35.3446 31.068 34.7038 30.9381C34.0694 30.8094 33.5326 30.5043 33.0982 30.1279L33.0978 30.1275C32.9949 30.0383 32.9005 29.9454 32.8138 29.8499C32.7393 29.8591 32.6645 29.8646 32.5897 29.8664C32.5721 29.8743 32.5545 29.8823 32.5368 29.8901C32.535 29.8908 32.5332 29.8916 32.5314 29.8924C32.3702 29.9623 32.2298 30.0007 32.193 30.0109C32.1311 30.0281 32.0745 30.0416 32.0335 30.051C31.9504 30.07 31.865 30.0872 31.7982 30.1003C31.7284 30.1139 31.6595 30.1267 31.607 30.1364C31.5791 30.1416 31.5578 30.1455 31.5387 30.1491C31.5296 30.1508 31.5224 30.1521 31.5169 30.1532C31.5111 30.1543 31.5088 30.1547 31.5089 30.1547C31.0814 30.2392 30.6385 30.1988 30.2334 30.0382C29.6207 29.7953 28.5784 29.1861 28.2595 27.8455L28.2491 27.8005C28.0381 26.8553 28.2789 25.9693 28.4428 25.4802C28.6343 24.9088 28.8929 24.3967 29.073 24.0651C29.2968 23.6528 29.5839 23.2195 29.9223 22.8075C29.606 22.8608 29.2707 22.8643 28.9215 22.8034C27.9626 22.6362 27.3111 22.0526 26.937 21.5796C26.5494 21.0894 26.2949 20.5213 26.1605 19.9742C26.0307 19.4457 25.9681 18.75 26.1762 18.0354C26.4973 16.9296 27.0674 14.7441 28.0693 12.9898C28.5794 12.0965 29.3044 11.1208 30.3459 10.4495C31.3469 9.80429 32.5363 9.51083 33.831 9.70768C34.0146 9.45044 34.2523 9.23112 34.5323 9.06745C35.0461 8.76717 35.6767 8.58901 36.1133 8.47871C36.6175 8.35133 37.1812 8.24037 37.7146 8.14534C38.2324 8.05307 38.7551 7.97006 39.2071 7.89882C39.3006 7.6682 39.3956 7.42595 39.5145 7.13886C39.8006 6.44759 40.1511 5.7005 40.7848 4.77131Z" fill="#2A2A2A"/>
<path d="M36.8313 19.4344C37.3232 19.4137 37.4222 19.8101 37.4348 20.2215C37.4605 21.3155 36.8372 22.3293 36.3508 23.2771C35.577 24.7851 35.1813 26.559 35.2951 28.2615C35.7421 28.0973 36.024 27.8108 36.3488 27.49C37.4511 26.401 37.9982 25.0187 38.759 23.7107C39.1226 23.112 39.5493 22.6862 40.0676 22.242C40.943 21.491 41.8697 22.5339 41.6965 23.3982C41.5267 24.2441 40.1787 25.0504 39.4738 25.5486C39.3073 25.9007 39.1843 26.4926 39.2258 26.8826C39.3027 27.6038 40.0804 27.1789 40.4533 27.0144C41.843 26.4012 42.8952 25.2342 43.7756 24.0291C43.614 23.5682 43.5587 23.186 43.8361 22.7508C44.2779 22.0515 45.1423 21.5794 45.9104 22.117C46.5152 22.5403 46.311 23.1218 45.9494 23.6131C45.9559 23.2855 46.0159 23.0535 45.924 22.7215C45.7338 22.0349 45.1619 22.1098 44.9035 22.7146C44.4784 23.7101 45.2113 24.5751 45.5647 25.4715C46.2541 25.1991 47.5042 24.7726 48.1057 24.4637C48.5254 23.6909 48.9558 22.9232 49.3947 22.1609C49.8747 22.2423 49.9806 22.2576 50.2981 22.6228C50.1581 23.0875 49.7948 24.0181 49.6027 24.4598C49.2645 25.2375 48.8481 25.8874 48.5969 26.7303C48.7484 26.7093 48.9233 26.684 49.0617 26.6287C49.6379 26.3979 50.7569 25.3059 51.1242 24.7918C51.8605 23.761 52.4855 22.6962 53.7131 22.1141C54.323 21.8247 54.8154 21.9893 55.4055 22.2176C55.4988 22.1315 55.6366 22.0653 55.7502 22.0027C55.9386 22.0356 56.2197 22.0682 56.2551 22.2693C56.3094 22.5808 56.1339 23.068 56.0471 23.3523C55.8594 23.9683 55.682 24.5592 55.6252 25.199C56.09 24.8641 57.7882 23.6645 57.9983 23.2527C58.2309 22.7951 58.2905 22.2608 58.5422 21.8064C58.5491 21.7945 58.5558 21.7822 58.5627 21.7703C58.8044 21.8199 58.9745 21.8376 59.1203 22.0496C59.3973 22.4528 59.2253 23.4171 59.1428 23.8758C59.2897 23.6326 59.4544 23.4001 59.635 23.1805C60.0613 22.6699 61.487 21.2474 62.177 21.9822C62.7853 22.6303 62.0218 23.9313 61.842 24.6609C61.7296 25.1186 61.6815 25.2703 61.6819 25.7557C62.2014 25.5879 63.1037 24.7004 63.385 24.2185C63.9251 23.2936 64.2462 22.2098 65.2336 21.6131C66.0809 21.1008 67.1492 21.8658 66.7902 22.823C66.5128 23.5401 65.4626 23.9524 64.7893 24.2332C64.2409 25.3276 64.4038 26.3179 65.8684 25.8689C67.5175 25.3635 68.3577 24.2795 69.1203 22.8309C68.8324 22.7245 68.5075 22.5788 68.3371 22.3191C67.8093 21.5152 69.1135 20.4474 69.6877 21.324C69.8732 21.608 69.7516 22.0719 69.6662 22.3826C70.2378 22.3881 71.5354 22.4363 71.8635 22.9832C71.9252 23.086 71.847 23.2557 71.7902 23.3631C71.1116 24.6444 70.4435 25.7928 70.0217 27.1893C69.1223 27.0818 68.7055 27.1483 68.8996 26.1424C69.146 24.8648 69.9526 23.9613 70.4143 22.8455L70.4358 22.7937C70.2217 22.7511 69.8564 22.7674 69.635 22.7732C69.2185 23.5678 68.1881 24.8919 67.467 25.4617C66.5699 26.1709 64.3232 27.2398 63.4065 26.0037C63.1144 25.6098 63.1598 25.2118 63.2404 24.7586C62.7788 25.4409 61.5415 27.064 60.5295 25.6394C60.2134 25.1942 62.0984 22.6958 61.6174 22.3914C60.9536 22.4811 59.7069 24.2578 59.3293 24.8641C58.8959 25.5598 58.8296 25.941 58.2649 26.6277C57.7698 26.792 57.4 26.4647 57.0832 26.1287C57.1766 25.4163 57.4911 24.626 57.7893 23.9744C56.9622 24.4903 56.1777 25.014 55.6027 25.8201C55.1402 26.4687 55.0009 27.2303 54.7795 27.9783C54.239 29.8017 53.4977 32.0894 51.9885 33.3357C51.3245 33.8838 50.516 34.0255 49.6682 33.9314C49.4361 33.9058 49.1668 33.8384 49.0207 33.6394C48.2279 32.5589 51.8641 29.5325 52.6281 28.7967C53.0889 28.3525 53.5321 27.8952 53.9162 27.3816C54.4411 26.6798 54.6957 26.0832 54.8567 25.2244C54.7611 25.1264 54.5834 24.8378 54.5363 24.8172C54.3358 24.9245 54.1654 25.3501 53.9797 25.5672C53.484 26.1464 52.3452 27.4583 51.4914 26.7752C51.0661 26.4347 51.1113 25.8489 51.0979 25.3406C50.9354 25.4474 50.7019 25.7553 50.5627 25.908C50.1769 26.3345 49.7931 26.7315 49.3 27.034C48.7743 27.3563 47.9662 27.3625 47.6682 26.7352C47.4034 26.1776 47.7751 25.3305 47.9826 24.785C47.2135 25.0039 46.4757 25.4581 45.6682 25.7537C46.5176 27.4654 44.8376 29.5885 42.9719 29.2391C42.6422 29.1772 42.1143 28.8388 41.968 28.5389C41.3718 27.3169 43.6769 26.1861 44.4865 25.7547C44.3263 25.1943 44.1813 24.7494 43.9895 24.198C43.8556 24.3533 43.7241 24.5257 43.5959 24.6893C42.552 26.0196 41.1771 27.6803 39.3342 27.7205C38.1437 27.7464 37.8331 27.0009 37.8772 25.9822C37.4346 26.6428 37.1423 27.3049 36.6145 27.9441C36.0827 28.5881 35.3623 29.0919 34.5832 28.4168C33.9972 27.9085 34.0281 26.755 34.0012 26.0144C33.454 26.5956 33.2339 27.1076 32.5354 27.6023C32.6738 27.3448 32.923 27.0194 33.0852 26.7586C33.2909 26.4282 33.4074 26.1898 33.5695 25.8406C32.9045 26.4629 32.4541 27.4542 31.6281 27.8152C31.555 27.8467 31.1819 27.911 31.0686 27.9334C30.7821 27.8198 30.5391 27.6345 30.4651 27.323C30.3104 26.6722 30.7601 25.7127 31.0656 25.1502C31.5013 24.3478 32.304 23.3926 33.1828 23.0691C33.6152 22.9331 34.1996 23.1886 34.5852 23.406C34.8172 22.8378 35.1914 22.1642 35.4768 21.615C35.7442 21.1006 36.344 19.7078 36.8313 19.4344ZM54.1457 27.6394C53.6592 28.147 53.1259 28.7114 52.6506 29.2254C52.0817 29.8406 49.1238 32.5524 49.8029 33.4246C52.1159 33.6279 53.6811 29.5165 54.1877 27.7059C54.1737 27.6839 54.1594 27.6614 54.1457 27.6394ZM44.424 26.3113C43.6652 26.6351 42.9846 27.0759 42.6535 27.8631C42.5092 28.2064 42.599 28.4952 42.8801 28.7195C43.5575 29.0552 44.1105 28.6092 44.3078 27.9617C44.4219 27.5865 44.5652 26.7138 44.5197 26.3299C44.476 26.3172 44.4671 26.3099 44.424 26.3113ZM34.0285 23.8797C33.2609 24.287 32.8827 24.9938 32.4445 25.7166C32.2547 26.0298 31.9912 26.4336 31.9026 26.7889L31.9377 26.8318L32.0178 26.7889C32.4952 26.4275 34.4832 24.4843 34.2248 23.9305C34.137 23.8759 34.1344 23.8844 34.0285 23.8797ZM54.5334 22.5144C54.154 22.7333 53.8226 23.1103 53.5647 23.4607C52.9565 24.2885 52.1104 25.2018 52.0988 26.284C52.3304 26.221 52.4003 26.2034 52.6174 26.0945C53.2002 25.7642 53.4932 25.5717 53.9074 25.033C54.3915 24.4031 54.8253 23.7447 55.0793 22.9842C55.2366 22.5137 54.8828 22.4917 54.5334 22.5144ZM40.8791 22.5389C40.404 22.8882 39.5301 24.1975 39.6389 24.7615L39.6965 24.7957C39.7906 24.7577 39.8108 24.7493 39.8967 24.6961C40.3883 24.3936 41.0362 23.6834 41.2072 23.118C41.2757 22.8908 41.1168 22.5725 40.8791 22.5389ZM66.0871 21.8807C65.7239 22.1769 65.0766 23.138 65.0236 23.5701L65.049 23.6394C65.1595 23.6527 65.1781 23.619 65.2981 23.5623C65.7224 23.3449 66.2451 23.094 66.4026 22.6082C66.4894 22.3399 66.4463 21.9045 66.0871 21.8807ZM37.0617 20.2557C36.9227 20.4607 36.8043 20.6788 36.7082 20.907C36.6167 21.121 36.0247 22.8097 36.1643 22.9549C36.452 22.3489 37.2248 20.9432 37.1125 20.3133L37.0617 20.2557ZM69.051 21.3025C68.6569 21.59 68.7509 21.7918 69.0842 22.0623L69.1692 22.0633C69.2954 21.9019 69.3355 21.4912 69.1799 21.3299L69.051 21.3025Z" fill="#F4F4F4"/>
<path d="M52.7472 32.1367C52.7465 32.1447 52.7454 32.153 52.7443 32.1613C52.4122 32.8061 51.7433 33.4323 51.1225 33.7272L51.1133 33.6943C51.1639 33.5702 51.3196 33.5043 51.4394 33.4291C51.9751 33.0926 52.3148 32.5835 52.7472 32.1367Z" fill="#F4F4F4"/>
<path d="M42.6584 6.05078C43.623 6.16363 43.6259 6.44099 43.2531 7.2959C42.8973 8.11203 42.4921 8.92809 42.0656 9.70996C43.2651 9.66919 44.3996 9.46682 45.5802 9.37891C47.6138 9.22743 49.6275 9.00819 51.6564 8.81836C52.5065 8.73881 53.4151 8.66776 54.2668 8.69531C54.2539 8.69896 54.2409 8.7024 54.2277 8.70605L54.1613 8.72363C53.6861 8.84883 52.2381 9.00738 51.632 9.10449L47.3273 9.77051C46.8291 9.8459 46.3336 9.93746 45.8341 10.0107C44.522 10.2032 42.8692 10.2584 41.6476 10.7754C41.2741 11.3855 41.0886 11.8572 40.7941 12.4795C40.0072 14.1426 39.4663 15.8366 39.1008 17.6377C38.9786 18.2396 38.7678 19.4546 39.1525 19.9766C39.2655 20.13 39.3235 20.2228 39.339 20.416C39.2871 20.5559 39.3291 20.5007 39.2052 20.5879C38.7941 20.6595 38.3472 20.29 38.2238 19.9355C37.5428 17.9791 38.9509 14.898 39.5812 13.0586C38.7799 14.3291 37.8082 15.5214 36.9074 16.7227C36.3517 17.4637 35.8705 18.2521 35.299 18.9805C34.9556 19.418 34.2198 20.1747 33.6369 19.6953C33.382 19.4825 33.3366 19.1305 33.3175 18.8164C33.3266 17.641 33.5986 16.6926 33.7033 15.502C32.3031 16.9838 31.4936 18.9007 30.0461 20.3066C29.0178 21.2405 28.091 19.5668 28.3537 18.6699C29.06 16.2374 30.3333 11.1811 33.7726 12.0068C36.8342 12.8202 36.0333 13.1181 35.1291 15.5371C34.8944 16.1649 34.4193 18.1399 34.2697 18.8857C35.0097 18.5257 35.5689 17.8158 36.0959 17.1943C37.7478 15.2463 39.4091 13.1354 40.4797 10.8076C39.6123 10.9867 38.7733 11.2306 37.8908 11.3623C37.024 11.4916 36.3884 11.7351 35.6769 11.0273C36.5231 10.5328 39.6262 10.1576 40.7726 9.94141C41.5325 8.44527 41.6163 7.57879 42.6584 6.05078ZM33.339 12.4932C31.3941 13.2501 30.2621 17.1068 29.8586 18.9678C30.0943 18.7278 30.3244 18.4818 30.548 18.2305C31.4414 17.2152 33.1827 14.9248 33.632 13.6973L33.9513 13.873C34.0969 13.688 34.3258 13.4133 34.4474 13.2236C34.1897 12.8162 33.8712 12.422 33.339 12.4932Z" fill="#F4F4F4"/>
<path d="M32.3759 16.7148C32.376 16.9329 31.664 17.881 31.4791 18.1397L31.4648 18.09C31.5048 17.877 32.2087 16.9152 32.3759 16.7148Z" fill="#F4F4F4"/>
<path d="M65.2455 16.0312L65.3497 16.0682C64.9543 16.5445 63.7328 18.4145 63.375 18.5992C63.5393 18.3123 63.8595 17.9814 64.0588 17.698C64.4506 17.1413 64.8034 16.5482 65.2455 16.0312Z" fill="#F4F4F4"/>
<path d="M60.8883 10.0352C60.9335 10.1595 60.8196 10.3854 60.8297 10.5986C60.9947 10.5229 61.0813 10.2592 61.1471 10.0928C61.4202 10.2353 62.5296 10.92 62.691 11.123C63.0365 11.5591 62.3705 13.0369 62.3356 13.5674C62.2947 14.1884 62.0162 14.8092 61.8903 15.3877C61.6761 16.3703 61.3724 17.9225 61.8463 18.8359C63.4896 18.0472 65.0793 16.023 66.1452 14.5898C66.2777 14.4118 66.8442 13.7217 67.0319 13.6992C67.0185 14.0507 65.5518 15.6183 65.2799 15.9844L65.2438 16.0332L65.3483 16.0703C65.5208 15.8584 65.778 15.5918 65.986 15.4199C65.7316 15.9338 65.3478 16.4933 64.9918 16.9482C64.3388 17.7828 63.7417 18.6483 62.9469 19.3574C62.2983 19.9361 61.823 19.937 61.0182 19.877C60.0588 19.8053 59.7192 19.2747 59.5358 18.4043C59.2463 17.315 59.4876 16.7086 59.6276 15.6543C59.4655 16.0199 59.3856 16.4114 59.2467 16.7852C58.9703 17.5279 58.3873 18.3145 57.8063 18.8486C57.0339 19.5584 55.8542 19.8854 54.817 19.833C54.2747 19.8055 53.7544 19.6244 53.3893 19.2031C52.6912 18.3974 52.7171 17.079 52.7985 16.0859C52.9309 14.4698 53.329 12.8625 53.8424 11.3291C53.9202 11.0966 54.0366 10.5901 54.2496 10.4502C54.3752 10.3678 54.5641 10.3703 54.7037 10.4053C55.259 10.5445 55.8858 11.1458 55.9674 11.7178C56.0477 12.2837 55.7266 13.3116 55.6032 13.9014C55.4621 14.5767 54.977 17.2 55.2907 17.6914C55.3528 17.789 55.4442 17.8561 55.5602 17.873C55.9227 17.9257 56.4247 17.5118 56.6852 17.2871C57.5136 16.5728 58.2151 15.6687 58.736 14.709C59.012 14.2008 59.2482 13.6597 59.4703 13.126C59.7317 12.4983 60.4546 10.347 60.8883 10.0352ZM59.1666 14.4717C58.8625 15.0424 58.6754 15.6244 58.4147 16.2109C58.1774 16.7439 57.787 17.3071 57.5348 17.8115L57.5563 17.8564L57.568 17.8613C58.0658 17.1773 59.0895 15.2938 59.2028 14.5039L59.1666 14.4717ZM58.5582 15.2627C58.4371 15.4872 57.8014 16.5187 57.7575 16.6865L57.7868 16.7246C58.01 16.4093 58.5417 15.6876 58.6061 15.3311L58.5582 15.2627Z" fill="#F4F4F4"/>
<path d="M74.6201 8.01074C75.0326 8.16274 75.1632 8.36027 75.334 8.7334C75.1687 9.12177 74.7129 9.54926 74.665 9.71484L74.7158 9.72461C74.7541 9.6836 74.7918 9.64217 74.8301 9.60156C75.2975 9.10997 75.4538 9.00114 76.1064 8.98438C75.461 9.8905 74.9145 10.2738 74.2412 11.0684C73.3172 12.1592 72.4603 13.2981 71.4795 14.3574C71.7147 14.826 72.018 15.2835 72.29 15.7363C72.5994 16.2509 72.9273 16.8929 73.2764 17.3779C73.3632 17.43 73.4047 17.4404 73.4619 17.5176C73.8087 18.0143 74.1155 18.4883 74.4971 18.9619C74.6335 19.1404 74.7793 19.3051 74.8604 19.5117C74.8303 19.6426 74.716 19.5996 74.7324 19.7236C74.7954 20.1972 74.7132 20.1551 74.334 20.4814C74.1923 20.4608 74.0053 20.4368 73.8711 20.3945C73.4978 20.2763 73.4579 20.0365 73.0996 20.165C72.7664 20.105 70.3451 16.7699 70.0977 16.2979C69.8484 16.5983 69.5089 16.9826 69.2793 17.29C68.9844 17.6846 67.8923 19.4621 67.5215 19.6348C67.4336 19.5971 67.3519 19.5413 67.2607 19.541C67.3352 19.7629 67.3262 19.7373 67.1582 19.9258C66.9878 20.1497 66.8721 20.2983 66.6797 20.502C66.6696 20.5009 66.6595 20.5001 66.6494 20.499L66.5986 20.4922C66.2553 20.4508 65.7056 20.2507 65.3418 20.1426C65.6072 19.4846 66.6772 17.9452 67.1309 17.2969C67.6262 16.5891 68.4802 15.261 69.0059 14.6455C68.1936 13.5364 67.4855 12.3979 66.7539 11.2354C66.5995 10.9899 66.405 10.7149 66.2744 10.4609L66.2949 10.415L66.4336 10.3701L66.4531 10.3291L66.3936 10.2832C66.3043 10.3332 66.3393 10.3226 66.2373 10.3359C66.0676 10.1296 65.7222 9.33966 65.4805 9.00391C65.8476 8.89329 65.9382 8.83156 66.2314 8.60938C66.544 8.73803 66.9737 8.83352 67.2109 8.91211C68.1994 9.23956 69.9464 11.6062 70.3662 12.4736C71.0431 11.6033 72.0295 10.5851 72.7588 9.74414C73.2317 9.19843 73.9314 8.44018 74.4629 7.95703C74.5157 7.97374 74.568 7.99179 74.6201 8.01074ZM68.4082 17.1494C68.0197 17.549 67.4446 18.3955 67.1436 18.8789L67.1523 18.9424C67.4267 18.6713 68.1498 17.5971 68.4121 17.2275L68.4082 17.1494ZM73.9951 10.2646C73.4221 10.8947 72.8761 11.5487 72.3584 12.2246C72.0564 12.6258 71.7242 13.1277 71.4033 13.501L71.4082 13.5605L71.4531 13.5732C71.8221 13.1498 72.1539 12.6539 72.4932 12.2012C72.9794 11.5511 73.498 10.9254 74.0469 10.3271L74.0312 10.2773L73.9951 10.2646Z" fill="#5B3DF6"/>
<path d="M43.4073 13.7189C43.7407 13.7118 44.3257 13.9828 44.255 14.3087C43.9244 15.822 42.9991 16.7165 43.1017 18.382C44.504 17.2461 45.8244 15.8026 46.8243 14.3038C47.2834 13.6157 47.7463 13.4763 48.253 14.2736C48.1911 14.8611 48.0217 15.1797 47.8067 15.7296C47.4334 16.6849 47.1466 17.4682 47.1505 18.505C48.3162 17.8782 49.4045 16.1639 49.8624 14.9552C49.9103 14.8287 49.9967 14.5961 50.1065 14.5285L50.3009 14.5783C50.4233 14.6308 50.8547 14.8635 50.8019 15.0294C50.4465 16.1458 49.981 17.2052 49.7179 18.3556C49.6543 18.6336 49.5617 18.9662 49.2052 18.8244C49.0211 18.7496 48.8744 18.6045 48.798 18.421C48.6289 18.0036 48.7509 17.6241 48.9093 17.2374C48.3581 17.7806 47.4431 19.0155 46.6505 19.0753C45.783 19.1405 45.979 17.7702 46.0021 17.2443C45.5324 17.8075 45.0421 18.6744 44.4532 19.0216C42.3346 20.2707 40.6849 18.8838 41.8302 16.5783C42.254 15.7252 42.5857 14.7305 43.0665 13.9025C43.1013 13.8432 43.3374 13.7486 43.4073 13.7189ZM45.796 16.2072C45.5196 16.5377 43.8619 18.5344 43.9523 18.8605C44.5118 18.5571 45.5085 16.9739 45.7882 16.3341C45.806 16.2931 45.8033 16.2501 45.796 16.2072ZM45.4894 17.215C45.3963 17.3712 45.1565 17.7473 45.1319 17.9152C45.304 17.7148 45.4184 17.5658 45.5079 17.3165C45.5036 17.2879 45.4983 17.2401 45.4894 17.215Z" fill="#F4F4F4"/>
<path d="M50.5204 19.707C51.0965 19.7486 51.2152 20.007 50.9357 20.5388C50.7707 20.8529 50.4709 21.0446 50.1305 21.1398C49.3824 21.1398 49.5198 20.355 49.9029 19.9766C50.1618 19.7211 50.1673 19.7175 50.5204 19.707Z" fill="#F4F4F4"/>
<path d="M50.7969 11.1523C51.2881 11.1718 51.3928 11.2946 51.5753 11.7334C51.4214 11.9795 51.2896 12.1544 51.0908 12.363C50.3949 12.7921 50.1126 11.6431 50.7969 11.1523Z" fill="#F4F4F4"/>
<defs>
<clipPath id="clip0_394_13196">
<rect width="20.7505" height="30.93" fill="white" transform="translate(3.7793 4.53516)"/>
</clipPath>
</defs>
</svg>
